   <svg
        viewBox="0 0 122 107.657"
        xmlns="http://www.w3.org/2000/svg"
        xmlns-xlink="http://www.w3.org/1999/xlink"
        fill="none"
          >
            <defs>
              <radialGradient
                id="paint_radial_5"
                cx="0"
                cy="0"
                r="1"
                gradientUnits="userSpaceOnUse"
                gradientTransform="matrix(61,0,0,53.8284,61,53.8284)"
              >
                <stop
                  stop-color="rgb(255,116,11)"
                  offset="0.181434616"
                  stop-opacity="1"
                />
                <stop
                  stop-color="rgb(255,58,5.5)"
                  offset="0.561181426"
                  stop-opacity="1"
                />
                <stop stop-color="rgb(255,0,0)" offset="1" stop-opacity="1" />
              </radialGradient>
            </defs>
            <path
              d="M13.7352 46.051Q13.6376 46.051 13.4361 45.7764Q13.2347 45.5017 13.0882 45.1904Q12.9356 44.8792 12.9356 44.7754Q12.9356 44.6777 12.9479 44.574Q12.9601 44.4763 12.9845 44.3787Q13.0394 44.281 13.0638 44.1895Q13.0882 44.104 13.1126 44.0064L13.1126 44.104Q13.2896 44.0552 13.2896 43.9026L13.2896 43.8538L13.1371 43.9514Q13.2347 43.8538 13.2896 43.7805Q13.3629 43.6524 13.4605 43.6279Q13.5399 43.6279 13.6376 43.5242Q13.7352 43.4265 13.7901 43.3777L13.662 43.4265L14.138 43.0786L14.1625 43.103Q14.4615 42.9016 14.8644 42.804Q15.2611 42.7063 15.609 42.5537Q15.963 42.4011 16.1095 42.1265L16.1095 42.0532L16.2132 42.1021Q16.2132 41.6016 16.2987 41.0645Q16.3902 40.5274 16.5855 40.1062Q16.5855 39.9536 16.7626 39.9536Q16.8358 39.9536 16.8602 40.1184Q16.8846 40.2771 16.8846 40.3259Q16.9151 40.7288 16.8114 41.1011Q16.7626 41.3025 16.7381 41.5161Q16.7137 41.7297 16.6893 41.9556Q16.7626 41.9312 16.8236 41.919Q16.8846 41.9006 16.964 41.9006L16.964 41.9556L18.1114 41.6016L18.1114 41.6504Q18.1603 41.6809 18.1847 41.6504L18.264 41.6504L18.2152 41.6809Q18.1847 41.6809 18.1603 41.6931Q18.1358 41.7053 18.087 41.7297L18.5631 41.7297L18.4349 41.8518L18.4654 41.8518Q18.6607 41.8518 18.8622 41.7297L18.8133 41.6809L18.9903 41.626L18.6363 41.5772L18.7096 41.5283L19.0636 41.5283Q19.1612 41.5283 19.2467 41.5161Q19.3382 41.5039 19.4359 41.4795Q19.4603 41.4551 19.5885 41.4551L19.7105 41.4551Q19.8387 41.4551 20.1256 41.4795Q20.4125 41.5039 20.5101 41.5527L20.5101 41.5283L20.7848 41.5283Q21.0655 41.5283 21.1388 41.5527L21.1632 41.5283Q21.1144 41.4795 20.9496 41.4551Q20.7848 41.4307 20.8397 41.4307L21.389 41.4307L21.389 41.4551L22.6891 41.4307L22.7135 41.4795Q22.7379 41.5039 22.9637 41.5039Q23.0858 41.3025 23.2323 41.1072Q23.3849 40.9058 23.513 40.7288Q23.6351 40.5274 23.7572 40.3442Q23.8854 40.155 24.0135 39.9536Q24.8131 38.678 25.4967 37.3413Q26.1864 36.0046 26.8639 34.6558L26.7845 34.6558Q26.5404 34.6558 26.5404 34.4299Q26.5404 34.3811 26.5526 34.2957Q26.5648 34.2041 26.5892 34.1003L26.4366 34.2529Q26.4366 34.2774 26.284 34.5398Q26.1376 34.8023 25.9361 35.1563Q25.7347 35.5042 25.5699 35.7666Q25.4112 36.0291 25.3868 36.0291L25.3868 35.9802Q25.3624 35.9802 25.3624 35.9314Q25.3624 35.5774 25.6981 35.0281Q26.0399 34.4788 26.4244 33.8806Q26.815 33.2764 26.9371 32.8308L27.0897 32.3303Q27.1385 32.2022 27.1751 32.0679Q27.2118 31.9275 27.2606 31.8054Q27.5597 31.0303 27.9747 30.2918Q28.3897 29.5532 28.8109 28.8269Q28.8902 28.5767 29.1649 28.1433Q29.4396 27.7039 29.4396 27.5024Q29.4396 27.4536 29.3846 27.4536Q29.3114 27.478 29.3114 27.356Q29.3114 27.179 29.464 26.8555Q29.6349 26.4771 29.6654 26.355Q29.763 26.178 29.8607 26.0193Q29.9645 25.8545 30.0621 25.7019L30.4649 25.1526L30.2635 25.0305L30.3124 24.9756L30.2147 24.9268L30.1903 24.9756L30.2391 25.0061L30.1598 25.0061L30.1109 25.0305Q30.1109 25.0794 30.1354 25.0794Q30.1598 25.0794 30.1903 25.1038L30.1903 25.2014L30.1598 25.2258Q30.0865 25.1526 29.995 25.1038Q29.9095 25.0549 29.8119 25.0061Q29.7142 25.0061 29.6654 25.0794L29.4151 25.0061L29.4151 24.9024Q29.3602 25.0549 29.2381 25.0549Q29.0367 25.0549 28.8109 25.0427Q28.5851 25.0305 28.3897 25.0061Q28.1639 24.9756 27.9381 24.9634Q27.7123 24.9512 27.5108 24.9512L27.3399 24.9512Q27.285 24.9756 27.1629 24.9756L27.1141 25.0061L27.1141 25.0305L27.1385 25.0061L27.3888 25.0061Q27.5108 25.0061 27.5597 25.0305L27.2362 25.1526L27.3155 25.177Q26.638 25.2258 25.9117 25.3906Q25.1854 25.5554 24.5384 25.8301L24.5628 25.8545L24.2638 26.0254L24.3126 25.9277Q23.9403 26.3306 23.7022 26.4954Q23.4642 26.6541 23.3238 26.7822Q23.1896 26.9043 23.1346 27.1545Q23.0858 27.4048 23.0858 27.9785L23.0858 28.0762Q23.0858 28.1799 23.037 28.1799Q22.9393 28.1799 22.8355 27.8931Q22.7379 27.6062 22.6708 27.2827Q22.6097 26.9531 22.6097 26.8799Q22.5853 26.6541 22.6891 26.4038Q22.7379 26.3062 22.7623 26.2329Q22.7867 26.1536 22.8111 26.0803Q22.86 26.0559 22.9332 25.9949Q23.0126 25.9277 23.0126 25.8789L22.9881 25.8545L22.8905 25.9277Q22.9637 25.8545 23.037 25.7813Q23.1102 25.7019 23.1651 25.6043L23.214 25.6043Q23.2628 25.6043 23.3482 25.5188Q23.4398 25.4273 23.4642 25.3784L23.3849 25.4273L23.3605 25.4273L23.7877 25.0794L23.7877 25.1038Q24.0868 24.9024 24.4591 24.8291Q24.8375 24.7559 25.1366 24.646Q25.4356 24.53 25.515 24.231L25.5882 24.2798Q25.7896 24.2798 25.8873 24.2004Q26.0155 24.1272 26.1864 24.1272L26.2352 24.1272L26.2108 24.176L27.1874 23.9258L27.1874 23.9807L27.285 23.9807L27.1385 24.054L27.5108 24.1028L27.4132 24.176L27.462 24.2004Q27.5108 24.2004 27.6085 24.1638Q27.7123 24.1272 27.7611 24.1028L27.7367 24.054Q27.7611 24.054 27.7855 24.0418Q27.8099 24.0295 27.8648 24.0051L27.6146 23.9563L27.6634 23.9014L28.3348 23.9014Q28.463 23.9014 28.7254 23.9441Q28.9879 23.9807 29.0855 24.0784L29.0855 24.054Q29.4151 24.054 29.6105 24.1516L29.6349 24.1272L29.3846 23.9563Q29.5616 23.9807 29.7325 24.0051Q29.9095 24.0295 30.0865 24.054L30.764 24.1272Q30.7884 23.9807 30.9105 23.9319Q31.0387 23.877 31.1607 23.877Q31.6856 23.877 32.2594 24.054Q32.8392 24.231 32.8636 24.8047Q33.2359 24.8779 33.4618 25.0061Q33.6876 25.1282 33.9867 25.354Q34.2613 25.5798 34.5848 25.7263Q34.9388 25.9033 35.1891 26.1047Q35.36 26.2268 35.482 26.3916Q35.6102 26.5564 35.6102 26.7517Q35.6102 26.8555 35.537 27.1301Q35.4637 27.4048 35.3355 27.4048Q35.2867 27.4048 35.2745 27.1179Q35.2623 26.8311 35.1646 26.7761L35.1097 26.8005Q35.0365 26.7273 34.7374 26.5686Q34.4383 26.4038 34.1515 26.2451Q33.8646 26.0803 33.7608 26.001Q33.4129 25.8057 33.2115 25.8057Q33.1139 25.8301 32.9613 25.8179Q32.8148 25.8057 32.6378 25.7813Q31.8626 27.7527 30.9105 29.6814L29.0123 33.5022L27.8893 35.8032Q27.6146 36.377 27.2972 36.9446Q26.9859 37.5061 26.638 38.0798Q26.1864 38.8062 25.4967 39.7827Q24.8131 40.7532 24.0379 41.626Q24.2394 41.6504 24.4591 41.6809Q24.6849 41.7053 24.9107 41.7542L25.7652 41.9006L25.7652 41.9312Q25.8873 42.0044 26.0643 42.0044L26.3878 42.0776Q26.4855 42.1265 26.5587 42.1692Q26.638 42.2058 26.7357 42.2546Q27.0897 42.3767 27.6268 42.5293Q28.1639 42.6758 28.5851 42.9016Q29.0123 43.1274 29.0123 43.4753Q29.0367 43.5791 28.9635 43.8171Q28.8902 44.0552 28.7865 44.0552Q28.6888 44.0552 28.6217 43.7622Q28.5606 43.4753 28.463 43.4753L28.3897 43.5059Q28.2372 43.3777 27.7123 43.2129Q27.1874 43.0542 26.6502 42.9138Q26.1131 42.7795 25.9117 42.7795Q25.8385 42.7795 25.7591 42.7795Q25.6859 42.7795 25.6126 42.804L25.3136 42.804Q24.9901 42.804 24.7398 42.7185Q24.4896 42.627 24.2149 42.4561L24.2149 42.4805L24.2882 42.5781L24.1905 42.6514L24.16 42.627L24.1905 42.5781L24.1356 42.5293Q24.1112 42.5049 23.9403 42.5049Q23.7877 42.5049 23.7145 42.5293L23.4642 42.5293L23.3849 42.6025L23.3605 42.6025L23.214 42.5537Q22.9393 42.8284 22.6463 43.0664Q22.3595 43.3045 22.0848 43.5059Q22.0116 43.5547 21.7857 43.7622Q21.5599 43.9758 21.5111 44.0308Q20.9374 44.4031 20.3209 44.6899Q19.7105 44.9768 18.9598 44.9768Q17.9894 44.9768 17.2997 44.5496Q16.61 44.1284 16.3353 43.28Q16.0362 43.3777 15.7494 43.4631Q15.4625 43.5547 15.1878 43.7012L14.8399 43.9026L14.9376 43.8049Q15.0353 43.7012 14.8399 43.8782Q14.6385 44.0552 14.5104 44.104Q14.315 44.2017 14.1136 44.4031L14.315 44.2505Q14.0648 44.4519 13.8268 44.7144Q13.5887 44.9768 13.6131 45.3308L13.6864 45.6543Q13.7596 45.8008 13.7596 45.9778L13.7596 46.0266Q13.7352 46.0266 13.7352 46.051ZM22.8111 26.0803Q22.8355 26.0254 22.8355 26.001Q22.8355 25.9766 22.86 25.9522L22.86 26.001L22.8111 26.0803ZM18.911 44.5801Q19.8143 44.5801 20.5895 44.0003Q21.3646 43.4265 21.9383 42.804Q21.9872 42.804 22.1153 42.6758Q22.1642 42.627 22.2252 42.5537Q22.2862 42.4805 22.3351 42.4011L22.1153 42.3279L22.1642 42.2791L22.0604 42.2546L22.0116 42.3035L22.0848 42.3279L21.9139 42.3279Q21.9139 42.4011 22.036 42.4011L22.036 42.5049L22.0116 42.5293Q21.9872 42.4805 21.7857 42.4561Q21.6393 42.4255 21.5599 42.3523Q21.4378 42.3767 21.3646 42.4561L21.0655 42.3767L21.035 42.3279Q20.8885 42.4805 20.7848 42.4805Q20.6871 42.4805 20.3087 42.4805Q19.9364 42.4805 19.4725 42.5049Q19.0147 42.5293 18.6485 42.5537Q18.2884 42.5781 18.2152 42.627L18.2152 42.6514L18.2396 42.627L18.4654 42.627Q18.5387 42.6025 18.6852 42.6025Q18.7096 42.6025 18.7401 42.627L18.7645 42.627L18.3861 42.7551L18.4898 42.7795Q18.0626 42.8528 17.6231 42.9382Q17.1898 43.0298 16.7381 43.1519Q16.9151 43.9026 17.5377 44.2383Q18.1603 44.5801 18.911 44.5801ZM33.7125 38.8062Q33.511 38.9038 33.3951 38.7817Q33.2852 38.6536 33.389 38.5254Q33.511 38.4033 33.5355 38.3057Q33.5599 38.2019 33.5599 38.0798L33.5599 37.8784Q33.5599 37.7014 33.5904 37.677L33.7369 37.5305Q33.7613 37.4756 33.8895 37.4268L34.0115 37.0789Q33.8345 36.8774 34.0604 36.6516L34.0848 36.6272L34.0848 36.6028L34.1397 36.5295L34.2862 36.2793L34.3106 36.2305L34.3655 36.2305Q34.3106 36.1023 34.4388 35.9558Q34.4876 35.8276 34.5853 35.7056Q34.689 35.5774 34.7867 35.4309Q35.0369 35.1563 35.0613 34.9304Q35.1102 34.729 35.2872 34.5764Q35.2627 34.5764 35.2627 34.5276Q35.2627 34.5032 35.2383 34.5032Q35.2383 34.4788 35.2627 34.4544L35.2627 34.4299Q35.3116 34.3811 35.4336 34.1675Q35.5618 33.9539 35.69 33.728Q35.7388 33.6548 35.7877 33.5816Q35.8365 33.5022 35.8853 33.4045L36.0135 33.1787L35.336 32.9529Q34.8355 32.7759 34.4571 32.4646Q34.0848 32.1533 34.0848 31.5552Q34.0848 31.2805 34.2496 31.0791Q34.4144 30.8777 34.5853 30.7312Q34.689 30.6274 34.689 30.603Q34.8904 30.3528 35.0857 30.4688Q35.2872 30.5786 35.0857 30.78L34.9393 30.9753Q34.8355 31.1279 34.7378 31.2683Q34.6402 31.4026 34.6402 31.604Q34.6402 31.8543 35.0003 32.0435Q35.3604 32.2266 35.7999 32.3303Q36.2393 32.428 36.4102 32.428Q37.4356 31.0791 38.4366 29.7546Q39.4376 28.4302 40.4385 27.0813Q40.5362 26.9775 40.5362 26.7273L41.4639 25.7507Q41.5616 25.8057 41.647 25.8301Q41.7386 25.8545 41.8362 25.8789Q41.94 25.9033 42.0254 25.9277Q42.1109 25.9522 42.2147 25.9766Q42.41 26.0254 42.587 26.1047Q42.764 26.178 42.9105 26.355Q43.1851 26.6296 43.1851 27.0264Q43.1851 27.4536 42.8372 27.7527Q42.4649 28.0518 42.1902 28.3264Q42.0865 28.4058 41.9949 28.479Q41.9095 28.5523 41.8118 28.656Q41.6104 28.8513 41.3602 28.8513L41.3602 28.6804L41.4395 28.6804Q41.5372 28.5523 41.647 28.4058Q41.763 28.2532 41.8606 28.1311Q42.1109 27.8565 42.2391 27.5757Q42.1353 27.6795 42.0499 27.7527Q41.9644 27.8259 41.8606 27.9053Q41.763 27.9785 41.6714 28.0701Q41.586 28.1555 41.4883 28.2532Q41.3602 28.4302 41.0855 28.7415Q40.8108 29.0527 40.4874 29.4006Q40.2127 29.7546 39.9258 30.0293Q39.639 30.304 39.5108 30.426L39.4864 30.4504L39.5901 30.5542L39.2606 30.6763L39.285 30.7007Q39.285 30.9021 39.1568 30.9815Q39.0347 31.0547 38.9127 31.0547Q38.8638 31.2012 38.7723 31.3171Q38.6868 31.427 38.4854 31.5064Q38.5098 31.5308 38.5098 31.5796Q38.5098 31.604 38.5403 31.6284Q38.5403 31.6528 38.5648 31.6773L38.5098 31.6773L38.5098 31.7261L38.3877 31.7261Q38.3633 31.7261 38.3389 31.8298L38.4122 31.9519Q38.4366 31.9763 38.4366 32.0557Q38.7845 31.6773 39.108 31.3049Q39.4376 30.9265 39.7855 30.5298L41.1404 29.0283L41.1893 29.0283Q41.1893 29.0527 41.2137 29.0527Q41.2137 29.0772 41.2381 29.0772Q41.2381 29.2542 40.9634 29.6326Q40.6888 30.0049 40.2859 30.4443Q39.8892 30.8777 39.523 31.2805Q39.1629 31.6773 38.9615 31.9031Q38.8882 31.9763 38.7845 32.1289Q38.7112 32.2022 38.6136 32.3547L38.8394 32.3547Q39.1629 32.3547 39.4253 32.3181Q39.6878 32.2754 39.9625 32.2266Q40.0845 32.2022 40.2066 32.1655Q40.3348 32.1289 40.4629 32.1045Q40.585 32.0801 40.7071 32.0557Q40.8353 32.0313 40.9634 32.0007Q41.2625 31.9519 41.763 31.842Q42.2635 31.7261 42.4893 31.5552Q43.1363 31.3538 43.7649 31.2561Q43.7649 31.2561 43.7894 31.2439Q43.8138 31.2256 43.8626 31.2012Q43.9114 31.2012 43.9358 31.1768Q43.9847 31.1035 44.064 31.1035L44.2654 31.0303L44.4607 30.9753L44.4607 30.9509Q44.8148 30.8777 45.1382 30.7434Q45.4617 30.603 45.8096 30.4504Q46.1392 30.3284 46.4505 30.2185Q46.7618 30.1025 47.0853 30.1025L47.1646 29.9561Q47.4637 29.6509 47.836 29.6509L47.836 29.7302Q47.9398 29.8279 47.9398 29.9561Q47.9398 30.0293 47.8848 30.0293Q47.6651 30.2551 47.3904 30.2795Q47.4148 30.3284 47.4271 30.3528Q47.4393 30.3772 47.4393 30.4016Q47.4393 30.481 47.3599 30.481Q47.2623 30.5542 47.1097 30.5542Q46.9876 30.5542 46.9876 30.4016L47.0608 30.3528Q46.9144 30.3528 46.8594 30.304Q46.6885 30.7556 46.2857 30.7556L46.2369 30.9509L45.9622 30.8777Q45.8401 31.0059 45.712 31.0059Q45.6631 31.1279 45.6265 31.2195Q45.5899 31.3049 45.4373 31.3049Q45.4617 31.2805 45.4617 31.2256Q45.4373 31.2012 45.4373 31.1768Q45.2603 31.3782 45.0223 31.5308Q44.7903 31.6773 44.4607 31.6773L44.4363 31.5064L44.4119 31.5064Q44.4363 31.5308 44.4363 31.6284Q44.4363 31.7261 44.3509 31.781Q44.2654 31.8298 44.2105 31.8298Q44.1861 31.8298 44.1861 31.8054L44.1373 31.8054Q44.0152 31.9031 43.9114 31.9031Q43.8626 31.9031 43.8382 31.8787L43.7649 31.8787Q43.6368 31.9763 43.533 31.9885Q43.4354 32.0007 43.24 32.0313Q42.9105 32.0801 42.5503 32.2083Q42.1902 32.3303 41.8606 32.4524Q41.8362 32.4768 41.7386 32.4768Q41.6898 32.4768 41.6898 32.5012Q40.9146 32.9041 40.115 32.9285Q39.2606 33.0017 38.461 33.1543Q38.3877 33.1787 38.3084 33.1909Q38.2352 33.2031 38.1375 33.2031Q38.0398 33.2031 37.9605 33.2153Q37.8873 33.2275 37.814 33.252Q37.6614 33.2764 37.4356 33.49Q37.2098 33.7036 37.0084 33.9539Q36.813 34.2041 36.7154 34.3506Q36.6116 34.4544 36.4835 34.5703Q36.3614 34.6802 36.2393 34.7778Q35.9891 34.9548 35.7877 35.2295Q35.7388 35.2783 35.6595 35.3577Q35.5862 35.4309 35.5374 35.5286Q35.4153 35.7544 35.2383 35.7788Q35.2872 35.9009 35.1895 35.9558L35.1346 36.0046Q34.9148 36.2305 34.9148 36.5295Q34.8355 36.6028 34.7867 36.731L34.7623 36.8286L34.689 36.9263Q34.5608 37.1033 34.4449 37.3413Q34.335 37.5794 34.2129 37.854Q34.0848 38.1287 33.9566 38.3667Q33.8345 38.6047 33.7125 38.8062ZM32.9373 45.5505Q32.7603 45.5505 32.5467 45.4773Q32.3392 45.4041 32.211 45.2759Q32.0889 45.1294 31.8509 44.7388Q31.6128 44.3543 31.6128 44.1528Q31.6128 43.6768 31.6617 43.2251Q31.7105 42.7795 31.8143 42.3035Q31.9607 42.1814 31.9852 42.0044Q32.0096 41.8274 32.0401 41.6504Q32.2354 41.4551 32.2598 41.156Q32.2903 40.8508 32.565 40.8508L32.6138 40.802Q32.6382 40.7776 32.5894 40.6799Q32.5345 40.5518 32.5101 40.4663Q32.4856 40.3809 32.565 40.2527Q32.5894 40.2039 32.6138 40.1428Q32.6382 40.0757 32.6627 40.0513Q32.6871 40.0269 32.7359 39.8804Q32.8152 39.6057 32.8763 39.3921Q32.9373 39.1785 33.1387 38.9526Q33.2608 38.855 33.3585 38.9404Q33.4622 39.0259 33.4378 39.1541Q33.4378 39.3005 33.3646 39.4531L33.5599 39.4531Q33.4622 39.9292 33.334 40.4053Q33.212 40.8814 33.0899 41.3513Q32.7847 42.2791 32.7847 43.2556Q32.7847 44.1284 33.1387 44.8792L33.4866 44.6777L33.6148 44.4519L33.6148 44.7266L33.6636 44.8547Q33.7125 44.7266 33.8101 44.6289Q33.9139 44.5313 34.1153 44.5313L34.1397 44.7022Q34.1397 44.7754 34.1153 44.8059Q33.9627 45.1294 33.6331 45.3369Q33.3096 45.5505 32.9373 45.5505ZM41.885 30.9509Q41.7629 30.9753 41.7995 30.7556Q41.8361 30.5298 42.239 29.8035Q42.2878 29.7058 42.3 29.596Q42.3122 29.48 42.3366 29.3762Q42.4648 29.1809 42.5747 28.9429Q42.6845 28.7048 42.8127 28.5278Q42.8615 28.4546 42.8371 28.4302Q42.8127 28.4058 42.7639 28.3264Q42.8127 28.1311 43.0263 27.8076Q43.2399 27.478 43.362 27.2278Q43.4108 27.1057 43.3132 27.0569Q43.2155 27.002 43.2399 26.8799Q43.3376 26.6785 43.1484 26.5442Q42.9653 26.4038 42.9897 26.2756Q43.0141 26.2024 43.2644 26.0681Q43.5146 25.9277 43.5634 25.8789Q43.6367 25.8789 43.7343 25.8301Q43.8381 25.7813 44.0151 25.7813Q44.3386 25.7813 44.5461 25.7324Q44.7597 25.6775 44.9611 25.6043Q45.2602 25.5005 45.364 25.531Q45.4128 25.5798 45.364 25.6836Q45.3151 25.7813 45.2846 25.8301Q45.2602 25.9033 45.2602 25.9644Q45.2602 26.0254 45.187 26.1292Q45.0405 26.3794 44.9733 26.4038Q44.9123 26.4282 44.7902 26.7029Q44.7353 26.7761 44.7109 26.9165Q44.6865 27.0508 44.5888 27.1545L44.2897 27.5024Q44.2653 27.5269 44.1982 27.6062Q44.1372 27.6795 44.0883 27.7283Q44.0639 27.7771 44.0639 27.7771Q44.0639 27.7771 44.0151 27.8809Q43.8869 28.1006 43.771 28.2288Q43.6611 28.3508 43.6123 28.4302Q43.6123 28.4302 43.4902 28.656Q43.3132 28.7537 43.2644 28.8452Q43.2155 28.9307 43.0874 29.0039Q42.9348 29.126 42.8859 29.2786Q42.8371 29.303 42.9104 29.303Q42.9897 29.303 42.9897 29.3518Q42.9897 29.3518 42.9897 29.4556Q42.9897 29.5532 42.9348 29.6021Q42.9104 29.6265 42.8615 29.5776Q42.8127 29.5288 42.7639 29.5532Q42.7395 29.5532 42.7272 29.5899Q42.715 29.6265 42.6601 29.6814Q42.538 29.8523 42.5625 29.8645Q42.5869 29.8767 42.6723 29.8279Q42.7639 29.7791 42.7395 29.8035Q42.7883 29.9011 42.6113 30.1148Q42.4404 30.3284 42.3855 30.4504Q42.2878 30.603 42.1474 30.7556Q42.0131 30.9021 41.885 30.9509ZM44.9857 42.5781Q44.8637 42.5781 44.7477 42.5659Q44.6378 42.5537 44.5097 42.5293Q44.3876 42.4805 44.2594 42.4561Q44.1374 42.4255 44.0153 42.4011L44.0397 42.2791Q43.2646 42.2791 43.0021 41.9922Q42.7397 41.7053 42.7397 40.9058Q42.7397 40.8264 42.7641 40.802L42.7641 40.7288Q42.8861 40.7532 42.9594 40.7654Q43.0387 40.7776 43.0876 40.7776Q43.3378 40.7776 43.4355 40.6799Q43.588 40.6555 43.7345 40.6555Q43.8871 40.6555 44.0397 40.6311Q44.1618 40.6311 44.3083 40.6189Q44.4608 40.6006 44.589 40.5762L44.589 40.5518Q44.1618 39.7034 43.8505 39.0076Q43.5392 38.3057 43.5392 37.4512Q43.5392 36.8774 43.7467 36.4075Q43.9604 35.9314 44.0885 35.4004Q44.1374 35.2539 44.2472 35.2417Q44.3632 35.2295 44.412 35.2051Q44.5097 35.0769 44.5951 34.9793Q44.6867 34.8755 44.7904 34.7778Q44.8637 34.7046 44.9491 34.6436Q45.0346 34.5764 45.1139 34.5032L45.2848 34.3506Q45.9623 33.7769 46.8107 33.3679Q47.6652 32.9529 48.4403 32.6294L49.0873 33.0505Q49.2155 33.3008 49.3864 33.5754Q49.5634 33.8257 49.5634 34.1553L49.5634 34.2529Q49.539 34.3018 49.539 34.4055L49.3864 34.6314Q49.3864 34.6314 48.9958 34.8816Q48.6112 35.1257 48.0985 35.4309Q47.5858 35.73 47.1952 35.968Q46.8107 36.2061 46.7863 36.2061Q46.6886 36.2061 46.6886 36.1267Q46.6886 36.0535 46.9999 35.791Q47.3112 35.5286 47.7079 35.2173Q48.1107 34.906 48.4342 34.6802Q48.7638 34.4544 48.7882 34.4299Q48.0863 34.5032 47.4088 34.7168Q46.7375 34.9304 46.2126 35.3027Q46.1637 35.3272 46.06 35.3027Q45.9623 35.2783 45.9135 35.3272Q45.8402 35.376 45.8097 35.5286Q45.7853 35.6812 45.7365 35.73Q45.413 36.0535 45.2238 36.5051Q45.0346 36.9507 45.0346 37.5305Q45.0346 37.6526 45.1566 38.1165Q45.2848 38.5803 45.4862 39.1296Q45.6876 39.679 45.9135 40.0818Q46.1393 40.4785 46.3346 40.4785L46.9633 40.4785Q47.1098 40.4785 47.2624 40.4663Q47.4149 40.4541 47.5614 40.4297Q47.8361 40.3809 48.0863 40.2771Q48.6112 40.155 49.1361 40.1306Q49.3131 40.0269 49.5634 39.978Q49.6855 39.9536 49.7953 39.9536Q49.9113 39.9536 50.015 39.9292L50.1615 40.0024L50.1371 40.2283Q49.9601 40.2771 49.5695 40.4297Q49.185 40.5762 48.7943 40.7044Q48.4098 40.8264 48.2145 40.8264L48.1107 40.802Q48.0863 40.802 48.0863 40.7776L48.0619 40.7776Q47.8605 40.7776 47.6652 40.8508Q47.5614 40.9058 47.4455 40.9424Q47.3356 40.979 47.2379 41.0278Q47.0365 41.1011 46.7741 41.1682Q46.5116 41.2293 46.237 41.2048Q46.1881 41.7053 45.8708 42.1448Q45.5595 42.5781 44.9857 42.5781ZM44.4608 41.6016Q44.5402 41.6016 44.5402 41.4551Q44.5402 41.4063 44.5097 41.3208Q44.4853 41.2293 44.4364 41.2293Q44.3144 41.2293 44.1618 41.217Q44.0153 41.2048 43.8871 41.1804Q43.7345 41.156 43.5819 41.1438Q43.4355 41.1255 43.3134 41.1255L43.289 41.1255Q43.3378 41.2048 43.6125 41.3208Q43.8871 41.4307 44.1618 41.5161Q44.4364 41.6016 44.4608 41.6016ZM55.738 42.6025Q55.4634 42.6025 55.1887 42.5293Q54.7859 42.3767 54.3892 41.7053L54.5845 41.6504L54.4136 41.5283L54.2122 40.9058L54.1877 40.9058Q54.1633 40.8264 54.1633 40.6799L54.1633 40.5029Q54.1633 40.4053 54.2854 40.155Q54.4136 39.9048 54.5112 39.679L54.261 39.7278L54.261 39.6057Q54.2854 39.5813 54.3403 39.4775Q54.3647 39.4043 54.4624 39.3799Q54.4868 39.4043 54.4868 39.4531L54.5356 39.4043L54.5356 39.2761Q54.5356 39.1785 54.5479 39.0686Q54.5601 38.9526 54.6394 38.8794Q54.6394 38.7268 54.6638 38.7024L54.6882 38.6047L54.7371 38.6047L54.7371 38.501L54.8896 38.3057Q55.0117 38.1775 55.0361 38.1775L55.0361 38.1531Q55.0117 38.1775 54.9629 38.1775Q54.8652 38.1775 54.8652 38.0798Q54.8652 38.0554 54.8896 38.031L54.8896 37.9028Q54.9141 37.8784 54.9141 37.7808Q54.9141 37.677 54.8652 37.6282L55.0361 37.4268L55.1399 37.4512L55.1155 37.4268L55.1643 37.4268L55.1887 37.4024L55.262 37.1277L55.3901 37.3291L55.4634 36.9019Q55.4878 36.7798 55.5122 36.6577Q55.5366 36.5295 55.561 36.4014L55.8357 36.377L55.8357 36.1755L55.7625 36.1755L55.7625 36.0535L55.8845 35.9314L55.8845 35.9558L55.915 35.9314L55.915 35.8032L56.1348 35.6506L56.1348 35.553Q56.3118 35.4553 56.4399 35.2051Q56.5132 35.0281 56.7878 34.9793L56.6353 34.9793L56.6597 34.9548L56.562 35.0281L56.562 34.8267L56.6108 34.8267L56.6353 34.7778L56.6597 34.7778L56.7146 34.6802L56.7146 34.552Q56.8611 34.4544 57.0198 34.3079Q57.1846 34.1553 57.1846 33.9783L57.2883 33.905L57.2883 33.8013L57.386 33.8562L57.7095 33.551L57.7095 33.4534L57.9109 33.3313L58.0146 33.1787Q58.0146 33.1055 58.0879 33.1055Q58.1123 33.1055 58.1978 33.1421Q58.2893 33.1787 58.3381 33.2031L58.4846 33.2031Q58.8875 33.2031 59.2842 33.49Q59.687 33.7769 59.9617 34.1797Q60.2363 34.5764 60.2363 34.9793Q60.2363 35.1013 60.3096 35.2295Q60.3401 35.3027 60.3523 35.3821Q60.3645 35.4553 60.3645 35.553L60.3645 35.6506Q60.3645 35.7544 60.3401 35.7788Q59.9128 36.7798 59.0217 37.7075Q58.1367 38.6292 57.1846 39.1541Q56.9893 39.2517 56.739 39.3555Q56.4888 39.4531 56.2385 39.4531Q56.1653 39.4531 56.1348 39.4287L55.9639 39.3799Q56.0371 39.3555 56.1897 39.2517Q56.2385 39.2273 56.2874 39.2029Q56.3362 39.1785 56.385 39.1541L56.5376 39.0808Q56.5864 39.0808 56.6108 39.0564L56.5864 39.0259Q56.5864 38.9282 56.7146 38.9282Q56.8611 38.8306 56.9648 38.8062L57.2151 38.7268Q57.3616 38.678 57.4714 38.6414Q57.5874 38.6047 57.5874 38.501Q57.6851 38.4277 57.8376 38.1775Q58.0146 37.8784 58.0879 37.8052L58.3137 37.7564L58.564 37.3779L58.5151 37.2803L58.7104 37.1765L58.7104 37.0789L58.7654 37.0789Q59.04 36.7798 59.1987 36.5418Q59.3635 36.3037 59.4856 35.9009Q59.4856 35.8521 59.5649 35.8521L59.5649 35.8276Q59.7114 35.5286 59.7114 35.2539Q59.7114 34.6558 59.1377 34.6558Q59.0889 34.6558 59.0095 34.6314Q58.9119 34.6314 58.9119 34.6802L59.04 34.6802L58.9119 34.7778Q58.7898 34.8267 58.6738 34.9304Q58.564 35.0281 58.564 35.2051L58.4602 35.2051Q58.5151 35.2051 58.5396 35.3027Q58.3625 35.3027 58.2893 35.4004L58.4114 35.4797Q58.3625 35.5286 58.2832 35.5652Q58.21 35.6018 58.1367 35.6506Q58.0635 35.6812 57.9841 35.7178Q57.9109 35.7544 57.8621 35.8032Q57.5874 36.0046 57.5874 36.1755Q57.5874 36.2061 57.6118 36.2305Q57.6362 36.2549 57.6729 36.2793Q57.7095 36.3037 57.7644 36.3525L57.563 36.3281Q57.563 36.3281 57.5874 36.3159Q57.6118 36.3037 57.6362 36.3037Q57.5386 36.3037 57.4897 36.3281Q57.4348 36.3281 57.4897 36.377L57.5142 36.4014Q57.5142 36.4014 57.502 36.4014Q57.4897 36.4014 57.4897 36.4258Q57.4653 36.4563 57.4653 36.4807L57.4104 36.4807Q57.3127 36.6028 57.2212 36.731Q57.1357 36.853 57.0869 36.9812Q56.9893 37.2009 56.8123 37.4268L56.9893 37.5549L56.8123 37.5549L56.7146 37.6526L56.7146 37.7808L56.562 37.9028L56.6108 37.9273L56.3606 38.3545L56.2874 38.3789L56.2874 38.5803L56.0127 38.8794L56.0371 38.9771L55.9883 38.9771L55.9883 39.1541Q55.8113 39.3311 55.7625 39.6057Q55.738 39.856 55.561 40.1062L55.7136 40.1062L55.5122 40.2283L55.5122 40.3015Q55.4878 40.3259 55.4878 40.3809Q55.4878 40.4785 55.5 40.5579Q55.5122 40.6311 55.5366 40.7044Q55.561 40.7776 55.5732 40.8569Q55.5854 40.9302 55.5854 41.0278Q55.5854 41.2293 55.7502 41.5405Q55.915 41.8518 56.0859 41.8518Q56.562 41.8518 57.0381 41.6016Q57.4897 41.3269 57.9597 41.3025L58.4846 40.8814Q58.8875 40.5518 59.1865 40.1062Q59.51 39.6545 59.9128 39.3311L59.9373 39.3311L59.8884 39.2761Q59.9617 39.1785 60.1082 38.9771Q60.2607 38.7756 60.2852 38.6536Q60.3096 38.6292 60.3096 38.5559Q60.3096 38.501 60.3401 38.4766Q60.3889 38.3545 60.4866 38.3545Q60.5903 38.3545 60.5903 38.4766Q60.5903 38.5559 60.5598 38.5803Q60.5598 38.8306 60.3462 39.2944Q60.1387 39.7522 59.864 39.856L59.864 39.9292Q59.7358 40.0513 59.6138 40.2771Q59.4368 40.5029 59.1255 40.9058Q58.8142 41.3025 58.6128 41.3025L58.2649 41.5283L58.2649 41.626Q58.2649 41.7542 58.1123 41.803Q58.0146 41.9312 57.8621 41.9006Q57.7888 42.0532 57.6118 42.1021Q57.5386 42.1265 57.386 42.2302Q57.3372 42.3035 57.1479 42.3828Q56.9648 42.4561 56.8855 42.4805Q56.7634 42.5781 56.5864 42.5903Q56.4155 42.6025 56.2874 42.6025L55.738 42.6025ZM72.3605 42.8772Q71.9882 42.8772 71.7624 42.6514Q71.5365 42.4255 71.3351 42.1509Q71.3595 42.1021 71.3717 42.0776Q71.39 42.0532 71.39 42.0532Q71.39 42.0288 71.3351 41.98Q71.1398 41.626 71.0849 41.217Q71.036 40.802 71.0116 40.4297L71.0604 40.3809Q71.1154 40.0024 71.1398 39.6301Q71.1642 39.2517 71.1642 38.855Q71.1642 38.678 71.2863 38.501L71.2863 38.4766Q71.2619 38.4766 71.2619 38.4522L71.2619 38.4277Q71.2619 38.3789 71.2863 38.3789Q71.3107 38.0005 71.4389 37.6526Q71.6403 37.03 71.86 36.4441Q72.0858 35.8521 72.3605 35.1563Q72.4398 35.0769 72.3849 35.0037L72.3361 34.906Q72.3361 34.6314 72.5497 34.3079Q72.7633 33.9783 72.9098 33.7524Q72.9098 33.6304 73.0319 33.3435Q73.1601 33.0505 73.2943 32.7759Q73.4347 32.5012 73.4896 32.4524Q73.2882 32.5012 73.3249 32.4158Q73.3615 32.3303 73.4103 32.3303L73.6605 31.9519Q73.7887 31.8054 73.8131 31.5796Q73.862 31.3782 73.9352 31.1768Q74.0145 30.9753 74.2648 30.9265Q74.3136 30.8777 74.4113 30.8777Q74.6127 30.8777 74.9728 30.9937Q75.339 31.1035 75.6381 31.2805Q75.9372 31.4514 75.9372 31.6528Q75.9372 31.8787 75.7479 32.2449Q75.5648 32.605 75.339 33.0017L74.8629 33.7524Q74.6127 34.1003 74.4845 34.4055L74.4357 34.4055L74.4357 34.4788L74.2099 34.7046L74.2099 34.8023L74.1854 34.8267Q74.161 35.0037 74.1122 35.1929Q74.0634 35.376 73.9352 35.553L73.7887 35.5286Q73.6361 35.8521 73.6239 35.6812Q73.6117 35.5042 73.8131 35.1807L73.7643 35.1013Q73.6605 35.3027 73.5995 35.4675Q73.5385 35.6262 73.5629 35.8521L73.5629 35.8276L73.5873 35.8521L73.4896 35.9009L73.4103 36.1511Q73.3859 36.2305 73.3615 36.3037Q73.3371 36.377 73.3126 36.4258Q73.215 36.731 73.038 36.7798L73.0624 36.9263L72.9892 37.1521Q72.9403 37.3291 72.9647 37.3779L72.861 37.3779L72.861 37.4024L72.4887 38.031Q72.5131 38.0554 72.5131 38.1043Q72.5131 38.2507 72.3849 38.5559Q72.214 38.8794 72.1896 39.0564Q72.1652 39.1052 72.1469 39.1541Q72.1347 39.2029 72.1652 39.3005L72.1347 39.2761Q72.1347 39.3005 72.1469 39.3311Q72.1652 39.3555 72.1652 39.3555L72.1652 39.4531Q72.1652 39.7766 72.0614 40.0024Q71.9638 40.2771 71.9638 40.5762Q71.9638 40.7288 72.0126 40.9302Q72.037 41.0278 72.0492 41.1194Q72.0614 41.2048 72.0614 41.3025Q72.0614 41.4551 72.037 41.5283Q72.0126 41.5772 72.0126 41.6565Q72.0126 41.7297 72.0126 41.7786Q72.0126 41.98 72.2628 42.1936Q72.5131 42.4011 72.7145 42.4011Q73.0136 42.4011 73.1356 42.3035Q73.1845 42.2546 73.2699 42.1936Q73.3615 42.1265 73.4652 42.0776L73.5873 41.8274L73.5873 42.1265L73.5629 42.1509Q73.4347 42.4255 73.0319 42.6514Q72.6352 42.8772 72.3605 42.8772ZM59.9643 42.6758Q59.9154 42.6758 59.7934 42.6148Q59.6652 42.5537 59.6347 42.4561L59.714 42.4561Q59.7628 42.4255 59.8239 42.4011Q59.8849 42.3767 59.9154 42.3523Q59.9643 42.3279 60.0253 42.3035Q60.0863 42.2791 60.1352 42.2546Q60.3122 42.1509 60.4586 41.8518Q60.6112 41.5527 60.7211 41.217Q60.8371 40.8814 60.8859 40.7288L60.9652 40.4053Q60.9652 40.3015 60.9774 40.2283Q60.9896 40.155 61.0141 40.0757Q61.0873 39.801 61.1972 39.5508Q61.3131 39.3005 61.4352 39.0564Q61.4596 39.0015 61.4718 38.8306Q61.4901 38.6536 61.4901 38.5803Q61.4596 38.5803 61.4108 38.5254Q61.3864 38.501 61.3864 38.4766Q61.3864 38.4277 61.4108 38.4277Q61.4901 38.2507 61.6 38.0432Q61.7099 37.8296 61.9113 37.7808Q61.9601 37.6526 62.0333 37.5305Q62.1127 37.4024 62.1615 37.2803Q62.2104 37.1521 62.2836 37.0422Q62.3629 36.9263 62.4118 36.8042L62.6376 36.1267Q62.6864 35.9558 62.7475 35.791Q62.8146 35.6262 62.9123 35.4797L62.839 35.4797L62.7902 35.3272L62.8878 35.1807L62.7108 35.1257Q62.7902 35.1013 62.839 35.0525L62.839 35.0281Q62.7597 34.9548 62.7597 34.8755Q62.7597 34.8267 62.7902 34.8267Q62.839 34.729 62.8634 34.6436Q62.8878 34.552 62.9123 34.4544Q62.9611 34.2529 63.0893 34.1309L63.0404 34.1309Q63.0404 34.1553 62.9611 34.1553Q62.9123 34.1553 62.9123 34.0759Q62.9123 33.9539 62.9611 33.7952Q63.0099 33.6304 63.0648 33.5022Q63.1137 33.3313 63.1625 33.1543Q63.2113 32.9773 63.2113 32.8064Q63.2113 32.7026 63.1869 32.6538Q63.1381 32.5562 63.1381 32.4768Q63.1381 32.3792 63.2357 32.2754Q63.3151 32.2266 63.3883 32.1533Q63.2357 32.1045 63.1869 32.0557Q63.1381 31.9763 63.0099 31.9519L62.9855 31.9519L62.7353 31.9031L62.5399 31.8298Q62.4118 31.781 62.4118 31.7017Q62.4118 31.6284 62.5399 31.5796Q62.6864 31.5308 62.7108 31.5064Q63.0648 31.5796 63.6264 31.7078Q64.1879 31.8298 64.6884 32.0068Q65.1889 32.1777 65.3354 32.4036Q65.3903 32.5012 65.4025 32.5928Q65.4147 32.6782 65.4147 32.7515Q65.4147 32.9285 65.2743 33.3557Q65.14 33.7769 64.9386 34.1431Q64.7372 34.5032 64.5114 34.5764L64.5358 34.6008L64.6395 34.7778Q64.6884 34.9304 64.6884 34.9304Q64.6884 35.0037 64.6518 35.0952Q64.6151 35.1807 64.5114 35.2051L64.487 35.2295Q64.487 35.2539 64.4625 35.2783Q64.4381 35.3027 64.4381 35.3516Q64.4381 35.4309 64.4137 35.4553L64.4381 35.4553L64.4381 35.553Q64.4381 35.7056 64.2855 35.7788Q64.2611 35.9009 64.1208 36.2183Q63.9865 36.5295 63.9132 36.6028L63.8095 36.7554Q63.84 36.7798 63.84 36.8042Q63.84 36.8774 63.7851 36.8774L63.7362 36.9263Q63.7118 37.0056 63.6142 37.1033Q63.5897 37.1521 63.547 37.1887Q63.5104 37.2253 63.486 37.2803Q63.3395 37.4512 63.3883 37.6526L63.3639 37.6526Q63.3639 37.7014 63.3151 37.7564Q63.2602 37.854 63.1869 37.9822Q63.1137 38.1043 62.9855 38.1287Q62.9611 38.2263 62.9367 38.3423Q62.9123 38.4522 62.8878 38.501Q62.8634 38.5559 62.839 38.617Q62.8146 38.678 62.7902 38.7268L62.6864 38.9771Q62.5644 39.2761 62.4606 39.5935Q62.3629 39.9048 62.2653 40.2527L62.3385 40.2527Q62.3385 40.2771 62.3629 40.2771Q62.485 40.2771 62.5827 40.1184Q62.6864 39.9536 62.6376 39.801Q62.7597 39.7522 62.8146 39.679Q62.9367 39.5508 63.0099 39.5508Q63.1381 39.4287 63.2113 39.3799L63.3883 39.2029Q63.7606 38.855 64.0353 38.4033Q64.1635 38.2019 64.3222 37.9944Q64.487 37.7808 64.664 37.6038Q64.8654 37.3535 65.0729 37.1033Q65.2865 36.853 65.4635 36.5784Q65.6405 36.3037 65.8236 36.0535Q66.0128 35.8032 66.2143 35.553Q66.3852 35.3516 66.5622 35.1441Q66.7392 34.9304 66.8612 34.6802Q66.8124 34.6314 66.8124 34.5764Q66.8124 34.4544 67.0626 34.2163Q67.3129 33.9783 67.6486 33.728Q67.9904 33.4778 68.3017 33.2825Q68.6129 33.0811 68.735 33.0261Q68.8144 33.0261 69.0646 32.9529Q69.3393 32.8796 69.3881 32.8796L69.4613 32.8796Q69.4613 33.1543 69.4491 33.4045Q69.4369 33.6548 69.3637 33.8562Q69.2904 34.0759 69.1989 34.3018Q69.1134 34.5276 69.0097 34.7534Q68.8388 35.2295 68.6374 35.6506L68.4115 36.2549Q68.3627 36.4014 68.2833 36.554Q68.2101 36.7004 68.1613 36.8286L68.0636 37.0789Q68.0392 37.2009 67.9354 37.3047Q67.9354 37.3291 67.9232 37.3901Q67.911 37.4512 67.8866 37.5305Q67.9599 37.5305 68.0392 37.5061Q67.8622 37.9028 67.7829 38.1653Q67.7096 38.4277 67.6852 38.855Q67.9904 38.4522 68.3261 38.0188Q68.6618 37.5794 68.7655 37.4756Q69.0402 37.2803 69.3393 37.0056Q69.6383 36.731 69.913 36.4563Q70.0595 36.3037 70.2121 36.1572Q70.3646 36.0046 70.4867 35.8521Q70.6149 35.7056 70.7492 35.5713Q70.8895 35.4309 71.0116 35.3027Q71.1154 35.2051 71.2008 35.1074Q71.2863 35.0037 71.3595 34.906Q71.4877 34.7046 71.6891 34.5032Q71.8356 34.3506 71.9638 34.1003Q72.0126 34.0027 72.0614 33.905Q72.1103 33.8013 72.214 33.7036L72.3849 33.5266Q72.4887 33.429 72.5619 33.429Q72.6596 33.429 72.6596 33.551Q72.6596 33.8806 72.2567 34.3689Q71.86 34.8511 71.5854 35.1807Q71.4877 35.2783 71.4083 35.3943Q71.3351 35.5042 71.2619 35.6262Q71.0849 35.8765 70.8895 36.0779L70.2853 36.7554Q69.913 37.1277 69.6872 37.4512Q69.3393 37.9517 68.973 38.4644Q68.6129 38.9771 68.1613 39.4043Q67.8866 39.679 67.7218 40.0574Q67.5631 40.4297 67.4105 40.7776Q67.435 40.979 67.3861 41.1194Q67.3373 41.2537 67.0626 41.2537Q66.8124 41.2537 66.5622 41.217Q66.3119 41.1804 66.1898 40.8814Q66.1654 40.8264 66.0617 40.7288Q65.9884 40.6799 65.9884 40.5762Q65.9884 40.5518 66.0128 40.5274L66.0128 40.4785L66.1654 40.4053L66.1654 40.3809Q66.1349 40.2527 66.1227 40.1306Q66.1105 40.0024 66.1105 39.8804Q66.1105 39.6301 66.1349 39.3921Q66.1654 39.1541 66.2143 38.9038Q66.2631 38.678 66.3119 38.4399Q66.3607 38.2019 66.3852 37.9517Q66.4401 37.9517 66.3852 37.9028Q66.4401 37.4024 66.6354 36.9019Q66.8368 36.4014 67.026 35.9192Q67.2152 35.4309 67.2152 34.9793L67.2152 34.8755Q67.1359 35.0525 67.0138 35.1807Q66.965 35.2783 66.9101 35.3577Q66.8612 35.4309 66.788 35.5042L66.7147 35.553Q66.5866 35.6506 66.5377 35.8765Q66.5133 35.9802 66.4584 36.0657Q66.4096 36.1511 66.3607 36.2549Q66.3363 36.3037 66.1898 36.4563L66.1105 36.5051Q66.0373 36.554 65.9884 36.6272Q65.9396 36.7004 65.8847 36.7554Q65.7382 37.0545 65.5124 37.2803Q65.3903 37.4024 65.2743 37.5427Q65.1645 37.677 65.0363 37.8052L64.9386 37.9517Q64.8349 38.0554 64.8104 38.1287L64.5114 38.6536Q64.4625 38.7512 64.3832 38.8306Q64.31 38.9038 64.2611 38.9526Q64.0902 39.0808 63.9865 39.2517Q63.6386 39.7278 63.3883 40.1795Q63.2357 40.4297 63.0465 40.6433Q62.8634 40.8508 62.662 41.0523Q62.5644 41.156 62.485 41.2293Q62.4118 41.3025 62.3629 41.3757Q62.3141 41.4551 62.2348 41.5283Q62.1615 41.6016 62.1127 41.6504L61.6366 42.1265Q61.2399 42.4561 60.9103 42.5293Q60.5868 42.5537 60.0863 42.6758L59.9643 42.6758ZM63.0404 37.7808L63.0648 37.7808Q63.1381 37.7014 63.1625 37.6526L63.1869 37.6282L63.1381 37.5305Q63.1137 37.6038 63.0893 37.6648Q63.0648 37.7258 63.0404 37.7808ZM67.3129 39.3799Q67.3617 39.3311 67.3983 39.27Q67.435 39.2029 67.4899 39.1296Q67.4655 39.1296 67.3617 39.1785Q67.3373 39.2273 67.3129 39.2822Q67.2885 39.3311 67.3129 39.3799ZM71.9887 49.6765Q71.7141 49.6765 71.5493 49.4995Q71.3845 49.3286 71.3356 49.0784Q71.4394 48.877 71.4394 48.4802Q71.4394 48.2788 71.4394 48.114Q71.4394 47.9553 71.4638 47.8272Q71.4638 47.4793 71.5126 47.1253Q71.5615 46.7774 71.7385 46.5759Q71.8117 46.5027 71.8605 46.2769L71.885 46.0754Q71.9155 46.051 71.9155 46.0022Q71.9155 46.0022 71.9643 45.8557Q71.9643 45.7275 71.9765 45.5994Q71.9887 45.4773 72.0131 45.3796Q72.0864 45.1782 72.0376 44.9036Q72.062 44.8303 72.1108 44.6289L72.2634 44.2017Q72.2878 44.104 72.3122 44.0125Q72.3366 43.927 72.361 43.8294Q72.4404 43.6524 72.3855 43.6035L72.6113 43.3777Q72.6113 43.3533 72.5869 43.3533L72.5869 43.3045L72.5625 43.2556L72.5625 43.1763Q72.5869 43.1763 72.6113 43.1519Q72.6357 43.1274 72.715 43.1274L72.7883 43.1274L72.8127 43.0542L72.8127 43.0054Q72.6601 43.0054 72.6601 42.7795L72.6845 42.7551Q72.7395 42.6758 72.7883 42.6758Q72.8371 42.6025 72.8859 42.3767Q72.9348 42.1814 73.1118 42.1814L73.1118 42.1265Q73.1606 41.626 73.4536 41.1316Q73.7404 40.6311 73.9357 40.2283Q73.9357 40.2039 73.9602 40.2039L73.9602 40.1306L74.0883 39.856L74.2348 39.8804L74.363 39.679L74.2897 39.6057Q74.4606 39.4531 74.5705 39.2578Q74.6865 39.0564 74.8147 38.8062L75.0405 38.2263Q75.0893 38.1043 75.1381 37.9578Q75.187 37.8052 75.2358 37.6526Q75.4372 37.0789 75.6508 36.5662Q75.8645 36.0535 76.1635 35.8521Q76.2856 35.6812 76.371 35.492Q76.4626 35.3027 76.5114 35.1257L76.7373 34.3811Q76.7617 34.3262 76.7861 34.2529Q76.8105 34.1797 76.8349 34.1003L76.9631 33.7769L76.9875 33.8013L77.0363 33.7036L77.1401 33.6304Q77.1889 33.4778 77.2866 33.3435Q77.3903 33.2031 77.488 33.0811L77.4636 33.0261Q77.6101 32.8796 77.6101 32.7271Q77.6101 32.7026 77.5856 32.7026Q77.5612 32.7271 77.5368 32.7026L77.488 32.7026Q77.3354 32.7026 77.3354 32.605Q77.3354 32.5562 77.5124 32.3059Q77.5856 32.1777 77.6345 32.0923Q77.6894 32.0007 77.7138 31.9519Q77.7138 31.8054 77.9152 31.7505Q78.0373 31.5308 78.196 31.3049Q78.3608 31.0791 78.5378 30.8777Q78.7148 30.6274 78.8491 30.4321Q78.9895 30.2307 79.0383 30.0781L79.1359 30.0781L79.1115 29.9805Q79.1115 29.9011 79.1848 29.8279Q79.3129 29.8279 79.4472 29.8279Q79.5876 29.8279 79.7097 29.8523Q79.8378 29.8767 79.9477 29.8767Q80.0637 29.8767 80.1857 29.8767Q80.4848 29.9805 80.8999 30.2673Q81.3149 30.5542 81.3149 30.9021Q81.1867 31.0059 81.083 31.134Q80.9853 31.2561 80.9121 31.3782Q80.8144 31.5064 80.7106 31.6284Q80.613 31.7505 80.4848 31.8787L80.4848 32.1777L80.3872 32.1777Q80.3383 32.2022 80.2651 32.2022Q80.2102 32.2266 80.1857 32.2388Q80.1613 32.251 80.1613 32.251Q80.1613 32.251 80.1613 32.2632Q80.1613 32.2754 80.1857 32.3059L80.2102 32.3547Q80.2102 32.428 80.2346 32.4768L80.1369 32.4768Q79.9904 32.605 79.8745 32.7698Q79.7646 32.9285 79.6364 33.1299L79.6608 33.1299Q79.612 33.1787 79.551 33.2398Q79.4899 33.3008 79.5144 33.4045L78.9895 34.0271L79.0139 34.1553L78.9895 34.3506Q78.6599 34.4299 78.4646 34.8755Q78.3608 35.0281 78.2876 35.3272Q78.2631 35.4553 78.196 35.6079Q78.135 35.7544 78.0861 35.9314L78.0861 35.8521Q78.0617 35.8765 78.0617 35.9558Q78.0373 35.9802 78.0373 36.0046Q78.0373 36.0291 78.0129 36.0535Q77.9885 36.1023 77.9885 36.1694Q77.9885 36.2305 77.9641 36.2793Q77.9152 36.4014 77.7382 36.6272L77.7382 36.4563L77.6894 36.4258L77.4636 36.8042L77.2133 37.1765L77.1401 37.3535Q77.1096 37.4024 77.0852 37.4573Q77.0607 37.5061 77.0363 37.5549L76.9875 37.5549L77.0363 37.6038Q76.9631 37.677 76.9143 37.9517Q76.8654 38.2019 76.6884 38.2263L76.6884 38.3789L76.5358 38.6536L76.6152 38.7268L76.2124 38.9282L76.1879 38.8794L75.9621 39.1785Q75.7851 39.3799 75.7851 39.5264Q75.7851 39.6301 75.663 39.679Q75.5105 39.7278 75.5654 39.856L75.4616 39.9292L75.5349 40.1795L75.3151 40.2771Q75.2602 40.4297 75.2602 40.5029L75.364 40.4297L75.4128 40.6311Q75.4128 40.6555 75.4372 40.6555L75.4372 40.7288Q75.4372 40.8814 75.3396 41.0034L75.2846 41.0523Q75.2358 41.156 75.2358 41.3025L75.1381 41.2537Q75.1381 41.2781 75.0893 41.3269L75.0649 41.3513Q75.0893 41.3757 75.0893 41.4307L75.0893 41.4795Q75.0649 41.5039 75.0649 41.5283L74.9855 41.6016L75.0405 41.6016L74.6132 42.2546L74.6621 42.4011L74.5888 42.4011L74.54 42.5293L74.6621 42.5293Q74.7109 42.4561 74.7597 42.3828Q74.8147 42.3035 74.8635 42.2546L74.8635 42.1509L74.9123 42.1021L75.1381 41.7053L75.187 41.7053L75.7851 40.6311L75.7607 40.5762Q75.8095 40.5274 75.9316 40.3809Q76.0598 40.2283 76.1879 40.0757Q76.2368 40.0024 76.2978 39.9292Q76.3649 39.856 76.4138 39.801Q76.487 39.679 76.487 39.6301L77.3598 38.3545L77.3598 38.2507L77.311 38.1775L77.3598 38.2263L77.3598 38.1775L77.4392 38.2813L77.6894 37.8296L77.7138 37.8296L77.7138 37.8052Q77.7138 37.7258 77.8359 37.6282Q77.9641 37.5305 78.0617 37.4756Q78.0617 37.4268 77.9885 37.4024L78.3364 36.9507L78.4096 36.9263Q78.4646 36.9263 78.6721 36.6272Q78.8857 36.3281 78.9895 36.2305L78.9345 36.1267Q79.0627 36.0046 79.1726 35.8826Q79.2885 35.7544 79.3862 35.6506Q79.5144 35.5286 79.5998 35.4065Q79.6853 35.2783 79.789 35.1563L79.789 35.0525L79.8867 35.1013Q80.0148 34.8023 80.2651 34.6314L80.3139 34.6558L80.3139 34.6314L80.3872 34.5032Q80.436 34.3262 80.5642 34.3262L80.613 34.3262L80.79 34.1797L80.79 34.1309Q80.79 34.0271 80.9365 34.0271L80.9609 34.0271Q81.0097 34.0271 81.1379 33.905L81.1867 33.8257Q81.2355 33.7524 81.2966 33.6792Q81.3637 33.606 81.4614 33.606Q81.5346 33.5022 81.6323 33.4045Q81.736 33.3008 81.8642 33.252L82.1877 33.3557Q81.913 33.551 81.6872 33.7402Q81.4614 33.9295 81.26 34.1553Q81.2355 34.1797 81.1379 34.2285Q81.0402 34.2529 80.9853 34.3018L80.9365 34.3506Q80.9121 34.4299 80.8388 34.5032L80.8632 34.6008L80.7106 34.6008L80.5153 34.8511L80.4848 34.8511Q80.2346 35.1807 79.9111 35.5042Q79.5876 35.8032 79.3618 36.2061L79.2885 36.2061Q79.1115 36.4563 78.9223 36.7188Q78.7392 36.9812 78.5378 37.2253Q78.135 37.7014 77.7871 38.2813L77.7871 38.3057L76.0903 40.7532Q76.0354 40.8508 75.9865 40.9546Q75.9377 41.0523 75.8889 41.1804L75.7851 41.2048L75.8095 41.2293Q75.8095 41.3757 75.7607 41.4673Q75.7119 41.5527 75.6142 41.6809L75.4616 41.8274Q75.3396 41.9006 75.3151 42.0044L75.2846 42.0044Q75.1381 42.2791 74.8085 42.9016Q74.4851 43.5303 74.1127 44.2383Q73.7404 44.9524 73.4353 45.5505Q73.1606 46.106 72.8371 46.7896Q72.5136 47.4793 72.2756 48.0652Q72.0376 48.6511 72.0376 48.9258Q72.0376 49.054 72.1596 49.2554L72.3122 49.4019L72.4648 49.5056Q72.4648 49.5789 72.3855 49.5789Q72.1596 49.6765 71.9887 49.6765ZM78.8857 41.5039Q78.6599 41.5039 78.434 41.1316Q78.2143 40.7532 78.2143 40.5762Q78.2143 40.4785 78.2631 40.2771Q78.312 40.0757 78.3608 40.0024L78.3608 40.0269Q78.4096 39.978 78.4401 39.9048Q78.4646 39.8254 78.5134 39.8804L78.5622 39.7766L78.5866 39.7766Q78.6355 39.7766 78.6721 39.74Q78.7148 39.7034 78.7392 39.679L78.7636 39.679Q78.8125 39.6301 78.8125 39.5813Q78.788 39.5508 78.8613 39.502L78.8857 39.502L79.1359 39.2761L79.1115 39.2517L79.1848 39.2517L79.1848 39.2273L79.2397 39.1541L79.2885 39.1785L79.2885 39.1541L79.4899 38.9526L79.4899 38.9771L79.5144 38.9526L79.5632 38.9526L79.5632 38.9038L79.5876 38.9282L79.612 38.8306L79.6364 38.8306Q79.7097 38.7268 79.7829 38.6414Q79.8623 38.5559 79.9599 38.4522L80.2895 38.1287L80.3383 38.2507L80.3627 38.2507L80.4116 38.2019Q80.4116 38.1775 80.3627 38.1287Q80.436 38.0554 80.436 38.0005L80.5153 37.9273L80.7106 37.854L80.7106 37.8784L80.7351 37.9028Q80.7351 37.854 80.7717 37.7564Q80.8144 37.6526 80.8632 37.6526Q80.9121 37.6526 80.9121 37.7014L80.9853 37.6038Q81.0402 37.5549 81.0097 37.5305Q81.0402 37.5305 81.0769 37.5061Q81.1135 37.4756 81.0891 37.4512L81.1867 37.5549Q81.2355 37.5061 81.26 37.4695Q81.2905 37.4268 81.3149 37.4024L81.3393 37.5305L81.3637 37.5549L81.3637 37.4024L81.437 37.3535L81.3881 37.2009Q81.437 37.2009 81.437 37.1521Q81.437 37.1277 81.4858 37.1277Q81.5346 37.1277 81.5896 37.1765L81.6628 37.2559L81.6628 37.3047L81.7116 37.3047Q81.5651 37.4024 81.5346 37.5061Q81.5102 37.6038 81.3637 37.7014L81.26 37.7014L80.9853 37.9273L80.9609 37.9273L80.9609 37.9761L80.6618 38.3545Q80.5153 38.5559 80.2651 38.5559L80.2895 38.5803L80.2895 38.6047Q80.2651 38.6292 80.2651 38.6536L80.2651 38.7024Q80.2346 38.7024 80.1857 38.6536L80.1857 38.678L79.7097 39.1785L79.6608 39.1541L79.4899 39.2761L79.5144 39.3005L79.2885 39.5264L79.3374 39.6057L79.1604 39.7034L79.1604 39.801Q79.1359 39.8254 79.1359 39.8804Q79.0139 39.978 78.9223 40.1062Q78.8369 40.2283 78.788 40.3503L78.8857 40.4053Q78.9101 40.4297 78.9895 40.4297Q79.0139 40.4297 79.0139 40.3809Q79.0383 40.3503 79.0871 40.3259Q79.1359 40.3015 79.2153 40.2527Q79.3374 40.1795 79.3618 40.1795L79.3618 40.2771L79.5388 40.2039L79.4899 40.1306L79.612 40.1306Q79.6608 40.155 79.7402 40.155Q79.789 40.155 79.8378 40.1062Q79.8378 40.0513 79.8623 40.0269L79.8623 39.978L80.1125 39.8804L80.1125 39.856L80.3872 39.5508L80.4116 39.5508L80.3872 39.502L80.5153 39.502L80.6374 39.3555L80.6374 39.3311L80.6862 39.3555L80.6862 39.3005Q80.8144 39.2517 80.8144 39.1541Q80.8144 39.1052 80.79 39.0808Q80.8388 39.0259 80.9365 38.9282Q81.0402 38.8306 81.1379 38.7024Q81.3393 38.4766 81.5346 38.4766Q81.5346 38.3789 81.614 38.3545L81.614 38.3301Q81.614 38.2507 81.7727 37.9883Q81.9375 37.7258 82.1206 37.4756Q82.3098 37.2253 82.3891 37.1521L82.3891 37.1765L82.4379 37.0545L82.4624 37.0789L82.6394 36.8774L82.6149 36.731L82.6394 36.676Q82.6394 36.6272 82.7614 36.615Q82.8896 36.6028 82.9384 36.6028L82.914 36.5295Q82.7858 36.5295 82.6882 36.4258Q82.7126 36.4014 82.8347 36.4014Q82.9628 36.2549 82.9873 36.0779L83.0117 36.0779Q83.1398 35.8765 83.2131 35.6018Q83.2619 35.3272 83.4389 35.1563L83.3901 35.0769Q83.4389 34.9548 83.5122 34.8267Q83.5366 34.8267 83.5366 34.8023Q83.5366 34.7534 83.561 34.7534L83.561 34.7046Q83.561 34.5764 83.5366 34.5276Q83.5122 34.4788 83.5122 34.3811Q83.5122 33.8806 83.4511 33.5327Q83.3901 33.1787 82.8347 33.1787Q82.7614 33.1787 82.6882 33.1787Q82.6149 33.1787 82.5356 33.2031L82.2121 33.2764L82.1877 33.2764Q82.1145 33.2764 82.09 33.252L82.09 33.1543Q82.09 33.0811 82.2121 33.0811L82.3891 33.0811L82.3891 33.0017L82.4135 33.0261L82.5905 32.9041L82.7126 32.9041Q82.737 32.9041 82.7614 32.8796L82.914 32.8064L83.0605 32.8308L83.1398 32.8064L83.1398 32.8308Q83.1398 32.8064 83.2375 32.8064Q83.3352 32.8064 83.2863 32.7515Q83.4145 32.7759 83.5122 32.8064Q83.6098 32.8308 83.6647 32.8552L83.6892 32.8064L83.8845 32.9773Q83.915 33.0017 83.915 32.9529L83.915 32.9041L83.9394 32.9041Q84.1652 33.2031 84.4887 33.3801Q84.8122 33.551 84.861 34.0027Q84.8855 34.1309 84.8855 34.259Q84.8855 34.3811 84.8855 34.5032L84.8855 35.0037Q84.8855 35.8276 84.684 36.3525Q84.4887 36.8774 83.9882 37.5305Q83.9394 37.6038 83.6647 37.97Q83.3901 38.3301 83.0849 38.6658Q82.7858 39.0015 82.6638 39.0015L82.7126 39.0808Q82.5905 39.1541 82.4135 39.4043Q82.2365 39.6301 82.1145 39.679L82.1145 39.801L81.6384 40.155L81.5896 40.1062L81.3149 40.3015L81.3149 40.3259Q81.3393 40.3503 81.3881 40.3503Q81.4126 40.3503 81.4126 40.4053L81.4126 40.4297L81.1623 40.5029L81.1623 40.5274L81.0097 40.6799L81.0402 40.7532L80.7595 40.6555L80.79 40.9058L80.4848 41.0034L80.4848 41.0523Q80.1857 41.1804 80.0881 41.2781Q79.9355 41.2781 79.8867 41.3025L79.6853 41.3757L79.6608 41.3513L79.6608 41.3757L79.4106 41.3757L79.3618 41.4795L79.0139 41.4795Q78.965 41.5039 78.8857 41.5039ZM73.8869 43.8049Q74.1127 43.4509 74.363 43.0298Q74.4851 42.7795 74.6376 42.5537L74.4118 42.6758Q74.3874 42.7551 74.3386 42.8772Q74.2897 43.0054 74.2348 43.0542Q74.1127 43.0542 74.0639 42.9016L74.0395 43.1519L74.1127 43.2312Q74.1127 43.4265 74.0395 43.5547Q73.9113 43.6768 73.8869 43.8049ZM86.2374 38.8062Q86.036 38.9038 85.9201 38.7817Q85.8102 38.6536 85.914 38.5254Q86.036 38.4033 86.0604 38.3057Q86.0849 38.2019 86.0849 38.0798L86.0849 37.8784Q86.0849 37.7014 86.1154 37.677L86.2619 37.5305Q86.2863 37.4756 86.4145 37.4268L86.5365 37.0789Q86.3595 36.8774 86.5854 36.6516L86.6098 36.6272L86.6098 36.6028L86.6647 36.5295L86.8112 36.2793L86.8356 36.2305L86.8905 36.2305Q86.8356 36.1023 86.9638 35.9558Q87.0126 35.8276 87.1103 35.7056Q87.214 35.5774 87.3117 35.4309Q87.5619 35.1563 87.5863 34.9304Q87.6352 34.729 87.8122 34.5764Q87.7877 34.5764 87.7877 34.5276Q87.7877 34.5032 87.7633 34.5032Q87.7633 34.4788 87.7877 34.4544L87.7877 34.4299Q87.8366 34.3811 87.9586 34.1675Q88.0868 33.9539 88.215 33.728Q88.2638 33.6548 88.3126 33.5816Q88.3615 33.5022 88.4103 33.4045L88.5385 33.1787L87.861 32.9529Q87.3605 32.7759 86.9821 32.4646Q86.6098 32.1533 86.6098 31.5552Q86.6098 31.2805 86.7746 31.0791Q86.9394 30.8777 87.1103 30.7312Q87.214 30.6274 87.214 30.603Q87.4154 30.3528 87.6107 30.4688Q87.8122 30.5786 87.6107 30.78L87.4643 30.9753Q87.3605 31.1279 87.2628 31.2683Q87.1652 31.4026 87.1652 31.604Q87.1652 31.8543 87.5253 32.0435Q87.8854 32.2266 88.3249 32.3303Q88.7643 32.428 88.9352 32.428Q89.9606 31.0791 90.9616 29.7546Q91.9625 28.4302 92.9635 27.0813Q93.0612 26.9775 93.0612 26.7273L93.9889 25.7507Q94.0866 25.8057 94.172 25.8301Q94.2636 25.8545 94.3612 25.8789Q94.465 25.9033 94.5504 25.9277Q94.6359 25.9522 94.7396 25.9766Q94.935 26.0254 95.112 26.1047Q95.289 26.178 95.4354 26.355Q95.7101 26.6296 95.7101 27.0264Q95.7101 27.4536 95.3622 27.7527Q94.9899 28.0518 94.7152 28.3264Q94.6115 28.4058 94.5199 28.479Q94.4345 28.5523 94.3368 28.656Q94.1354 28.8513 93.8852 28.8513L93.8852 28.6804L93.9645 28.6804Q94.0622 28.5523 94.172 28.4058Q94.288 28.2532 94.3856 28.1311Q94.6359 27.8565 94.7641 27.5757Q94.6603 27.6795 94.5749 27.7527Q94.4894 27.8259 94.3856 27.9053Q94.288 27.9785 94.1964 28.0701Q94.111 28.1555 94.0133 28.2532Q93.8852 28.4302 93.6105 28.7415Q93.3358 29.0527 93.0124 29.4006Q92.7377 29.7546 92.4508 30.0293Q92.164 30.304 92.0358 30.426L92.0114 30.4504L92.1151 30.5542L91.7855 30.6763L91.81 30.7007Q91.81 30.9021 91.6818 30.9815Q91.5597 31.0547 91.4376 31.0547Q91.3888 31.2012 91.2973 31.3171Q91.2118 31.427 91.0104 31.5064Q91.0348 31.5308 91.0348 31.5796Q91.0348 31.604 91.0653 31.6284Q91.0653 31.6528 91.0897 31.6773L91.0348 31.6773L91.0348 31.7261L90.9127 31.7261Q90.8883 31.7261 90.8639 31.8298L90.9372 31.9519Q90.9616 31.9763 90.9616 32.0557Q91.3095 31.6773 91.633 31.3049Q91.9625 30.9265 92.3104 30.5298L93.6654 29.0283L93.7143 29.0283Q93.7143 29.0527 93.7387 29.0527Q93.7387 29.0772 93.7631 29.0772Q93.7631 29.2542 93.4884 29.6326Q93.2138 30.0049 92.8109 30.4443Q92.4142 30.8777 92.048 31.2805Q91.6879 31.6773 91.4865 31.9031Q91.4132 31.9763 91.3095 32.1289Q91.2362 32.2022 91.1386 32.3547L91.3644 32.3547Q91.6879 32.3547 91.9503 32.3181Q92.2128 32.2754 92.4874 32.2266Q92.6095 32.2022 92.7316 32.1655Q92.8598 32.1289 92.9879 32.1045Q93.11 32.0801 93.2321 32.0557Q93.3603 32.0313 93.4884 32.0007Q93.7875 31.9519 94.288 31.842Q94.7885 31.7261 95.0143 31.5552Q95.6613 31.3538 96.2899 31.2561Q96.2899 31.2561 96.3144 31.2439Q96.3388 31.2256 96.3876 31.2012Q96.4364 31.2012 96.4608 31.1768Q96.5097 31.1035 96.589 31.1035L96.7904 31.0303L96.9857 30.9753L96.9857 30.9509Q97.3397 30.8777 97.6632 30.7434Q97.9867 30.603 98.3346 30.4504Q98.6642 30.3284 98.9755 30.2185Q99.2868 30.1025 99.6103 30.1025L99.6896 29.9561Q99.9887 29.6509 100.361 29.6509L100.361 29.7302Q100.465 29.8279 100.465 29.9561Q100.465 30.0293 100.41 30.0293Q100.19 30.2551 99.9154 30.2795Q99.9398 30.3284 99.952 30.3528Q99.9643 30.3772 99.9643 30.4016Q99.9643 30.481 99.8849 30.481Q99.7873 30.5542 99.6347 30.5542Q99.5126 30.5542 99.5126 30.4016L99.5858 30.3528Q99.4394 30.3528 99.3844 30.304Q99.2135 30.7556 98.8107 30.7556L98.7619 30.9509L98.4872 30.8777Q98.3651 31.0059 98.237 31.0059Q98.1881 31.1279 98.1515 31.2195Q98.1149 31.3049 97.9623 31.3049Q97.9867 31.2805 97.9867 31.2256Q97.9623 31.2012 97.9623 31.1768Q97.7853 31.3782 97.5473 31.5308Q97.3153 31.6773 96.9857 31.6773L96.9613 31.5064L96.9369 31.5064Q96.9613 31.5308 96.9613 31.6284Q96.9613 31.7261 96.8759 31.781Q96.7904 31.8298 96.7355 31.8298Q96.7111 31.8298 96.7111 31.8054L96.6623 31.8054Q96.5402 31.9031 96.4364 31.9031Q96.3876 31.9031 96.3632 31.8787L96.2899 31.8787Q96.1618 31.9763 96.058 31.9885Q95.9604 32.0007 95.765 32.0313Q95.4354 32.0801 95.0753 32.2083Q94.7152 32.3303 94.3856 32.4524Q94.3612 32.4768 94.2636 32.4768Q94.2147 32.4768 94.2147 32.5012Q93.4396 32.9041 92.64 32.9285Q91.7855 33.0017 90.986 33.1543Q90.9127 33.1787 90.8334 33.1909Q90.7602 33.2031 90.6625 33.2031Q90.5648 33.2031 90.4855 33.2153Q90.4123 33.2275 90.339 33.252Q90.1864 33.2764 89.9606 33.49Q89.7348 33.7036 89.5333 33.9539Q89.338 34.2041 89.2404 34.3506Q89.1366 34.4544 89.0084 34.5703Q88.8864 34.6802 88.7643 34.7778Q88.5141 34.9548 88.3126 35.2295Q88.2638 35.2783 88.1845 35.3577Q88.1112 35.4309 88.0624 35.5286Q87.9403 35.7544 87.7633 35.7788Q87.8122 35.9009 87.7145 35.9558L87.6596 36.0046Q87.4398 36.2305 87.4398 36.5295Q87.3605 36.6028 87.3117 36.731L87.2873 36.8286L87.214 36.9263Q87.0858 37.1033 86.9699 37.3413Q86.86 37.5794 86.7379 37.854Q86.6098 38.1287 86.4816 38.3667Q86.3595 38.6047 86.2374 38.8062ZM85.4623 45.5505Q85.2853 45.5505 85.0717 45.4773Q84.8642 45.4041 84.736 45.2759Q84.6139 45.1294 84.3759 44.7388Q84.1378 44.3543 84.1378 44.1528Q84.1378 43.6768 84.1867 43.2251Q84.2355 42.7795 84.3393 42.3035Q84.4857 42.1814 84.5102 42.0044Q84.5346 41.8274 84.5651 41.6504Q84.7604 41.4551 84.7848 41.156Q84.8153 40.8508 85.09 40.8508L85.1388 40.802Q85.1632 40.7776 85.1144 40.6799Q85.0595 40.5518 85.0351 40.4663Q85.0106 40.3809 85.09 40.2527Q85.1144 40.2039 85.1388 40.1428Q85.1632 40.0757 85.1876 40.0513Q85.2121 40.0269 85.2609 39.8804Q85.3402 39.6057 85.4013 39.3921Q85.4623 39.1785 85.6637 38.9526Q85.7858 38.855 85.8834 38.9404Q85.9872 39.0259 85.9628 39.1541Q85.9628 39.3005 85.8895 39.4531L86.0849 39.4531Q85.9872 39.9292 85.859 40.4053Q85.737 40.8814 85.6149 41.3513Q85.3097 42.2791 85.3097 43.2556Q85.3097 44.1284 85.6637 44.8792L86.0116 44.6777L86.1398 44.4519L86.1398 44.7266L86.1886 44.8547Q86.2374 44.7266 86.3351 44.6289Q86.4389 44.5313 86.6403 44.5313L86.6647 44.7022Q86.6647 44.7754 86.6403 44.8059Q86.4877 45.1294 86.1581 45.3369Q85.8346 45.5505 85.4623 45.5505ZM90.2901 51.0254Q90.1131 51.0254 89.9117 50.8057Q89.7652 50.5798 89.6126 50.3784Q89.4356 50.1282 89.4356 49.8535Q90.8638 47.7539 92.5728 45.8801Q94.2879 44.0064 96.1617 42.3523Q96.8147 41.0278 97.4495 39.74Q98.0904 38.4522 98.7374 37.1521L98.1392 37.854Q97.8401 38.2263 97.5105 38.5559Q97.4129 38.6292 97.2847 38.7451Q97.1626 38.855 97.0345 38.9771L96.6377 39.4287Q96.5401 39.5264 96.4607 39.6545Q96.3875 39.7766 96.3143 39.9048Q96.2349 40.0269 96.0396 40.1795Q95.9358 40.2527 95.8382 40.332Q95.7405 40.4053 95.6124 40.5029Q95.5147 40.6006 95.3987 40.6799Q95.2889 40.7532 95.1851 40.8264Q95.0874 40.9302 94.9837 40.9912Q94.886 41.0523 94.8372 41.1011Q94.7395 41.2048 94.6236 41.2903Q94.5137 41.3757 94.3855 41.5039Q94.1353 41.7542 93.8362 41.7542Q93.3846 41.7542 93.1709 41.2659Q92.9634 40.7776 92.9634 40.3809Q92.9634 39.801 93.1893 39.2517Q93.2869 38.9771 93.3846 38.7024Q93.4883 38.4277 93.586 38.1531L94.6358 35.3516Q94.764 35.0769 94.8982 34.7778Q95.0386 34.4788 95.1851 34.1797Q95.4903 33.606 95.4903 32.9529Q95.4903 32.8796 95.5147 32.8308Q95.5147 32.8064 95.4598 32.7515Q95.3377 32.8796 95.1729 32.9956Q95.0142 33.1055 94.8372 33.2031Q94.5137 33.3801 94.2391 33.7036Q93.586 34.4788 93.0611 35.3149Q92.5362 36.1511 92.0357 37.0056Q91.9869 37.1033 91.8709 37.2315Q91.761 37.3535 91.639 37.3535Q91.4864 37.3535 91.4864 37.1765Q91.4864 36.9019 91.7854 36.4685Q92.0845 36.0291 92.1883 35.7056Q92.3103 35.4309 92.4629 35.3027Q92.5362 35.2539 92.5972 35.1685Q92.6644 35.0769 92.7132 34.9793Q92.9634 34.4544 93.4639 33.7952Q93.9644 33.1299 94.5992 32.6416Q95.24 32.1533 95.8138 32.1533Q96.3875 32.1533 96.6622 32.5562Q96.9368 32.9529 96.9368 33.4534Q96.9368 33.9539 96.8086 34.4666Q96.6866 34.9793 96.5401 35.4309Q96.5889 35.4797 96.5889 35.6262Q96.5889 35.8765 96.4363 36.0779Q96.2654 36.2793 96.2349 36.5051Q96.1373 37.03 95.9847 37.2925Q95.8382 37.5549 95.5879 37.9761Q95.6368 38.1043 95.4353 38.5315Q95.24 38.9526 95.1607 39.1296Q95.0874 39.3005 95.0386 39.4531Q94.9898 39.6057 94.9349 39.7766L94.9349 39.9048Q94.9104 39.9536 94.9104 40.0269Q94.9898 39.978 95.0508 39.9292Q95.1119 39.8804 95.1363 39.856Q95.2095 39.7766 95.295 39.7278Q95.3865 39.679 95.4903 39.6301Q95.5147 39.6057 95.5391 39.6057Q95.5635 39.6057 95.5879 39.5813Q95.6124 39.3311 95.8626 39.3311Q95.9114 39.3005 95.9603 39.2639Q96.0152 39.2273 96.064 39.2029Q96.1617 39.1052 96.2105 39.0808Q96.3143 38.8306 96.4852 38.7268Q96.5645 38.678 96.6499 38.617Q96.7354 38.5559 96.8392 38.501L97.6631 37.6526Q97.7608 37.5305 97.8218 37.4207Q97.889 37.3047 97.9134 37.2253Q97.9622 37.1033 98.3345 36.9019L98.4627 36.731L98.4627 36.554Q98.4627 36.4258 98.4871 36.3281Q98.5115 36.2305 98.6397 36.1755Q98.7862 36.1023 98.835 35.9009Q98.8899 35.6812 98.9632 35.6018L99.4148 35.0037Q99.4637 34.8755 99.4881 34.8511L99.6346 34.7046L99.6346 34.6802Q99.6346 34.6314 99.6102 34.6008Q99.5613 34.552 99.5613 34.5032Q99.5613 34.4299 99.6346 34.4299L99.7383 34.3506Q100.013 34.3811 100.373 34.4666Q100.739 34.552 100.739 34.9304Q100.739 34.9793 100.727 35.083Q100.715 35.1807 100.69 35.3027Q100.66 36.1267 100.336 36.9507Q100.159 37.3535 100.007 37.7564Q99.8604 38.1531 99.7139 38.5803Q99.5857 38.9526 99.4576 39.3311Q99.3355 39.7034 99.2134 40.1062Q99.7627 39.6301 100.361 39.2578Q100.965 38.8794 101.612 38.5559Q101.814 38.4033 102.015 38.4033Q102.113 38.4033 102.113 38.501Q102.113 38.5803 101.911 38.7024L101.637 38.9038Q101.063 39.2273 100.55 39.6057Q100.037 39.978 99.5369 40.4053Q99.3599 40.5274 99.1829 40.6799Q99.012 40.8264 98.8655 40.979Q98.7374 41.1011 98.6397 41.3025Q98.5359 41.5283 98.4139 41.7053Q98.365 41.7786 98.3101 41.8579Q98.2613 41.9312 98.2369 42.0288Q98.2124 42.2058 98.0904 42.4011Q97.9866 42.5781 97.8951 42.7307Q97.8096 42.8772 97.7364 43.0542Q97.6387 43.2007 97.5594 43.3533Q97.4861 43.5059 97.3885 43.6768Q97.3396 43.7256 97.2603 43.8232Q97.1871 43.927 97.1138 44.0796Q97.0101 44.2017 96.9612 44.3115Q96.9124 44.4275 96.8636 44.4763Q96.711 44.751 96.5462 44.9524Q96.3875 45.1538 96.2898 45.1538L96.2105 45.1538Q96.2105 45.0806 96.2654 44.9768Q96.2898 44.928 96.3143 44.867Q96.3387 44.8059 96.3631 44.751Q96.5645 44.4275 96.8514 43.9514Q97.1382 43.4753 97.1382 43.28Q97.1382 43.2312 97.0894 43.2312L96.888 43.5303Q96.6866 43.6524 96.6133 43.8538L96.3875 44.2261L95.4903 45.6543Q95.5147 45.6787 95.5147 45.7275Q95.5147 45.8008 95.4903 45.8313Q95.4598 45.8557 95.4598 45.8801Q95.4598 45.9045 95.4353 45.929L95.3865 45.9778Q95.2889 46.0754 95.2889 46.2524L95.2889 46.2769Q95.3133 46.3013 95.3133 46.3257Q95.3133 46.4295 95.2095 46.4539Q95.063 46.5027 95.063 46.5027L95.0142 46.5271Q94.9654 46.6797 94.8372 46.8018Q94.7884 46.9299 94.648 47.1497Q94.5137 47.3755 94.3611 47.3511Q94.1109 47.6563 93.8851 48.0042Q93.6653 48.3521 93.5127 48.7305Q93.5127 48.7549 93.5372 48.7793L93.5372 48.8281Q93.5372 48.9258 93.4151 48.9258L93.3357 48.9258L93.2625 48.9014L93.2381 48.877Q93.2137 48.877 93.1893 48.8525Q93.1404 49.1272 92.9146 49.231Q92.8353 49.3774 92.7132 49.4263Q92.6155 49.4507 92.4629 49.6033L92.4385 49.6033Q92.3897 49.7009 92.2615 49.7986Q92.1395 49.9024 92.0357 49.9268L92.0113 49.9512L91.9624 49.9512L91.9136 49.9756Q91.8404 50.1038 91.6756 50.2014Q91.5108 50.3052 91.3887 50.354Q91.3155 50.4761 91.1019 50.6897Q90.8882 50.9033 90.7601 50.9033L90.6624 50.9033Q90.461 51.0254 90.2901 51.0254ZM90.5647 49.8535Q90.7112 49.8047 90.8577 49.7498Q91.0103 49.7009 91.1385 49.5789Q91.3643 49.3774 91.8099 48.8892Q92.2615 48.4009 92.762 47.8027Q93.2625 47.2046 93.6653 46.7285Q94.0132 46.2524 94.4222 45.6909Q94.8372 45.1294 95.1607 44.6167Q95.4903 44.104 95.5391 43.8294Q95.1607 44.2017 94.8128 44.5618Q94.4649 44.928 94.0865 45.2759Q93.3113 46.0266 92.585 46.8506Q92.1639 47.3511 91.7854 47.876Q91.4131 48.4009 91.0652 48.9258Q90.9126 49.1516 90.7601 49.353Q90.5647 49.5789 90.5403 49.8291Q90.5647 49.8291 90.5647 49.8535ZM33.7633 78.627Q33.4154 78.627 33.1652 78.2913Q32.9149 77.9556 32.9149 77.626Q32.9149 77.5283 32.9272 77.4429Q32.9394 77.3513 32.9638 77.2537Q33.0126 77.156 33.037 77.0706Q33.0614 76.979 33.0858 76.8814L33.1652 76.4297L33.2628 76.0269Q33.3361 75.7766 33.4887 75.3189Q33.6352 74.855 33.8 74.4277Q33.9647 74.0005 34.0136 73.8784Q34.2638 73.2559 34.6605 72.6272Q34.8376 72.3281 34.9962 72.0169Q35.161 71.7056 35.3136 71.376Q35.3625 71.2539 35.4479 71.1196Q35.5395 70.9793 35.6371 70.8511Q35.7348 70.729 35.808 70.6069Q35.8874 70.4788 35.985 70.3506Q36.0155 70.3018 36.0277 70.2774Q36.0399 70.2529 36.0399 70.2285L36.0399 70.2041Q36.0399 70.2285 36.0644 70.2285Q36.1132 69.905 36.2475 69.6548Q36.3878 69.4045 36.5648 69.1787Q36.7602 68.8796 36.9738 68.6172Q37.1874 68.3547 37.3095 68.2022Q37.5109 67.9275 37.5475 67.4026Q37.5902 66.8777 37.7367 66.6763L38.1151 66.304L38.463 65.9255Q38.5607 65.8279 38.6339 65.718Q38.7133 65.6021 38.7865 65.5044Q38.8903 65.2786 39.0612 65.0772Q39.2382 64.8757 39.4091 64.6926Q39.5861 64.5034 39.7631 64.3264Q39.8607 64.2044 39.9462 64.0945Q40.0377 63.9785 40.111 63.8565Q40.1903 63.7283 40.2758 63.6184Q40.3612 63.5024 40.465 63.4048Q40.8129 62.9775 41.2096 62.6174Q41.6125 62.2512 42.0397 61.8789Q42.235 61.7019 42.4486 61.5066Q42.6623 61.3052 42.8881 61.1038Q43.3397 60.6521 43.8097 60.4812L44.3896 60.2554Q44.5116 60.2004 44.6459 60.1516Q44.7863 60.1028 44.9145 60.0051Q45.0854 60.0784 45.421 60.2432Q45.7628 60.4019 46.0375 60.6155Q46.3122 60.8291 46.3122 61.0549Q46.3122 61.1526 46.2389 61.2808Q46.1352 61.4517 45.6713 61.6409Q45.2135 61.8301 45.0121 61.9522Q44.713 62.1292 44.4872 62.4038Q44.3651 62.5259 44.2126 62.6296Q44.06 62.7273 43.8891 62.8311L43.8402 62.8311Q43.6876 62.9775 43.3886 63.1545L42.8881 63.4292Q42.7904 63.478 42.7477 63.5147Q42.7111 63.5513 42.6867 63.5757Q42.6623 63.6062 42.6378 63.6672Q42.6134 63.7283 42.5646 63.8259Q42.5646 63.8565 42.5402 63.8565Q42.5097 63.8565 42.5097 63.8809L42.4364 63.9297L42.412 63.9541L42.5646 63.9297L42.589 64.0518Q42.589 64.1311 42.5097 64.1311Q42.3388 64.302 42.174 64.4424Q42.0153 64.5767 41.8383 64.7537L41.1608 65.4312Q40.9899 65.6021 40.8861 65.8279Q40.7397 66.0781 40.5138 66.127L40.5138 66.1514Q40.5138 66.4016 40.1354 66.7434Q39.7631 67.0791 39.4884 67.3538Q39.3358 67.4514 39.287 67.5796L39.2626 67.5796L39.2626 67.604Q39.2626 67.8054 39.0368 68.0923Q38.8109 68.3792 38.5363 68.3792L38.5363 68.0007L38.6095 67.9519Q38.7133 67.9275 38.7377 67.8543L38.8903 67.8543L38.9147 67.8298L38.8903 67.8298Q39.1894 67.3294 39.1222 67.2805Q39.0612 67.2256 38.7987 67.488Q38.5363 67.7505 38.2006 68.2022Q37.8649 68.6538 37.6147 69.1543Q37.5902 69.4534 37.2851 69.7524Q37.0348 70.0515 36.8395 70.3506L36.8395 70.3811Q36.6625 70.7046 36.4855 70.9915Q36.3146 71.2783 36.1376 71.553Q35.9606 71.8276 35.808 72.0901Q35.6615 72.3525 35.5395 72.6272Q35.2648 73.1521 35.0268 73.7441Q34.7887 74.3301 34.5385 75.0808L34.0868 76.5029Q33.9892 76.8508 33.8976 77.2415Q33.8122 77.626 33.7877 78.0288Q33.8122 77.98 33.8488 77.9434Q33.8854 77.9006 33.9098 77.8518L34.0624 77.626Q34.1845 77.4307 34.3065 77.217Q34.4347 77.0034 34.5629 76.7776Q34.685 76.5762 34.8376 76.3809Q34.9901 76.1795 35.1122 76.0024Q35.3869 75.6545 35.4845 75.6545Q35.5639 75.6545 35.5639 75.7278Q35.5639 75.8254 35.3258 76.2771Q35.0878 76.7288 34.7582 77.2781Q34.4347 77.8274 34.1479 78.2302Q33.861 78.627 33.7633 78.627ZM41.5392 64.6804Q41.6369 64.6255 41.7223 64.5523Q41.8139 64.479 41.8871 64.4302Q42.0397 64.302 42.0397 64.2532L41.9604 64.1311Q41.8383 64.2288 41.6979 64.3814Q41.5636 64.5278 41.5392 64.6804ZM41.0631 64.9551Q41.1608 64.9063 41.2829 64.8452Q41.411 64.7781 41.5392 64.7048L41.3378 64.656L41.0631 64.9551ZM41.2401 80.8792Q40.7397 80.8792 40.3856 80.5801Q40.0377 80.281 39.7387 79.927Q39.5861 79.7805 39.5128 79.7256Q39.3847 79.6524 39.3847 79.4509L39.5128 79.4021L39.5128 79.3777Q39.0612 78.7795 38.9635 78.0532Q38.8903 77.6809 38.7987 77.3208Q38.7133 76.9546 38.6095 76.6311L38.6645 76.6311L38.64 76.6006Q38.5851 76.4541 38.5851 76.3259L38.5851 76.0757Q38.5851 75.7766 38.6095 75.7034Q38.5851 75.7278 38.5119 75.7278L38.4875 75.7278L38.4875 75.679L38.4386 75.679Q38.463 75.6057 38.463 75.4531L38.463 75.2761Q38.463 75.2029 38.4508 74.8672Q38.4386 74.5254 38.402 74.1043Q38.3654 73.677 38.286 73.3779Q38.2128 73.0789 38.0846 73.0789Q38.0358 73.0789 37.81 73.3047Q37.5902 73.5305 37.3095 73.8174Q37.0348 74.1043 36.8212 74.3423Q36.6137 74.5803 36.5893 74.6292Q36.4367 74.7756 36.3085 74.8916Q36.1864 75.0015 36.0399 75.1052L36.0399 74.8794Q36.1132 74.7512 36.1864 74.6414Q36.2597 74.5254 36.3146 74.4033Q36.3634 74.2813 36.4367 74.1592Q36.5099 74.031 36.5893 73.9273Q36.6625 73.8296 36.7357 73.7441Q36.8151 73.6526 36.9127 73.5549Q36.986 73.4756 37.0592 73.4024Q37.1386 73.3291 37.1874 73.2253Q37.3644 73.0545 37.4865 72.8042Q37.6147 72.554 37.7855 72.377Q37.987 72.1023 38.3959 71.6567Q38.8109 71.2051 39.0856 71.1257L39.6898 70.9793L39.8119 70.9793Q39.8363 71.0769 39.8852 71.2051Q39.9401 71.3272 39.9889 71.5042Q40.0866 71.8032 40.0866 72.0291Q40.0866 72.4563 40.0988 72.8713Q40.111 73.2803 40.111 73.7014L40.111 75.6301Q40.111 75.7278 40.0622 75.8804Q40.0866 75.9536 40.0988 76.0147Q40.111 76.0757 40.111 76.155L40.1354 76.155L40.1354 76.1795L40.288 76.1306Q40.288 76.5762 40.3002 76.9302Q40.3124 77.2781 40.5138 77.7053Q40.5871 77.7786 40.5871 77.8518Q40.5871 77.9006 40.5382 77.9006L40.5382 77.9556L40.3856 77.9556Q40.3612 77.9556 40.3124 78.0044L40.288 78.0044Q40.288 78.1265 40.3124 78.1509L40.3124 78.3035L40.5138 78.1814Q40.5871 78.8528 40.9472 79.4021Q41.3134 79.9514 41.9604 79.9514L42.0641 79.9514Q42.0885 79.927 42.1374 79.927L42.3876 79.7805Q42.4608 79.7256 42.5341 79.6646Q42.6134 79.6035 42.7111 79.5547Q42.8637 79.4265 42.9857 79.2739Q43.1139 79.1274 43.1139 78.7551Q43.1627 78.9016 43.1872 78.9871Q43.2116 79.0786 43.236 79.1274L43.236 79.2007Q43.236 79.3777 43.1322 79.512Q43.0346 79.6524 42.9369 79.7805Q42.6378 80.2017 42.2106 80.5374Q41.7895 80.8792 41.2401 80.8792ZM35.6127 75.502Q35.515 75.502 35.515 75.4043Q35.515 75.3555 35.6005 75.209Q35.6859 75.0564 35.8141 75.0564Q35.9118 75.0564 35.9118 75.2273Q35.9118 75.502 35.6127 75.502ZM44.113 78.6025Q43.8384 78.6025 43.5637 78.5293Q43.1609 78.3767 42.7642 77.7053L42.9595 77.6504L42.7886 77.5283L42.5872 76.9058L42.5627 76.9058Q42.5383 76.8264 42.5383 76.6799L42.5383 76.5029Q42.5383 76.4053 42.6604 76.155Q42.7886 75.9048 42.8862 75.679L42.636 75.7278L42.636 75.6057Q42.6604 75.5813 42.7153 75.4775Q42.7397 75.4043 42.8374 75.3799Q42.8618 75.4043 42.8618 75.4531L42.9106 75.4043L42.9106 75.2761Q42.9106 75.1785 42.9229 75.0686Q42.9351 74.9526 43.0144 74.8794Q43.0144 74.7268 43.0388 74.7024L43.0632 74.6047L43.1121 74.6047L43.1121 74.501L43.2647 74.3057Q43.3867 74.1775 43.4111 74.1775L43.4111 74.1531Q43.3867 74.1775 43.3379 74.1775Q43.2402 74.1775 43.2402 74.0798Q43.2402 74.0554 43.2647 74.031L43.2647 73.9028Q43.2891 73.8784 43.2891 73.7808Q43.2891 73.677 43.2402 73.6282L43.4111 73.4268L43.5149 73.4512L43.4905 73.4268L43.5393 73.4268L43.5637 73.4024L43.637 73.1277L43.7651 73.3291L43.8384 72.9019Q43.8628 72.7798 43.8872 72.6577Q43.9116 72.5295 43.936 72.4014L44.2107 72.377L44.2107 72.1755L44.1375 72.1755L44.1375 72.0535L44.2595 71.9314L44.2595 71.9558L44.29 71.9314L44.29 71.8032L44.5098 71.6506L44.5098 71.553Q44.6868 71.4553 44.8149 71.2051Q44.8882 71.0281 45.1628 70.9793L45.0103 70.9793L45.0347 70.9548L44.937 71.0281L44.937 70.8267L44.9858 70.8267L45.0103 70.7778L45.0347 70.7778L45.0896 70.6802L45.0896 70.552Q45.2361 70.4544 45.3948 70.3079Q45.5596 70.1553 45.5596 69.9783L45.6633 69.905L45.6633 69.8013L45.761 69.8562L46.0845 69.551L46.0845 69.4534L46.2859 69.3313L46.3897 69.1787Q46.3897 69.1055 46.4629 69.1055Q46.4873 69.1055 46.5728 69.1421Q46.6643 69.1787 46.7131 69.2031L46.8596 69.2031Q47.2625 69.2031 47.6592 69.49Q48.062 69.7769 48.3367 70.1797Q48.6113 70.5764 48.6113 70.9793Q48.6113 71.1013 48.6846 71.2295Q48.7151 71.3027 48.7273 71.3821Q48.7395 71.4553 48.7395 71.553L48.7395 71.6506Q48.7395 71.7544 48.7151 71.7788Q48.2878 72.7798 47.3967 73.7075Q46.5117 74.6292 45.5596 75.1541Q45.3643 75.2517 45.114 75.3555Q44.8638 75.4531 44.6135 75.4531Q44.5403 75.4531 44.5098 75.4287L44.3389 75.3799Q44.4121 75.3555 44.5647 75.2517Q44.6135 75.2273 44.6624 75.2029Q44.7112 75.1785 44.76 75.1541L44.9126 75.0808Q44.9614 75.0808 44.9858 75.0564L44.9614 75.0259Q44.9614 74.9282 45.0896 74.9282Q45.2361 74.8306 45.3398 74.8062L45.5901 74.7268Q45.7366 74.678 45.8464 74.6414Q45.9624 74.6047 45.9624 74.501Q46.0601 74.4277 46.2127 74.1775Q46.3897 73.8784 46.4629 73.8052L46.6887 73.7564L46.939 73.3779L46.8901 73.2803L47.0855 73.1765L47.0855 73.0789L47.1404 73.0789Q47.415 72.7798 47.5737 72.5418Q47.7385 72.3037 47.8606 71.9009Q47.8606 71.8521 47.9399 71.8521L47.9399 71.8276Q48.0864 71.5286 48.0864 71.2539Q48.0864 70.6558 47.5127 70.6558Q47.4639 70.6558 47.3845 70.6314Q47.2869 70.6314 47.2869 70.6802L47.415 70.6802L47.2869 70.7778Q47.1648 70.8267 47.0488 70.9304Q46.939 71.0281 46.939 71.2051L46.8352 71.2051Q46.8901 71.2051 46.9146 71.3027Q46.7376 71.3027 46.6643 71.4004L46.7864 71.4797Q46.7376 71.5286 46.6582 71.5652Q46.585 71.6018 46.5117 71.6506Q46.4385 71.6812 46.3591 71.7178Q46.2859 71.7544 46.2371 71.8032Q45.9624 72.0046 45.9624 72.1755Q45.9624 72.2061 45.9868 72.2305Q46.0112 72.2549 46.0479 72.2793Q46.0845 72.3037 46.1394 72.3525L45.938 72.3281Q45.938 72.3281 45.9624 72.3159Q45.9868 72.3037 46.0112 72.3037Q45.9136 72.3037 45.8647 72.3281Q45.8098 72.3281 45.8647 72.377L45.8892 72.4014Q45.8892 72.4014 45.877 72.4014Q45.8647 72.4014 45.8647 72.4258Q45.8403 72.4563 45.8403 72.4807L45.7854 72.4807Q45.6877 72.6028 45.5962 72.731Q45.5107 72.853 45.4619 72.9812Q45.3643 73.2009 45.1873 73.4268L45.3643 73.5549L45.1873 73.5549L45.0896 73.6526L45.0896 73.7808L44.937 73.9028L44.9858 73.9273L44.7356 74.3545L44.6624 74.3789L44.6624 74.5803L44.3877 74.8794L44.4121 74.9771L44.3633 74.9771L44.3633 75.1541Q44.1863 75.3311 44.1375 75.6057Q44.113 75.856 43.936 76.1062L44.0886 76.1062L43.8872 76.2283L43.8872 76.3015Q43.8628 76.3259 43.8628 76.3809Q43.8628 76.4785 43.875 76.5579Q43.8872 76.6311 43.9116 76.7044Q43.936 76.7776 43.9482 76.8569Q43.9605 76.9302 43.9605 77.0278Q43.9605 77.2293 44.1252 77.5405Q44.29 77.8518 44.4609 77.8518Q44.937 77.8518 45.4131 77.6016Q45.8647 77.3269 46.3347 77.3025L46.8596 76.8814Q47.2625 76.5518 47.5615 76.1062Q47.885 75.6545 48.2878 75.3311L48.3123 75.3311L48.2634 75.2761Q48.3367 75.1785 48.4832 74.9771Q48.6357 74.7756 48.6602 74.6536Q48.6846 74.6292 48.6846 74.5559Q48.6846 74.501 48.7151 74.4766Q48.7639 74.3545 48.8616 74.3545Q48.9653 74.3545 48.9653 74.4766Q48.9653 74.5559 48.9348 74.5803Q48.9348 74.8306 48.7212 75.2944Q48.5137 75.7522 48.239 75.856L48.239 75.9292Q48.1108 76.0513 47.9888 76.2771Q47.8118 76.5029 47.5005 76.9058Q47.1892 77.3025 46.9878 77.3025L46.6399 77.5283L46.6399 77.626Q46.6399 77.7542 46.4873 77.803Q46.3897 77.9312 46.2371 77.9006Q46.1638 78.0532 45.9868 78.1021Q45.9136 78.1265 45.761 78.2302Q45.7122 78.3035 45.523 78.3828Q45.3398 78.4561 45.2605 78.4805Q45.1384 78.5781 44.9614 78.5903Q44.7905 78.6025 44.6624 78.6025L44.113 78.6025ZM52.5873 77.0034Q52.5141 77.0034 52.4652 76.9546Q52.4347 76.979 52.3126 76.979Q51.9892 76.979 51.6596 76.5274Q51.3361 76.0757 51.3361 75.7522Q51.3361 75.1785 51.6352 74.5559L52.1845 73.4024Q52.3371 73.1033 52.3371 73.0056Q52.3371 73.0056 52.215 72.8042L52.0868 72.676Q52.038 72.6272 52.0014 72.5906Q51.9647 72.554 51.9098 72.5051Q51.7633 72.3281 51.6107 72.1023Q51.4643 71.8765 51.4154 71.5774Q51.3605 71.6262 51.1835 71.9558Q51.0126 72.2793 50.8356 72.5784Q50.6647 72.8774 50.5609 72.8774Q50.5121 72.8774 50.4877 72.853Q50.4633 72.8286 50.4145 72.8286Q50.3595 72.8286 50.2863 73.03Q50.1886 73.1765 50.0116 73.4695Q49.8346 73.7564 49.6576 74.0066Q49.4867 74.2507 49.3402 74.2507Q49.2365 74.2507 49.2365 74.1531Q49.2365 74.0798 49.3341 73.8662Q49.4379 73.6526 49.5722 73.439Q49.7126 73.2253 49.7614 73.1765Q50.0605 72.7554 50.2619 72.4319Q50.4633 72.1023 50.6403 71.7544Q50.7868 71.4309 50.9455 71.0952Q51.1103 70.7534 51.3361 70.3262Q51.3849 69.9783 51.4887 69.606Q51.861 68.4768 52.3737 67.6406Q52.8864 66.8045 53.6615 65.9255Q53.8385 65.7546 54.0766 65.4922Q54.3146 65.2297 54.5648 65.0039Q54.8151 64.7781 54.986 64.7781Q55.1386 64.7781 55.34 64.9063Q55.4376 64.9551 55.5109 65.0039Q55.5902 65.0527 55.6635 65.1016L56.164 65.3762Q56.4386 65.5288 56.4386 65.8523Q56.4386 65.9805 56.4142 66.0049Q56.3349 66.2795 55.9198 66.5908Q55.5109 66.9021 55.0226 67.2317Q54.5404 67.5552 54.2353 67.8543Q53.7897 68.251 53.4601 68.7515Q53.1366 69.252 52.862 69.8257Q52.8376 69.9295 52.8009 70.0027Q52.7643 70.0759 52.7399 70.1797Q52.7155 70.3506 52.6117 70.5764Q52.5873 70.6314 52.5629 70.6924Q52.5385 70.7534 52.5385 70.8267Q52.5385 70.9548 52.5629 71.0037Q52.5873 71.0769 52.5873 71.2051Q52.5873 71.3516 52.5629 71.4004Q52.5385 71.4797 52.5385 71.6262Q52.5385 71.9009 52.8131 72.1389Q53.0878 72.377 53.3502 72.6516Q53.6127 72.9263 53.6127 73.2803Q53.6127 73.5794 53.4113 74.0066Q53.2099 74.4277 52.9596 74.855Q52.7155 75.2761 52.5629 75.6301L52.4347 75.9292L52.3859 76.1062Q52.3859 76.155 52.4103 76.155L52.4652 76.2283Q52.685 76.2283 53.0817 75.9048Q53.4845 75.5813 53.8874 75.1968Q54.2902 74.8062 54.4367 74.6536Q54.7357 74.3301 54.986 73.97Q55.2362 73.6038 55.4621 73.2253Q55.5109 73.1033 55.6208 72.9446Q55.7367 72.7798 55.8649 72.7798Q56.0114 72.7798 56.0114 72.9507Q56.0114 73.1033 55.7489 73.5427Q55.4865 73.9761 55.1874 74.4033Q54.8883 74.8306 54.7602 74.9526L54.7357 75.0015L54.7357 75.0259Q54.6625 75.2029 54.5099 75.2517Q54.4855 75.2761 54.4367 75.3799Q54.3878 75.4775 54.3634 75.502Q54.3634 75.5508 54.2902 75.6057L54.1864 75.6301Q54.162 75.7278 54.0399 75.801L53.8874 75.9536Q53.8629 75.9536 53.8629 75.978Q53.8629 76.0024 53.8385 76.0024Q53.8141 76.155 53.6371 76.155Q53.5883 76.2527 53.4967 76.4053Q53.4113 76.5518 53.2892 76.5518Q53.161 76.7288 52.9596 76.7288Q52.9352 76.7532 52.9352 76.802Q52.9352 76.8264 52.9108 76.8508Q52.862 76.979 52.685 76.979Q52.6605 77.0034 52.5873 77.0034ZM55.938 78.6025Q55.6634 78.6025 55.3887 78.5293Q54.9859 78.3767 54.5892 77.7053L54.7845 77.6504L54.6136 77.5283L54.4122 76.9058L54.3877 76.9058Q54.3633 76.8264 54.3633 76.6799L54.3633 76.5029Q54.3633 76.4053 54.4854 76.155Q54.6136 75.9048 54.7112 75.679L54.461 75.7278L54.461 75.6057Q54.4854 75.5813 54.5403 75.4775Q54.5648 75.4043 54.6624 75.3799Q54.6868 75.4043 54.6868 75.4531L54.7356 75.4043L54.7356 75.2761Q54.7356 75.1785 54.7479 75.0686Q54.7601 74.9526 54.8394 74.8794Q54.8394 74.7268 54.8638 74.7024L54.8882 74.6047L54.9371 74.6047L54.9371 74.501L55.0897 74.3057Q55.2117 74.1775 55.2361 74.1775L55.2361 74.1531Q55.2117 74.1775 55.1629 74.1775Q55.0652 74.1775 55.0652 74.0798Q55.0652 74.0554 55.0897 74.031L55.0897 73.9028Q55.1141 73.8784 55.1141 73.7808Q55.1141 73.677 55.0652 73.6282L55.2361 73.4268L55.3399 73.4512L55.3155 73.4268L55.3643 73.4268L55.3887 73.4024L55.462 73.1277L55.5901 73.3291L55.6634 72.9019Q55.6878 72.7798 55.7122 72.6577Q55.7366 72.5295 55.761 72.4014L56.0357 72.377L56.0357 72.1755L55.9625 72.1755L55.9625 72.0535L56.0845 71.9314L56.0845 71.9558L56.115 71.9314L56.115 71.8032L56.3348 71.6506L56.3348 71.553Q56.5118 71.4553 56.6399 71.2051Q56.7132 71.0281 56.9878 70.9793L56.8353 70.9793L56.8597 70.9548L56.762 71.0281L56.762 70.8267L56.8108 70.8267L56.8353 70.7778L56.8597 70.7778L56.9146 70.6802L56.9146 70.552Q57.0611 70.4544 57.2198 70.3079Q57.3846 70.1553 57.3846 69.9783L57.4883 69.905L57.4883 69.8013L57.586 69.8562L57.9095 69.551L57.9095 69.4534L58.1109 69.3313L58.2147 69.1787Q58.2147 69.1055 58.2879 69.1055Q58.3123 69.1055 58.3978 69.1421Q58.4893 69.1787 58.5381 69.2031L58.6846 69.2031Q59.0875 69.2031 59.4842 69.49Q59.887 69.7769 60.1617 70.1797Q60.4363 70.5764 60.4363 70.9793Q60.4363 71.1013 60.5096 71.2295Q60.5401 71.3027 60.5523 71.3821Q60.5645 71.4553 60.5645 71.553L60.5645 71.6506Q60.5645 71.7544 60.5401 71.7788Q60.1128 72.7798 59.2217 73.7075Q58.3367 74.6292 57.3846 75.1541Q57.1893 75.2517 56.939 75.3555Q56.6888 75.4531 56.4385 75.4531Q56.3653 75.4531 56.3348 75.4287L56.1639 75.3799Q56.2371 75.3555 56.3897 75.2517Q56.4385 75.2273 56.4874 75.2029Q56.5362 75.1785 56.585 75.1541L56.7376 75.0808Q56.7864 75.0808 56.8108 75.0564L56.7864 75.0259Q56.7864 74.9282 56.9146 74.9282Q57.0611 74.8306 57.1648 74.8062L57.4151 74.7268Q57.5616 74.678 57.6714 74.6414Q57.7874 74.6047 57.7874 74.501Q57.8851 74.4277 58.0377 74.1775Q58.2147 73.8784 58.2879 73.8052L58.5137 73.7564L58.764 73.3779L58.7151 73.2803L58.9105 73.1765L58.9105 73.0789L58.9654 73.0789Q59.24 72.7798 59.3987 72.5418Q59.5635 72.3037 59.6856 71.9009Q59.6856 71.8521 59.7649 71.8521L59.7649 71.8276Q59.9114 71.5286 59.9114 71.2539Q59.9114 70.6558 59.3377 70.6558Q59.2889 70.6558 59.2095 70.6314Q59.1119 70.6314 59.1119 70.6802L59.24 70.6802L59.1119 70.7778Q58.9898 70.8267 58.8738 70.9304Q58.764 71.0281 58.764 71.2051L58.6602 71.2051Q58.7151 71.2051 58.7396 71.3027Q58.5626 71.3027 58.4893 71.4004L58.6114 71.4797Q58.5626 71.5286 58.4832 71.5652Q58.41 71.6018 58.3367 71.6506Q58.2635 71.6812 58.1841 71.7178Q58.1109 71.7544 58.0621 71.8032Q57.7874 72.0046 57.7874 72.1755Q57.7874 72.2061 57.8118 72.2305Q57.8362 72.2549 57.8729 72.2793Q57.9095 72.3037 57.9644 72.3525L57.763 72.3281Q57.763 72.3281 57.7874 72.3159Q57.8118 72.3037 57.8362 72.3037Q57.7386 72.3037 57.6898 72.3281Q57.6348 72.3281 57.6898 72.377L57.7142 72.4014Q57.7142 72.4014 57.702 72.4014Q57.6898 72.4014 57.6898 72.4258Q57.6653 72.4563 57.6653 72.4807L57.6104 72.4807Q57.5127 72.6028 57.4212 72.731Q57.3357 72.853 57.2869 72.9812Q57.1893 73.2009 57.0123 73.4268L57.1893 73.5549L57.0123 73.5549L56.9146 73.6526L56.9146 73.7808L56.762 73.9028L56.8108 73.9273L56.5606 74.3545L56.4874 74.3789L56.4874 74.5803L56.2127 74.8794L56.2371 74.9771L56.1883 74.9771L56.1883 75.1541Q56.0113 75.3311 55.9625 75.6057Q55.938 75.856 55.761 76.1062L55.9136 76.1062L55.7122 76.2283L55.7122 76.3015Q55.6878 76.3259 55.6878 76.3809Q55.6878 76.4785 55.7 76.5579Q55.7122 76.6311 55.7366 76.7044Q55.761 76.7776 55.7732 76.8569Q55.7855 76.9302 55.7855 77.0278Q55.7855 77.2293 55.9502 77.5405Q56.115 77.8518 56.2859 77.8518Q56.762 77.8518 57.2381 77.6016Q57.6898 77.3269 58.1597 77.3025L58.6846 76.8814Q59.0875 76.5518 59.3865 76.1062Q59.71 75.6545 60.1128 75.3311L60.1373 75.3311L60.0884 75.2761Q60.1617 75.1785 60.3082 74.9771Q60.4607 74.7756 60.4852 74.6536Q60.5096 74.6292 60.5096 74.5559Q60.5096 74.501 60.5401 74.4766Q60.5889 74.3545 60.6866 74.3545Q60.7903 74.3545 60.7903 74.4766Q60.7903 74.5559 60.7598 74.5803Q60.7598 74.8306 60.5462 75.2944Q60.3387 75.7522 60.064 75.856L60.064 75.9292Q59.9358 76.0513 59.8138 76.2771Q59.6368 76.5029 59.3255 76.9058Q59.0142 77.3025 58.8128 77.3025L58.4649 77.5283L58.4649 77.626Q58.4649 77.7542 58.3123 77.803Q58.2147 77.9312 58.0621 77.9006Q57.9888 78.0532 57.8118 78.1021Q57.7386 78.1265 57.586 78.2302Q57.5372 78.3035 57.348 78.3828Q57.1648 78.4561 57.0855 78.4805Q56.9634 78.5781 56.7864 78.5903Q56.6155 78.6025 56.4874 78.6025L55.938 78.6025ZM65.9401 87.0254Q65.7631 87.0254 65.5617 86.8057Q65.4152 86.5798 65.2626 86.3784Q65.0856 86.1282 65.0856 85.8535Q66.5138 83.7539 68.2228 81.8801Q69.9379 80.0064 71.8117 78.3523Q72.4648 77.0278 73.0995 75.74Q73.7404 74.4522 74.3874 73.1521L73.7892 73.854Q73.4901 74.2263 73.1606 74.5559Q73.0629 74.6292 72.9347 74.7451Q72.8127 74.855 72.6845 74.9771L72.2878 75.4287Q72.1901 75.5264 72.1107 75.6545Q72.0375 75.7766 71.9643 75.9048Q71.8849 76.0269 71.6896 76.1795Q71.5858 76.2527 71.4882 76.332Q71.3905 76.4053 71.2624 76.5029Q71.1647 76.6006 71.0487 76.6799Q70.9389 76.7532 70.8351 76.8264Q70.7375 76.9302 70.6337 76.9912Q70.536 77.0523 70.4872 77.1011Q70.3896 77.2048 70.2736 77.2903Q70.1637 77.3757 70.0356 77.5039Q69.7853 77.7542 69.4862 77.7542Q69.0346 77.7542 68.821 77.2659Q68.6134 76.7776 68.6134 76.3809Q68.6134 75.801 68.8393 75.2517Q68.9369 74.9771 69.0346 74.7024Q69.1383 74.4277 69.236 74.1531L70.2858 71.3516Q70.414 71.0769 70.5482 70.7778Q70.6886 70.4788 70.8351 70.1797Q71.1403 69.606 71.1403 68.9529Q71.1403 68.8796 71.1647 68.8308Q71.1647 68.8064 71.1098 68.7515Q70.9877 68.8796 70.8229 68.9956Q70.6642 69.1055 70.4872 69.2031Q70.1637 69.3801 69.8891 69.7036Q69.236 70.4788 68.7111 71.3149Q68.1862 72.1511 67.6857 73.0056Q67.6369 73.1033 67.5209 73.2315Q67.411 73.3535 67.289 73.3535Q67.1364 73.3535 67.1364 73.1765Q67.1364 72.9019 67.4355 72.4685Q67.7345 72.0291 67.8383 71.7056Q67.9604 71.4309 68.1129 71.3027Q68.1862 71.2539 68.2472 71.1685Q68.3144 71.0769 68.3632 70.9793Q68.6134 70.4544 69.1139 69.7952Q69.6144 69.1299 70.2492 68.6416Q70.89 68.1533 71.4638 68.1533Q72.0375 68.1533 72.3122 68.5562Q72.5868 68.9529 72.5868 69.4534Q72.5868 69.9539 72.4586 70.4666Q72.3366 70.9793 72.1901 71.4309Q72.2389 71.4797 72.2389 71.6262Q72.2389 71.8765 72.0863 72.0779Q71.9154 72.2793 71.8849 72.5051Q71.7873 73.03 71.6347 73.2925Q71.4882 73.5549 71.2379 73.9761Q71.2868 74.1043 71.0854 74.5315Q70.89 74.9526 70.8107 75.1296Q70.7375 75.3005 70.6886 75.4531Q70.6398 75.6057 70.5849 75.7766L70.5849 75.9048Q70.5605 75.9536 70.5605 76.0269Q70.6398 75.978 70.7008 75.9292Q70.7619 75.8804 70.7863 75.856Q70.8595 75.7766 70.945 75.7278Q71.0365 75.679 71.1403 75.6301Q71.1647 75.6057 71.1891 75.6057Q71.2135 75.6057 71.2379 75.5813Q71.2624 75.3311 71.5126 75.3311Q71.5614 75.3005 71.6103 75.2639Q71.6652 75.2273 71.714 75.2029Q71.8117 75.1052 71.8605 75.0808Q71.9643 74.8306 72.1352 74.7268Q72.2145 74.678 72.3 74.617Q72.3854 74.5559 72.4892 74.501L73.3131 73.6526Q73.4108 73.5305 73.4718 73.4207Q73.539 73.3047 73.5634 73.2253Q73.6122 73.1033 73.9845 72.9019L74.1127 72.731L74.1127 72.554Q74.1127 72.4258 74.1371 72.3281Q74.1615 72.2305 74.2897 72.1755Q74.4362 72.1023 74.485 71.9009Q74.5399 71.6812 74.6132 71.6018L75.0648 71.0037Q75.1137 70.8755 75.1381 70.8511L75.2846 70.7046L75.2846 70.6802Q75.2846 70.6314 75.2602 70.6008Q75.2113 70.552 75.2113 70.5032Q75.2113 70.4299 75.2846 70.4299L75.3883 70.3506Q75.663 70.3811 76.0231 70.4666Q76.3893 70.552 76.3893 70.9304Q76.3893 70.9793 76.3771 71.083Q76.3649 71.1807 76.3405 71.3027Q76.31 72.1267 75.9865 72.9507Q75.8095 73.3535 75.6569 73.7564Q75.5104 74.1531 75.3639 74.5803Q75.2357 74.9526 75.1076 75.3311Q74.9855 75.7034 74.8634 76.1062Q75.4128 75.6301 76.0109 75.2578Q76.6151 74.8794 77.2621 74.5559Q77.4635 74.4033 77.6649 74.4033Q77.7626 74.4033 77.7626 74.501Q77.7626 74.5803 77.5612 74.7024L77.2865 74.9038Q76.7128 75.2273 76.2001 75.6057Q75.6874 75.978 75.1869 76.4053Q75.0099 76.5274 74.8329 76.6799Q74.662 76.8264 74.5155 76.979Q74.3874 77.1011 74.2897 77.3025Q74.1859 77.5283 74.0639 77.7053Q74.015 77.7786 73.9601 77.8579Q73.9113 77.9312 73.8869 78.0288Q73.8625 78.2058 73.7404 78.4011Q73.6366 78.5781 73.5451 78.7307Q73.4596 78.8772 73.3864 79.0542Q73.2887 79.2007 73.2094 79.3533Q73.1361 79.5059 73.0385 79.6768Q72.9897 79.7256 72.9103 79.8232Q72.8371 79.927 72.7638 80.0796Q72.6601 80.2017 72.6112 80.3115Q72.5624 80.4275 72.5136 80.4763Q72.361 80.751 72.1962 80.9524Q72.0375 81.1538 71.9398 81.1538L71.8605 81.1538Q71.8605 81.0806 71.9154 80.9768Q71.9398 80.928 71.9643 80.867Q71.9887 80.8059 72.0131 80.751Q72.2145 80.4275 72.5014 79.9514Q72.7882 79.4753 72.7882 79.28Q72.7882 79.2312 72.7394 79.2312L72.538 79.5303Q72.3366 79.6524 72.2633 79.8538L72.0375 80.2261L71.1403 81.6543Q71.1647 81.6787 71.1647 81.7275Q71.1647 81.8008 71.1403 81.8313Q71.1098 81.8557 71.1098 81.8801Q71.1098 81.9045 71.0854 81.929L71.0365 81.9778Q70.9389 82.0754 70.9389 82.2524L70.9389 82.2769Q70.9633 82.3013 70.9633 82.3257Q70.9633 82.4295 70.8595 82.4539Q70.713 82.5027 70.713 82.5027L70.6642 82.5271Q70.6154 82.6797 70.4872 82.8018Q70.4384 82.9299 70.298 83.1497Q70.1637 83.3755 70.0111 83.3511Q69.7609 83.6563 69.5351 84.0042Q69.3153 84.3521 69.1628 84.7305Q69.1628 84.7549 69.1872 84.7793L69.1872 84.8281Q69.1872 84.9258 69.0651 84.9258L68.9857 84.9258L68.9125 84.9014L68.8881 84.877Q68.8637 84.877 68.8393 84.8525Q68.7904 85.1272 68.5646 85.231Q68.4853 85.3774 68.3632 85.4263Q68.2655 85.4507 68.1129 85.6033L68.0885 85.6033Q68.0397 85.7009 67.9115 85.7986Q67.7895 85.9024 67.6857 85.9268L67.6613 85.9512L67.6125 85.9512L67.5636 85.9756Q67.4904 86.1038 67.3256 86.2014Q67.1608 86.3052 67.0387 86.354Q66.9655 86.4761 66.7519 86.6897Q66.5382 86.9033 66.4101 86.9033L66.3124 86.9033Q66.111 87.0254 65.9401 87.0254ZM66.2148 85.8535Q66.3612 85.8047 66.5077 85.7498Q66.6603 85.7009 66.7885 85.5789Q67.0143 85.3774 67.4599 84.8892Q67.9115 84.4009 68.412 83.8027Q68.9125 83.2046 69.3153 82.7285Q69.6632 82.2524 70.0722 81.6909Q70.4872 81.1294 70.8107 80.6167Q71.1403 80.104 71.1891 79.8294Q70.8107 80.2017 70.4628 80.5618Q70.1149 80.928 69.7365 81.2759Q68.9613 82.0266 68.235 82.8506Q67.8139 83.3511 67.4355 83.876Q67.0631 84.4009 66.7152 84.9258Q66.5627 85.1516 66.4101 85.353Q66.2148 85.5789 66.1903 85.8291Q66.2148 85.8291 66.2148 85.8535ZM78.438 78.6025Q78.1634 78.6025 77.8887 78.5293Q77.4859 78.3767 77.0892 77.7053L77.2845 77.6504L77.1136 77.5283L76.9122 76.9058L76.8877 76.9058Q76.8633 76.8264 76.8633 76.6799L76.8633 76.5029Q76.8633 76.4053 76.9854 76.155Q77.1136 75.9048 77.2112 75.679L76.961 75.7278L76.961 75.6057Q76.9854 75.5813 77.0403 75.4775Q77.0647 75.4043 77.1624 75.3799Q77.1868 75.4043 77.1868 75.4531L77.2356 75.4043L77.2356 75.2761Q77.2356 75.1785 77.2478 75.0686Q77.2601 74.9526 77.3394 74.8794Q77.3394 74.7268 77.3638 74.7024L77.3882 74.6047L77.4371 74.6047L77.4371 74.501L77.5896 74.3057Q77.7117 74.1775 77.7361 74.1775L77.7361 74.1531Q77.7117 74.1775 77.6629 74.1775Q77.5652 74.1775 77.5652 74.0798Q77.5652 74.0554 77.5896 74.031L77.5896 73.9028Q77.6141 73.8784 77.6141 73.7808Q77.6141 73.677 77.5652 73.6282L77.7361 73.4268L77.8399 73.4512L77.8155 73.4268L77.8643 73.4268L77.8887 73.4024L77.962 73.1277L78.0901 73.3291L78.1634 72.9019Q78.1878 72.7798 78.2122 72.6577Q78.2366 72.5295 78.261 72.4014L78.5357 72.377L78.5357 72.1755L78.4624 72.1755L78.4624 72.0535L78.5845 71.9314L78.5845 71.9558L78.615 71.9314L78.615 71.8032L78.8348 71.6506L78.8348 71.553Q79.0118 71.4553 79.1399 71.2051Q79.2132 71.0281 79.4878 70.9793L79.3353 70.9793L79.3597 70.9548L79.262 71.0281L79.262 70.8267L79.3108 70.8267L79.3353 70.7778L79.3597 70.7778L79.4146 70.6802L79.4146 70.552Q79.5611 70.4544 79.7198 70.3079Q79.8846 70.1553 79.8846 69.9783L79.9883 69.905L79.9883 69.8013L80.086 69.8562L80.4095 69.551L80.4095 69.4534L80.6109 69.3313L80.7146 69.1787Q80.7146 69.1055 80.7879 69.1055Q80.8123 69.1055 80.8978 69.1421Q80.9893 69.1787 81.0381 69.2031L81.1846 69.2031Q81.5874 69.2031 81.9842 69.49Q82.387 69.7769 82.6617 70.1797Q82.9363 70.5764 82.9363 70.9793Q82.9363 71.1013 83.0096 71.2295Q83.0401 71.3027 83.0523 71.3821Q83.0645 71.4553 83.0645 71.553L83.0645 71.6506Q83.0645 71.7544 83.0401 71.7788Q82.6128 72.7798 81.7217 73.7075Q80.8367 74.6292 79.8846 75.1541Q79.6893 75.2517 79.439 75.3555Q79.1888 75.4531 78.9385 75.4531Q78.8653 75.4531 78.8348 75.4287L78.6639 75.3799Q78.7371 75.3555 78.8897 75.2517Q78.9385 75.2273 78.9874 75.2029Q79.0362 75.1785 79.085 75.1541L79.2376 75.0808Q79.2864 75.0808 79.3108 75.0564L79.2864 75.0259Q79.2864 74.9282 79.4146 74.9282Q79.5611 74.8306 79.6648 74.8062L79.9151 74.7268Q80.0616 74.678 80.1714 74.6414Q80.2874 74.6047 80.2874 74.501Q80.3851 74.4277 80.5376 74.1775Q80.7146 73.8784 80.7879 73.8052L81.0137 73.7564L81.264 73.3779L81.2151 73.2803L81.4104 73.1765L81.4104 73.0789L81.4654 73.0789Q81.74 72.7798 81.8987 72.5418Q82.0635 72.3037 82.1856 71.9009Q82.1856 71.8521 82.2649 71.8521L82.2649 71.8276Q82.4114 71.5286 82.4114 71.2539Q82.4114 70.6558 81.8377 70.6558Q81.7889 70.6558 81.7095 70.6314Q81.6119 70.6314 81.6119 70.6802L81.74 70.6802L81.6119 70.7778Q81.4898 70.8267 81.3738 70.9304Q81.264 71.0281 81.264 71.2051L81.1602 71.2051Q81.2151 71.2051 81.2395 71.3027Q81.0625 71.3027 80.9893 71.4004L81.1114 71.4797Q81.0625 71.5286 80.9832 71.5652Q80.91 71.6018 80.8367 71.6506Q80.7635 71.6812 80.6841 71.7178Q80.6109 71.7544 80.5621 71.8032Q80.2874 72.0046 80.2874 72.1755Q80.2874 72.2061 80.3118 72.2305Q80.3362 72.2549 80.3728 72.2793Q80.4095 72.3037 80.4644 72.3525L80.263 72.3281Q80.263 72.3281 80.2874 72.3159Q80.3118 72.3037 80.3362 72.3037Q80.2386 72.3037 80.1897 72.3281Q80.1348 72.3281 80.1897 72.377L80.2142 72.4014Q80.2142 72.4014 80.202 72.4014Q80.1897 72.4014 80.1897 72.4258Q80.1653 72.4563 80.1653 72.4807L80.1104 72.4807Q80.0127 72.6028 79.9212 72.731Q79.8357 72.853 79.7869 72.9812Q79.6893 73.2009 79.5123 73.4268L79.6893 73.5549L79.5123 73.5549L79.4146 73.6526L79.4146 73.7808L79.262 73.9028L79.3108 73.9273L79.0606 74.3545L78.9874 74.3789L78.9874 74.5803L78.7127 74.8794L78.7371 74.9771L78.6883 74.9771L78.6883 75.1541Q78.5113 75.3311 78.4624 75.6057Q78.438 75.856 78.261 76.1062L78.4136 76.1062L78.2122 76.2283L78.2122 76.3015Q78.1878 76.3259 78.1878 76.3809Q78.1878 76.4785 78.2 76.5579Q78.2122 76.6311 78.2366 76.7044Q78.261 76.7776 78.2732 76.8569Q78.2854 76.9302 78.2854 77.0278Q78.2854 77.2293 78.4502 77.5405Q78.615 77.8518 78.7859 77.8518Q79.262 77.8518 79.7381 77.6016Q80.1897 77.3269 80.6597 77.3025L81.1846 76.8814Q81.5874 76.5518 81.8865 76.1062Q82.21 75.6545 82.6128 75.3311L82.6373 75.3311L82.5884 75.2761Q82.6617 75.1785 82.8082 74.9771Q82.9607 74.7756 82.9852 74.6536Q83.0096 74.6292 83.0096 74.5559Q83.0096 74.501 83.0401 74.4766Q83.0889 74.3545 83.1866 74.3545Q83.2903 74.3545 83.2903 74.4766Q83.2903 74.5559 83.2598 74.5803Q83.2598 74.8306 83.0462 75.2944Q82.8387 75.7522 82.564 75.856L82.564 75.9292Q82.4358 76.0513 82.3138 76.2771Q82.1368 76.5029 81.8255 76.9058Q81.5142 77.3025 81.3128 77.3025L80.9649 77.5283L80.9649 77.626Q80.9649 77.7542 80.8123 77.803Q80.7146 77.9312 80.5621 77.9006Q80.4888 78.0532 80.3118 78.1021Q80.2386 78.1265 80.086 78.2302Q80.0372 78.3035 79.8479 78.3828Q79.6648 78.4561 79.5855 78.4805Q79.4634 78.5781 79.2864 78.5903Q79.1155 78.6025 78.9874 78.6025L78.438 78.6025ZM84.5625 74.8062Q84.361 74.9038 84.2451 74.7817Q84.1352 74.6536 84.239 74.5254Q84.361 74.4033 84.3855 74.3057Q84.4099 74.2019 84.4099 74.0798L84.4099 73.8784Q84.4099 73.7014 84.4404 73.677L84.5869 73.5305Q84.6113 73.4756 84.7395 73.4268L84.8615 73.0789Q84.6845 72.8774 84.9104 72.6516L84.9348 72.6272L84.9348 72.6028L84.9897 72.5295L85.1362 72.2793L85.1606 72.2305L85.2155 72.2305Q85.1606 72.1023 85.2888 71.9558Q85.3376 71.8276 85.4353 71.7056Q85.539 71.5774 85.6367 71.4309Q85.8869 71.1563 85.9113 70.9304Q85.9602 70.729 86.1372 70.5764Q86.1127 70.5764 86.1127 70.5276Q86.1127 70.5032 86.0883 70.5032Q86.0883 70.4788 86.1127 70.4544L86.1127 70.4299Q86.1616 70.3811 86.2836 70.1675Q86.4118 69.9539 86.54 69.728Q86.5888 69.6548 86.6376 69.5816Q86.6865 69.5022 86.7353 69.4045L86.8635 69.1787L86.186 68.9529Q85.6855 68.7759 85.3071 68.4646Q84.9348 68.1533 84.9348 67.5552Q84.9348 67.2805 85.0996 67.0791Q85.2644 66.8777 85.4353 66.7312Q85.539 66.6274 85.539 66.603Q85.7404 66.3528 85.9357 66.4688Q86.1372 66.5786 85.9357 66.78L85.7893 66.9753Q85.6855 67.1279 85.5878 67.2683Q85.4902 67.4026 85.4902 67.604Q85.4902 67.8543 85.8503 68.0435Q86.2104 68.2266 86.6499 68.3303Q87.0893 68.428 87.2602 68.428Q88.2856 67.0791 89.2866 65.7546Q90.2876 64.4302 91.2885 63.0813Q91.3862 62.9775 91.3862 62.7273L92.3139 61.7507Q92.4116 61.8057 92.497 61.8301Q92.5886 61.8545 92.6862 61.8789Q92.79 61.9033 92.8754 61.9277Q92.9609 61.9522 93.0647 61.9766Q93.26 62.0254 93.437 62.1047Q93.614 62.178 93.7605 62.355Q94.0351 62.6296 94.0351 63.0264Q94.0351 63.4536 93.6872 63.7527Q93.3149 64.0518 93.0402 64.3264Q92.9365 64.4058 92.8449 64.479Q92.7595 64.5523 92.6618 64.656Q92.4604 64.8513 92.2102 64.8513L92.2102 64.6804L92.2895 64.6804Q92.3872 64.5523 92.497 64.4058Q92.613 64.2532 92.7106 64.1311Q92.9609 63.8565 93.0891 63.5757Q92.9853 63.6795 92.8999 63.7527Q92.8144 63.8259 92.7106 63.9053Q92.613 63.9785 92.5214 64.0701Q92.436 64.1555 92.3383 64.2532Q92.2102 64.4302 91.9355 64.7415Q91.6608 65.0527 91.3374 65.4006Q91.0627 65.7546 90.7758 66.0293Q90.489 66.304 90.3608 66.426L90.3364 66.4504L90.4401 66.5542L90.1105 66.6763L90.135 66.7007Q90.135 66.9021 90.0068 66.9815Q89.8847 67.0547 89.7626 67.0547Q89.7138 67.2012 89.6223 67.3171Q89.5368 67.427 89.3354 67.5064Q89.3598 67.5308 89.3598 67.5796Q89.3598 67.604 89.3903 67.6284Q89.3903 67.6528 89.4147 67.6773L89.3598 67.6773L89.3598 67.7261L89.2377 67.7261Q89.2133 67.7261 89.1889 67.8298L89.2622 67.9519Q89.2866 67.9763 89.2866 68.0557Q89.6345 67.6773 89.958 67.3049Q90.2876 66.9265 90.6355 66.5298L91.9904 65.0283L92.0393 65.0283Q92.0393 65.0527 92.0637 65.0527Q92.0637 65.0772 92.0881 65.0772Q92.0881 65.2542 91.8134 65.6326Q91.5388 66.0049 91.1359 66.4443Q90.7392 66.8777 90.373 67.2805Q90.0129 67.6773 89.8115 67.9031Q89.7382 67.9763 89.6345 68.1289Q89.5612 68.2022 89.4636 68.3547L89.6894 68.3547Q90.0129 68.3547 90.2753 68.3181Q90.5378 68.2754 90.8125 68.2266Q90.9345 68.2022 91.0566 68.1655Q91.1848 68.1289 91.3129 68.1045Q91.435 68.0801 91.5571 68.0557Q91.6853 68.0313 91.8134 68.0007Q92.1125 67.9519 92.613 67.842Q93.1135 67.7261 93.3393 67.5552Q93.9863 67.3538 94.6149 67.2561Q94.6149 67.2561 94.6394 67.2439Q94.6638 67.2256 94.7126 67.2012Q94.7614 67.2012 94.7858 67.1768Q94.8347 67.1035 94.914 67.1035L95.1154 67.0303L95.3107 66.9753L95.3107 66.9509Q95.6647 66.8777 95.9882 66.7434Q96.3117 66.603 96.6596 66.4504Q96.9892 66.3284 97.3005 66.2185Q97.6118 66.1025 97.9353 66.1025L98.0146 65.9561Q98.3137 65.6509 98.686 65.6509L98.686 65.7302Q98.7897 65.8279 98.7897 65.9561Q98.7897 66.0293 98.7348 66.0293Q98.5151 66.2551 98.2404 66.2795Q98.2648 66.3284 98.2771 66.3528Q98.2893 66.3772 98.2893 66.4016Q98.2893 66.481 98.2099 66.481Q98.1123 66.5542 97.9597 66.5542Q97.8376 66.5542 97.8376 66.4016L97.9108 66.3528Q97.7644 66.3528 97.7094 66.304Q97.5385 66.7556 97.1357 66.7556L97.0869 66.9509L96.8122 66.8777Q96.6901 67.0059 96.562 67.0059Q96.5131 67.1279 96.4765 67.2195Q96.4399 67.3049 96.2873 67.3049Q96.3117 67.2805 96.3117 67.2256Q96.2873 67.2012 96.2873 67.1768Q96.1103 67.3782 95.8723 67.5308Q95.6403 67.6773 95.3107 67.6773L95.2863 67.5064L95.2619 67.5064Q95.2863 67.5308 95.2863 67.6284Q95.2863 67.7261 95.2009 67.781Q95.1154 67.8298 95.0605 67.8298Q95.0361 67.8298 95.0361 67.8054L94.9873 67.8054Q94.8652 67.9031 94.7614 67.9031Q94.7126 67.9031 94.6882 67.8787L94.6149 67.8787Q94.4868 67.9763 94.383 67.9885Q94.2854 68.0007 94.09 68.0313Q93.7605 68.0801 93.4003 68.2083Q93.0402 68.3303 92.7106 68.4524Q92.6862 68.4768 92.5886 68.4768Q92.5397 68.4768 92.5397 68.5012Q91.7646 68.9041 90.965 68.9285Q90.1105 69.0017 89.311 69.1543Q89.2377 69.1787 89.1584 69.1909Q89.0852 69.2031 88.9875 69.2031Q88.8898 69.2031 88.8105 69.2153Q88.7373 69.2275 88.664 69.252Q88.5114 69.2764 88.2856 69.49Q88.0598 69.7036 87.8584 69.9539Q87.663 70.2041 87.5654 70.3506Q87.4616 70.4544 87.3335 70.5703Q87.2114 70.6802 87.0893 70.7778Q86.8391 70.9548 86.6376 71.2295Q86.5888 71.2783 86.5095 71.3577Q86.4362 71.4309 86.3874 71.5286Q86.2653 71.7544 86.0883 71.7788Q86.1372 71.9009 86.0395 71.9558L85.9846 72.0046Q85.7648 72.2305 85.7648 72.5295Q85.6855 72.6028 85.6367 72.731L85.6123 72.8286L85.539 72.9263Q85.4108 73.1033 85.2949 73.3413Q85.185 73.5794 85.0629 73.854Q84.9348 74.1287 84.8066 74.3667Q84.6845 74.6047 84.5625 74.8062ZM83.7873 81.5505Q83.6103 81.5505 83.3967 81.4773Q83.1892 81.4041 83.061 81.2759Q82.9389 81.1294 82.7009 80.7388Q82.4628 80.3543 82.4628 80.1528Q82.4628 79.6768 82.5117 79.2251Q82.5605 78.7795 82.6643 78.3035Q82.8107 78.1814 82.8352 78.0044Q82.8596 77.8274 82.8901 77.6504Q83.0854 77.4551 83.1098 77.156Q83.1403 76.8508 83.415 76.8508L83.4638 76.802Q83.4882 76.7776 83.4394 76.6799Q83.3845 76.5518 83.3601 76.4663Q83.3356 76.3809 83.415 76.2527Q83.4394 76.2039 83.4638 76.1428Q83.4882 76.0757 83.5126 76.0513Q83.5371 76.0269 83.5859 75.8804Q83.6652 75.6057 83.7263 75.3921Q83.7873 75.1785 83.9887 74.9526Q84.1108 74.855 84.2085 74.9404Q84.3122 75.0259 84.2878 75.1541Q84.2878 75.3005 84.2146 75.4531L84.4099 75.4531Q84.3122 75.9292 84.184 76.4053Q84.062 76.8814 83.9399 77.3513Q83.6347 78.2791 83.6347 79.2556Q83.6347 80.1284 83.9887 80.8792L84.3366 80.6777L84.4648 80.4519L84.4648 80.7266L84.5136 80.8547Q84.5625 80.7266 84.6601 80.6289Q84.7639 80.5313 84.9653 80.5313L84.9897 80.7022Q84.9897 80.7754 84.9653 80.8059Q84.8127 81.1294 84.4831 81.3369Q84.1596 81.5505 83.7873 81.5505Z"
              fill="url(#paint_radial_5)"
              fill-rule="nonzero"
            />
          </svg>