 <svg
          viewBox="0 0 52.6605 36"
          xmlns="http://www.w3.org/2000/svg"
          xmlns-xlink="http://www.w3.org/1999/xlink"
        
          fill="none"
        
        >
          <defs>
            <radialGradient
              id="paint_radial_3"
              cx="0"
              cy="0"
              r="1"
              gradientUnits="userSpaceOnUse"
              gradientTransform="matrix(25,0,0,18,27.6605,18)"
            >
              <stop
                stop-color="rgb(255,116,11)"
                offset="0.181434616"
                stop-opacity="1"
              />
              <stop
                stop-color="rgb(255,58,5.5)"
                offset="0.561181426"
                stop-opacity="1"
              />
              <stop stop-color="rgb(255,0,0)" offset="1" stop-opacity="1" />
            </radialGradient>
          </defs>
          <path
            id="Login"
            d="M19.2505 27.2278Q19.2505 27.0996 19.4702 26.7578Q19.696 26.4221 19.696 26.3245Q19.696 26.3 19.6472 26.3Q19.5984 26.2512 19.574 26.1719Q19.5496 26.0986 19.5251 26.0254Q19.5007 25.9521 19.4702 25.8728Q19.4458 25.7996 19.4214 25.7263Q19.1467 24.7986 18.5486 24.5361Q17.9504 24.2737 17.0471 24.2737L16.9983 24.2737Q16.925 24.2249 16.8457 24.2737Q16.7969 24.2981 16.6748 24.2981Q16.4734 24.2981 16.4734 24.1516Q16.4734 24.0234 16.3757 24.0234Q16.272 24.0234 16.1743 24.1272Q16.0461 24.2493 15.9973 24.2493Q15.9241 24.2493 15.7227 24.1272Q15.5212 23.999 15.3259 23.999Q15.2222 23.999 15.1978 24.0234Q15.1489 24.0479 15.0757 24.0479Q15.0452 24.0479 15.0757 23.9502Q15.1245 23.877 15.0757 23.877Q15.0452 23.877 14.9475 23.9258Q14.8499 23.9746 14.7461 23.9746Q14.5752 23.9746 14.3738 23.8525Q14.27 23.7732 13.9954 23.7732L12.2009 23.7732Q12.0483 23.7732 11.8958 23.7854Q11.7493 23.7976 11.5967 23.822Q11.4502 23.8525 11.2976 23.877Q11.145 23.9014 10.9741 23.9258Q10.4248 23.9746 9.85718 23.999Q9.29565 24.0234 8.74634 24.0479Q8.19702 24.0723 7.64771 24.2004Q7.09839 24.3225 6.54907 24.5239Q6.29883 24.6277 5.97534 24.6765L5.39551 24.7498Q5.32227 24.9512 5.23071 25.177Q5.14526 25.4028 5.02319 25.5981L5.02319 25.647Q4.99878 25.647 4.82178 25.9583Q4.65088 26.2756 4.54712 26.3245Q4.59595 26.3733 4.59595 26.4221Q4.59595 26.5259 4.44946 26.5259Q4.47388 26.5503 4.47388 26.5747Q4.47388 26.5991 4.32129 26.7334Q4.1748 26.8738 4.01001 26.9958Q3.84521 27.124 3.77197 27.124L3.67432 27.124Q3.62549 27.1729 3.52173 27.1729Q3.39966 27.1729 3.27148 27.0508Q3.22266 27.0752 3.17383 27.002Q3.14941 26.8982 3.04565 26.8982Q3.04565 26.8982 2.89917 26.8494Q2.79541 26.8494 2.79541 26.7273L2.62451 26.7029Q2.6001 26.7761 2.47192 26.7761L2.47192 26.7517Q2.4231 26.7273 2.36206 26.7151Q2.30103 26.7029 2.19727 26.7029Q2.24609 26.5503 2.24609 26.5259Q2.22168 26.5503 2.19727 26.5503Q2.17285 26.5503 2.14844 26.5747Q2.12402 26.5991 2.05078 26.5991L2.05078 26.5503L1.89819 26.5015L1.82495 26.5015Q1.74561 26.5015 1.72119 26.5259L1.62354 26.5259L1.57471 26.4526L1.57471 26.4771L1.55029 26.4771Q1.37329 26.4771 1.37329 26.3489L1.32446 26.3489Q1.14746 26.3489 0.897217 26.4771Q0.799561 26.5259 0.701904 26.5381Q0.598145 26.5503 0.500488 26.5503L0.469971 26.5503Q0.421143 26.5503 0.213623 26.5137Q0 26.4771 0 26.4221L0.0488281 26.3733Q0.0976562 26.3489 0.177002 26.3245Q0.250244 26.3 0.3479 26.2756Q0.500488 26.2512 0.549316 26.0498Q0.799561 25.9277 1.0376 25.7874Q1.27563 25.647 1.52588 25.5005Q1.55029 25.5249 1.64795 25.5249Q1.74561 25.5249 1.80054 25.4028Q1.87378 25.2747 2.0752 25.2747Q2.30103 25.1526 2.68555 24.939Q3.07007 24.7253 3.44238 24.5544Q3.8208 24.3774 3.9978 24.3774Q4.19922 24.2249 4.3335 24.1638Q4.47388 24.1028 4.69971 24.1028Q4.72412 24.0479 4.74854 23.999Q4.77295 23.9502 4.79736 23.9014L4.87061 23.7Q4.84619 23.7 4.84619 23.6755Q4.84619 23.6511 4.87061 23.6511Q4.92554 23.5229 5.01099 23.3398Q5.09644 23.1506 5.22461 22.9004Q5.34668 22.6746 5.43213 22.4915Q5.52368 22.3022 5.57251 22.1741Q5.62134 22.052 5.82275 21.9238Q6.02417 21.8018 6.02417 21.698Q6.02417 21.6003 5.99976 21.5515Q5.95093 21.5027 5.95093 21.3989Q5.95093 21.3013 6.08521 21.0022Q6.22559 20.697 6.39648 20.4102Q6.57349 20.1233 6.64673 20.0989L6.64673 20.0256Q6.62231 20.0256 6.62231 19.9768Q6.62231 19.8486 6.75049 19.7754Q6.79932 19.751 6.84814 19.7266Q6.89697 19.7021 6.92139 19.6777L7.14722 19.2749Q7.19604 19.1772 7.25708 19.0674Q7.32422 18.9514 7.37305 18.8477Q7.4707 18.5974 7.60498 18.2861Q7.74536 17.9749 8.07495 17.9016Q7.99561 17.9016 7.99561 17.7979Q7.99561 17.749 8.07495 17.7246Q8.09937 17.7246 8.14819 17.6758Q8.12378 17.6758 8.12378 17.6514L8.09937 17.6514Q7.4707 17.2241 7.01904 16.5405Q6.57349 15.8508 6.57349 15.0757Q6.57349 14.8743 6.63452 14.5386Q6.69556 14.2029 6.82983 13.916Q6.97021 13.623 7.17163 13.623Q7.2998 13.623 7.33643 13.7634Q7.37305 13.8977 7.37305 14.0015Q7.37305 14.0991 7.36084 14.2151Q7.34863 14.325 7.32422 14.4226Q7.25098 14.6484 7.25098 14.8743Q7.25098 15.448 7.64771 16.0522Q8.05054 16.6504 8.49609 16.9495Q8.8501 16.449 9.27124 15.7654Q9.69849 15.0757 10.1318 14.3921Q10.5713 13.7024 10.9009 13.2263Q11.499 12.2986 12.1338 11.4014Q12.7747 10.498 13.5254 9.67407Q13.5986 9.60083 13.8245 9.33838Q14.0503 9.07593 14.3372 8.78906Q14.624 8.5022 14.8621 8.27637Q15.1001 8.05054 15.1978 8.05054Q15.3259 8.05054 15.2954 8.31299Q15.271 8.57544 15.3748 8.57544Q15.4968 8.52661 15.5334 8.3252Q15.5701 8.12378 15.6067 7.88574Q15.6494 7.64771 15.7715 7.55005Q15.8752 7.45239 16.0217 7.34863Q16.095 7.2998 16.2476 7.14722Q16.3452 7.07397 16.4001 6.9519Q16.4246 6.87256 16.571 6.7749L16.626 6.7749Q16.6748 6.7749 16.6748 6.82373L16.6748 6.92749L16.6992 6.90308Q16.8213 6.7749 16.8701 6.52466Q16.925 6.32324 17.0959 6.22559Q17.1509 6.20117 17.2485 6.15234Q17.3462 6.09741 17.3462 6.04858Q17.3462 6.04858 17.2974 5.95093Q17.2241 5.9021 17.2241 5.82275L17.2241 5.77393Q17.2241 5.7251 17.4622 5.60303Q17.7002 5.47485 17.9321 5.36499Q18.1702 5.24902 18.1702 5.24902Q18.2251 5.24902 18.2251 5.32227Q18.2251 5.42603 18.1213 5.56641Q18.0237 5.70068 17.9504 5.77393L18.0481 5.74951Q18.0969 5.7251 18.1702 5.74951Q18.2495 5.77393 18.3228 5.79834Q18.4509 5.87769 18.573 5.87769L18.6707 5.87769Q18.7256 5.87769 18.7256 5.82275Q18.7256 5.77393 18.5974 5.70068Q18.4509 5.62744 18.4509 5.52368Q18.4509 5.47485 18.512 5.35278Q18.573 5.22461 18.6218 5.22461Q18.6707 5.22461 18.6707 5.24902Q18.6218 5.29785 18.7256 5.29785Q18.7744 5.29785 18.8477 5.2002Q18.8721 5.12695 18.9453 5.04761L19.0247 5.04761Q19.0735 5.04761 19.0979 5.02319Q19.0979 4.94995 19.0491 4.94995Q19.0002 4.99878 19.0002 4.90112Q19.0002 4.77295 19.3115 4.57764Q19.6228 4.37622 19.696 4.35181Q20.0745 4.1748 20.4834 4.12598Q20.8984 4.07715 21.3257 4.07715Q21.9971 4.07715 22.6746 4.15039Q23.3459 4.24805 23.999 4.30298Q24.2493 4.35181 24.5972 4.5166Q24.9451 4.67529 25.1221 4.87671Q25.1221 4.87671 25.1221 4.88892Q25.1221 4.90112 25.1465 4.92554Q25.1465 4.97437 25.1221 4.97437Q25.0732 5.02319 25.0732 5.04761Q25.0732 5.10254 25.2869 5.30396Q25.5005 5.49927 25.708 5.76172Q25.9216 6.02417 25.9216 6.32324Q25.9216 6.45142 25.946 6.52466L25.946 6.72607Q25.946 6.90308 25.8484 7.00073Q25.7202 7.1228 25.7202 7.27539Q25.7202 7.32422 25.7507 7.34863L25.7507 7.45239Q25.7507 7.55005 25.6592 7.80029Q25.5737 8.05054 25.5737 8.12378Q25.5493 8.19702 25.47 8.27637L25.3723 8.42285Q25.3235 8.5022 25.2991 8.75244Q25.2747 9.00269 25.1465 9.00269Q25.1221 9.00269 25.0732 8.94775L25.0244 8.87451L25 8.87451Q24.8718 9.07593 24.8474 9.42383Q24.823 9.60083 24.7864 9.77783Q24.7498 9.94873 24.646 10.0769Q23.6755 11.7004 22.3999 12.8662Q21.1243 14.0259 19.5496 15.1001Q18.3472 15.8997 16.9067 16.6626Q15.4724 17.4255 13.9343 17.9138Q12.3962 18.4021 10.9009 18.4021Q10.4492 18.4021 9.8999 18.3411Q9.35059 18.2739 8.94775 18.0237Q8.07495 19.397 7.23267 20.813Q6.39648 22.2229 5.82275 23.7244Q6.25 23.5779 6.68335 23.468Q7.1228 23.3521 7.57446 23.2483Q7.99561 23.1506 8.44727 23.053Q8.89893 22.9492 9.32007 22.8516Q9.39941 22.8271 9.5459 22.7234Q9.60083 22.6746 9.74731 22.6257Q9.82056 22.6013 10.022 22.6013Q10.0708 22.6257 10.144 22.6257Q10.2234 22.6257 10.2722 22.6257Q10.675 22.6257 10.9985 22.4731Q11.3464 22.3267 11.7249 22.3267Q11.8469 22.3267 11.8469 22.3755Q11.8469 22.4487 12.0239 22.4487Q12.1704 22.4487 12.2742 22.3755L12.5244 22.3022Q12.7258 22.2778 12.9089 22.2656Q13.0981 22.2473 13.2996 22.2473L14.0503 22.2473Q14.8499 22.2473 15.8752 22.3145Q16.9006 22.3755 17.8711 22.5647Q18.8477 22.7478 19.5251 23.1506Q20.3003 23.5474 20.3003 24.4507Q20.3003 24.6277 20.2881 24.7803Q20.2759 24.9268 20.2454 25.0977Q20.2209 25.2502 20.2087 25.3967Q20.1965 25.5493 20.1965 25.7263Q20.1965 25.8728 20.2209 25.9521Q20.2454 26.001 20.2454 26.123Q20.2454 26.2512 20.0439 26.5137Q19.8486 26.7761 19.6106 27.002Q19.3726 27.2278 19.2749 27.2278L19.2505 27.2278ZM11.1206 17.6514Q13.2202 17.6514 15.0757 16.9495Q15.1001 16.9495 15.448 16.7786Q15.7959 16.6016 16.2354 16.3757Q16.6748 16.1499 17.0105 15.979Q17.3462 15.802 17.3706 15.802Q17.4255 15.802 17.4255 15.8264Q17.3706 15.8752 17.45 15.8752Q17.5964 15.8752 17.7246 15.6738Q17.8467 15.4724 17.9504 15.3748Q18.0725 15.3259 18.2495 15.2222Q18.4204 15.1245 18.5242 15.1245Q18.5242 15.1733 18.4753 15.2222Q18.4204 15.2771 18.4204 15.3259L18.4509 15.3259Q18.4998 15.3259 18.7866 15.1245Q19.0735 14.9231 19.0735 14.8743L19.0735 14.8254Q19.0491 14.8254 19.0491 14.7766Q19.0491 14.624 19.2749 14.5996Q19.5251 14.5508 19.574 14.502Q20.9229 13.3972 21.9727 12.0483Q23.0225 10.6995 23.8953 9.22241Q23.9258 9.17358 24.0112 9.08813Q24.0967 9.00269 24.2004 8.92334L24.4202 8.72803Q24.4202 8.62427 24.3713 8.6731Q24.2981 8.69751 24.2981 8.59985Q24.2981 8.47778 24.3958 8.34961Q24.5239 8.19702 24.5483 8.09937Q24.7009 7.77588 24.823 7.26318Q24.9451 6.75049 24.9451 6.40259Q24.9451 5.79834 24.6948 5.42603Q24.4507 5.04761 23.7732 5.04761Q23.0469 5.04761 22.2351 5.36499Q21.4233 5.67627 20.8008 6.04858Q20.7458 6.073 20.5322 6.26221Q20.3247 6.45142 20.1233 6.62842Q19.9219 6.79932 19.8486 6.79932Q19.8242 6.79932 19.8242 6.70166L19.7998 6.67725Q19.751 6.67725 19.5984 6.82373Q19.5251 6.92749 19.4702 6.97632Q19.4214 7.02515 19.397 7.04956L19.0247 7.34863Q18.9209 7.45239 18.8232 7.52563Q18.7256 7.59888 18.6218 7.67212Q18.396 7.84912 18.1702 8.09937Q18.0725 8.22754 17.9565 8.3252Q17.8467 8.42285 17.7246 8.52661L17.5476 8.59985Q17.45 8.62427 17.395 8.6731Q17.3462 8.72803 17.3462 8.77686Q17.3462 8.8501 17.2974 8.89893Q17.1997 9.00269 17.0837 9.10034Q16.9739 9.198 16.7969 9.30176Q16.626 9.39941 16.4978 9.50317Q16.3757 9.60083 16.272 9.69849Q15.1978 10.6995 13.9099 12.0239Q12.6221 13.3484 11.4075 14.7522Q10.199 16.1499 9.375 17.4011Q9.52148 17.4988 9.86938 17.5537Q10.2234 17.6025 10.5835 17.627Q10.9497 17.6514 11.1206 17.6514ZM3.42407 26.4771Q3.67432 26.4771 3.84521 26.1719Q4.02222 25.8728 4.15649 25.4944Q4.29688 25.1221 4.37012 24.9268Q4.19922 24.9268 3.79639 25.0122Q3.39966 25.0977 2.948 25.2319Q2.49634 25.3723 2.17285 25.5493Q1.84937 25.7263 1.84937 25.8972Q1.84937 26.0254 2.19727 26.1597Q2.54517 26.3 2.93579 26.3855Q3.32031 26.4771 3.42407 26.4771ZM24.3993 26.123Q24.1246 26.123 23.9354 25.9827Q23.7462 25.8484 23.5753 25.647Q23.2457 25.2258 23.0199 24.9268Q22.8001 24.6277 22.8001 24.0234L22.8001 23.2483Q22.8001 23.0225 22.9222 22.5647Q23.0504 22.1008 23.2335 21.6492Q23.4227 21.1975 23.5753 21.051Q23.795 20.3247 24.0941 19.6289Q24.3993 18.927 24.8753 18.3472Q24.6251 17.749 24.5458 17.1143Q24.4725 16.4734 24.4725 15.8264Q24.4725 15.625 24.4847 15.4663Q24.4969 15.3015 24.5213 15.1001L24.6007 15.0024L24.6251 14.978L24.6251 14.8743Q24.6007 14.8499 24.6007 14.801Q24.6007 14.6973 24.6739 14.4775Q24.7472 14.2517 24.8082 14.0259Q24.8753 13.8 24.8753 13.7756Q24.8753 13.7268 24.973 13.7024L25.0951 13.6475Q25.1256 13.623 25.2232 13.5742L25.2965 13.5254Q25.5223 13.2263 25.9557 13.1042Q26.3951 12.9761 26.7491 12.9761Q27.4999 12.9761 27.86 13.4888Q28.2201 14.0015 28.4215 14.6484Q28.5985 14.5264 28.7755 14.5264Q28.8487 14.5264 28.8976 14.5752Q29.3004 14.6729 29.8131 15.0024Q30.3258 15.3259 30.3258 15.6982L30.3258 15.7471Q30.3258 15.8752 30.0755 16.1011Q29.8253 16.3269 29.4835 16.5649Q29.1478 16.803 28.8365 17.0044Q28.5252 17.1997 28.3971 17.2729Q28.2201 17.3767 28.0492 17.45Q27.9454 17.4744 27.8722 17.5415Q27.7989 17.6025 27.6952 17.6514Q27.5731 17.749 27.4571 17.8528Q27.3473 17.9504 27.2252 18.0725L26.9994 18.2983Q26.92 18.3777 26.8712 18.4387Q26.8224 18.4998 26.7491 18.5486Q26.7003 18.5974 26.5843 18.6768Q26.4745 18.75 26.3463 18.8477Q26.0472 19.0491 26.0228 19.2261Q25.9984 19.2505 25.9312 19.4397Q25.8702 19.6228 25.8702 19.7021Q25.8702 19.9768 25.9435 20.3674Q26.0228 20.752 26.1754 21.0999Q26.2486 21.3013 26.1693 21.5393Q26.096 21.7773 25.9007 21.6248Q25.6993 21.4233 25.5467 21.0999Q25.4002 20.7764 25.3758 20.6238Q25.3453 20.575 25.3941 20.5505Q25.4491 20.5261 25.4002 20.4773L25.3453 20.4224Q25.3209 20.3979 25.3209 20.3491Q25.3209 20.3491 25.2721 20.3003Q25.0707 20.5017 24.8448 20.9656Q24.6251 21.4233 24.5213 21.6736L24.3749 22.0276Q24.2467 22.3022 24.1979 22.3022Q24.1002 22.3022 24.1002 22.1741L24.1002 22.1497Q24.1002 21.9971 24.1734 21.8262L24.326 21.4233Q24.1979 21.6248 24.1063 21.8628Q24.0208 22.1008 24.0208 22.1741L24.0208 22.1985L24.0453 22.2473Q24.0453 22.2778 24.0758 22.3022L24.0758 22.3999Q24.0453 22.3999 24.0453 22.4487Q23.9964 22.699 23.9232 22.9492Q23.85 23.1995 23.7706 23.4497Q23.5997 23.9014 23.5997 24.4995Q23.5997 24.9023 23.7462 25.2014Q23.8988 25.5005 24.326 25.5005Q24.5458 25.5005 24.7228 25.4272Q24.9242 25.3479 25.3087 25.061Q25.6993 24.7742 26.096 24.3896Q26.4989 23.999 26.7857 23.6511Q27.0726 23.2971 27.0726 23.1262Q27.1458 22.998 27.2679 22.8638Q27.3961 22.7234 27.3473 22.6013Q27.6708 22.1008 27.9088 21.3867Q28.1468 20.6726 28.3055 19.928Q28.4703 19.1772 28.5252 18.5974Q28.5741 18.4021 28.5985 18.3228Q28.6473 18.2251 28.6717 18.2007L28.6961 18.1763Q28.745 18.1274 28.745 18.0237Q28.745 17.9749 28.745 17.9016Q28.745 17.8223 28.7206 17.749Q28.6717 17.6025 28.6717 17.4744Q28.6717 17.3767 28.745 17.1997Q28.8243 17.0227 28.9708 17.0227Q29.1478 17.0227 29.2455 17.2974Q29.3492 17.572 29.4103 17.8894Q29.4713 18.2007 29.4713 18.3777Q29.4713 18.9514 29.3431 19.6655Q29.221 20.3735 29.0257 20.9473Q28.8487 21.4233 28.6351 21.7773Q28.4215 22.1252 28.1468 22.5525L27.8966 22.9492L27.7989 23.1262Q27.7745 23.1018 27.7623 23.2178Q27.7501 23.3276 27.6952 23.3276Q27.6708 23.3276 27.6585 23.3643Q27.6463 23.4009 27.6219 23.4253Q27.4999 23.6267 27.3229 23.7732Q27.2252 23.877 27.1336 23.9624Q27.0482 24.0479 26.9994 24.1516Q26.7247 24.5483 26.3097 25.0122Q25.9007 25.4761 25.4125 25.7996Q24.9242 26.123 24.3993 26.123ZM25.4979 17.7002L25.5223 17.6514L25.5711 17.45Q25.6505 17.1265 26.1205 16.6748Q26.5965 16.2231 26.8956 15.9241Q27.1214 15.7227 27.3473 15.4724Q27.5731 15.2222 27.7989 15.0513Q27.7501 14.8499 27.5853 14.5264Q27.4205 14.2029 27.2313 13.9404Q27.0482 13.678 26.8712 13.678Q26.5965 13.678 26.3707 13.8977L26.3219 13.9526Q26.2975 14.0259 26.2242 14.0259L26.096 14.0991Q26.096 14.1235 26.0716 14.1235L26.0716 14.1724Q25.974 14.3982 25.8458 14.6484Q25.7726 14.7522 25.7359 14.8376Q25.6993 14.9231 25.6749 14.978Q25.5467 15.3992 25.4613 15.8508Q25.3758 16.3025 25.3758 16.748Q25.3758 16.9983 25.4002 17.2363Q25.4247 17.4744 25.4979 17.7002ZM27.651 35.376Q27.596 35.376 27.5228 35.3027Q26.9491 35.1013 26.473 34.7473Q25.9969 34.3994 25.9969 33.728Q25.9969 33.374 26.1251 33.0017Q26.1983 32.8247 26.235 32.6477Q26.2716 32.4768 26.296 32.2998L26.3998 32.2266L26.473 31.8237L26.6988 31.4026Q26.7965 31.2012 26.9491 30.8716Q27.0956 30.5481 27.2604 30.249Q27.4251 29.95 27.5472 29.8523L27.5472 29.7241L27.6754 29.8279Q27.95 29.3762 28.3285 29.0588Q28.7008 28.7476 29.1219 28.4485Q29.1219 28.2776 29.2745 28.2471L29.1952 28.1494L29.3722 28.1006L30.9713 26.7517L30.9957 26.6724Q30.9957 26.5747 30.9713 26.5015Q31.075 26.5259 31.1239 26.6724Q31.1727 26.825 31.1727 26.7273L31.1727 26.6724L31.2459 26.6235L31.3009 26.5747Q31.2704 26.5747 31.2459 26.5625Q31.2215 26.5503 31.1727 26.5259L31.2459 26.4221L31.2704 26.3733Q31.3497 26.3 31.3985 26.3Q31.4474 26.3 31.4352 26.3489Q31.4229 26.3977 31.4474 26.3733L31.6732 26.0498L31.7464 26.1475L31.8502 26.0254L31.8502 25.9766Q31.9967 25.9521 32.2835 25.7263Q32.5704 25.5005 32.6009 25.3723L32.6498 25.3723L33.4493 24.9756L33.8705 24.6277L33.9742 24.6277L33.9742 24.6521Q34.2489 24.4263 34.5846 24.1882Q34.9203 23.9502 35.2987 23.9502L35.2987 23.9014L35.4208 23.9258Q35.4452 23.877 35.4696 23.7793Q35.5001 23.6755 35.5245 23.5779L35.5978 23.1018Q35.5978 23.053 35.671 22.7173Q35.7503 22.3755 35.7748 22.3511L35.8968 22.2229Q35.9701 22.2229 35.9701 22.1741Q35.9701 22.1497 35.9212 22.1008L35.8968 22.1008Q35.848 22.052 35.848 21.9727Q35.848 21.8262 35.9212 21.6736Q35.9701 21.6003 35.9823 21.5271Q36.0006 21.4478 36.025 21.3745L36.0006 21.3745Q35.9212 21.3745 35.9212 21.2769Q35.9212 21.0754 36.0738 20.8496Q36.1959 20.6482 36.1959 20.4773Q36.1959 20.1233 36.2752 19.7998Q36.2997 19.6228 36.3119 19.4641Q36.3241 19.2993 36.3241 19.1223Q36.3241 18.927 36.2997 18.8477Q36.2997 18.9026 36.2203 18.9514L36.2508 18.9514Q36.0006 19.397 35.6344 20.0256Q35.2743 20.6482 34.9081 21.2646Q34.548 21.875 34.2245 22.3267Q33.6507 23.1262 32.9488 23.8159Q32.2469 24.4995 31.3497 24.9512L31.2704 24.9268Q31.1483 25.0244 31.0079 25.0488Q30.8736 25.0732 30.7455 25.0732Q30.1717 25.0732 29.9337 24.5911Q29.6957 24.1028 29.6957 23.5779Q29.6957 23.1506 29.7567 22.699Q29.8238 22.2473 30.0008 21.8262L30.0741 21.6248Q30.0985 21.6003 30.0985 21.4478Q30.2206 21.3745 30.306 21.1609Q30.3976 20.9473 30.3976 20.8008Q30.5257 20.7275 30.5501 20.5505L30.6478 20.3979Q30.6966 20.3247 30.8248 20.3247Q30.8248 20.1233 30.8858 19.9524Q30.9469 19.7754 31.1483 19.7754L31.1483 19.6472L31.2704 19.4763L31.1727 18.9758Q31.2459 18.8721 31.3924 18.6646Q31.545 18.4509 31.6 18.3228Q31.5206 18.2495 31.5206 18.1519Q31.5206 17.926 31.8258 17.627L31.9479 17.4988Q32.1249 17.3279 32.1249 17.1265L32.3202 17.1021Q32.3507 16.9495 32.5216 16.9495L32.5704 16.9495Q32.6742 16.6992 32.7596 16.5771Q32.8451 16.449 32.9488 16.3757Q33.0221 16.3025 33.0709 16.272L33.1747 16.1987Q33.3456 16.0767 33.4188 15.979Q33.4981 15.8752 33.6202 15.6738Q33.6751 15.5762 33.724 15.5029Q33.7728 15.4236 33.8216 15.3503Q34.2001 15.0024 34.8226 14.8499Q35.4452 14.6973 35.9457 14.6973Q36.4217 14.6973 37.0321 14.8743Q37.6485 15.0513 37.9232 15.5273Q38.1979 16.0278 38.4359 16.5039Q38.6739 16.9739 38.6739 17.572Q38.6739 17.627 38.6739 17.7002Q38.6739 17.7734 38.6495 17.8223Q38.6251 17.9016 38.6251 17.9749Q38.6251 18.0481 38.6251 18.103Q38.6251 18.1519 38.6251 18.2251Q38.6251 18.2983 38.6495 18.3777Q38.6739 18.4509 38.6739 18.5242Q38.6739 18.5974 38.6739 18.6523Q38.6739 18.75 38.5458 19.0369Q38.4237 19.3237 38.2711 19.5862Q38.1246 19.8486 37.9964 19.8486Q37.9232 19.8486 37.8988 19.7754Q37.8744 19.7021 37.8744 19.6777Q37.8744 19.5496 37.8866 19.4275Q37.8988 19.2993 37.9232 19.1772Q37.9476 19.0491 37.972 18.927Q37.9964 18.7988 38.0209 18.6768Q38.1002 18.4021 38.149 18.1152Q38.1979 17.8223 38.1979 17.5476Q38.1979 17.3767 38.1734 17.1509Q38.149 16.925 38.0758 16.803Q38.0209 16.6992 37.972 16.626Q37.9232 16.5527 37.8744 16.4734Q37.8255 16.4001 37.7462 16.3269Q37.673 16.2476 37.6241 16.1499Q37.3739 15.8264 37.026 15.8264Q36.849 15.8264 36.6964 15.8997L36.6231 15.9485Q36.495 15.9485 36.4095 15.9607Q36.3241 15.9729 36.1959 16.0522L36.0494 16.1255L35.8968 16.2231Q34.2977 17.2729 33.0953 18.8782Q31.899 20.4773 31.1239 22.2229Q30.9469 22.6257 30.7577 23.0896Q30.5746 23.5474 30.5746 23.9746Q30.5746 24.176 30.6478 24.3774L30.6722 24.4019Q30.6966 24.4263 30.776 24.4263Q30.9469 24.4263 31.1971 24.2249Q31.4474 24.0234 31.6976 23.7732Q31.9479 23.5229 32.1249 23.4009Q32.2958 23.2239 32.4483 23.1995Q32.6498 22.8516 32.9244 22.5769Q33.0465 22.4487 33.1686 22.3145Q33.2967 22.1741 33.4005 22.052Q33.9986 21.2769 34.6578 20.3552Q35.3231 19.4275 35.6466 18.7012Q35.6954 18.573 35.7442 18.4265Q35.7992 18.2739 35.8236 18.1519Q35.848 17.926 36.1471 17.6758L36.5255 17.6025Q36.7452 17.6758 36.9466 17.6758Q37.0748 17.6758 37.148 17.6514L37.3495 17.6514Q37.6241 17.6514 37.6852 17.926Q37.7462 18.2007 37.7706 18.4021Q37.7706 18.4753 37.795 18.4998L37.8255 18.573Q37.85 18.6768 37.8255 18.75Q37.85 18.8721 37.8622 18.9636Q37.8744 19.0491 37.8744 19.0979Q37.8744 19.5251 37.7706 19.8242Q37.6485 20.2026 37.6485 20.5505Q37.6485 20.8252 37.4959 21.0999Q37.3495 21.3501 37.3495 21.6736Q37.3495 21.9238 37.1725 21.9238L37.148 21.9238Q37.0992 21.9238 37.0748 21.9482Q37.0748 21.9971 37.1236 22.052Q37.148 22.1008 37.148 22.1985Q37.148 22.2229 37.1114 22.3389Q37.0748 22.4487 37.0504 22.4976Q37.026 22.6013 36.849 22.6013Q36.7452 22.6257 36.672 22.6379Q36.5987 22.6501 36.5499 22.6501L36.5255 22.6501Q36.5255 22.699 36.5987 22.6746Q36.6231 22.6501 36.7208 22.6501Q36.7757 22.6501 36.8978 22.6624Q37.026 22.6746 37.026 22.7722Q37.026 22.8516 36.9222 23.0896Q36.8246 23.3276 36.7086 23.5779Q36.5987 23.822 36.5499 23.9502L36.6476 24.0723L36.5987 24.1272Q36.5987 24.1516 36.5743 24.176L36.4706 24.2737Q37.0748 24.4019 37.3739 24.6643Q37.673 24.9268 37.673 25.6226Q37.673 25.8972 37.5753 25.9766Q37.4959 26.0254 37.4471 26.1475Q37.4227 26.2024 37.3617 26.2756Q37.3006 26.3489 37.2457 26.3489Q37.148 26.3489 37.148 26.2756L37.148 26.2512L37.0748 26.2512L37.2213 25.8484Q37.2457 25.7751 37.2701 25.6958Q37.3006 25.6226 37.3006 25.5493Q37.3006 25.2747 36.8734 25.1343Q36.4461 25 36.1715 24.9512Q35.7748 25.8972 35.2621 26.825Q34.7494 27.7527 34.2489 28.6499Q34.0719 28.9734 33.8827 29.2969Q33.6996 29.6265 33.4981 29.9744Q33.0953 30.6519 32.6742 31.25Q32.3507 31.7261 31.9234 32.2266Q31.5206 32.7026 31.1727 33.197Q30.8492 33.6975 30.4586 33.9478Q30.0741 34.198 29.6468 34.4116Q29.2257 34.6252 28.7252 35.022Q28.475 35.022 28.2247 35.199Q27.9989 35.376 27.7242 35.3271Q27.6754 35.376 27.651 35.376ZM30.898 20.752L30.9469 20.7275L30.8736 20.6482L30.8248 20.752L30.898 20.752ZM27.0956 34.4482Q27.1993 34.4238 27.2848 34.4116Q27.3702 34.3994 27.4251 34.3994Q27.4984 34.3506 27.5777 34.2834Q27.651 34.2224 27.7486 34.1736L28.1209 33.9478Q28.3224 33.8257 28.4994 33.6975Q28.6703 33.5754 28.7984 33.4473Q28.8473 33.3984 28.9022 33.3496Q28.951 33.3008 28.9999 33.252Q29.0487 33.1726 29.1097 33.0994Q29.1708 33.0261 29.2257 32.9773Q29.2745 32.8979 29.3355 32.8247Q29.3966 32.7515 29.4454 32.7026Q29.5003 32.6233 29.5614 32.55Q29.6224 32.4768 29.6712 32.428L29.8238 32.3486L29.8238 32.373Q29.9459 32.2266 30.0924 32.074Q30.245 31.9275 30.3976 31.8237L30.3731 31.7993L30.8248 31.3721L30.8248 31.5247Q30.8736 31.4758 30.898 31.4514Q30.9225 31.427 30.9469 31.4026L31.0995 31.0486L31.075 31.0242L30.9957 31.0974L30.898 31.0974L30.898 30.9998Q31.1971 30.603 31.5938 30.1392Q31.9967 29.6753 32.3202 29.1992Q32.6498 28.7231 32.6742 28.302L33.0709 27.8992L33.0953 27.8992L33.5958 27.0508L33.5226 26.8738L34.3221 25.8728Q34.3465 25.7019 34.5235 25.5005Q34.67 25.2991 34.67 25.0977Q34.67 25.0244 34.6212 25.0244Q34.3709 25.0244 33.7484 25.4761Q33.6507 25.5249 33.5226 25.5981Q33.4005 25.6775 33.2723 25.7751Q33.0221 25.9521 32.7962 26.001L31.6732 26.8738L31.6488 26.8738L29.6468 28.5278Q29.4759 28.6987 29.2013 29.0955Q28.9205 29.4983 28.7984 29.8279L28.7008 29.7241Q28.7252 29.7485 28.5726 29.9988Q28.5238 30.127 28.475 30.2124Q28.42 30.2979 28.3956 30.3528L28.3956 30.4016Q28.3956 30.426 28.3712 30.4749Q28.3468 30.5237 28.2735 30.4993L28.2491 30.4749L27.6205 31.4514L27.5472 31.4514L27.5228 31.427Q27.4984 31.4758 27.4984 31.5491Q27.4984 31.6223 27.474 31.6772Q27.474 31.7993 27.3702 31.8726L26.9002 33.0505Q26.9002 33.1482 26.888 33.2336Q26.8758 33.3252 26.8453 33.4229Q26.7965 33.6243 26.7965 33.7769Q26.7965 34.2224 27.0956 34.4482ZM44.2483 13.3484Q43.876 13.3484 43.6624 13.0127Q43.4488 12.677 43.4488 12.3474Q44.1995 11.7981 44.9625 11.261Q45.7254 10.7239 46.525 10.4248L46.824 10.199L46.8484 10.3027Q46.8484 10.4492 46.5188 10.7117Q46.1954 10.9741 46.0489 11.0229Q46.0245 11.0779 45.7986 11.438Q45.5728 11.7981 45.2615 12.2375Q44.9502 12.677 44.6573 13.0127Q44.3704 13.3484 44.2483 13.3484ZM39.3472 24.8474Q38.9993 24.8474 38.7979 24.585Q38.5965 24.3225 38.5232 23.9502Q38.45 23.5779 38.45 23.2971Q38.45 22.3267 38.7857 21.3379Q39.1214 20.3491 39.5975 19.5251Q39.7256 19.2993 39.8721 19.1223L40.1224 18.75Q40.1956 18.6279 40.275 18.4509Q40.3238 18.2739 40.4214 18.1763Q40.5496 17.926 40.7083 17.6514Q40.8731 17.3767 41.0501 17.1021Q41.398 16.5222 41.398 15.9241Q41.4224 15.9485 41.4712 15.9485L41.4957 15.9485Q41.5994 15.9485 41.6482 15.9241L41.7459 15.9241Q41.9961 15.9241 42.3318 16.1499Q42.6736 16.3757 42.9483 16.687Q43.2229 16.9983 43.2229 17.2485Q43.2229 17.4255 43.0337 17.6514Q42.8506 17.8772 42.6248 18.103L42.399 18.3228L42.1731 18.573Q41.9961 18.7744 41.8191 19.0125Q41.6482 19.2505 41.4957 19.5251Q41.4468 19.574 41.4468 19.6472Q41.4468 19.751 41.4224 19.7754Q41.4224 19.928 41.1722 20.0256L41.1722 19.8975Q40.5496 20.5261 40.1346 21.4783Q39.7256 22.4243 39.7256 23.2727L39.7256 23.4985Q39.7256 23.6755 39.7745 23.7244Q39.7989 23.822 39.8721 23.822L39.9209 23.822Q39.9209 23.8525 39.9454 23.8525Q39.9454 23.877 39.9759 23.877L39.9759 23.9014Q39.9759 23.9502 39.8965 24.0234L39.8721 24.0479Q39.8233 24.1028 39.8233 24.1028Q39.8233 24.1272 39.9942 24.1638Q40.1712 24.2004 40.1956 24.2004Q40.2994 24.2004 40.5252 24.0112Q40.751 23.822 40.9952 23.6023Q41.2454 23.3765 41.398 23.2727Q41.575 23.1262 41.7215 23.0774Q41.9229 22.8271 42.1243 22.5769Q42.3257 22.3267 42.4966 22.0764Q42.698 21.8262 42.8812 21.6003Q43.0704 21.3745 43.2718 21.1243L43.2718 21.0754Q43.2718 21.0266 43.4061 20.813Q43.5464 20.5994 43.7112 20.4041Q43.876 20.2026 43.9249 20.2026Q43.9493 20.2271 43.9493 20.3247Q43.9493 20.4224 43.9249 20.4529Q43.7723 20.7764 43.4732 21.3623Q43.1741 21.9482 42.8567 22.4487Q42.5455 22.9492 42.2708 23.0225Q42.222 23.1506 42.1182 23.3276Q42.0206 23.4985 41.8741 23.5474Q41.8008 23.6755 41.6727 23.6755Q41.5994 23.877 41.4957 23.9014Q41.4468 23.9502 41.398 23.9868Q41.3492 24.0234 41.3248 24.0479Q41.3003 24.1516 41.1478 24.2371Q40.9952 24.3225 40.8975 24.3774Q40.7754 24.4995 40.574 24.6521Q40.3726 24.7986 40.1712 24.7986L40.0979 24.7986L40.0247 24.7742L39.9759 24.7742Q39.9454 24.7498 39.8965 24.7498Q39.8233 24.7498 39.6219 24.7986Q39.4205 24.8474 39.3472 24.8474ZM42.3975 25.1526Q42.3731 25.1221 42.3243 25.1221Q42.2999 25.0977 42.2205 25.0977Q42.1961 25.0732 42.1473 25.0488Q42.0984 25.0244 42.0496 24.9756L42.2205 24.9756Q42.2754 24.9512 42.3365 24.9268Q42.3975 24.9023 42.4219 24.8779Q42.5745 24.7742 42.6478 24.7498Q42.7759 24.6765 42.9102 24.3896Q43.0506 24.1028 43.1849 23.7671Q43.3252 23.4253 43.3985 23.2483L43.4717 22.9492Q43.4717 22.8271 43.5206 22.6746Q43.5755 22.3999 43.6854 22.1497Q43.7952 21.8994 43.9234 21.6248Q43.9234 21.6248 43.9722 21.3989Q43.9722 21.1975 43.9966 21.1487Q43.9722 21.1487 43.9722 21.1243L43.9234 21.1243Q43.899 21.1243 43.8746 21.0999Q43.8746 21.0754 43.899 21.051L43.899 21.0266L44.1004 20.6482Q44.198 20.4529 44.3995 20.3979Q44.4727 20.2026 44.6863 19.8303Q44.9 19.4519 44.9 19.2993Q44.9 19.0979 44.8206 18.927Q44.7229 18.7988 44.7229 18.573Q44.7229 18.5242 44.7352 18.4753Q44.7474 18.4265 44.7718 18.3777Q44.7962 18.3228 44.7962 18.2617Q44.7962 18.2007 44.8206 18.1519Q44.845 18.103 44.8938 17.8772Q44.9488 17.6514 44.9976 17.4133Q45.0464 17.1753 45.0709 17.1021Q45.1502 16.5222 45.3455 16.3025L45.2967 16.2476Q45.4249 16.1011 45.5347 15.8997Q45.6507 15.6982 45.6507 15.5029Q45.6507 15.3992 45.6202 15.3503Q45.5713 15.3015 45.5713 15.2222Q45.5713 15.1001 45.669 15.0269Q45.7728 14.9475 45.846 14.8987L45.846 14.8743Q45.6995 14.8254 45.6507 14.7766Q45.5713 14.6973 45.4737 14.6973L45.4737 14.5996Q45.4737 14.5752 45.4615 14.6118Q45.4493 14.6484 45.4249 14.6484Q45.4493 14.6484 45.4249 14.6729L45.3455 14.6484Q45.2967 14.624 45.2601 14.624Q45.2234 14.624 45.1746 14.5996Q45.1258 14.5996 45.0709 14.5874Q45.022 14.5752 44.9732 14.5508Q44.8755 14.5264 44.8755 14.4226Q44.8755 14.3738 44.9976 14.3127Q45.1258 14.2517 45.1746 14.2517Q45.5469 14.325 46.084 14.4531Q46.6211 14.5752 47.1094 14.7522Q47.5977 14.9231 47.7503 15.1489Q47.7991 15.2222 47.8113 15.3137Q47.8235 15.3992 47.8235 15.4724Q47.8235 15.6982 47.6954 15.9973L47.4756 16.5222Q47.3963 16.626 47.3963 16.7236Q47.3963 16.8274 47.2315 17.0166Q47.0728 17.1997 46.9507 17.2485Q46.9751 17.2729 46.9751 17.2852Q46.9751 17.2974 46.9751 17.2974Q46.9751 17.3523 46.9996 17.3767Q47.0972 17.3767 47.0484 17.45Q47.0972 17.4988 47.0972 17.6025Q47.0972 17.6758 47.0606 17.7673Q47.024 17.8528 46.9202 17.8772Q46.8958 17.9016 46.8958 17.926Q46.847 18.0237 46.847 18.103L46.847 18.1274L46.8714 18.1274Q46.8714 18.4021 46.7005 18.4265Q46.6456 18.6279 46.5235 18.9026Q46.3465 19.2261 46.2732 19.397L46.2732 19.4275Q46.2732 19.5007 46.2244 19.5007L46.1756 19.5496Q46.1451 19.6228 46.0474 19.7266Q46.023 19.7754 45.9864 19.812Q45.9498 19.8486 45.9253 19.8975Q45.8704 19.9768 45.8216 20.05Q45.7728 20.1233 45.8216 20.2515L45.7972 20.2515L45.7972 20.2759Q45.7972 20.3491 45.7728 20.3491Q45.7239 20.4529 45.6324 20.5505Q45.5469 20.6482 45.4004 20.697L44.6009 22.6501Q44.5704 22.7478 44.4483 22.8027L44.6009 22.9492L44.3995 22.9492L44.4971 23.053L44.375 23.053L44.3506 23.0774L44.2957 23.0774Q44.2713 23.1018 44.1736 23.1018L44.1736 23.2483L44.2225 23.2727L44.1248 23.4497L44.1004 23.4741L44.021 23.4741Q43.9234 23.5229 43.9234 23.5229Q43.8746 23.5779 43.8746 23.6267Q43.8746 23.7732 43.899 23.7976Q43.9966 23.7 44.2347 23.4253Q44.4727 23.1506 44.7229 22.8149Q44.9732 22.4731 45.1441 22.1863Q45.3211 21.8994 45.2967 21.8262Q45.4249 21.8262 45.5225 21.5759Q45.5958 21.5027 45.6507 21.4233Q45.6751 21.3745 45.7483 21.3013Q46.2488 20.8984 46.6456 20.4163Q47.0484 19.928 47.4451 19.4275Q47.8235 18.927 48.2447 18.4265Q48.6719 17.926 49.2457 17.45Q49.6729 17.1021 50.21 16.6626Q50.7471 16.2231 51.2964 15.8997Q51.8458 15.5762 52.273 15.5762Q52.5721 15.5762 52.5721 15.8997Q52.5721 16.0278 52.5477 16.1926Q52.5232 16.3513 52.4744 16.4734Q52.3218 16.9006 52.1204 17.3523Q51.9251 17.7979 51.7237 18.2251Q51.5467 18.5974 51.449 18.927Q51.3209 19.3237 51.15 19.6472Q51.095 19.7266 51.0584 19.7632Q51.0218 19.7998 50.9974 19.8242Q50.9974 19.8486 50.9852 19.9158Q50.9729 19.9768 50.9485 20.05L51.1255 20.0256Q50.9485 20.4224 50.8326 20.7642Q50.7227 21.0999 50.7227 21.4722Q50.7227 21.5515 50.6739 21.6003L50.6739 21.6248Q50.5457 21.6248 50.5213 21.6003Q50.4725 21.6003 50.4236 21.6492Q50.3992 21.6736 50.3992 21.7529Q50.3748 21.7773 50.3748 21.814Q50.3748 21.8506 50.3504 21.875L50.5213 21.8018Q50.4969 22.0276 50.448 22.1985Q50.4236 22.3022 50.4114 22.3755Q50.3992 22.4487 50.3992 22.5525Q50.3992 22.9004 50.5579 23.1262Q50.7227 23.3521 51.095 23.3521Q51.1744 23.3521 51.1988 23.3276L51.272 23.3276Q51.3758 23.2727 51.5467 23.1873Q51.7237 23.1018 51.9007 22.9736Q52.096 22.8516 52.273 22.7295Q52.45 22.6013 52.5965 22.2473Q52.4988 22.699 52.4317 22.8149Q52.3707 22.9248 52.0228 23.2239Q51.6749 23.4985 51.1622 23.8403Q50.6495 24.176 50.149 24.176Q49.7217 24.176 49.4349 23.9136Q49.148 23.6511 48.971 23.3276L48.8733 23.2239Q48.7757 23.1262 48.7757 23.0225Q48.7757 22.9736 48.8001 22.9492L48.8001 22.9004L48.9466 22.8516L48.971 22.8271Q48.9466 22.7722 48.9344 22.7234Q48.9222 22.6746 48.9222 22.6257L48.9222 22.4487Q48.9222 21.9482 49.0076 21.4478Q49.0992 20.9473 49.2212 20.4529L49.2457 20.4529Q49.3006 20.0256 49.4715 19.751L49.5203 19.6777L49.3982 19.6777L49.4715 19.574L49.3982 19.3481Q49.4471 19.2505 49.5813 18.8904Q49.7217 18.5242 49.8438 18.1763Q49.972 17.8223 49.9964 17.7734Q49.8987 17.7734 49.8255 17.8528Q49.148 18.3472 48.6475 19.0247Q48.3973 19.3726 48.1348 19.7021Q47.8724 20.0256 47.5977 20.3491Q47.0484 20.9778 46.4258 21.6003Q46.0962 21.8994 45.8216 22.2107Q45.5469 22.522 45.2723 22.876L44.5215 23.877Q44.1492 24.353 43.722 24.823Q43.4229 25.1221 43.1238 25.1221Q42.9712 25.0977 42.8125 25.1221Q42.6478 25.1526 42.4708 25.1526L42.3975 25.1526ZM45.5225 20.3735Q45.5713 20.2515 45.6751 20.2515L45.5958 20.1477Q45.5713 20.2026 45.5469 20.2637Q45.5225 20.3247 45.4981 20.3735L45.5225 20.3735Z"
            fill="url(#paint_radial_3)"
            fill-rule="nonzero"
          />
        </svg>