<svg xmlns="http://www.w3.org/2000/svg" fill="none" viewBox="0 0 52.66 36"><defs><radialGradient id="a" cx="0" cy="0" r="1" gradientTransform="matrix(25 0 0 18 27.66 18)" gradientUnits="userSpaceOnUse"><stop offset=".181" stop-color="#ff740b"/><stop offset=".561" stop-color="#ff3a05"/><stop offset="1" stop-color="red"/></radialGradient></defs><path fill="url(#a)" d="M19.25 27.228q0-.128.22-.47.226-.336.226-.433 0-.025-.049-.025-.049-.049-.073-.128l-.049-.147q-.024-.073-.055-.152l-.049-.147q-.274-.927-.872-1.19-.599-.262-1.502-.262h-.049q-.073-.05-.152 0-.05.024-.171.024-.202 0-.202-.146 0-.129-.097-.129-.104 0-.202.104-.128.122-.177.122-.073 0-.274-.122Q15.52 24 15.326 24q-.104 0-.128.024-.05.025-.122.025-.03 0 0-.098.048-.073 0-.073-.03 0-.129.049-.097.049-.2.049-.172 0-.373-.123-.104-.079-.379-.079h-1.794q-.153 0-.305.012-.147.013-.3.037-.146.03-.298.055l-.324.049q-.55.049-1.117.073l-1.11.049q-.55.024-1.1.152-.549.123-1.098.324-.25.104-.574.152l-.58.074q-.073.201-.164.427-.086.226-.208.421v.049q-.024 0-.201.311-.171.318-.275.367.049.048.049.097 0 .104-.147.104.025.024.025.049 0 .024-.153.158-.146.14-.311.263-.165.128-.238.128h-.098q-.049.049-.152.049-.122 0-.25-.122-.05.024-.098-.049-.025-.104-.128-.104l-.147-.049q-.104 0-.104-.122l-.17-.024q-.025.073-.153.073v-.024q-.049-.025-.11-.037t-.165-.012q.05-.153.05-.177-.025.024-.05.024-.024 0-.049.025-.024.024-.097.024v-.049l-.153-.049h-.073q-.08 0-.104.025h-.097l-.05-.073v.024H1.55q-.177 0-.177-.128h-.049q-.177 0-.427.128-.097.049-.195.061-.104.012-.202.012H.47q-.049 0-.256-.036Q0 26.477 0 26.422l.049-.049q.049-.024.128-.049.073-.024.17-.048.153-.025.202-.226.25-.122.489-.263l.488-.287q.024.025.122.025t.153-.122q.073-.128.274-.128.226-.122.61-.336.385-.214.757-.385.379-.177.556-.177.201-.152.335-.213.14-.061.367-.061.024-.055.049-.104l.048-.098.074-.201q-.025 0-.025-.024 0-.025.025-.025.055-.128.14-.311.085-.19.214-.44.122-.225.207-.409.092-.189.14-.317.05-.122.25-.25.202-.122.202-.226 0-.098-.024-.146-.05-.05-.05-.153 0-.098.135-.397.14-.305.311-.592.177-.287.25-.311v-.073q-.024 0-.024-.05 0-.127.128-.2l.098-.05q.049-.024.073-.048l.226-.403q.049-.098.11-.208.067-.116.116-.22.098-.25.232-.56.14-.312.47-.385-.08 0-.08-.104 0-.049.08-.073.024 0 .073-.05-.024 0-.024-.024h-.025q-.628-.427-1.08-1.11-.446-.69-.446-1.465 0-.202.062-.537.06-.336.195-.623.14-.293.342-.293.128 0 .164.14.037.135.037.239 0 .097-.012.213-.012.11-.037.208-.073.225-.073.451 0 .574.397 1.178.403.598.848.898.354-.501.775-1.185.427-.69.86-1.373.44-.69.77-1.166.598-.927 1.233-1.825.64-.903 1.391-1.727.074-.073.3-.336.225-.262.512-.549t.525-.513.336-.225q.128 0 .097.262-.024.262.08.262.122-.048.158-.25.037-.201.074-.44.042-.237.165-.335.103-.098.25-.201.073-.05.226-.202.097-.073.152-.195.025-.08.171-.177h.055q.049 0 .049.049v.103l.024-.024q.122-.128.171-.378.055-.202.226-.3.055-.024.152-.073.098-.055.098-.103l-.049-.098q-.073-.049-.073-.128v-.05q0-.048.238-.17.238-.128.47-.238l.238-.116q.055 0 .055.073 0 .104-.104.244-.097.135-.17.208l.097-.024q.049-.025.122 0 .08.024.153.048.128.08.25.08h.098q.055 0 .055-.055 0-.05-.129-.122-.146-.074-.146-.177 0-.05.061-.171.061-.128.11-.128t.049.024q-.05.049.055.049.048 0 .122-.098.024-.073.097-.152h.08q.049 0 .073-.025 0-.073-.049-.073Q19 4.999 19 4.9q0-.128.311-.323.312-.202.385-.226.378-.177.787-.226.415-.049.843-.049.671 0 1.349.073.67.098 1.324.153.25.049.598.214.348.158.525.36v.012q0 .012.024.037 0 .048-.024.048-.049.05-.049.074 0 .055.214.256.213.195.421.458.214.262.214.561 0 .128.024.202v.201q0 .177-.098.275-.128.122-.128.274 0 .05.03.074v.103q0 .098-.09.348-.086.25-.086.324-.025.073-.104.152l-.098.147q-.049.08-.073.33t-.152.25q-.025 0-.074-.055l-.049-.073H25q-.128.2-.153.549-.024.177-.06.354-.037.17-.141.299-.97 1.623-2.246 2.79-1.276 1.159-2.85 2.233-1.203.8-2.643 1.563-1.435.762-2.973 1.25-1.538.49-3.033.49-.452 0-1.001-.062-.55-.067-.952-.317-.873 1.373-1.715 2.789-.837 1.41-1.41 2.911.427-.146.86-.256.44-.116.891-.22.422-.097.873-.195l.873-.201q.08-.025.226-.129.055-.048.201-.097.074-.025.275-.025.049.025.122.025h.128q.403 0 .726-.153.348-.146.727-.146.122 0 .122.048 0 .074.177.074.146 0 .25-.074l.25-.073q.202-.024.385-.036.19-.019.39-.019h.751q.8 0 1.825.067 1.026.061 1.996.25.977.184 1.654.587.775.396.775 1.3 0 .177-.012.33-.012.146-.043.317-.024.152-.036.299-.012.152-.012.33 0 .146.024.225.024.049.024.171 0 .128-.201.39-.195.263-.433.489t-.336.226zm-8.13-9.577q2.1 0 3.956-.701.024 0 .372-.171.348-.177.787-.403l.776-.397q.335-.177.36-.177.055 0 .055.024-.055.05.024.05.146 0 .275-.202.122-.202.225-.3.123-.048.3-.152.17-.098.274-.098 0 .05-.049.098-.055.055-.055.104h.03q.05 0 .337-.202.287-.2.287-.25v-.049q-.025 0-.025-.048 0-.153.226-.177.25-.05.299-.098 1.349-1.105 2.399-2.454 1.05-1.348 1.922-2.826.03-.048.116-.134.086-.085.19-.165l.22-.195q0-.104-.05-.055-.073.025-.073-.073 0-.122.098-.25.128-.153.152-.25.153-.324.275-.837t.122-.86q0-.605-.25-.977-.244-.378-.922-.378-.726 0-1.538.317-.812.311-1.434.684-.055.024-.269.213-.207.19-.409.366-.201.171-.274.171-.025 0-.025-.097l-.024-.025q-.049 0-.202.147-.073.103-.128.152l-.073.074-.372.299q-.104.103-.202.177-.097.073-.201.146-.226.177-.452.427-.098.129-.214.226-.11.098-.231.202l-.177.073q-.098.024-.153.073-.049.055-.049.104 0 .073-.049.122-.097.104-.213.201-.11.098-.287.202-.171.097-.3.201-.121.098-.225.195-1.074 1.002-2.362 2.326t-2.502 2.728q-1.209 1.398-2.033 2.65.146.097.494.152.354.049.715.073.366.024.537.024m-7.696 8.826q.25 0 .421-.305.177-.3.311-.678l.214-.567q-.17 0-.574.085-.396.086-.848.22-.452.14-.775.317-.324.177-.324.348 0 .128.348.263.348.14.739.226.384.091.488.091m20.975-.354q-.274 0-.464-.14-.189-.135-.36-.336-.33-.421-.555-.72-.22-.3-.22-.904v-.775q0-.226.122-.683.128-.464.311-.916.19-.451.342-.598.22-.726.52-1.422.304-.702.78-1.282-.25-.598-.33-1.233-.073-.64-.073-1.288 0-.201.013-.36.012-.164.036-.366l.08-.098.024-.024v-.104q-.024-.024-.024-.073 0-.104.073-.324.073-.225.134-.451.067-.226.067-.25 0-.05.098-.074l.122-.054q.03-.025.128-.074l.074-.049q.225-.299.659-.42.44-.129.793-.129.75 0 1.111.513.36.512.562 1.16.177-.123.354-.123.073 0 .122.05.402.097.915.426.513.324.513.696v.05q0 .127-.25.353t-.593.464q-.335.238-.646.44-.312.195-.44.268-.177.104-.348.177-.104.024-.177.091-.073.061-.177.11-.122.098-.238.202-.11.097-.232.22l-.226.225q-.079.08-.128.14-.049.062-.122.11-.049.05-.165.129-.11.073-.238.17-.299.202-.323.38-.025.023-.092.213-.06.183-.06.262 0 .275.073.665.079.385.231.733.074.201-.006.44-.073.237-.268.085-.202-.202-.354-.525-.147-.324-.171-.476-.03-.049.018-.073.055-.025.006-.074l-.055-.055q-.024-.024-.024-.073l-.049-.049q-.201.202-.427.666-.22.457-.324.708l-.146.354q-.128.274-.177.274-.098 0-.098-.128v-.024q0-.153.073-.324l.153-.403q-.128.202-.22.44-.085.238-.085.311v.024l.024.05q0 .03.03.054v.098q-.03 0-.03.049-.049.25-.122.5t-.152.5q-.171.452-.171 1.05 0 .403.146.702.153.3.58.3.22 0 .397-.074.201-.08.586-.366.39-.287.787-.671.403-.391.69-.739.287-.354.287-.525.073-.128.195-.262.128-.14.08-.263.323-.5.56-1.214.239-.714.397-1.459.165-.75.22-1.33.05-.196.074-.275.048-.098.073-.122l.024-.025q.049-.049.049-.152v-.122q0-.08-.024-.153-.05-.146-.05-.275 0-.097.074-.274.08-.177.226-.177.177 0 .274.274.104.275.165.592.061.312.061.489 0 .573-.128 1.288-.122.707-.317 1.281-.177.476-.39.83-.214.348-.49.775l-.25.397-.097.177q-.024-.024-.037.092-.012.11-.067.11-.024 0-.037.036-.012.037-.036.061-.122.202-.3.348-.097.104-.188.19-.086.085-.135.189-.274.396-.69.86-.408.464-.896.788-.489.323-1.014.323m1.099-8.423.024-.049.05-.201q.079-.323.549-.775.476-.452.775-.75.225-.202.451-.453.226-.25.452-.42-.049-.202-.214-.526-.165-.323-.354-.586-.183-.262-.36-.262-.274 0-.5.22l-.05.055q-.024.073-.097.073l-.128.073q0 .024-.024.024v.05q-.098.225-.226.475-.073.104-.11.19l-.061.14q-.128.421-.214.873-.085.451-.085.897 0 .25.024.488.025.238.098.464m2.153 17.676q-.055 0-.128-.073-.574-.202-1.05-.556-.476-.348-.476-1.019 0-.354.128-.726.073-.177.11-.354.037-.171.061-.348l.104-.073.073-.403.226-.421q.098-.202.25-.531.147-.324.311-.623.165-.299.287-.397v-.128l.128.104q.275-.452.653-.77.373-.31.794-.61 0-.17.152-.2l-.079-.099.177-.048 1.6-1.35.024-.079q0-.097-.025-.17.104.024.153.17.049.153.049.055v-.055l.073-.049.055-.048q-.03 0-.055-.012l-.073-.037.073-.104.024-.049q.08-.073.128-.073.05 0 .037.049-.012.049.012.024l.226-.323.073.098.104-.123v-.048q.147-.025.433-.25.287-.227.318-.355h.049l.8-.396.42-.348h.104v.024q.275-.226.61-.464.336-.238.715-.238v-.049l.122.025q.024-.049.049-.147.03-.104.055-.201l.073-.476q0-.049.073-.385.08-.341.104-.366l.122-.128q.073 0 .073-.049 0-.024-.049-.073h-.024q-.049-.049-.049-.128 0-.147.073-.3.05-.073.061-.146.019-.08.043-.152h-.024q-.08 0-.08-.098 0-.202.153-.427.122-.202.122-.373 0-.354.08-.677.024-.177.036-.336.012-.165.012-.342 0-.195-.024-.274 0 .055-.08.103h.03q-.25.446-.616 1.075-.36.622-.726 1.239-.36.61-.684 1.062-.573.8-1.275 1.489-.702.684-1.6 1.135l-.079-.024q-.122.097-.262.122-.134.024-.262.024-.574 0-.812-.482-.238-.488-.238-1.013 0-.427.06-.879.068-.452.245-.873l.073-.201q.024-.025.024-.177.123-.073.208-.287.092-.214.092-.36.128-.073.152-.25l.098-.153q.049-.073.177-.073 0-.202.06-.373.062-.177.263-.177v-.128l.122-.17-.097-.501.22-.311q.152-.214.207-.342-.08-.073-.08-.171 0-.226.306-.525l.122-.128q.177-.171.177-.372l.195-.025q.03-.152.202-.152h.048q.104-.25.19-.373.085-.128.189-.201.073-.074.122-.104l.104-.073q.17-.122.244-.22.08-.104.201-.305.055-.098.104-.171.049-.08.098-.153.378-.348 1-.5.623-.153 1.124-.153.476 0 1.086.177.617.177.891.653.275.5.513.977.238.47.238 1.068v.128q0 .073-.024.122-.025.08-.025.153v.25q0 .073.025.153.024.073.024.146v.128q0 .098-.128.385-.122.287-.275.55-.146.262-.275.262-.073 0-.097-.074-.025-.073-.025-.097 0-.128.013-.25.012-.129.036-.25l.049-.251q.024-.128.049-.25.08-.275.128-.562.049-.293.049-.567 0-.171-.025-.397-.024-.226-.097-.348-.055-.104-.104-.177t-.098-.153q-.049-.073-.128-.146-.073-.08-.122-.177-.25-.324-.598-.324-.177 0-.33.074l-.073.048q-.128 0-.213.013-.086.012-.214.091l-.147.073-.152.098q-1.6 1.05-2.802 2.655-1.196 1.6-1.971 3.345-.177.403-.366.867-.183.457-.183.885 0 .201.073.402l.024.025q.025.024.104.024.17 0 .421-.201.25-.202.5-.452t.428-.372q.17-.177.323-.201.202-.348.476-.623.123-.128.245-.263.128-.14.232-.262.598-.775 1.257-1.697.665-.928.989-1.654.048-.128.097-.274.055-.153.08-.275.024-.226.323-.476l.379-.073q.22.073.42.073.129 0 .202-.025h.201q.275 0 .336.275t.086.476q0 .073.024.098l.03.073q.025.104 0 .177.025.122.037.214.012.085.012.134 0 .427-.103.726-.123.379-.123.726 0 .275-.152.55-.147.25-.147.574 0 .25-.176.25h-.025q-.049 0-.073.024 0 .05.049.104.024.049.024.146 0 .025-.037.14-.036.11-.06.16-.025.103-.202.103-.104.025-.177.037t-.122.012h-.024q0 .049.073.025.024-.025.122-.025.055 0 .177.012.128.013.128.11 0 .08-.104.318-.097.238-.213.488-.11.244-.16.372l.099.122-.05.055q0 .025-.024.049l-.103.098q.604.128.903.39.299.263.299.959 0 .274-.098.354-.08.048-.128.17-.024.055-.085.129-.061.073-.116.073-.098 0-.098-.073v-.025h-.073l.146-.403.05-.152q.03-.073.03-.147 0-.274-.428-.415-.427-.134-.701-.183-.397.946-.91 1.874T34.25 28.65q-.177.323-.366.647-.183.33-.385.677-.403.678-.824 1.276-.323.476-.75.977-.403.476-.751.97-.324.5-.714.75-.385.251-.812.465-.421.213-.922.61-.25 0-.5.177-.226.177-.5.128-.05.049-.074.049m3.247-14.624.049-.024-.073-.08-.05.104zm-3.802 13.696q.103-.024.189-.036.085-.013.14-.013.073-.048.153-.116.073-.06.17-.11l.373-.225q.201-.122.378-.25.171-.123.3-.25.048-.05.103-.098l.098-.098q.049-.08.11-.153.06-.073.116-.122.049-.08.11-.152.06-.074.11-.122.054-.08.115-.153t.11-.122l.153-.08v.025q.122-.146.268-.299.153-.146.306-.25l-.025-.025.452-.427v.153l.073-.074.049-.048.152-.354-.024-.025-.08.073h-.097V31q.3-.397.696-.86.403-.465.726-.94.33-.477.354-.898l.397-.403h.024l.5-.848-.072-.177.8-1.001q.023-.171.2-.373.147-.2.147-.402 0-.074-.049-.074-.25 0-.873.452-.097.049-.225.122-.123.08-.25.177-.25.177-.477.226l-1.123.873h-.024l-2.002 1.654q-.171.17-.446.568-.28.402-.403.732l-.097-.104q.024.024-.128.275-.05.128-.098.213-.055.086-.08.14v.05q0 .024-.024.073t-.098.024l-.024-.024-.628.976h-.074l-.024-.024q-.025.049-.025.122t-.024.128q0 .122-.104.196l-.47 1.177q0 .098-.012.184-.012.091-.043.189-.048.201-.048.354 0 .445.299.671m17.152-21.1q-.372 0-.586-.335-.213-.336-.213-.666.75-.549 1.514-1.086.762-.537 1.562-.836l.299-.226.024.104q0 .146-.33.409-.323.262-.47.31-.023.056-.25.416-.225.36-.537.8-.31.439-.604.775-.287.335-.409.335m-4.9 11.5q-.349 0-.55-.263-.202-.262-.275-.635-.073-.372-.073-.653 0-.97.336-1.96.335-.988.811-1.812.129-.226.275-.403l.25-.372q.074-.122.153-.3.049-.176.146-.274.129-.25.287-.525.165-.274.342-.549.348-.58.348-1.178.024.024.073.024h.025q.103 0 .152-.024h.098q.25 0 .586.226.342.226.616.537.275.311.275.561 0 .177-.19.403-.182.226-.408.452l-.226.22-.226.25q-.177.201-.354.44-.17.237-.323.512-.05.049-.05.122 0 .104-.024.128 0 .153-.25.25v-.127q-.622.628-1.037 1.58-.41.946-.41 1.795v.226q0 .177.05.225.024.098.097.098h.049q0 .03.024.03 0 .025.03.025v.024q0 .05-.078.122l-.025.025-.049.055q0 .024.171.06.177.037.202.037.103 0 .33-.189.225-.189.47-.409.25-.226.402-.33.177-.146.323-.195l.403-.5q.202-.25.373-.5l.384-.477q.19-.226.39-.476v-.049q0-.048.135-.262.14-.214.305-.409.165-.201.214-.201.024.024.024.122 0 .097-.024.128-.153.323-.452.91-.299.585-.616 1.086-.312.5-.586.573-.049.129-.153.306-.097.17-.244.22-.073.128-.201.128-.074.201-.177.225-.05.05-.098.086-.049.036-.073.06-.025.105-.177.19l-.25.14q-.123.123-.324.275-.201.147-.403.147h-.073l-.073-.025h-.05q-.03-.024-.078-.024-.074 0-.275.049-.202.048-.275.048m3.05.305q-.025-.03-.074-.03-.024-.025-.103-.025-.025-.025-.074-.05-.049-.024-.097-.072h.17q.055-.025.117-.05.06-.024.085-.048.153-.104.226-.128.128-.073.262-.36.14-.287.275-.623l.213-.519.074-.299q0-.122.049-.274.054-.275.164-.525t.238-.525l.05-.226q0-.201.024-.25-.025 0-.025-.025h-.049q-.024 0-.048-.024 0-.025.024-.049v-.024l.201-.379q.098-.195.3-.25.073-.195.286-.568.214-.378.214-.53 0-.202-.08-.373-.097-.128-.097-.354 0-.049.012-.098t.037-.097q.024-.055.024-.116t.025-.11.073-.275q.055-.226.104-.464t.073-.31q.08-.58.275-.8l-.05-.055q.129-.147.239-.348.116-.202.116-.397 0-.104-.03-.153-.05-.048-.05-.128 0-.122.098-.195.104-.08.177-.128v-.025q-.146-.049-.195-.097-.08-.08-.177-.08V14.6q0-.025-.012.012-.013.036-.037.036.024 0 0 .025l-.08-.025q-.048-.024-.085-.024t-.085-.024q-.05 0-.104-.013-.049-.012-.098-.036-.097-.025-.097-.128 0-.05.122-.11.128-.061.177-.061.372.073.909.201.537.122 1.025.3.489.17.641.396.05.073.061.165.013.085.013.158 0 .226-.129.525l-.22.525q-.079.104-.079.202 0 .103-.165.293-.158.183-.28.232.024.024.024.036v.012q0 .055.025.08.097 0 .048.073.05.049.05.152 0 .074-.037.165-.037.086-.14.11-.025.025-.025.049-.049.098-.049.177v.024h.024q0 .275-.17.3-.055.2-.178.476-.177.323-.25.494v.03q0 .074-.049.074l-.048.049q-.03.073-.129.177-.024.048-.06.085-.037.037-.062.085l-.103.153q-.05.073 0 .201h-.025v.025q0 .073-.024.073-.05.104-.14.201-.086.098-.233.147l-.8 1.953q-.03.098-.152.153l.153.146H44.4l.097.104h-.122l-.024.024h-.055q-.025.025-.122.025v.146l.048.025-.097.177-.025.024h-.079l-.098.049q-.048.055-.048.104 0 .146.024.17.098-.097.336-.372.238-.274.488-.61.25-.342.421-.629.177-.287.153-.36.128 0 .226-.25.073-.073.128-.153.024-.048.097-.122.5-.403.898-.885.402-.488.8-.989.378-.5.799-1 .427-.501 1-.977l.965-.787q.537-.44 1.086-.763.55-.324.977-.324.3 0 .3.324 0 .128-.025.293-.025.158-.074.28-.152.428-.354.88-.195.445-.396.872-.177.372-.275.702-.128.397-.299.72-.055.08-.092.116l-.06.061q0 .025-.013.092-.012.06-.036.134l.177-.024q-.177.396-.293.738-.11.336-.11.708 0 .08-.05.128v.025q-.127 0-.152-.025-.049 0-.097.05-.025.024-.025.103-.024.024-.024.061t-.025.061l.171-.073q-.024.226-.073.396-.024.104-.037.177-.012.074-.012.177 0 .348.159.574.165.226.537.226.08 0 .104-.024h.073q.104-.055.275-.14.177-.086.354-.214.195-.122.372-.244.177-.129.323-.483-.097.452-.164.568-.061.11-.41.409-.347.274-.86.616-.512.336-1.013.336-.427 0-.714-.262-.287-.263-.464-.586l-.098-.104q-.097-.098-.097-.201 0-.05.024-.074V22.9l.147-.048.024-.025q-.024-.055-.037-.104t-.012-.097v-.177q0-.5.086-1.001.091-.5.213-.995h.025q.055-.427.225-.702l.05-.073h-.123l.073-.104-.073-.226q.05-.098.183-.458.14-.366.263-.714.128-.354.152-.403-.097 0-.17.08-.678.494-1.178 1.172-.25.348-.513.677-.263.324-.537.647-.55.629-1.172 1.251-.33.3-.604.61-.275.312-.55.666l-.75 1.001q-.373.476-.8.946-.3.3-.598.3-.153-.025-.312 0-.164.03-.341.03zm3.124-4.78q.05-.122.153-.122l-.08-.103q-.024.055-.048.116-.024.06-.049.11z"/></svg>