<svg xmlns="http://www.w3.org/2000/svg" fill="none" viewBox="0 0 67.302 36"><defs><radialGradient id="a" cx="0" cy="0" r="1" gradientTransform="matrix(32.5 0 0 18 32.825 18)" gradientUnits="userSpaceOnUse"><stop offset=".181" stop-color="#ff740b"/><stop offset=".561" stop-color="#ff3a05"/><stop offset="1" stop-color="red"/></radialGradient></defs><path fill="url(#a)" d="M2.225 26.398q-.049-.025-.14-.05-.086-.023-.208-.048-.25-.024-.25-.226 0-.177.11-.39.116-.208.238-.336.073-.171.177-.226.073-.098.098-.098v.025q.128-.025.415-.5.286-.477.622-1.087t.647-1.074q.318-.464.488-.464l.03-.3q.074-.072.312-.457.238-.39.446-.787.213-.403.213-.507.202-.25.476-.86.275-.61.55-1.27L6.9 16.65q-.122-.152-.073-.348-.128-.128-.39-.451-.263-.324-.263-.5 0-.275.397-.434.403-.165.653-.165.299 0 .403.098 0-.049.11-.397.116-.354.274-.787.165-.44.3-.788.14-.354.213-.427v-.226l.275-.427-.074-.146q-.048-.104-.048-.129 0-.024.024-.024v-.073q.073-.074.11-.36.036-.293.049-.617.018-.323.018-.5 0-.025.012-.074t.037-.048v-.25q0-.129.024-.25v-.501q0-.702-.287-1.337-.287-.64-1.013-.64-.598 0-1.373.378-.775.372-1.502.872-.726.5-1.202.904-.098.097-.19.177-.085.073-.158.17t-.165.178q-.085.073-.183.146l-.451.379h.097q-.073.146-.427.36-.348.213-.519.213v.147h.049v.08l.146-.08v.152h-.097l-.873 1.227H.748v.147h.128q.098 0 .098.079-.25.146-.372.562-.129.408-.129.683 0 .177.068.379.06.2.286.2v.074q-.378-.024-.616-.262t-.208-.617l.147-.146q-.024-.073-.049-.159-.024-.091-.024-.19 0-.03.049-.079l.048.202h.05L.15 12.75q-.024-.073-.024-.146v-.128q0-.05.048-.098v-.08q.025-.024.068-.024.036 0 .06-.024.098 0 .098-.098h.098l-.049-.08V12q0-.05.049-.05v-.073H.449v.074l-.098.122H.303l-.025-.098.073-.024.202-.226.024-.525.049-.073h.098l.103.146.5-.647v-.152h-.152q-.122 0-.122-.074h.05l.024-.073q.299-.274.573-.58.128-.146.275-.28.152-.14.299-.293l.525-.525h.08v-.074q.121-.274.42-.274l.129-.379q.122-.048.408-.195.287-.153.525-.323.238-.177.238-.281.05.152.25.226v-.122q-.024-.025-.024-.104h.025l.274-.22v.073q.177-.152.403-.323.226-.177.446-.177.08-.073.128-.104.098-.049.122-.073l.08-.049q.024 0 .048-.024v-.05h.147q.402-.353.854-.353.195-.122.409-.171t.44-.049v-.08l.152-.073q.922.074 1.483.623.562.55 1.013 1.276v.103q0 .47.202.946.177.428.177.928-.104.073-.14.287t-.074.403q-.036.183-.189.183l-.049.574q-.104.152-.104.427t-.036.513-.263.238v.048q.202.129.202.226-.073.074-.147.122-.104.104-.104.153 0 .024.025.024l-.098.074-.323.8-.153-.147q-.024.122-.152.25-.122.122-.122.25h-.05l.147.3H9.55l-.024.072-.3.226q.123 0 .123.153 0 .25-.263.665-.262.41-.408.61l.024.05q.024-.025.146-.025.153 0 .25.098.428-.678.861-1.35.44-.677.867-1.324.427-.653.86-1.324.44-.678.892-1.325.451-.702 1.086-1.525.635-.824 1.361-1.624.727-.806 1.514-1.453.787-.653 1.538-.976.122-.049.122-.073l.128.024q.122-.073.397-.073h1l.227.097.152-.048-.024.024q.146 0 .17.024l.129-.073q.201.049.348.128.152.074.275.122 0-.103.048-.048l.3.347q.054.05.054-.048v-.104h.025q.25.378.683.69.44.31.812.64.379.324.379.8 0 1.27-.092 2.112-.085.836-.36 1.501-.275.66-.812 1.325-.537.659-1.41 1.556h-.024q-.177.128-.519.452-.336.323-.671.586-.336.262-.489.238l.074.152q-.025.025-.275.238-.25.214-.5.415-.245.196-.324.196l-.049.226-.848.451-.08-.073-.494.244v.055q.17.049.17.146v.013q0 .012-.023.036l-.422.055v.05l-.28.225v.122l-.446-.25.024.451-.549.05v.127q-.476.05-.702.275-.049 0-.073-.024h-.104q-.122 0-.262.024l-.263.049-.048-.049v.024l-.422-.048-.079.146-.5-.049-.672.05q.171.103.47.329.305.22.604.457.3.239.422.391l.225.348q.129.177.25.323.202 0 .489.287t.415.44q.049 0 .098.128l.073.22q.354.201.69.415t.665.44l.921.646q.226.153.477.305.25.147.524.269.025.024.074.128 0 .098.049.098.103 0 .152-.049.024-.024.049-.024h.049q.378.122.628.122.3 0 .745-.074.452-.073.855-.25t.573-.451q.073-.074.104-.147.049-.073.122-.073t.073.122q0 .152-.073.299-.299.55-.964.94-.66.384-1.313.384h-.348q-.799 0-1.403-.122-.598-.128-1.319-.525-.177 0-.378-.152-.202-.171-.372-.202-.428-.097-.629-.42-.122-.104-.275-.178-.146-.073-.274-.146-.275-.153-.574-.354l-.128-.275-.025.073q-.024-.024-.073-.085t-.098-.19q-.103-.274-.152-.298h-.025v.024l-.073-.098-.75-.598q-.178 0-.513-.213-.336-.214-.629-.477-.287-.262-.336-.415-.372-.122-.524-.445-.25-.025-.452-.134-.195-.116-.25-.391-.171-.104-.245-.226-.03-.049-.091-.11-.061-.067-.11-.14-.049-.049-.128-.122-.073-.08-.171-.128-.104-.05-.177-.122-.073-.08-.128-.129-.446.702-.897 1.38-.452.671-.898 1.343-.927 1.379-1.8 2.777-.177.299-.507.8-.323.5-.598.945-.275.452-.348.678l-.152.152q-.122.123-.171.123v-.025q-.177.177-.476.177-.275-.024-.5.098m10.577-8.673.373-.074-.098-.177.25.074.135.042q.06.012.091.012.025 0 .171-.054v-.025l.073-.195.281-.055q.22-.049.22-.073 0-.025-.024-.025-.025 0 0-.024l.604-.452h.024l-.024-.097.195.048q.024 0 .061-.012.043-.012-.006-.036l.275-.25v-.025l.097.073-.049-.128.202-.073q.122-.05.122-.122l-.049-.153q.177-.122.348-.268.177-.153.354-.33.323-.324.8-.324.073 0 .097-.103 0-.098.073-.098v-.024q0-.202.239-.476.238-.275.366-.403v-.025l1.05-1.098-.025.073h.024v-.049l.123-.201.024.055.403-.33-.08-.275.08-.097q0-.129.274-.074.123.025.208.025h.116l-.049-.128-.213-.11q-.165-.092-.165-.14.03-.025.128-.025h.122q.25-.299.354-.55h.024q.3-.347.452-.823.147-.452.494-.8L21.3 9.15q.024-.073.128-.226.049-.048.073-.097l.049-.098.049-.08q.055-.048.055-.024.024-.049.024-.25v-.348q-.024-.104-.024-.19v-.188q0-.696-.177-1.172t-.849-.8q-.25-.128-.592-.226-.335-.097-.61-.048-.147-.05-.177-.05-.275 0-.635.288-.36.287-.714.586-.348.299-.598.299-.427 0-.452.378-.299.397-.848.946-.55.55-1.074 1.087-.525.537-.776.988-.024.05-.079.14-.049.086-.122.086-.024 0-.073-.049l-.08-.049q-.024.025-.024.098v.098q0 .33-.287.72-.287.384-.653.757-.36.372-.58.726-.226.372-.464.739-.238.36-.488.708L9.623 16.4q.225.25.561.604.342.348.665.47.129.05.513.061.39.013.8 0 .415-.012.616-.012.049-.049.049.049v.018q0 .012.024.037 0 .049-.049.098m-6 1.751q.147-.25.294-.476.152-.226.33-.476.152-.226.298-.464.153-.238.3-.488-.074-.024-.171-.122-.055-.024-.092-.049-.037-.024-.085-.049l-.275.421V18q-.024.025-.061.025t-.067.024q-.025.025-.122.08 0 .25-.177.39-.171.134-.171.482.073 0 .073.153 0 .17-.073.323m16.449 5.298q-.275 0-.55-.073-.402-.153-.799-.824l.195-.055-.17-.122-.202-.623h-.024q-.025-.079-.025-.225v-.177q0-.098.122-.348.129-.25.226-.476l-.25.048v-.122q.024-.024.08-.128.024-.073.121-.098.025.025.025.074l.049-.05v-.127q0-.098.012-.208.012-.116.091-.189 0-.153.025-.177l.024-.098h.049v-.103l.153-.196q.122-.128.146-.128v-.024q-.024.024-.073.024-.098 0-.098-.098 0-.024.025-.048v-.128q.024-.025.024-.123 0-.103-.049-.152l.171-.202.104.025-.025-.025h.05l.024-.024.073-.275.128.202.073-.428.05-.244.048-.256.275-.024v-.202h-.074v-.122l.123-.122v.024l.03-.024v-.128l.22-.153v-.097q.177-.098.305-.348.073-.177.348-.226h-.153l.025-.024-.098.073v-.202h.049l.024-.049h.025l.055-.097v-.128q.146-.098.305-.244.165-.153.165-.33l.103-.073v-.104l.098.055.323-.305v-.098l.202-.122.104-.153q0-.073.073-.073.024 0 .11.037.091.036.14.06h.147q.402 0 .8.288.402.286.677.69.274.396.274.799 0 .122.074.25.03.073.042.153.012.073.012.17v.098q0 .104-.024.128-.427 1.001-1.318 1.93-.885.92-1.837 1.446-.196.097-.446.201-.25.098-.5.098-.074 0-.104-.025l-.171-.049q.073-.024.226-.128l.097-.048.098-.05.152-.073q.05 0 .074-.024l-.025-.03q0-.098.128-.098.147-.098.25-.122l.251-.08.256-.085q.116-.037.116-.14.098-.074.25-.324.178-.299.25-.372l.227-.049.25-.378-.049-.098.195-.104v-.098h.055q.275-.299.434-.537.165-.238.287-.64 0-.05.079-.05V18q.146-.299.146-.573 0-.599-.573-.599-.05 0-.128-.024-.098 0-.098.049h.128l-.128.098q-.122.048-.238.152-.11.098-.11.275h-.104q.055 0 .08.097-.178 0-.25.098l.121.08q-.049.048-.128.085-.073.036-.146.085-.074.03-.153.067-.073.037-.122.086-.275.201-.275.372 0 .03.025.055.024.024.06.049.037.024.092.073l-.201-.024.024-.012q.025-.013.05-.013-.098 0-.147.025-.055 0 0 .049l.024.024h-.012q-.012 0-.012.024-.025.03-.025.055h-.055q-.097.122-.189.25-.085.123-.134.25-.098.22-.275.446l.177.129h-.177l-.098.097v.128l-.152.122.049.025-.25.427-.074.024v.202l-.274.299.024.098h-.049v.177q-.177.177-.226.451-.024.25-.201.5h.153l-.202.123v.073q-.024.025-.024.08 0 .097.012.177.012.073.037.146t.036.153q.012.073.012.17 0 .202.165.513t.336.311q.476 0 .952-.25.452-.274.922-.299l.525-.421q.402-.33.701-.775.324-.452.727-.775h.024l-.049-.055q.074-.098.22-.3.153-.2.177-.323.025-.024.025-.098 0-.054.03-.079.049-.122.146-.122.104 0 .104.122 0 .08-.03.104 0 .25-.214.714-.207.458-.482.562v.073q-.128.122-.25.348l-.489.628q-.31.397-.512.397l-.348.226v.098q0 .128-.153.177-.097.128-.25.097-.073.153-.25.202-.073.024-.226.128-.049.073-.238.152-.183.074-.263.098-.122.098-.299.11-.17.012-.299.012zm2.352 10.602q-.055 0-.128-.073-.574-.202-1.05-.556-.476-.348-.476-1.019 0-.354.128-.726.074-.177.11-.354.037-.171.061-.348l.104-.073.073-.403.226-.421q.098-.202.25-.531.147-.324.312-.623t.287-.397v-.128l.128.104q.274-.452.653-.77.372-.31.793-.61 0-.17.153-.2l-.08-.099.178-.048 1.599-1.35.024-.079q0-.097-.024-.17.104.024.152.17.05.153.05.055v-.055l.072-.049.055-.048q-.03 0-.055-.012l-.073-.037.073-.104.025-.049q.08-.073.128-.073.049 0 .037.049t.012.024l.226-.323.073.098.104-.123v-.048q.146-.025.433-.25.287-.227.317-.355h.05l.799-.396.42-.348h.105v.024q.274-.226.61-.464t.714-.238v-.049l.122.025q.025-.049.049-.147.03-.104.055-.201l.073-.476q0-.049.073-.385.08-.341.104-.366l.122-.128q.074 0 .074-.049 0-.024-.05-.073h-.024q-.049-.049-.049-.128 0-.147.074-.3.048-.073.06-.146.019-.08.043-.152h-.024q-.08 0-.08-.098 0-.202.153-.427.122-.202.122-.373 0-.354.08-.677.024-.177.036-.336.012-.165.012-.342 0-.195-.024-.274 0 .055-.08.103h.031q-.25.446-.616 1.075-.36.622-.727 1.239-.36.61-.683 1.062-.574.8-1.276 1.489-.702.684-1.599 1.135l-.08-.024q-.121.097-.262.122-.134.024-.262.024-.574 0-.812-.482-.238-.488-.238-1.013 0-.427.061-.879.067-.452.244-.873l.073-.201q.025-.025.025-.177.122-.073.207-.287.092-.214.092-.36.128-.073.153-.25l.097-.153q.05-.073.177-.073 0-.202.061-.373.061-.177.263-.177v-.128l.122-.17-.098-.501.22-.311q.152-.214.207-.342-.079-.073-.079-.171 0-.226.305-.525l.122-.128q.177-.171.177-.372l.196-.025q.03-.152.201-.152h.049q.104-.25.19-.373.084-.128.188-.201.073-.074.122-.104l.104-.073q.171-.122.244-.22.08-.104.202-.305.055-.098.103-.171.05-.08.098-.153.379-.348 1.001-.5.623-.153 1.123-.153.476 0 1.086.177.617.177.892.653.274.5.512.977.238.47.238 1.068v.128q0 .073-.024.122-.024.08-.024.153v.25q0 .073.024.153.024.073.024.146v.128q0 .098-.128.385-.122.287-.274.55-.147.262-.275.262-.073 0-.098-.074-.024-.073-.024-.097 0-.128.012-.25.012-.129.037-.25.024-.129.049-.251l.048-.25q.08-.275.129-.562.048-.293.048-.567 0-.171-.024-.397t-.098-.348q-.055-.104-.103-.177-.05-.073-.098-.153-.049-.073-.128-.146-.074-.08-.122-.177-.25-.324-.599-.324-.177 0-.33.074l-.072.048q-.129 0-.214.013-.086.012-.214.091l-.146.073-.153.098q-1.599 1.05-2.801 2.655-1.196 1.6-1.972 3.345-.177.403-.366.867-.183.457-.183.885 0 .201.073.402l.025.025q.024.024.103.024.171 0 .422-.201.25-.202.5-.452t.427-.372q.171-.177.324-.201.201-.348.476-.623.122-.128.244-.263.128-.14.232-.262.598-.775 1.257-1.697.666-.928.989-1.654.049-.128.098-.274.055-.153.079-.275.024-.226.323-.476l.379-.073q.22.073.421.073.128 0 .201-.025h.202q.275 0 .336.275.06.275.085.476 0 .073.025.098l.03.073q.024.104 0 .177.024.122.037.214.012.085.012.134 0 .427-.104.726-.122.379-.122.726 0 .275-.153.55-.146.25-.146.574 0 .25-.177.25H35.1q-.048 0-.073.024 0 .05.05.104.023.049.023.146 0 .025-.036.14-.037.11-.061.16-.025.103-.202.103-.103.025-.177.037-.073.012-.122.012h-.024q0 .049.073.025.025-.025.122-.025.055 0 .177.012.128.013.128.11 0 .08-.103.318-.098.238-.214.488-.11.244-.159.372l.098.122-.049.055q0 .025-.024.049l-.104.098q.604.128.903.39.3.263.3.959 0 .274-.098.354-.08.048-.128.17-.025.055-.086.129-.06.073-.116.073-.098 0-.098-.073v-.025h-.073l.147-.403.049-.152q.03-.073.03-.147 0-.274-.427-.415-.427-.134-.702-.183-.397.946-.91 1.874-.512.928-1.013 1.825-.177.323-.366.647-.183.33-.384.677-.403.678-.824 1.276-.324.476-.751.977-.403.476-.75.97-.324.5-.715.75-.385.251-.812.465-.42.213-.921.61-.25 0-.5.177-.227.177-.501.128-.05.049-.074.049m3.247-14.624.05-.024-.074-.08-.049.104zm-3.802 13.696q.104-.024.19-.036.085-.013.14-.013.073-.048.152-.116.073-.06.171-.11l.372-.225q.202-.122.379-.25.17-.123.299-.25.049-.05.104-.098l.097-.098q.05-.08.11-.153.061-.073.116-.122.049-.08.11-.152.061-.074.11-.122.055-.08.116-.153.06-.073.11-.122l.152-.08v.025q.122-.146.269-.299.152-.146.305-.25l-.024-.025.451-.427v.153l.073-.074.05-.048.152-.354-.024-.025-.08.073h-.098V31q.3-.397.696-.86.403-.465.727-.94.33-.477.354-.898l.396-.403h.025l.5-.848-.073-.177.8-1.001q.024-.171.201-.373.147-.2.147-.402 0-.074-.05-.074-.25 0-.872.452-.098.049-.226.122-.122.08-.25.177-.25.177-.476.226l-1.123.873H29.6L27.6 28.528q-.17.17-.445.568-.281.402-.403.732l-.098-.104q.025.024-.128.275-.049.128-.098.213-.055.086-.079.14v.05q0 .024-.024.073-.025.049-.098.024l-.024-.024-.63.976H25.5l-.025-.024q-.024.049-.024.122t-.025.128q0 .122-.103.196l-.47 1.177q0 .098-.013.184-.012.091-.042.189-.05.201-.05.354 0 .445.3.671m17.153-21.1q-.373 0-.586-.335-.214-.336-.214-.666.751-.549 1.514-1.086t1.562-.836l.3-.226.024.104q0 .146-.33.409-.323.262-.47.31-.024.056-.25.416t-.537.8q-.311.439-.604.775-.287.335-.41.335m-4.901 11.5q-.348 0-.55-.263-.201-.262-.274-.635-.074-.372-.074-.653 0-.97.336-1.96.336-.988.812-1.812.128-.226.275-.403l.25-.372q.073-.122.152-.3.05-.176.147-.274.128-.25.287-.525.164-.274.341-.549.348-.58.348-1.178.025.024.074.024h.024q.104 0 .153-.024h.097q.25 0 .586.226.342.226.617.537t.274.561q0 .177-.189.403-.183.226-.409.452l-.226.22-.225.25q-.177.201-.354.44-.171.237-.324.512-.049.049-.049.122 0 .104-.024.128 0 .153-.25.25v-.127q-.623.628-1.038 1.58-.409.946-.409 1.795v.226q0 .177.049.225.024.098.098.098h.048q0 .03.025.03 0 .025.03.025v.024q0 .05-.079.122l-.024.025-.05.055q0 .024.172.06.177.037.201.037.104 0 .33-.189.225-.189.47-.409.25-.226.402-.33.177-.146.324-.195l.403-.5q.201-.25.372-.5l.385-.477q.189-.226.39-.476v-.049q0-.048.135-.262.14-.214.305-.409.164-.201.213-.201.025.024.025.122 0 .097-.025.128-.152.323-.451.91-.3.585-.617 1.086-.311.5-.586.573-.049.129-.152.306-.098.17-.244.22-.074.128-.202.128-.073.201-.177.225-.049.05-.098.086-.048.036-.073.06-.024.105-.177.19l-.25.14q-.122.123-.324.275-.2.147-.402.147h-.074l-.073-.025h-.049q-.03-.024-.079-.024-.073 0-.275.049-.201.048-.274.048m6.749-.098q-.122 0-.238-.012-.11-.013-.238-.037-.123-.049-.25-.073-.123-.03-.245-.055l.025-.122q-.776 0-1.038-.287t-.262-1.087q0-.079.024-.103V22.9q.122.025.195.037.08.012.129.012.25 0 .347-.097.153-.025.3-.025.152 0 .305-.024.122 0 .268-.012.153-.019.281-.043v-.025q-.427-.848-.739-1.544-.31-.702-.31-1.556 0-.574.207-1.044.213-.476.341-1.007.05-.146.16-.159.115-.012.164-.036.098-.128.183-.226.092-.104.195-.201.074-.074.16-.135.084-.067.164-.14l.17-.153q.678-.573 1.527-.982.854-.415 1.63-.739l.646.421q.128.25.3.525.176.25.176.58v.098q-.024.048-.024.152l-.153.226-.39.25q-.385.244-.898.55-.512.299-.903.537-.384.238-.409.238-.097 0-.097-.08 0-.073.31-.335.312-.263.709-.574.403-.311.726-.537.33-.226.354-.25-.702.073-1.38.286-.67.214-1.195.586-.05.025-.153 0-.098-.024-.147.025-.073.049-.103.201-.025.153-.074.202-.323.323-.512.775-.19.445-.19 1.025 0 .122.123.586.128.464.33 1.013.2.55.426.952.226.397.422.397h.628q.147 0 .3-.012.152-.012.298-.037.275-.049.525-.152.525-.122 1.05-.147.177-.104.427-.152.122-.025.232-.025.116 0 .22-.024l.146.073-.024.226q-.177.049-.568.201-.384.147-.775.275-.384.122-.58.122l-.103-.024q-.025 0-.025-.025h-.024q-.202 0-.397.073-.104.055-.22.092-.11.037-.207.085-.202.074-.464.14-.262.062-.537.038-.049.5-.366.94-.312.433-.885.433m-.525-.977q.08 0 .08-.146 0-.05-.031-.135-.025-.091-.074-.091-.122 0-.274-.012-.147-.012-.275-.037-.153-.024-.305-.037-.147-.018-.269-.018h-.024q.049.08.323.195.275.11.55.196.274.085.299.085m5.751-2.795q-.201.097-.317-.025-.11-.128-.006-.256.122-.122.146-.22.025-.104.025-.226v-.201q0-.177.03-.201l.147-.147q.024-.055.152-.104l.123-.348q-.178-.2.048-.427l.025-.024v-.025l.055-.073.146-.25.025-.049h.054q-.054-.128.074-.275.048-.128.146-.25.104-.128.202-.274.25-.275.274-.5.05-.202.226-.355-.024 0-.024-.049 0-.024-.025-.024 0-.025.025-.049v-.024q.048-.05.17-.263.129-.213.257-.44l.098-.146q.048-.08.097-.177l.128-.226-.677-.226q-.5-.177-.879-.488-.372-.311-.372-.91 0-.274.164-.475.165-.202.336-.348.104-.104.104-.128.201-.25.397-.135.201.11 0 .312l-.147.195-.201.293q-.098.134-.098.336 0 .25.36.44.36.182.8.286.44.098.61.098Q53 13.25 54 11.926q1.002-1.324 2.002-2.673.098-.104.098-.354l.928-.977q.097.055.183.08l.19.049q.103.024.188.048.086.025.19.05.195.048.372.127.177.074.323.25.275.275.275.672 0 .427-.348.726-.372.3-.647.574-.104.08-.195.153-.086.073-.183.177-.202.195-.452.195v-.17h.08l.207-.276q.116-.152.214-.274.25-.275.378-.556-.104.104-.19.177-.085.074-.188.153-.098.073-.19.165l-.183.183q-.128.177-.403.488-.274.311-.598.66-.274.353-.561.628l-.415.397-.025.024.104.104-.33.122.025.024q0 .202-.128.281-.122.073-.244.073-.05.147-.14.263-.086.11-.288.189.025.024.025.073 0 .025.03.049 0 .024.025.049h-.055v.049h-.122q-.025 0-.05.104l.074.121q.024.025.024.104.348-.378.672-.75l.677-.776 1.355-1.501h.05q0 .024.024.024 0 .025.024.025 0 .177-.275.555-.274.373-.677.812-.397.433-.763.836-.36.397-.562.623-.073.073-.177.226-.073.073-.17.225h.225q.324 0 .586-.036.263-.043.537-.092.123-.024.245-.06.128-.037.256-.062l.244-.049q.128-.024.256-.055.3-.049.8-.158.5-.116.726-.287.647-.202 1.276-.3l.024-.011q.025-.019.074-.043.048 0 .073-.025.049-.073.128-.073l.201-.073.196-.055v-.024q.354-.074.677-.208.324-.14.672-.293.33-.122.64-.232.312-.116.635-.116l.08-.146q.299-.306.67-.306v.08q.105.098.105.226 0 .073-.055.073-.22.226-.495.25l.037.073q.012.025.012.05 0 .079-.08.079-.097.073-.25.073-.121 0-.121-.153l.073-.049q-.147 0-.202-.048-.17.451-.573.451l-.05.196-.274-.074q-.122.129-.25.129l-.085.213q-.037.086-.19.086.025-.025.025-.08-.025-.024-.025-.049-.177.202-.415.354-.232.147-.561.147l-.025-.171h-.024q.024.024.024.122t-.085.153q-.086.049-.14.049-.025 0-.025-.025H59.7q-.122.098-.226.098-.048 0-.073-.025h-.073q-.128.098-.232.11-.098.012-.293.043-.33.049-.69.177-.36.122-.69.244-.024.024-.122.024-.048 0-.048.025-.776.403-1.575.427-.854.073-1.654.226-.073.024-.153.037-.073.012-.17.012t-.178.012q-.073.012-.146.037-.153.024-.379.238-.225.213-.427.463-.195.25-.293.397-.103.104-.232.22-.122.11-.244.207-.25.177-.451.452l-.129.128q-.073.073-.122.171-.122.226-.299.25.05.123-.049.177l-.055.05q-.22.225-.22.524-.079.073-.127.202l-.025.097-.073.098q-.128.177-.244.415-.11.238-.232.513-.128.274-.257.512-.121.238-.244.44m-.775 6.744q-.177 0-.39-.073-.208-.073-.336-.201-.122-.147-.36-.538-.238-.384-.238-.585 0-.477.049-.928.048-.446.152-.922.147-.122.171-.299t.055-.354q.195-.195.22-.494.03-.305.305-.305l.049-.05q.024-.024-.025-.121-.055-.129-.079-.214-.024-.086.055-.214.024-.049.049-.11.024-.067.049-.091.024-.024.073-.171.08-.275.14-.488.061-.214.263-.44.122-.097.22-.012.103.086.079.214 0 .146-.073.299h.195q-.098.476-.226.952l-.244.946q-.305.928-.305 1.904 0 .873.354 1.624l.348-.202.128-.226v.275l.049.128q.048-.128.146-.226.104-.097.305-.097l.025.17q0 .074-.025.104-.152.324-.482.532-.323.213-.696.213m6.476-2.948q-.275 0-.55-.073-.402-.153-.799-.824l.195-.055-.17-.122-.202-.623h-.024q-.025-.079-.025-.225v-.177q0-.098.122-.348.128-.25.226-.476l-.25.048v-.122q.024-.024.08-.128.024-.073.121-.098.025.025.025.074l.049-.05v-.127q0-.098.012-.208.012-.116.091-.189 0-.153.025-.177l.024-.098h.049v-.103l.153-.196q.122-.128.146-.128v-.024q-.024.024-.073.024-.098 0-.098-.098 0-.024.025-.048v-.128q.024-.025.024-.123 0-.103-.049-.152l.171-.202.104.025-.025-.025h.05l.024-.024.073-.275.128.202.073-.428.05-.244.048-.256.275-.024v-.202H55v-.122l.123-.122v.024l.03-.024v-.128l.22-.153v-.097q.177-.098.305-.348.073-.177.348-.226h-.153l.025-.024-.098.073v-.202h.049l.024-.049h.025l.054-.097v-.128q.147-.098.306-.244.164-.153.164-.33l.104-.073v-.104l.098.055.323-.305v-.098l.202-.122.104-.153q0-.073.073-.073.024 0 .11.037.091.036.14.06h.147q.402 0 .8.288.402.286.677.69.274.396.274.799 0 .122.074.25.03.073.042.153.012.073.012.17v.098q0 .104-.024.128-.427 1.001-1.318 1.93-.885.92-1.837 1.446-.196.097-.446.201-.25.098-.5.098-.074 0-.104-.025l-.171-.049q.073-.024.226-.128l.097-.048.098-.05.153-.073q.048 0 .073-.024l-.025-.03q0-.098.129-.098.146-.098.25-.122l.25-.08.256-.085q.116-.037.116-.14.098-.074.25-.324.178-.299.25-.372l.227-.049.25-.378-.049-.098.195-.104v-.098h.055q.275-.299.434-.537.165-.238.287-.64 0-.05.079-.05V18q.146-.299.146-.573 0-.599-.573-.599-.05 0-.128-.024-.098 0-.098.049h.128l-.128.098q-.122.048-.238.152-.11.098-.11.275h-.104q.055 0 .08.097-.178 0-.25.098l.121.08q-.049.048-.128.085-.073.036-.146.085-.074.03-.153.067-.073.037-.122.086-.275.201-.275.372 0 .03.025.055.024.024.06.049.037.024.092.073l-.201-.024.024-.012q.025-.013.05-.013-.099 0-.147.025-.055 0 0 .049l.024.024h-.012q-.012 0-.012.024-.025.03-.025.055h-.055q-.097.122-.189.25-.085.123-.134.25-.098.22-.275.446l.177.129h-.177l-.097.097v.128l-.153.122.049.025-.25.427-.074.024v.202l-.274.299.024.098h-.049v.177q-.177.177-.226.451-.024.25-.201.5h.153l-.202.123v.073q-.024.025-.024.08 0 .097.012.177.012.073.037.146t.036.153q.012.073.012.17 0 .202.165.513t.336.311q.476 0 .952-.25.452-.274.922-.299l.525-.421q.402-.33.702-.775.323-.452.726-.775h.024l-.049-.055q.074-.098.22-.3.153-.2.177-.323.024-.024.024-.098 0-.054.031-.079.049-.122.146-.122.104 0 .104.122 0 .08-.03.104 0 .25-.214.714-.207.458-.482.562v.073q-.128.122-.25.348l-.489.628q-.31.397-.512.397l-.348.226v.098q0 .128-.153.177-.097.128-.25.097-.073.153-.25.202-.074.024-.226.128-.049.073-.238.152-.183.074-.263.098-.122.098-.299.11-.17.012-.299.012zm8.474-1.599q-.073 0-.122-.049-.03.025-.152.025-.324 0-.654-.452-.323-.452-.323-.775 0-.574.3-1.197l.548-1.153q.153-.3.153-.397l-.122-.201-.128-.128-.086-.086q-.036-.036-.091-.085-.147-.177-.3-.403-.146-.226-.195-.525-.055.049-.232.378-.17.324-.347.623-.171.3-.275.3-.049 0-.073-.025-.025-.025-.074-.025-.055 0-.128.202-.097.146-.274.44-.177.286-.354.536-.171.244-.318.244-.104 0-.104-.097 0-.073.098-.287.104-.214.238-.427.14-.214.19-.263.298-.421.5-.744.201-.33.378-.678.147-.323.305-.66.165-.341.391-.768.049-.348.153-.72.372-1.13.885-1.966.512-.836 1.288-1.715.176-.17.414-.433.239-.263.489-.489t.42-.225q.153 0 .355.128.098.049.17.098.08.048.153.097l.5.275q.276.152.276.476 0 .128-.025.153-.08.274-.494.585-.41.312-.898.641-.482.324-.787.623-.445.397-.775.897-.323.5-.598 1.074-.025.104-.061.177-.037.074-.061.177-.025.171-.128.397-.025.055-.05.116-.024.061-.024.134 0 .128.025.177.024.073.024.202 0 .146-.024.195-.025.08-.025.226 0 .275.275.513t.537.512.263.629q0 .299-.202.726-.201.421-.451.849-.245.42-.397.775l-.128.299-.05.177q0 .049.025.049l.055.073q.22 0 .617-.324.402-.323.805-.708.403-.39.55-.543.299-.323.549-.683.25-.367.476-.745.049-.122.159-.28.116-.166.244-.166.146 0 .146.171 0 .153-.262.592-.263.434-.562.861t-.427.55l-.024.048v.025q-.074.177-.226.225-.025.025-.073.129-.05.097-.074.122 0 .048-.073.103l-.104.025q-.024.097-.146.17l-.153.153q-.024 0-.024.025 0 .024-.025.024-.024.153-.201.153-.049.097-.14.25-.086.146-.208.146-.128.177-.33.177-.024.025-.024.074 0 .024-.024.049-.05.128-.226.128-.025.024-.098.024"/></svg>