    <svg
          viewBox="0 0 67.3016 36"
          xmlns="http://www.w3.org/2000/svg"
          xmlns-xlink="http://www.w3.org/1999/xlink"
          fill="none"
        >
          <defs>
            <radialGradient
              id="paint_radial_4"
              cx="0"
              cy="0"
              r="1"
              gradientUnits="userSpaceOnUse"
              gradientTransform="matrix(32.5,0,0,18,32.8254,18)"
            >
              <stop
                stop-color="rgb(255,116,11)"
                offset="0.181434616"
                stop-opacity="1"
              />
              <stop
                stop-color="rgb(255,58,5.5)"
                offset="0.561181426"
                stop-opacity="1"
              />
              <stop stop-color="rgb(255,0,0)" offset="1" stop-opacity="1" />
            </radialGradient>
          </defs>
          <path
            id="Login"
            d="M2.22515 26.3977Q2.17632 26.3733 2.08477 26.3489Q1.99932 26.3245 1.87725 26.3Q1.627 26.2756 1.627 26.0742Q1.627 25.8972 1.73687 25.6836Q1.85283 25.4761 1.9749 25.3479Q2.04815 25.177 2.15191 25.1221Q2.22515 25.0244 2.24956 25.0244L2.24956 25.0488Q2.37774 25.0244 2.6646 24.5483Q2.95147 24.0723 3.28716 23.4619Q3.62285 22.8516 3.93413 22.3877Q4.25151 21.9238 4.42241 21.9238L4.45293 21.6248Q4.52617 21.5515 4.76421 21.167Q5.00225 20.7764 5.20977 20.3796Q5.42339 19.9768 5.42339 19.873Q5.62481 19.6228 5.89946 19.0125Q6.17412 18.4021 6.44878 17.7429Q6.72344 17.0776 6.90044 16.6504Q6.77837 16.4978 6.8272 16.3025Q6.69902 16.1743 6.43657 15.8508Q6.17412 15.5273 6.17412 15.3503Q6.17412 15.0757 6.57085 14.917Q6.97368 14.7522 7.22393 14.7522Q7.523 14.7522 7.62676 14.8499Q7.62676 14.801 7.73662 14.4531Q7.85259 14.0991 8.01128 13.6658Q8.17607 13.2263 8.31035 12.8784Q8.45073 12.5244 8.52398 12.4512L8.52398 12.2253L8.79863 11.7981Q8.77422 11.7493 8.72539 11.6516Q8.67656 11.5479 8.67656 11.5234Q8.67656 11.499 8.70098 11.499L8.70098 11.4258Q8.77422 11.3525 8.81084 11.0657Q8.84746 10.7727 8.85967 10.4492Q8.87798 10.1257 8.87798 9.94873Q8.87798 9.92432 8.89019 9.87549Q8.90239 9.82666 8.92681 9.82666Q8.92681 9.69849 8.92681 9.57642Q8.92681 9.44824 8.95122 9.32617L8.95122 8.82568Q8.95122 8.12378 8.66436 7.48901Q8.37749 6.84814 7.65117 6.84814Q7.05303 6.84814 6.27788 7.22656Q5.50274 7.59888 4.77642 8.09937Q4.0501 8.59985 3.57402 9.00269Q3.47637 9.10034 3.38482 9.17969Q3.29937 9.25293 3.22612 9.35059Q3.15288 9.44824 3.06133 9.52759Q2.97588 9.60083 2.87822 9.67407L2.42656 10.0525L2.52422 10.0525Q2.45098 10.199 2.09697 10.4126Q1.74907 10.6262 1.57817 10.6262L1.57817 10.7727L1.627 10.7727L1.627 10.8521L1.77349 10.7727L1.77349 10.9253L1.67583 10.9253L0.803028 12.1521L0.748096 12.1521L0.748096 12.2986L0.87627 12.2986Q0.973927 12.2986 0.973927 12.3779Q0.723682 12.5244 0.601612 12.9395Q0.473438 13.3484 0.473438 13.623Q0.473438 13.8 0.540577 14.0015Q0.601612 14.2029 0.827442 14.2029L0.827442 14.2761Q0.449024 14.2517 0.210987 14.0137Q-0.02705 13.7756 0.00346756 13.3972L0.149952 13.2507Q0.125538 13.1775 0.101124 13.092Q0.0767097 13.0005 0.0767097 12.9028Q0.0767097 12.8723 0.125538 12.8235L0.174366 13.0249L0.223194 13.0249L0.149952 12.7502Q0.125538 12.677 0.125538 12.6038Q0.125538 12.5244 0.125538 12.4756Q0.125538 12.4268 0.174366 12.3779L0.174366 12.2986Q0.19878 12.2742 0.241505 12.2742Q0.278126 12.2742 0.30254 12.2498Q0.400196 12.2498 0.400196 12.1521L0.497852 12.1521L0.449024 12.0728L0.449024 11.9995Q0.449024 11.9507 0.497852 11.9507L0.497852 11.8774L0.449024 11.8774L0.449024 11.9507L0.351368 12.0728L0.30254 12.0728L0.278126 11.9751L0.351368 11.9507L0.552784 11.7249L0.577198 11.2L0.626026 11.1267L0.723682 11.1267L0.827442 11.2732L1.32793 10.6262L1.32793 10.4736L1.17534 10.4736Q1.05327 10.4736 1.05327 10.4004L1.1021 10.4004L1.12651 10.3271Q1.42559 10.0525 1.70024 9.74731Q1.82842 9.60083 1.9749 9.46655Q2.12749 9.32617 2.27398 9.17358L2.79888 8.64868L2.87822 8.64868L2.87822 8.57544Q3.00029 8.30078 3.29937 8.30078L3.42754 7.92236Q3.54961 7.87354 3.83648 7.72705Q4.12334 7.57446 4.36138 7.40356Q4.59941 7.22656 4.59941 7.1228Q4.64824 7.27539 4.84966 7.34863L4.84966 7.22656Q4.82524 7.20215 4.82524 7.1228L4.84966 7.1228L5.12432 6.90308L5.12432 6.97632Q5.30132 6.82373 5.52715 6.65283Q5.75298 6.47583 5.97271 6.47583Q6.05205 6.40259 6.10088 6.37207Q6.19854 6.32324 6.22295 6.29883L6.3023 6.25Q6.32671 6.25 6.35112 6.22559L6.35112 6.17676L6.49761 6.17676Q6.90044 5.82275 7.3521 5.82275Q7.54741 5.70068 7.76104 5.65186Q7.97466 5.60303 8.20049 5.60303L8.20049 5.52368L8.35308 5.45044Q9.27471 5.52368 9.83623 6.073Q10.3978 6.62231 10.8494 7.34863L10.8494 7.45239Q10.8494 7.92236 11.0508 8.39844Q11.2278 8.82568 11.2278 9.32617Q11.1241 9.39941 11.0875 9.61304Q11.0508 9.82666 11.0142 10.0159Q10.9776 10.199 10.825 10.199L10.7762 10.7727Q10.6724 10.9253 10.6724 11.2Q10.6724 11.4746 10.6358 11.7126Q10.5992 11.9507 10.3733 11.9507L10.3733 11.9995Q10.5748 12.1277 10.5748 12.2253Q10.5015 12.2986 10.4283 12.3474Q10.3245 12.4512 10.3245 12.5Q10.3245 12.5244 10.3489 12.5244L10.2513 12.5977L9.92778 13.3972L9.7752 13.2507Q9.75078 13.3728 9.62261 13.501Q9.50054 13.623 9.50054 13.7512L9.45171 13.7512L9.59819 14.0503L9.54937 14.0503L9.52495 14.1235L9.22588 14.3494Q9.34795 14.3494 9.34795 14.502Q9.34795 14.7522 9.0855 15.1672Q8.82305 15.5762 8.67656 15.7776L8.70098 15.8264Q8.72539 15.802 8.84746 15.802Q9.00005 15.802 9.09771 15.8997Q9.52495 15.2222 9.9583 14.5508Q10.3978 13.8733 10.825 13.2263Q11.2522 12.5732 11.6856 11.9019Q12.125 11.2244 12.5767 10.5774Q13.0284 9.87549 13.6631 9.05151Q14.2979 8.22754 15.0242 7.42798Q15.7505 6.62231 16.5379 5.97534Q17.3252 5.32227 18.076 4.99878Q18.198 4.94995 18.198 4.92554L18.3262 4.94995Q18.4483 4.87671 18.7229 4.87671L19.7239 4.87671L19.9498 4.97437L20.1023 4.92554L20.0779 4.94995Q20.2244 4.94995 20.2488 4.97437L20.377 4.90112Q20.5784 4.94995 20.7249 5.0293Q20.8775 5.10254 20.9996 5.15137Q20.9996 5.04761 21.0484 5.10254L21.3475 5.45044Q21.4024 5.49927 21.4024 5.40161L21.4024 5.29785L21.4268 5.29785Q21.6771 5.67627 22.1104 5.98755Q22.5499 6.29883 22.9222 6.62842Q23.3006 6.9519 23.3006 7.42798Q23.3006 8.69751 23.209 9.53979Q23.1236 10.376 22.8489 11.0413Q22.5743 11.7004 22.0372 12.3657Q21.5 13.0249 20.6272 13.9221L20.6028 13.9221Q20.4258 14.0503 20.084 14.3738Q19.7483 14.6973 19.4126 14.9597Q19.077 15.2222 18.9244 15.1978L18.9976 15.3503Q18.9732 15.3748 18.7229 15.5884Q18.4727 15.802 18.2225 16.0034Q17.9783 16.1987 17.899 16.1987L17.8501 16.4246L17.0018 16.8762L16.9224 16.803L16.428 17.0471L16.428 17.1021Q16.5989 17.1509 16.5989 17.2485Q16.5989 17.2485 16.5989 17.2607Q16.5989 17.2729 16.5745 17.2974L16.1534 17.3523L16.1534 17.4011L15.8726 17.627L15.8726 17.749L15.4271 17.4988L15.4515 17.9504L14.9021 17.9993L14.9021 18.1274Q14.4261 18.1763 14.2002 18.4021Q14.1514 18.4021 14.127 18.3777L14.0232 18.3777Q13.9012 18.3777 13.7608 18.4021Q13.6265 18.4265 13.4983 18.4509L13.4495 18.4021L13.4495 18.4265L13.0284 18.3777L12.949 18.5242L12.4485 18.4753L11.7771 18.5242Q11.948 18.6279 12.2471 18.8538Q12.5523 19.0735 12.8514 19.3115Q13.1504 19.5496 13.2725 19.7021L13.4983 20.05Q13.6265 20.2271 13.7486 20.3735Q13.95 20.3735 14.2369 20.6604Q14.5237 20.9473 14.6519 21.0999Q14.7007 21.0999 14.7496 21.228Q14.7984 21.3745 14.8228 21.4478Q15.1768 21.6492 15.5125 21.8628Q15.8482 22.0764 16.1778 22.3022L17.0994 22.9492Q17.3252 23.1018 17.5755 23.2544Q17.8257 23.4009 18.1004 23.5229Q18.1248 23.5474 18.1736 23.6511Q18.1736 23.7488 18.2225 23.7488Q18.3262 23.7488 18.375 23.7Q18.3995 23.6755 18.4239 23.6755L18.4727 23.6755Q18.8511 23.7976 19.1014 23.7976Q19.4004 23.7976 19.846 23.7244Q20.2977 23.6511 20.7005 23.4741Q21.1033 23.2971 21.2742 23.0225Q21.3475 22.9492 21.378 22.876Q21.4268 22.8027 21.5 22.8027Q21.5733 22.8027 21.5733 22.9248Q21.5733 23.0774 21.5 23.2239Q21.201 23.7732 20.5357 24.1638Q19.8765 24.5483 19.2234 24.5483L18.8755 24.5483Q18.076 24.5483 17.4717 24.4263Q16.8736 24.2981 16.1534 23.9014Q15.9764 23.9014 15.775 23.7488Q15.5735 23.5779 15.4026 23.5474Q14.9754 23.4497 14.774 23.1262Q14.6519 23.0225 14.4993 22.9492Q14.3528 22.876 14.2247 22.8027Q13.95 22.6501 13.6509 22.4487L13.5228 22.1741L13.4983 22.2473Q13.4739 22.2229 13.4251 22.1619Q13.3763 22.1008 13.3274 21.9727Q13.2237 21.698 13.1749 21.6736L13.1504 21.6736L13.1504 21.698L13.0772 21.6003L12.3265 21.0022Q12.1495 21.0022 11.8138 20.7886Q11.4781 20.575 11.1851 20.3125Q10.8982 20.05 10.8494 19.8975Q10.4771 19.7754 10.3245 19.4519Q10.0743 19.4275 9.87285 19.3176Q9.67754 19.2017 9.62261 18.927Q9.45171 18.8232 9.37847 18.7012Q9.34795 18.6523 9.28691 18.5913Q9.22588 18.5242 9.17705 18.4509Q9.12822 18.4021 9.04888 18.3289Q8.97564 18.2495 8.87798 18.2007Q8.77422 18.1519 8.70098 18.0786Q8.62774 17.9993 8.5728 17.9504Q8.12725 18.6523 7.67559 19.3298Q7.22393 20.0012 6.77837 20.6726Q5.85064 22.052 4.97783 23.4497Q4.80083 23.7488 4.47124 24.2493Q4.14775 24.7498 3.8731 25.1953Q3.59844 25.647 3.5252 25.8728L3.37261 26.0254Q3.25054 26.1475 3.20171 26.1475L3.20171 26.123Q3.02471 26.3 2.72564 26.3Q2.45098 26.2756 2.22515 26.3977ZM12.8025 17.7246L13.1749 17.6514L13.0772 17.4744L13.3274 17.5476Q13.4007 17.572 13.4617 17.5903Q13.5228 17.6025 13.5533 17.6025Q13.5777 17.6025 13.7242 17.5476L13.7242 17.5232L13.7974 17.3279Q13.7974 17.3279 14.0782 17.2729Q14.2979 17.2241 14.2979 17.1997Q14.2979 17.1753 14.2735 17.1753Q14.2491 17.1753 14.2735 17.1509L14.8777 16.6992L14.9021 16.6992L14.8777 16.6016L15.073 16.6504Q15.0975 16.6504 15.1341 16.6382Q15.1768 16.626 15.128 16.6016L15.4026 16.3513L15.4026 16.3269L15.5003 16.4001L15.4515 16.272L15.6529 16.1987Q15.775 16.1499 15.775 16.0767Q15.775 16.0767 15.7261 15.9241Q15.9031 15.802 16.074 15.6555Q16.251 15.5029 16.428 15.3259Q16.7515 15.0024 17.2276 15.0024Q17.3008 15.0024 17.3252 14.8987Q17.3252 14.801 17.3985 14.801L17.3985 14.7766Q17.3985 14.5752 17.6365 14.3005Q17.8746 14.0259 18.0027 13.8977L18.0027 13.8733L19.0525 12.7747L19.0281 12.8479L19.0525 12.8479L19.0525 12.7991L19.1746 12.5977L19.199 12.6526L19.6019 12.323L19.5225 12.0483L19.6019 11.9507Q19.6019 11.8225 19.8765 11.8774Q19.9986 11.9019 20.084 11.9019Q20.1756 11.9019 20.2 11.9019L20.1512 11.7737Q20.1023 11.7493 19.9375 11.6638Q19.7728 11.5723 19.7728 11.5234Q19.8033 11.499 19.9009 11.499L20.023 11.499Q20.2732 11.2 20.377 10.9497L20.4014 10.9497Q20.7005 10.6018 20.8531 10.1257Q20.9996 9.67407 21.3475 9.32617L21.2986 9.14917Q21.323 9.07593 21.4268 8.92334Q21.4756 8.87451 21.5 8.82568Q21.5245 8.77686 21.5489 8.72803L21.5977 8.64868Q21.6526 8.59985 21.6526 8.62427Q21.6771 8.57544 21.6771 8.37402L21.6771 8.02612Q21.6526 7.92236 21.6526 7.83691Q21.6526 7.75146 21.6526 7.64771Q21.6526 6.9519 21.4756 6.47583Q21.2986 5.99976 20.6272 5.67627Q20.377 5.5481 20.0352 5.45044Q19.6995 5.35278 19.4249 5.40161Q19.2784 5.35278 19.2479 5.35278Q18.9732 5.35278 18.6131 5.63965Q18.253 5.92651 17.899 6.22559Q17.5511 6.52466 17.3008 6.52466Q16.8736 6.52466 16.8492 6.90308Q16.5501 7.2998 16.0008 7.84912Q15.4515 8.39844 14.9266 8.93555Q14.4017 9.47266 14.1514 9.92432Q14.127 9.97314 14.0721 10.0647Q14.0232 10.1501 13.95 10.1501Q13.9256 10.1501 13.8768 10.1013L13.7974 10.0525Q13.773 10.0769 13.773 10.1501L13.773 10.2478Q13.773 10.5774 13.4861 10.968Q13.1993 11.3525 12.8331 11.7249Q12.4729 12.0972 12.2532 12.4512Q12.0274 12.8235 11.7894 13.1897Q11.5513 13.5498 11.3011 13.8977L9.62261 16.4001Q9.84844 16.6504 10.1841 17.0044Q10.5259 17.3523 10.8494 17.4744Q10.9776 17.5232 11.3621 17.5354Q11.7527 17.5476 12.1617 17.5354Q12.5767 17.5232 12.7781 17.5232Q12.827 17.4744 12.827 17.572Q12.827 17.572 12.827 17.5903Q12.827 17.6025 12.8514 17.627Q12.8514 17.6758 12.8025 17.7246ZM6.80278 19.4763Q6.94927 19.2261 7.09575 19.0002Q7.24834 18.7744 7.42534 18.5242Q7.57793 18.2983 7.72441 18.0603Q7.877 17.8223 8.02349 17.572Q7.95024 17.5476 7.85259 17.45Q7.79766 17.4255 7.76104 17.4011Q7.72441 17.3767 7.67559 17.3523L7.40093 17.7734L7.40093 17.9993Q7.37651 18.0237 7.33989 18.0237Q7.30327 18.0237 7.27275 18.0481Q7.24834 18.0725 7.15068 18.1274Q7.15068 18.3777 6.97368 18.5181Q6.80278 18.6523 6.80278 19.0002Q6.87603 19.0002 6.87603 19.1528Q6.87603 19.3237 6.80278 19.4763ZM23.251 24.7742Q22.9763 24.7742 22.7017 24.7009Q22.2988 24.5483 21.9021 23.877L22.0974 23.822L21.9265 23.7L21.7251 23.0774L21.7007 23.0774Q21.6763 22.998 21.6763 22.8516L21.6763 22.6746Q21.6763 22.5769 21.7983 22.3267Q21.9265 22.0764 22.0242 21.8506L21.7739 21.8994L21.7739 21.7773Q21.7983 21.7529 21.8533 21.6492Q21.8777 21.5759 21.9753 21.5515Q21.9998 21.5759 21.9998 21.6248L22.0486 21.5759L22.0486 21.4478Q22.0486 21.3501 22.0608 21.2402Q22.073 21.1243 22.1523 21.051Q22.1523 20.8984 22.1768 20.874L22.2012 20.7764L22.25 20.7764L22.25 20.6726L22.4026 20.4773Q22.5247 20.3491 22.5491 20.3491L22.5491 20.3247Q22.5247 20.3491 22.4758 20.3491Q22.3782 20.3491 22.3782 20.2515Q22.3782 20.2271 22.4026 20.2026L22.4026 20.0745Q22.427 20.05 22.427 19.9524Q22.427 19.8486 22.3782 19.7998L22.5491 19.5984L22.6528 19.6228L22.6284 19.5984L22.6772 19.5984L22.7017 19.574L22.7749 19.2993L22.9031 19.5007L22.9763 19.0735Q23.0007 18.9514 23.0251 18.8293Q23.0496 18.7012 23.074 18.573L23.3486 18.5486L23.3486 18.3472L23.2754 18.3472L23.2754 18.2251L23.3975 18.103L23.3975 18.1274L23.428 18.103L23.428 17.9749L23.6477 17.8223L23.6477 17.7246Q23.8247 17.627 23.9529 17.3767Q24.0261 17.1997 24.3008 17.1509L24.1482 17.1509L24.1726 17.1265L24.075 17.1997L24.075 16.9983L24.1238 16.9983L24.1482 16.9495L24.1726 16.9495L24.2275 16.8518L24.2275 16.7236Q24.374 16.626 24.5327 16.4795Q24.6975 16.3269 24.6975 16.1499L24.8013 16.0767L24.8013 15.9729L24.8989 16.0278L25.2224 15.7227L25.2224 15.625L25.4238 15.5029L25.5276 15.3503Q25.5276 15.2771 25.6008 15.2771Q25.6252 15.2771 25.7107 15.3137Q25.8022 15.3503 25.8511 15.3748L25.9976 15.3748Q26.4004 15.3748 26.7971 15.6616Q27.2 15.9485 27.4746 16.3513Q27.7493 16.748 27.7493 17.1509Q27.7493 17.2729 27.8225 17.4011Q27.853 17.4744 27.8652 17.5537Q27.8774 17.627 27.8774 17.7246L27.8774 17.8223Q27.8774 17.926 27.853 17.9504Q27.4258 18.9514 26.5347 19.8792Q25.6497 20.8008 24.6975 21.3257Q24.5022 21.4233 24.252 21.5271Q24.0017 21.6248 23.7515 21.6248Q23.6782 21.6248 23.6477 21.6003L23.4768 21.5515Q23.5501 21.5271 23.7026 21.4233Q23.7515 21.3989 23.8003 21.3745Q23.8491 21.3501 23.898 21.3257L24.0505 21.2524Q24.0994 21.2524 24.1238 21.228L24.0994 21.1975Q24.0994 21.0999 24.2275 21.0999Q24.374 21.0022 24.4778 20.9778L24.728 20.8984Q24.8745 20.8496 24.9844 20.813Q25.1003 20.7764 25.1003 20.6726Q25.198 20.5994 25.3506 20.3491Q25.5276 20.05 25.6008 19.9768L25.8267 19.928L26.0769 19.5496L26.0281 19.4519L26.2234 19.3481L26.2234 19.2505L26.2783 19.2505Q26.553 18.9514 26.7117 18.7134Q26.8765 18.4753 26.9985 18.0725Q26.9985 18.0237 27.0779 18.0237L27.0779 17.9993Q27.2244 17.7002 27.2244 17.4255Q27.2244 16.8274 26.6506 16.8274Q26.6018 16.8274 26.5225 16.803Q26.4248 16.803 26.4248 16.8518L26.553 16.8518L26.4248 16.9495Q26.3027 16.9983 26.1868 17.1021Q26.0769 17.1997 26.0769 17.3767L25.9731 17.3767Q26.0281 17.3767 26.0525 17.4744Q25.8755 17.4744 25.8022 17.572L25.9243 17.6514Q25.8755 17.7002 25.7961 17.7368Q25.7229 17.7734 25.6497 17.8223Q25.5764 17.8528 25.4971 17.8894Q25.4238 17.926 25.375 17.9749Q25.1003 18.1763 25.1003 18.3472Q25.1003 18.3777 25.1248 18.4021Q25.1492 18.4265 25.1858 18.4509Q25.2224 18.4753 25.2773 18.5242L25.0759 18.4998Q25.0759 18.4998 25.1003 18.4875Q25.1248 18.4753 25.1492 18.4753Q25.0515 18.4753 25.0027 18.4998Q24.9478 18.4998 25.0027 18.5486L25.0271 18.573Q25.0271 18.573 25.0149 18.573Q25.0027 18.573 25.0027 18.5974Q24.9783 18.6279 24.9783 18.6523L24.9233 18.6523Q24.8257 18.7744 24.7341 18.9026Q24.6487 19.0247 24.5999 19.1528Q24.5022 19.3726 24.3252 19.5984L24.5022 19.7266L24.3252 19.7266L24.2275 19.8242L24.2275 19.9524L24.075 20.0745L24.1238 20.0989L23.8735 20.5261L23.8003 20.5505L23.8003 20.752L23.5256 21.051L23.5501 21.1487L23.5012 21.1487L23.5012 21.3257Q23.3242 21.5027 23.2754 21.7773Q23.251 22.0276 23.074 22.2778L23.2266 22.2778L23.0251 22.3999L23.0251 22.4731Q23.0007 22.4976 23.0007 22.5525Q23.0007 22.6501 23.0129 22.7295Q23.0251 22.8027 23.0496 22.876Q23.074 22.9492 23.0862 23.0286Q23.0984 23.1018 23.0984 23.1995Q23.0984 23.4009 23.2632 23.7122Q23.428 24.0234 23.5989 24.0234Q24.075 24.0234 24.551 23.7732Q25.0027 23.4985 25.4727 23.4741L25.9976 23.053Q26.4004 22.7234 26.6995 22.2778Q27.023 21.8262 27.4258 21.5027L27.4502 21.5027L27.4014 21.4478Q27.4746 21.3501 27.6211 21.1487Q27.7737 20.9473 27.7981 20.8252Q27.8225 20.8008 27.8225 20.7275Q27.8225 20.6726 27.853 20.6482Q27.9019 20.5261 27.9995 20.5261Q28.1033 20.5261 28.1033 20.6482Q28.1033 20.7275 28.0728 20.752Q28.0728 21.0022 27.8591 21.4661Q27.6516 21.9238 27.377 22.0276L27.377 22.1008Q27.2488 22.2229 27.1267 22.4487Q26.9497 22.6746 26.6384 23.0774Q26.3272 23.4741 26.1257 23.4741L25.7778 23.7L25.7778 23.7976Q25.7778 23.9258 25.6252 23.9746Q25.5276 24.1028 25.375 24.0723Q25.3018 24.2249 25.1248 24.2737Q25.0515 24.2981 24.8989 24.4019Q24.8501 24.4751 24.6609 24.5544Q24.4778 24.6277 24.3984 24.6521Q24.2764 24.7498 24.0994 24.762Q23.9285 24.7742 23.8003 24.7742L23.251 24.7742ZM25.6034 35.376Q25.5485 35.376 25.4752 35.3027Q24.9015 35.1013 24.4254 34.7473Q23.9494 34.3994 23.9494 33.728Q23.9494 33.374 24.0775 33.0017Q24.1508 32.8247 24.1874 32.6477Q24.224 32.4768 24.2484 32.2998L24.3522 32.2266L24.4254 31.8237L24.6513 31.4026Q24.7489 31.2012 24.9015 30.8716Q25.048 30.5481 25.2128 30.249Q25.3776 29.95 25.4997 29.8523L25.4997 29.7241L25.6278 29.8279Q25.9025 29.3762 26.2809 29.0588Q26.6532 28.7476 27.0744 28.4485Q27.0744 28.2776 27.227 28.2471L27.1476 28.1494L27.3246 28.1006L28.9237 26.7517L28.9481 26.6724Q28.9481 26.5747 28.9237 26.5015Q29.0275 26.5259 29.0763 26.6724Q29.1251 26.825 29.1251 26.7273L29.1251 26.6724L29.1984 26.6235L29.2533 26.5747Q29.2228 26.5747 29.1984 26.5625Q29.174 26.5503 29.1251 26.5259L29.1984 26.4221L29.2228 26.3733Q29.3022 26.3 29.351 26.3Q29.3998 26.3 29.3876 26.3489Q29.3754 26.3977 29.3998 26.3733L29.6256 26.0498L29.6989 26.1475L29.8026 26.0254L29.8026 25.9766Q29.9491 25.9521 30.236 25.7263Q30.5229 25.5005 30.5534 25.3723L30.6022 25.3723L31.4018 24.9756L31.8229 24.6277L31.9267 24.6277L31.9267 24.6521Q32.2013 24.4263 32.537 24.1882Q32.8727 23.9502 33.2511 23.9502L33.2511 23.9014L33.3732 23.9258Q33.3976 23.877 33.422 23.7793Q33.4525 23.6755 33.477 23.5779L33.5502 23.1018Q33.5502 23.053 33.6234 22.7173Q33.7028 22.3755 33.7272 22.3511L33.8493 22.2229Q33.9225 22.2229 33.9225 22.1741Q33.9225 22.1497 33.8737 22.1008L33.8493 22.1008Q33.8004 22.052 33.8004 21.9727Q33.8004 21.8262 33.8737 21.6736Q33.9225 21.6003 33.9347 21.5271Q33.953 21.4478 33.9774 21.3745L33.953 21.3745Q33.8737 21.3745 33.8737 21.2769Q33.8737 21.0754 34.0263 20.8496Q34.1483 20.6482 34.1483 20.4773Q34.1483 20.1233 34.2277 19.7998Q34.2521 19.6228 34.2643 19.4641Q34.2765 19.2993 34.2765 19.1223Q34.2765 18.927 34.2521 18.8477Q34.2521 18.9026 34.1728 18.9514L34.2033 18.9514Q33.953 19.397 33.5868 20.0256Q33.2267 20.6482 32.8605 21.2646Q32.5004 21.875 32.1769 22.3267Q31.6032 23.1262 30.9013 23.8159Q30.1994 24.4995 29.3022 24.9512L29.2228 24.9268Q29.1007 25.0244 28.9604 25.0488Q28.8261 25.0732 28.6979 25.0732Q28.1242 25.0732 27.8861 24.5911Q27.6481 24.1028 27.6481 23.5779Q27.6481 23.1506 27.7091 22.699Q27.7763 22.2473 27.9533 21.8262L28.0265 21.6248Q28.0509 21.6003 28.0509 21.4478Q28.173 21.3745 28.2584 21.1609Q28.35 20.9473 28.35 20.8008Q28.4782 20.7275 28.5026 20.5505L28.6002 20.3979Q28.6491 20.3247 28.7772 20.3247Q28.7772 20.1233 28.8383 19.9524Q28.8993 19.7754 29.1007 19.7754L29.1007 19.6472L29.2228 19.4763L29.1251 18.9758Q29.1984 18.8721 29.3449 18.6646Q29.4975 18.4509 29.5524 18.3228Q29.473 18.2495 29.473 18.1519Q29.473 17.926 29.7782 17.627L29.9003 17.4988Q30.0773 17.3279 30.0773 17.1265L30.2726 17.1021Q30.3031 16.9495 30.474 16.9495L30.5229 16.9495Q30.6266 16.6992 30.7121 16.5771Q30.7975 16.449 30.9013 16.3757Q30.9745 16.3025 31.0233 16.272L31.1271 16.1987Q31.298 16.0767 31.3712 15.979Q31.4506 15.8752 31.5727 15.6738Q31.6276 15.5762 31.6764 15.5029Q31.7252 15.4236 31.7741 15.3503Q32.1525 15.0024 32.7751 14.8499Q33.3976 14.6973 33.8981 14.6973Q34.3742 14.6973 34.9845 14.8743Q35.601 15.0513 35.8756 15.5273Q36.1503 16.0278 36.3883 16.5039Q36.6264 16.9739 36.6264 17.572Q36.6264 17.627 36.6264 17.7002Q36.6264 17.7734 36.602 17.8223Q36.5775 17.9016 36.5775 17.9749Q36.5775 18.0481 36.5775 18.103Q36.5775 18.1519 36.5775 18.2251Q36.5775 18.2983 36.602 18.3777Q36.6264 18.4509 36.6264 18.5242Q36.6264 18.5974 36.6264 18.6523Q36.6264 18.75 36.4982 19.0369Q36.3761 19.3237 36.2235 19.5862Q36.0771 19.8486 35.9489 19.8486Q35.8756 19.8486 35.8512 19.7754Q35.8268 19.7021 35.8268 19.6777Q35.8268 19.5496 35.839 19.4275Q35.8512 19.2993 35.8756 19.1772Q35.9001 19.0491 35.9245 18.927Q35.9489 18.7988 35.9733 18.6768Q36.0526 18.4021 36.1015 18.1152Q36.1503 17.8223 36.1503 17.5476Q36.1503 17.3767 36.1259 17.1509Q36.1015 16.925 36.0282 16.803Q35.9733 16.6992 35.9245 16.626Q35.8756 16.5527 35.8268 16.4734Q35.778 16.4001 35.6986 16.3269Q35.6254 16.2476 35.5766 16.1499Q35.3263 15.8264 34.9784 15.8264Q34.8014 15.8264 34.6488 15.8997L34.5756 15.9485Q34.4474 15.9485 34.362 15.9607Q34.2765 15.9729 34.1483 16.0522L34.0019 16.1255L33.8493 16.2231Q32.2501 17.2729 31.0478 18.8782Q29.8515 20.4773 29.0763 22.2229Q28.8993 22.6257 28.7101 23.0896Q28.527 23.5474 28.527 23.9746Q28.527 24.176 28.6002 24.3774L28.6247 24.4019Q28.6491 24.4263 28.7284 24.4263Q28.8993 24.4263 29.1496 24.2249Q29.3998 24.0234 29.6501 23.7732Q29.9003 23.5229 30.0773 23.4009Q30.2482 23.2239 30.4008 23.1995Q30.6022 22.8516 30.8769 22.5769Q30.9989 22.4487 31.121 22.3145Q31.2492 22.1741 31.3529 22.052Q31.9511 21.2769 32.6103 20.3552Q33.2755 19.4275 33.599 18.7012Q33.6479 18.573 33.6967 18.4265Q33.7516 18.2739 33.776 18.1519Q33.8004 17.926 34.0995 17.6758L34.4779 17.6025Q34.6977 17.6758 34.8991 17.6758Q35.0272 17.6758 35.1005 17.6514L35.3019 17.6514Q35.5766 17.6514 35.6376 17.926Q35.6986 18.2007 35.723 18.4021Q35.723 18.4753 35.7475 18.4998L35.778 18.573Q35.8024 18.6768 35.778 18.75Q35.8024 18.8721 35.8146 18.9636Q35.8268 19.0491 35.8268 19.0979Q35.8268 19.5251 35.723 19.8242Q35.601 20.2026 35.601 20.5505Q35.601 20.8252 35.4484 21.0999Q35.3019 21.3501 35.3019 21.6736Q35.3019 21.9238 35.1249 21.9238L35.1005 21.9238Q35.0517 21.9238 35.0272 21.9482Q35.0272 21.9971 35.0761 22.052Q35.1005 22.1008 35.1005 22.1985Q35.1005 22.2229 35.0639 22.3389Q35.0272 22.4487 35.0028 22.4976Q34.9784 22.6013 34.8014 22.6013Q34.6977 22.6257 34.6244 22.6379Q34.5512 22.6501 34.5023 22.6501L34.4779 22.6501Q34.4779 22.699 34.5512 22.6746Q34.5756 22.6501 34.6732 22.6501Q34.7282 22.6501 34.8502 22.6624Q34.9784 22.6746 34.9784 22.7722Q34.9784 22.8516 34.8747 23.0896Q34.777 23.3276 34.661 23.5779Q34.5512 23.822 34.5023 23.9502L34.6 24.0723L34.5512 24.1272Q34.5512 24.1516 34.5268 24.176L34.423 24.2737Q35.0272 24.4019 35.3263 24.6643Q35.6254 24.9268 35.6254 25.6226Q35.6254 25.8972 35.5277 25.9766Q35.4484 26.0254 35.3996 26.1475Q35.3751 26.2024 35.3141 26.2756Q35.2531 26.3489 35.1981 26.3489Q35.1005 26.3489 35.1005 26.2756L35.1005 26.2512L35.0272 26.2512L35.1737 25.8484Q35.1981 25.7751 35.2226 25.6958Q35.2531 25.6226 35.2531 25.5493Q35.2531 25.2747 34.8258 25.1343Q34.3986 25 34.1239 24.9512Q33.7272 25.8972 33.2145 26.825Q32.7018 27.7527 32.2013 28.6499Q32.0243 28.9734 31.8351 29.2969Q31.652 29.6265 31.4506 29.9744Q31.0478 30.6519 30.6266 31.25Q30.3031 31.7261 29.8759 32.2266Q29.473 32.7026 29.1251 33.197Q28.8017 33.6975 28.411 33.9478Q28.0265 34.198 27.5993 34.4116Q27.1781 34.6252 26.6776 35.022Q26.4274 35.022 26.1772 35.199Q25.9513 35.376 25.6767 35.3271Q25.6278 35.376 25.6034 35.376ZM28.8505 20.752L28.8993 20.7275L28.8261 20.6482L28.7772 20.752L28.8505 20.752ZM25.048 34.4482Q25.1518 34.4238 25.2372 34.4116Q25.3227 34.3994 25.3776 34.3994Q25.4508 34.3506 25.5302 34.2834Q25.6034 34.2224 25.7011 34.1736L26.0734 33.9478Q26.2748 33.8257 26.4518 33.6975Q26.6227 33.5754 26.7509 33.4473Q26.7997 33.3984 26.8546 33.3496Q26.9035 33.3008 26.9523 33.252Q27.0011 33.1726 27.0622 33.0994Q27.1232 33.0261 27.1781 32.9773Q27.227 32.8979 27.288 32.8247Q27.349 32.7515 27.3979 32.7026Q27.4528 32.6233 27.5138 32.55Q27.5749 32.4768 27.6237 32.428L27.7763 32.3486L27.7763 32.373Q27.8983 32.2266 28.0448 32.074Q28.1974 31.9275 28.35 31.8237L28.3256 31.7993L28.7772 31.3721L28.7772 31.5247Q28.8261 31.4758 28.8505 31.4514Q28.8749 31.427 28.8993 31.4026L29.0519 31.0486L29.0275 31.0242L28.9481 31.0974L28.8505 31.0974L28.8505 30.9998Q29.1496 30.603 29.5463 30.1392Q29.9491 29.6753 30.2726 29.1992Q30.6022 28.7231 30.6266 28.302L31.0233 27.8992L31.0478 27.8992L31.5482 27.0508L31.475 26.8738L32.2746 25.8728Q32.299 25.7019 32.476 25.5005Q32.6225 25.2991 32.6225 25.0977Q32.6225 25.0244 32.5736 25.0244Q32.3234 25.0244 31.7008 25.4761Q31.6032 25.5249 31.475 25.5981Q31.3529 25.6775 31.2248 25.7751Q30.9745 25.9521 30.7487 26.001L29.6256 26.8738L29.6012 26.8738L27.5993 28.5278Q27.4284 28.6987 27.1537 29.0955Q26.873 29.4983 26.7509 29.8279L26.6532 29.7241Q26.6776 29.7485 26.5251 29.9988Q26.4762 30.127 26.4274 30.2124Q26.3725 30.2979 26.348 30.3528L26.348 30.4016Q26.348 30.426 26.3236 30.4749Q26.2992 30.5237 26.226 30.4993L26.2016 30.4749L25.5729 31.4514L25.4997 31.4514L25.4752 31.427Q25.4508 31.4758 25.4508 31.5491Q25.4508 31.6223 25.4264 31.6772Q25.4264 31.7993 25.3227 31.8726L24.8527 33.0505Q24.8527 33.1482 24.8405 33.2336Q24.8283 33.3252 24.7978 33.4229Q24.7489 33.6243 24.7489 33.7769Q24.7489 34.2224 25.048 34.4482ZM42.2008 13.3484Q41.8285 13.3484 41.6148 13.0127Q41.4012 12.677 41.4012 12.3474Q42.152 11.7981 42.9149 11.261Q43.6778 10.7239 44.4774 10.4248L44.7765 10.199L44.8009 10.3027Q44.8009 10.4492 44.4713 10.7117Q44.1478 10.9741 44.0013 11.0229Q43.9769 11.0779 43.7511 11.438Q43.5252 11.7981 43.214 12.2375Q42.9027 12.677 42.6097 13.0127Q42.3229 13.3484 42.2008 13.3484ZM37.2997 24.8474Q36.9518 24.8474 36.7503 24.585Q36.5489 24.3225 36.4757 23.9502Q36.4024 23.5779 36.4024 23.2971Q36.4024 22.3267 36.7381 21.3379Q37.0738 20.3491 37.5499 19.5251Q37.6781 19.2993 37.8246 19.1223L38.0748 18.75Q38.148 18.6279 38.2274 18.4509Q38.2762 18.2739 38.3739 18.1763Q38.5021 17.926 38.6607 17.6514Q38.8255 17.3767 39.0025 17.1021Q39.3504 16.5222 39.3504 15.9241Q39.3749 15.9485 39.4237 15.9485L39.4481 15.9485Q39.5519 15.9485 39.6007 15.9241L39.6983 15.9241Q39.9486 15.9241 40.2843 16.1499Q40.6261 16.3757 40.9007 16.687Q41.1754 16.9983 41.1754 17.2485Q41.1754 17.4255 40.9862 17.6514Q40.8031 17.8772 40.5772 18.103L40.3514 18.3228L40.1256 18.573Q39.9486 18.7744 39.7716 19.0125Q39.6007 19.2505 39.4481 19.5251Q39.3993 19.574 39.3993 19.6472Q39.3993 19.751 39.3749 19.7754Q39.3749 19.928 39.1246 20.0256L39.1246 19.8975Q38.5021 20.5261 38.087 21.4783Q37.6781 22.4243 37.6781 23.2727L37.6781 23.4985Q37.6781 23.6755 37.7269 23.7244Q37.7513 23.822 37.8246 23.822L37.8734 23.822Q37.8734 23.8525 37.8978 23.8525Q37.8978 23.877 37.9283 23.877L37.9283 23.9014Q37.9283 23.9502 37.849 24.0234L37.8246 24.0479Q37.7757 24.1028 37.7757 24.1028Q37.7757 24.1272 37.9466 24.1638Q38.1236 24.2004 38.148 24.2004Q38.2518 24.2004 38.4776 24.0112Q38.7035 23.822 38.9476 23.6023Q39.1979 23.3765 39.3504 23.2727Q39.5274 23.1262 39.6739 23.0774Q39.8753 22.8271 40.0768 22.5769Q40.2782 22.3267 40.4491 22.0764Q40.6505 21.8262 40.8336 21.6003Q41.0228 21.3745 41.2242 21.1243L41.2242 21.0754Q41.2242 21.0266 41.3585 20.813Q41.4989 20.5994 41.6637 20.4041Q41.8285 20.2026 41.8773 20.2026Q41.9017 20.2271 41.9017 20.3247Q41.9017 20.4224 41.8773 20.4529Q41.7247 20.7764 41.4256 21.3623Q41.1266 21.9482 40.8092 22.4487Q40.4979 22.9492 40.2232 23.0225Q40.1744 23.1506 40.0707 23.3276Q39.973 23.4985 39.8265 23.5474Q39.7533 23.6755 39.6251 23.6755Q39.5519 23.877 39.4481 23.9014Q39.3993 23.9502 39.3504 23.9868Q39.3016 24.0234 39.2772 24.0479Q39.2528 24.1516 39.1002 24.2371Q38.9476 24.3225 38.85 24.3774Q38.7279 24.4995 38.5265 24.6521Q38.3251 24.7986 38.1236 24.7986L38.0504 24.7986L37.9771 24.7742L37.9283 24.7742Q37.8978 24.7498 37.849 24.7498Q37.7757 24.7498 37.5743 24.7986Q37.3729 24.8474 37.2997 24.8474ZM44.0487 24.7498Q43.9266 24.7498 43.8106 24.7375Q43.7008 24.7253 43.5726 24.7009Q43.4505 24.6521 43.3224 24.6277Q43.2003 24.5972 43.0782 24.5728L43.1026 24.4507Q42.3275 24.4507 42.065 24.1638Q41.8026 23.877 41.8026 23.0774Q41.8026 22.998 41.827 22.9736L41.827 22.9004Q41.9491 22.9248 42.0223 22.937Q42.1017 22.9492 42.1505 22.9492Q42.4007 22.9492 42.4984 22.8516Q42.651 22.8271 42.7975 22.8271Q42.9501 22.8271 43.1026 22.8027Q43.2247 22.8027 43.3712 22.7905Q43.5238 22.7722 43.652 22.7478L43.652 22.7234Q43.2247 21.875 42.9134 21.1792Q42.6021 20.4773 42.6021 19.6228Q42.6021 19.0491 42.8097 18.5791Q43.0233 18.103 43.1515 17.572Q43.2003 17.4255 43.3102 17.4133Q43.4261 17.4011 43.475 17.3767Q43.5726 17.2485 43.6581 17.1509Q43.7496 17.0471 43.8534 16.9495Q43.9266 16.8762 44.0121 16.8152Q44.0975 16.748 44.1769 16.6748L44.3478 16.5222Q45.0252 15.9485 45.8736 15.5396Q46.7281 15.1245 47.5033 14.801L48.1502 15.2222Q48.2784 15.4724 48.4493 15.7471Q48.6263 15.9973 48.6263 16.3269L48.6263 16.4246Q48.6019 16.4734 48.6019 16.5771L48.4493 16.803Q48.4493 16.803 48.0587 17.0532Q47.6742 17.2974 47.1615 17.6025Q46.6488 17.9016 46.2582 18.1396Q45.8736 18.3777 45.8492 18.3777Q45.7516 18.3777 45.7516 18.2983Q45.7516 18.2251 46.0628 17.9626Q46.3741 17.7002 46.7709 17.3889Q47.1737 17.0776 47.4972 16.8518Q47.8268 16.626 47.8512 16.6016Q47.1493 16.6748 46.4718 16.8884Q45.8004 17.1021 45.2755 17.4744Q45.2267 17.4988 45.1229 17.4744Q45.0252 17.45 44.9764 17.4988Q44.9032 17.5476 44.8727 17.7002Q44.8482 17.8528 44.7994 17.9016Q44.4759 18.2251 44.2867 18.6768Q44.0975 19.1223 44.0975 19.7021Q44.0975 19.8242 44.2196 20.2881Q44.3478 20.752 44.5492 21.3013Q44.7506 21.8506 44.9764 22.2534Q45.2022 22.6501 45.3976 22.6501L46.0262 22.6501Q46.1727 22.6501 46.3253 22.6379Q46.4779 22.6257 46.6244 22.6013Q46.899 22.5525 47.1493 22.4487Q47.6742 22.3267 48.1991 22.3022Q48.3761 22.1985 48.6263 22.1497Q48.7484 22.1252 48.8583 22.1252Q48.9742 22.1252 49.078 22.1008L49.2245 22.1741L49.2001 22.3999Q49.023 22.4487 48.6324 22.6013Q48.2479 22.7478 47.8573 22.876Q47.4728 22.998 47.2774 22.998L47.1737 22.9736Q47.1493 22.9736 47.1493 22.9492L47.1249 22.9492Q46.9234 22.9492 46.7281 23.0225Q46.6244 23.0774 46.5084 23.114Q46.3985 23.1506 46.3009 23.1995Q46.0995 23.2727 45.837 23.3398Q45.5746 23.4009 45.2999 23.3765Q45.2511 23.877 44.9337 24.3164Q44.6224 24.7498 44.0487 24.7498ZM43.5238 23.7732Q43.6031 23.7732 43.6031 23.6267Q43.6031 23.5779 43.5726 23.4924Q43.5482 23.4009 43.4994 23.4009Q43.3773 23.4009 43.2247 23.3887Q43.0782 23.3765 42.9501 23.3521Q42.7975 23.3276 42.6449 23.3154Q42.4984 23.2971 42.3763 23.2971L42.3519 23.2971Q42.4007 23.3765 42.6754 23.4924Q42.9501 23.6023 43.2247 23.6877Q43.4994 23.7732 43.5238 23.7732ZM49.2754 20.9778Q49.074 21.0754 48.958 20.9534Q48.8481 20.8252 48.9519 20.697Q49.074 20.575 49.0984 20.4773Q49.1228 20.3735 49.1228 20.2515L49.1228 20.05Q49.1228 19.873 49.1533 19.8486L49.2998 19.7021Q49.3242 19.6472 49.4524 19.5984L49.5745 19.2505Q49.3975 19.0491 49.6233 18.8232L49.6477 18.7988L49.6477 18.7744L49.7026 18.7012L49.8491 18.4509L49.8735 18.4021L49.9285 18.4021Q49.8735 18.2739 50.0017 18.1274Q50.0505 17.9993 50.1482 17.8772Q50.252 17.749 50.3496 17.6025Q50.5999 17.3279 50.6243 17.1021Q50.6731 16.9006 50.8501 16.748Q50.8257 16.748 50.8257 16.6992Q50.8257 16.6748 50.8013 16.6748Q50.8013 16.6504 50.8257 16.626L50.8257 16.6016Q50.8745 16.5527 50.9966 16.3391Q51.1248 16.1255 51.2529 15.8997Q51.3018 15.8264 51.3506 15.7532Q51.3994 15.6738 51.4482 15.5762L51.5764 15.3503L50.8989 15.1245Q50.3984 14.9475 50.02 14.6362Q49.6477 14.325 49.6477 13.7268Q49.6477 13.4521 49.8125 13.2507Q49.9773 13.0493 50.1482 12.9028Q50.252 12.7991 50.252 12.7747Q50.4534 12.5244 50.6487 12.6404Q50.8501 12.7502 50.6487 12.9517L50.5022 13.147Q50.3984 13.2996 50.3008 13.4399Q50.2031 13.5742 50.2031 13.7756Q50.2031 14.0259 50.5632 14.2151Q50.9233 14.3982 51.3628 14.502Q51.8022 14.5996 51.9731 14.5996Q52.9985 13.2507 53.9995 11.9263Q55.0005 10.6018 56.0015 9.25293Q56.0991 9.14917 56.0991 8.89893L57.0269 7.92236Q57.1245 7.97729 57.21 8.00171Q57.3015 8.02612 57.3992 8.05054Q57.5029 8.07495 57.5884 8.09937Q57.6738 8.12378 57.7776 8.14819Q57.9729 8.19702 58.1499 8.27637Q58.3269 8.34961 58.4734 8.52661Q58.748 8.80127 58.748 9.198Q58.748 9.62524 58.4001 9.92432Q58.0278 10.2234 57.7532 10.498Q57.6494 10.5774 57.5579 10.6506Q57.4724 10.7239 57.3748 10.8276Q57.1733 11.0229 56.9231 11.0229L56.9231 10.8521L57.0024 10.8521Q57.1001 10.7239 57.21 10.5774Q57.3259 10.4248 57.4236 10.3027Q57.6738 10.0281 57.802 9.74731Q57.6982 9.85107 57.6128 9.92432Q57.5273 9.99756 57.4236 10.0769Q57.3259 10.1501 57.2344 10.2417Q57.1489 10.3271 57.0513 10.4248Q56.9231 10.6018 56.6484 10.9131Q56.3738 11.2244 56.0503 11.5723Q55.7756 11.9263 55.4888 12.2009Q55.2019 12.4756 55.0737 12.5977L55.0493 12.6221L55.1531 12.7258L54.8235 12.8479L54.8479 12.8723Q54.8479 13.0737 54.7197 13.1531Q54.5977 13.2263 54.4756 13.2263Q54.4268 13.3728 54.3352 13.4888Q54.2498 13.5986 54.0483 13.678Q54.0728 13.7024 54.0728 13.7512Q54.0728 13.7756 54.1033 13.8Q54.1033 13.8245 54.1277 13.8489L54.0728 13.8489L54.0728 13.8977L53.9507 13.8977Q53.9263 13.8977 53.9019 14.0015L53.9751 14.1235Q53.9995 14.1479 53.9995 14.2273Q54.3474 13.8489 54.6709 13.4766Q55.0005 13.0981 55.3484 12.7014L56.7034 11.2L56.7522 11.2Q56.7522 11.2244 56.7766 11.2244Q56.7766 11.2488 56.801 11.2488Q56.801 11.4258 56.5264 11.8042Q56.2517 12.1765 55.8489 12.616Q55.4521 13.0493 55.0859 13.4521Q54.7258 13.8489 54.5244 14.0747Q54.4512 14.1479 54.3474 14.3005Q54.2742 14.3738 54.1765 14.5264L54.4023 14.5264Q54.7258 14.5264 54.9883 14.4897Q55.2507 14.447 55.5254 14.3982Q55.6475 14.3738 55.7695 14.3372Q55.8977 14.3005 56.0259 14.2761Q56.1479 14.2517 56.27 14.2273Q56.3982 14.2029 56.5264 14.1724Q56.8254 14.1235 57.3259 14.0137Q57.8264 13.8977 58.0522 13.7268Q58.6992 13.5254 59.3279 13.4277Q59.3279 13.4277 59.3523 13.4155Q59.3767 13.3972 59.4255 13.3728Q59.4744 13.3728 59.4988 13.3484Q59.5476 13.2751 59.627 13.2751L59.8284 13.2019L60.0237 13.147L60.0237 13.1226Q60.3777 13.0493 60.7012 12.915Q61.0247 12.7747 61.3726 12.6221Q61.7021 12.5 62.0134 12.3901Q62.3247 12.2742 62.6482 12.2742L62.7275 12.1277Q63.0266 11.8225 63.3989 11.8225L63.3989 11.9019Q63.5027 11.9995 63.5027 12.1277Q63.5027 12.2009 63.4478 12.2009Q63.228 12.4268 62.9534 12.4512Q62.9778 12.5 62.99 12.5244Q63.0022 12.5488 63.0022 12.5732Q63.0022 12.6526 62.9229 12.6526Q62.8252 12.7258 62.6726 12.7258Q62.5505 12.7258 62.5505 12.5732L62.6238 12.5244Q62.4773 12.5244 62.4224 12.4756Q62.2515 12.9272 61.8486 12.9272L61.7998 13.1226L61.5251 13.0493Q61.4031 13.1775 61.2749 13.1775Q61.2261 13.2996 61.1895 13.3911Q61.1528 13.4766 61.0002 13.4766Q61.0247 13.4521 61.0247 13.3972Q61.0002 13.3728 61.0002 13.3484Q60.8232 13.5498 60.5852 13.7024Q60.3533 13.8489 60.0237 13.8489L59.9993 13.678L59.9749 13.678Q59.9993 13.7024 59.9993 13.8Q59.9993 13.8977 59.9138 13.9526Q59.8284 14.0015 59.7734 14.0015Q59.749 14.0015 59.749 13.9771L59.7002 13.9771Q59.5781 14.0747 59.4744 14.0747Q59.4255 14.0747 59.4011 14.0503L59.3279 14.0503Q59.1997 14.1479 59.0959 14.1602Q58.9983 14.1724 58.803 14.2029Q58.4734 14.2517 58.1133 14.3799Q57.7532 14.502 57.4236 14.624Q57.3992 14.6484 57.3015 14.6484Q57.2527 14.6484 57.2527 14.6729Q56.4775 15.0757 55.678 15.1001Q54.8235 15.1733 54.0239 15.3259Q53.9507 15.3503 53.8713 15.3625Q53.7981 15.3748 53.7004 15.3748Q53.6028 15.3748 53.5234 15.387Q53.4502 15.3992 53.377 15.4236Q53.2244 15.448 52.9985 15.6616Q52.7727 15.8752 52.5713 16.1255Q52.376 16.3757 52.2783 16.5222Q52.1746 16.626 52.0464 16.7419Q51.9243 16.8518 51.8022 16.9495Q51.552 17.1265 51.3506 17.4011Q51.3018 17.45 51.2224 17.5293Q51.1492 17.6025 51.1003 17.7002Q50.9783 17.926 50.8013 17.9504Q50.8501 18.0725 50.7524 18.1274L50.6975 18.1763Q50.4778 18.4021 50.4778 18.7012Q50.3984 18.7744 50.3496 18.9026L50.3252 19.0002L50.252 19.0979Q50.1238 19.2749 50.0078 19.5129Q49.8979 19.751 49.7759 20.0256Q49.6477 20.3003 49.5195 20.5383Q49.3975 20.7764 49.2754 20.9778ZM48.5002 27.7222Q48.3232 27.7222 48.1096 27.6489Q47.9021 27.5757 47.7739 27.4475Q47.6519 27.301 47.4138 26.9104Q47.1758 26.5259 47.1758 26.3245Q47.1758 25.8484 47.2246 25.3967Q47.2734 24.9512 47.3772 24.4751Q47.5237 24.353 47.5481 24.176Q47.5725 23.999 47.603 23.822Q47.7983 23.6267 47.8228 23.3276Q47.8533 23.0225 48.1279 23.0225L48.1768 22.9736Q48.2012 22.9492 48.1523 22.8516Q48.0974 22.7234 48.073 22.6379Q48.0486 22.5525 48.1279 22.4243Q48.1523 22.3755 48.1768 22.3145Q48.2012 22.2473 48.2256 22.2229Q48.25 22.1985 48.2988 22.052Q48.3782 21.7773 48.4392 21.5637Q48.5002 21.3501 48.7017 21.1243Q48.8237 21.0266 48.9214 21.1121Q49.0251 21.1975 49.0007 21.3257Q49.0007 21.4722 48.9275 21.6248L49.1228 21.6248Q49.0251 22.1008 48.897 22.5769Q48.7749 23.053 48.6528 23.5229Q48.3477 24.4507 48.3477 25.4272Q48.3477 26.3 48.7017 27.0508L49.0496 26.8494L49.1777 26.6235L49.1777 26.8982L49.2266 27.0264Q49.2754 26.8982 49.373 26.8005Q49.4768 26.7029 49.6782 26.7029L49.7026 26.8738Q49.7026 26.947 49.6782 26.9775Q49.5256 27.301 49.196 27.5085Q48.8726 27.7222 48.5002 27.7222ZM54.976 24.7742Q54.7013 24.7742 54.4267 24.7009Q54.0238 24.5483 53.6271 23.877L53.8224 23.822L53.6515 23.7L53.4501 23.0774L53.4257 23.0774Q53.4013 22.998 53.4013 22.8516L53.4013 22.6746Q53.4013 22.5769 53.5233 22.3267Q53.6515 22.0764 53.7492 21.8506L53.4989 21.8994L53.4989 21.7773Q53.5233 21.7529 53.5783 21.6492Q53.6027 21.5759 53.7003 21.5515Q53.7248 21.5759 53.7248 21.6248L53.7736 21.5759L53.7736 21.4478Q53.7736 21.3501 53.7858 21.2402Q53.798 21.1243 53.8773 21.051Q53.8773 20.8984 53.9018 20.874L53.9262 20.7764L53.975 20.7764L53.975 20.6726L54.1276 20.4773Q54.2497 20.3491 54.2741 20.3491L54.2741 20.3247Q54.2497 20.3491 54.2008 20.3491Q54.1032 20.3491 54.1032 20.2515Q54.1032 20.2271 54.1276 20.2026L54.1276 20.0745Q54.152 20.05 54.152 19.9524Q54.152 19.8486 54.1032 19.7998L54.2741 19.5984L54.3778 19.6228L54.3534 19.5984L54.4022 19.5984L54.4267 19.574L54.4999 19.2993L54.6281 19.5007L54.7013 19.0735Q54.7257 18.9514 54.7501 18.8293Q54.7746 18.7012 54.799 18.573L55.0736 18.5486L55.0736 18.3472L55.0004 18.3472L55.0004 18.2251L55.1225 18.103L55.1225 18.1274L55.153 18.103L55.153 17.9749L55.3727 17.8223L55.3727 17.7246Q55.5497 17.627 55.6779 17.3767Q55.7511 17.1997 56.0258 17.1509L55.8732 17.1509L55.8976 17.1265L55.7999 17.1997L55.7999 16.9983L55.8488 16.9983L55.8732 16.9495L55.8976 16.9495L55.9525 16.8518L55.9525 16.7236Q56.099 16.626 56.2577 16.4795Q56.4225 16.3269 56.4225 16.1499L56.5263 16.0767L56.5263 15.9729L56.6239 16.0278L56.9474 15.7227L56.9474 15.625L57.1488 15.5029L57.2526 15.3503Q57.2526 15.2771 57.3258 15.2771Q57.3502 15.2771 57.4357 15.3137Q57.5272 15.3503 57.5761 15.3748L57.7226 15.3748Q58.1254 15.3748 58.5221 15.6616Q58.9249 15.9485 59.1996 16.3513Q59.4743 16.748 59.4743 17.1509Q59.4743 17.2729 59.5475 17.4011Q59.578 17.4744 59.5902 17.5537Q59.6024 17.627 59.6024 17.7246L59.6024 17.8223Q59.6024 17.926 59.578 17.9504Q59.1508 18.9514 58.2597 19.8792Q57.3747 20.8008 56.4225 21.3257Q56.2272 21.4233 55.977 21.5271Q55.7267 21.6248 55.4765 21.6248Q55.4032 21.6248 55.3727 21.6003L55.2018 21.5515Q55.275 21.5271 55.4276 21.4233Q55.4765 21.3989 55.5253 21.3745Q55.5741 21.3501 55.6229 21.3257L55.7755 21.2524Q55.8244 21.2524 55.8488 21.228L55.8244 21.1975Q55.8244 21.0999 55.9525 21.0999Q56.099 21.0022 56.2028 20.9778L56.453 20.8984Q56.5995 20.8496 56.7094 20.813Q56.8253 20.7764 56.8253 20.6726Q56.923 20.5994 57.0756 20.3491Q57.2526 20.05 57.3258 19.9768L57.5517 19.928L57.8019 19.5496L57.7531 19.4519L57.9484 19.3481L57.9484 19.2505L58.0033 19.2505Q58.278 18.9514 58.4367 18.7134Q58.6015 18.4753 58.7235 18.0725Q58.7235 18.0237 58.8029 18.0237L58.8029 17.9993Q58.9494 17.7002 58.9494 17.4255Q58.9494 16.8274 58.3756 16.8274Q58.3268 16.8274 58.2475 16.803Q58.1498 16.803 58.1498 16.8518L58.278 16.8518L58.1498 16.9495Q58.0277 16.9983 57.9118 17.1021Q57.8019 17.1997 57.8019 17.3767L57.6981 17.3767Q57.7531 17.3767 57.7775 17.4744Q57.6005 17.4744 57.5272 17.572L57.6493 17.6514Q57.6005 17.7002 57.5211 17.7368Q57.4479 17.7734 57.3747 17.8223Q57.3014 17.8528 57.2221 17.8894Q57.1488 17.926 57.1 17.9749Q56.8253 18.1763 56.8253 18.3472Q56.8253 18.3777 56.8498 18.4021Q56.8742 18.4265 56.9108 18.4509Q56.9474 18.4753 57.0023 18.5242L56.8009 18.4998Q56.8009 18.4998 56.8253 18.4875Q56.8498 18.4753 56.8742 18.4753Q56.7765 18.4753 56.7277 18.4998Q56.6728 18.4998 56.7277 18.5486L56.7521 18.573Q56.7521 18.573 56.7399 18.573Q56.7277 18.573 56.7277 18.5974Q56.7033 18.6279 56.7033 18.6523L56.6483 18.6523Q56.5507 18.7744 56.4591 18.9026Q56.3737 19.0247 56.3249 19.1528Q56.2272 19.3726 56.0502 19.5984L56.2272 19.7266L56.0502 19.7266L55.9525 19.8242L55.9525 19.9524L55.7999 20.0745L55.8488 20.0989L55.5985 20.5261L55.5253 20.5505L55.5253 20.752L55.2506 21.051L55.275 21.1487L55.2262 21.1487L55.2262 21.3257Q55.0492 21.5027 55.0004 21.7773Q54.976 22.0276 54.799 22.2778L54.9516 22.2778L54.7501 22.3999L54.7501 22.4731Q54.7257 22.4976 54.7257 22.5525Q54.7257 22.6501 54.7379 22.7295Q54.7501 22.8027 54.7746 22.876Q54.799 22.9492 54.8112 23.0286Q54.8234 23.1018 54.8234 23.1995Q54.8234 23.4009 54.9882 23.7122Q55.153 24.0234 55.3239 24.0234Q55.7999 24.0234 56.276 23.7732Q56.7277 23.4985 57.1977 23.4741L57.7226 23.053Q58.1254 22.7234 58.4245 22.2778Q58.7479 21.8262 59.1508 21.5027L59.1752 21.5027L59.1264 21.4478Q59.1996 21.3501 59.3461 21.1487Q59.4987 20.9473 59.5231 20.8252Q59.5475 20.8008 59.5475 20.7275Q59.5475 20.6726 59.578 20.6482Q59.6269 20.5261 59.7245 20.5261Q59.8283 20.5261 59.8283 20.6482Q59.8283 20.7275 59.7978 20.752Q59.7978 21.0022 59.5841 21.4661Q59.3766 21.9238 59.102 22.0276L59.102 22.1008Q58.9738 22.2229 58.8517 22.4487Q58.6747 22.6746 58.3634 23.0774Q58.0521 23.4741 57.8507 23.4741L57.5028 23.7L57.5028 23.7976Q57.5028 23.9258 57.3502 23.9746Q57.2526 24.1028 57.1 24.0723Q57.0268 24.2249 56.8498 24.2737Q56.7765 24.2981 56.6239 24.4019Q56.5751 24.4751 56.3859 24.5544Q56.2028 24.6277 56.1234 24.6521Q56.0014 24.7498 55.8244 24.762Q55.6535 24.7742 55.5253 24.7742L54.976 24.7742ZM63.4502 23.175Q63.377 23.175 63.3282 23.1262Q63.2977 23.1506 63.1756 23.1506Q62.8521 23.1506 62.5225 22.699Q62.199 22.2473 62.199 21.9238Q62.199 21.3501 62.4981 20.7275L63.0474 19.574Q63.2 19.2749 63.2 19.1772Q63.2 19.1772 63.0779 18.9758L62.9498 18.8477Q62.9009 18.7988 62.8643 18.7622Q62.8277 18.7256 62.7728 18.6768Q62.6263 18.4998 62.4737 18.2739Q62.3272 18.0481 62.2784 17.749Q62.2234 17.7979 62.0464 18.1274Q61.8755 18.4509 61.6985 18.75Q61.5276 19.0491 61.4239 19.0491Q61.375 19.0491 61.3506 19.0247Q61.3262 19.0002 61.2774 19.0002Q61.2225 19.0002 61.1492 19.2017Q61.0516 19.3481 60.8746 19.6411Q60.6976 19.928 60.5206 20.1782Q60.3497 20.4224 60.2032 20.4224Q60.0994 20.4224 60.0994 20.3247Q60.0994 20.2515 60.1971 20.0378Q60.3008 19.8242 60.4351 19.6106Q60.5755 19.397 60.6243 19.3481Q60.9234 18.927 61.1248 18.6035Q61.3262 18.2739 61.5032 17.926Q61.6497 17.6025 61.8084 17.2668Q61.9732 16.925 62.199 16.4978Q62.2478 16.1499 62.3516 15.7776Q62.7239 14.6484 63.2366 13.8123Q63.7493 12.9761 64.5245 12.0972Q64.7015 11.9263 64.9395 11.6638Q65.1775 11.4014 65.4278 11.1755Q65.678 10.9497 65.8489 10.9497Q66.0015 10.9497 66.2029 11.0779Q66.3006 11.1267 66.3738 11.1755Q66.4532 11.2244 66.5264 11.2732L67.0269 11.5479Q67.3016 11.7004 67.3016 12.0239Q67.3016 12.1521 67.2771 12.1765Q67.1978 12.4512 66.7828 12.7625Q66.3738 13.0737 65.8855 13.4033Q65.4034 13.7268 65.0982 14.0259Q64.6526 14.4226 64.323 14.9231Q63.9996 15.4236 63.7249 15.9973Q63.7005 16.1011 63.6639 16.1743Q63.6272 16.2476 63.6028 16.3513Q63.5784 16.5222 63.4747 16.748Q63.4502 16.803 63.4258 16.864Q63.4014 16.925 63.4014 16.9983Q63.4014 17.1265 63.4258 17.1753Q63.4502 17.2485 63.4502 17.3767Q63.4502 17.5232 63.4258 17.572Q63.4014 17.6514 63.4014 17.7979Q63.4014 18.0725 63.6761 18.3105Q63.9507 18.5486 64.2132 18.8232Q64.4756 19.0979 64.4756 19.4519Q64.4756 19.751 64.2742 20.1782Q64.0728 20.5994 63.8226 21.0266Q63.5784 21.4478 63.4258 21.8018L63.2977 22.1008L63.2488 22.2778Q63.2488 22.3267 63.2732 22.3267L63.3282 22.3999Q63.5479 22.3999 63.9446 22.0764Q64.3475 21.7529 64.7503 21.3684Q65.1531 20.9778 65.2996 20.8252Q65.5987 20.5017 65.8489 20.1416Q66.0992 19.7754 66.325 19.397Q66.3738 19.2749 66.4837 19.1162Q66.5997 18.9514 66.7278 18.9514Q66.8743 18.9514 66.8743 19.1223Q66.8743 19.2749 66.6119 19.7144Q66.3494 20.1477 66.0503 20.575Q65.7513 21.0022 65.6231 21.1243L65.5987 21.1731L65.5987 21.1975Q65.5254 21.3745 65.3728 21.4233Q65.3484 21.4478 65.2996 21.5515Q65.2508 21.6492 65.2264 21.6736Q65.2264 21.7224 65.1531 21.7773L65.0494 21.8018Q65.0249 21.8994 64.9029 21.9727L64.7503 22.1252Q64.7259 22.1252 64.7259 22.1497Q64.7259 22.1741 64.7015 22.1741Q64.677 22.3267 64.5 22.3267Q64.4512 22.4243 64.3597 22.5769Q64.2742 22.7234 64.1521 22.7234Q64.024 22.9004 63.8226 22.9004Q63.7981 22.9248 63.7981 22.9736Q63.7981 22.998 63.7737 23.0225Q63.7249 23.1506 63.5479 23.1506Q63.5235 23.175 63.4502 23.175Z"
            fill="url(#paint_radial_4)"
            fill-rule="nonzero"
          />
        </svg>