<svg xmlns="http://www.w3.org/2000/svg" fill="none" viewBox="0 0 122 107.657"><defs><radialGradient id="a" cx="0" cy="0" r="1" gradientTransform="matrix(61 0 0 53.8284 61 53.828)" gradientUnits="userSpaceOnUse"><stop offset=".181" stop-color="#ff740b"/><stop offset=".561" stop-color="#ff3a05"/><stop offset="1" stop-color="red"/></radialGradient></defs><path fill="url(#a)" d="M13.735 46.051q-.097 0-.299-.275-.201-.274-.348-.586-.152-.31-.152-.415 0-.097.012-.201.012-.098.037-.195.054-.098.079-.19.024-.085.049-.183v.098q.177-.049.177-.201v-.05l-.153.098q.098-.097.153-.17.073-.129.17-.153.08 0 .178-.104.097-.098.152-.146l-.128.048.476-.347.024.024q.3-.201.702-.299.397-.098.745-.25.354-.153.5-.428v-.073l.104.05q0-.501.086-1.038.091-.538.287-.959 0-.152.177-.152.073 0 .097.164.025.16.025.208.03.403-.074.775-.048.202-.073.415l-.049.44q.074-.025.135-.037.06-.018.14-.018v.055l1.147-.354v.048q.05.03.074 0h.079l-.049.03q-.03 0-.055.013l-.073.037h.476l-.128.122h.03q.196 0 .397-.122l-.049-.05.177-.054-.354-.049.074-.049h.354q.097 0 .183-.012.091-.012.189-.036.024-.025.152-.025h.122q.129 0 .416.025.287.024.384.073v-.025h.275q.28 0 .354.025l.024-.025q-.049-.048-.213-.073-.165-.024-.11-.024h.549v.024l1.3-.024.024.049q.025.024.25.024.123-.201.27-.397.152-.201.28-.378.122-.202.244-.385.128-.189.256-.39.8-1.276 1.484-2.613.69-1.336 1.367-2.685h-.08q-.244 0-.244-.226 0-.049.013-.134.012-.092.036-.196l-.152.153q0 .024-.153.287-.146.262-.348.616-.201.348-.366.61-.159.263-.183.263v-.049q-.025 0-.025-.049 0-.354.336-.903.342-.55.726-1.147.391-.605.513-1.05l.153-.5q.049-.129.085-.263.037-.14.086-.263.299-.775.714-1.513.415-.739.836-1.465.08-.25.354-.684.275-.44.275-.64 0-.05-.055-.05-.074.025-.074-.097 0-.177.153-.5.17-.379.201-.501.098-.177.196-.336l.201-.317.403-.55-.201-.122.048-.054-.097-.05-.025.05.05.03h-.08l-.05.024q0 .05.025.05t.055.024v.097l-.03.025q-.073-.073-.165-.122-.085-.05-.183-.098-.098 0-.147.073l-.25-.073v-.104q-.055.153-.177.153-.201 0-.427-.012t-.421-.037q-.226-.03-.452-.043t-.427-.012h-.171q-.055.025-.177.025l-.049.03v.024l.024-.024h.25q.123 0 .172.024l-.324.123.08.024q-.678.049-1.404.214-.727.164-1.374.44l.025.024-.3.17.05-.097q-.373.403-.61.567-.239.16-.38.287-.133.122-.188.372-.05.25-.05.825v.097q0 .104-.048.104-.098 0-.201-.287-.098-.287-.165-.61-.061-.33-.061-.403-.025-.226.08-.476.048-.098.072-.171.025-.08.05-.153.048-.024.121-.085.08-.067.08-.116l-.025-.024-.098.073.147-.147q.073-.08.128-.177h.049q.049 0 .134-.085.092-.092.116-.14l-.08.048h-.024l.428-.348v.025q.299-.202.671-.275.378-.073.678-.183.299-.116.378-.415l.073.049q.202 0 .3-.08.127-.073.298-.073h.05l-.025.049.976-.25v.055h.098l-.146.073.372.049-.098.073.049.024q.049 0 .146-.036.104-.037.153-.061l-.024-.049q.024 0 .049-.012.024-.013.079-.037l-.25-.049.048-.055h.672q.128 0 .39.043.263.037.36.134v-.024q.33 0 .525.098l.025-.025-.25-.17.348.048.354.049.677.073q.024-.146.146-.195.129-.055.25-.055.526 0 1.1.177.58.177.604.75.372.074.598.202.226.122.525.348.274.226.598.372.354.177.604.379.171.122.293.287.128.164.128.36 0 .104-.073.378-.073.275-.201.275-.05 0-.061-.287-.013-.287-.11-.342l-.055.024q-.074-.073-.373-.231l-.586-.324q-.286-.165-.39-.244-.348-.195-.55-.195-.097.024-.25.012-.146-.012-.323-.037-.775 1.972-1.727 3.9l-1.899 3.821-1.123 2.301q-.274.574-.592 1.142-.311.561-.659 1.135-.452.726-1.141 1.703-.684.97-1.46 1.843.202.024.422.055.226.024.452.073l.854.147v.03q.122.073.3.073l.323.074q.097.048.17.091.08.037.178.086.354.122.89.274.538.147.96.373.426.225.426.573.025.104-.049.342-.073.238-.177.238-.097 0-.164-.293-.061-.287-.159-.287l-.073.03q-.153-.127-.678-.292-.525-.159-1.062-.3-.537-.133-.738-.133h-.153q-.073 0-.146.024h-.3q-.323 0-.573-.086-.25-.091-.525-.262v.024l.073.098-.098.073-.03-.024.03-.049-.054-.049q-.025-.024-.196-.024-.152 0-.226.024h-.25l-.08.073h-.024l-.146-.048q-.275.274-.568.512-.287.238-.561.44-.073.049-.3.256-.225.214-.274.269-.574.372-1.19.659-.61.287-1.361.287-.97 0-1.66-.427-.69-.422-.965-1.27-.299.098-.586.183-.287.092-.561.238l-.348.202.098-.098q.097-.104-.098.073-.201.177-.33.226-.195.098-.396.3l.201-.154q-.25.202-.488.464-.238.263-.214.617l.073.323q.074.147.074.324v.049q-.025 0-.025.024m9.076-19.97q.024-.056.024-.08t.025-.049v.049zm-3.9 18.5q.903 0 1.678-.58.776-.575 1.35-1.197.048 0 .176-.128.05-.049.11-.122.061-.074.11-.153l-.22-.073.05-.049-.105-.024-.048.048.073.025h-.171q0 .073.122.073v.104l-.024.024q-.025-.049-.226-.073-.147-.03-.226-.104-.122.025-.195.104l-.3-.08-.03-.048q-.146.152-.25.152h-.476q-.373 0-.837.025-.457.024-.824.049-.36.024-.433.073v.024l.025-.024h.225q.074-.025.22-.025.025 0 .055.025h.025l-.379.128.104.024q-.427.074-.867.16-.433.09-.885.213.177.75.8 1.086.622.342 1.373.342m14.801-5.775q-.201.098-.317-.024-.11-.128-.006-.257.122-.122.146-.22.025-.103.025-.225v-.202q0-.177.03-.201l.147-.146q.024-.055.152-.104l.122-.348q-.177-.202.05-.427l.024-.025v-.024l.055-.074.146-.25.025-.049h.054q-.054-.128.074-.274.049-.128.146-.25.104-.129.202-.275.25-.275.274-.5.05-.202.226-.355-.024 0-.024-.048 0-.025-.025-.025 0-.024.025-.049v-.024q.049-.049.17-.263.129-.213.257-.439l.098-.146q.049-.08.097-.178l.129-.225-.678-.226q-.5-.177-.879-.488-.372-.312-.372-.91 0-.274.165-.476.164-.201.335-.348.104-.104.104-.128.201-.25.397-.134.201.11 0 .311l-.147.195q-.103.153-.201.293-.098.135-.098.336 0 .25.36.44.36.183.8.286.44.098.61.098 1.026-1.349 2.027-2.673 1-1.325 2.002-2.674.097-.104.097-.354l.928-.976q.098.055.183.08l.19.048q.103.024.188.049.086.024.19.049.195.048.372.128.177.073.323.25.275.275.275.671 0 .428-.348.727-.372.299-.647.573l-.195.153q-.085.073-.183.177-.202.195-.452.195v-.17h.08l.207-.275q.116-.153.214-.275.25-.274.378-.555-.104.104-.19.177-.085.073-.188.152-.098.073-.19.165l-.183.183q-.128.177-.402.488-.275.312-.599.66-.274.354-.561.628l-.415.397-.025.024.104.104-.33.122.025.025q0 .201-.128.28-.122.074-.244.074-.05.146-.14.262-.086.11-.288.19.025.024.025.073 0 .024.03.048 0 .025.025.05h-.055v.048h-.122q-.025 0-.05.104l.074.122q.025.024.025.104.348-.379.671-.751l.678-.775 1.354-1.502h.05q0 .025.024.025 0 .024.024.024 0 .177-.275.556-.274.372-.677.811-.397.434-.763.837-.36.396-.562.622-.073.073-.176.226-.074.073-.171.226h.225q.324 0 .586-.037.263-.043.538-.091.121-.025.244-.061.128-.037.256-.061l.244-.05q.128-.024.256-.054.3-.05.8-.159.5-.116.726-.287.647-.201 1.276-.299l.024-.012q.025-.018.074-.043.048 0 .073-.024.049-.073.128-.073l.201-.074.196-.055v-.024q.354-.073.677-.208.324-.14.672-.293.33-.122.64-.232.312-.116.635-.116l.08-.146q.299-.305.671-.305v.08q.104.097.104.225 0 .073-.055.073-.22.226-.495.25l.037.074q.012.024.012.049 0 .079-.08.079-.097.073-.25.073-.121 0-.121-.152l.073-.05q-.147 0-.202-.048-.17.452-.573.452l-.05.195-.274-.073q-.122.128-.25.128l-.086.213q-.036.086-.189.086.025-.024.025-.08-.025-.024-.025-.048-.177.201-.415.354-.232.146-.561.146l-.025-.17h-.024q.024.024.024.121 0 .098-.085.153-.086.049-.14.049-.025 0-.025-.025h-.049q-.122.098-.226.098-.048 0-.073-.024h-.073q-.128.097-.232.11-.098.012-.293.042-.33.05-.69.177-.36.122-.69.244-.024.025-.121.025-.05 0-.05.024-.774.403-1.574.428-.854.073-1.654.225-.073.025-.153.037-.073.012-.17.012t-.177.012q-.074.012-.147.037-.153.024-.378.238-.226.214-.428.464-.195.25-.293.397-.103.103-.232.22-.122.11-.244.207-.25.177-.451.452-.05.048-.128.128-.074.073-.123.17-.122.226-.299.25.05.123-.048.178l-.055.049q-.22.225-.22.524-.08.074-.128.202l-.025.098-.073.097q-.128.177-.244.415-.11.238-.232.513-.128.275-.256.513-.123.238-.245.44m-.775 6.745q-.177 0-.39-.074-.208-.073-.336-.201-.122-.147-.36-.537-.238-.385-.238-.586 0-.476.049-.928.049-.446.152-.922.147-.122.171-.299t.055-.354q.195-.195.22-.494.03-.305.305-.305l.049-.049q.024-.024-.025-.122-.054-.128-.079-.214-.024-.085.055-.213.024-.05.049-.11.024-.067.049-.092.024-.024.073-.17.08-.275.14-.489t.263-.44q.122-.097.22-.012.103.086.079.214 0 .146-.073.3h.195q-.098.475-.226.951l-.244.946q-.305.928-.305 1.905 0 .872.354 1.623l.348-.201.128-.226v.275l.049.128q.048-.128.146-.226.104-.098.305-.098l.025.171q0 .073-.025.104-.152.323-.482.53-.323.215-.696.215m8.948-14.6q-.122.024-.085-.195.036-.226.439-.953.049-.097.061-.207.012-.116.037-.22.128-.195.238-.433t.238-.415q.048-.073.024-.098-.024-.024-.073-.104.049-.195.262-.518.214-.33.336-.58.049-.122-.049-.171-.098-.055-.073-.177.098-.201-.092-.336-.183-.14-.158-.268.024-.074.274-.208.25-.14.3-.19.073 0 .17-.048.104-.049.281-.049.324 0 .531-.049.214-.055.415-.128.3-.104.403-.073.049.049 0 .153-.049.097-.08.146-.024.073-.024.134t-.073.165q-.146.25-.214.275-.06.024-.183.299-.055.073-.08.213-.023.135-.121.238l-.3.348q-.024.025-.09.104-.062.073-.11.122l-.025.05-.049.103q-.128.22-.244.348-.11.122-.159.201l-.122.226q-.177.098-.226.19-.049.085-.177.158-.152.122-.201.275-.049.024.024.024.08 0 .08.049v.104q0 .097-.055.146-.025.024-.074-.024-.048-.05-.097-.025-.025 0-.037.037t-.067.091q-.122.171-.097.183.024.013.11-.036.09-.049.066-.024.05.097-.128.31-.17.214-.225.336-.098.153-.239.306-.134.146-.262.195m3.1 11.627q-.121 0-.237-.012-.11-.012-.238-.037-.122-.049-.25-.073-.123-.03-.245-.055l.025-.122q-.775 0-1.038-.287-.262-.287-.262-1.086 0-.08.024-.104v-.073q.122.024.195.036.08.013.129.013.25 0 .347-.098.153-.024.3-.024.152 0 .305-.025.122 0 .268-.012.153-.018.281-.043v-.024q-.427-.849-.739-1.544-.31-.702-.31-1.557 0-.574.207-1.044.213-.476.342-1.007.048-.146.158-.158.116-.012.165-.037.098-.128.183-.226.092-.103.195-.201.074-.073.16-.134.085-.068.164-.14l.17-.153q.678-.574 1.527-.983.854-.415 1.63-.739l.646.422q.128.25.3.524.176.25.176.58v.098q-.024.049-.024.153l-.153.225-.39.25q-.385.245-.898.55-.512.299-.903.537-.384.238-.409.238-.097 0-.097-.08 0-.072.31-.335.312-.262.709-.574.403-.311.726-.537.33-.226.354-.25-.702.073-1.38.287-.67.213-1.195.586-.05.024-.153 0-.098-.025-.147.024-.073.049-.103.202-.025.152-.074.201-.323.324-.512.775-.19.446-.19 1.026 0 .122.123.586.128.463.33 1.013.2.549.426.952.226.396.422.396h.628q.147 0 .3-.012.152-.012.298-.036.275-.05.525-.153.525-.122 1.05-.146.177-.104.427-.153.122-.024.232-.024.116 0 .22-.025l.146.073-.024.226q-.177.05-.568.202-.384.146-.775.274-.384.122-.58.122l-.103-.024q-.025 0-.025-.024h-.024q-.201 0-.397.073-.104.055-.22.091-.11.037-.207.086-.202.073-.464.14-.262.061-.537.037-.049.5-.366.94-.312.433-.885.433m-.524-.976q.08 0 .08-.147 0-.049-.031-.134-.025-.092-.074-.092-.122 0-.274-.012-.147-.012-.275-.037-.153-.024-.305-.036-.147-.018-.269-.018h-.024q.049.079.323.195.275.11.55.195.274.086.299.086m11.277 1q-.275 0-.55-.073-.402-.152-.799-.824l.195-.055-.17-.122-.202-.622h-.024q-.025-.08-.025-.226v-.177q0-.098.122-.348.129-.25.226-.476l-.25.049v-.122q.024-.025.08-.129.024-.073.121-.097.025.024.025.073l.049-.049v-.128q0-.098.012-.207.012-.116.091-.19 0-.152.025-.177l.024-.097h.05V38.5l.152-.195q.122-.128.146-.128v-.025q-.024.025-.073.025-.098 0-.098-.098 0-.025.025-.049v-.128q.024-.025.024-.122 0-.104-.049-.153l.171-.201.104.024-.025-.024h.05l.024-.025.073-.274.128.201.073-.427.05-.244.048-.257.275-.024v-.202h-.073v-.121l.122-.123v.025l.03-.025v-.128l.22-.152v-.098q.177-.098.305-.348.073-.177.348-.226h-.153l.025-.024-.098.073v-.201h.049l.024-.05h.025l.055-.097v-.128q.146-.098.305-.244.165-.153.165-.33l.103-.073v-.104l.098.055.323-.305v-.098l.202-.122.104-.152q0-.074.073-.074.024 0 .11.037.091.037.14.061h.147q.403 0 .8.287.402.287.677.69.274.396.274.8 0 .121.074.25.03.073.042.152.013.073.013.171v.098q0 .103-.025.128-.427 1-1.318 1.928-.885.922-1.837 1.447-.196.098-.446.201-.25.098-.5.098-.074 0-.104-.024l-.171-.05q.073-.023.226-.127l.097-.05q.05-.023.098-.048l.153-.073q.048 0 .073-.025l-.025-.03q0-.098.129-.098.146-.097.25-.122l.25-.08.256-.085q.116-.036.116-.14.098-.073.25-.323.178-.3.25-.373l.227-.049.25-.378-.049-.098.195-.104v-.097h.055q.275-.3.434-.537.165-.238.287-.641 0-.049.079-.049v-.024q.146-.3.146-.574 0-.598-.573-.598-.05 0-.128-.025-.098 0-.098.05h.128l-.128.097q-.122.049-.238.152-.11.098-.11.275h-.104q.055 0 .08.098-.178 0-.25.097l.121.08q-.049.049-.128.085-.073.037-.146.086-.074.03-.153.067-.073.036-.122.085-.275.202-.275.373 0 .03.025.054.024.025.06.05.038.024.092.072l-.201-.024.024-.012q.025-.012.05-.012-.098 0-.147.024-.055 0 0 .049l.024.024h-.012q-.012 0-.012.025-.025.03-.025.055h-.055q-.097.122-.189.25-.085.122-.134.25-.098.22-.275.446l.177.128h-.177l-.097.098v.128l-.153.122.049.024-.25.428-.074.024v.201l-.274.3.024.097h-.049v.177q-.177.177-.225.452-.025.25-.202.5h.153l-.202.122v.073q-.024.025-.024.08 0 .097.012.177.012.073.037.146.024.074.036.153.012.073.012.17 0 .202.165.514.165.31.336.31.476 0 .952-.25.452-.274.922-.298l.525-.422q.403-.33.702-.775.323-.452.726-.775h.024l-.049-.055q.074-.098.22-.299.153-.201.177-.323.025-.025.025-.098 0-.055.03-.08.049-.121.147-.121.103 0 .103.122 0 .079-.03.103 0 .25-.214.714-.207.458-.482.562v.073q-.128.122-.25.348-.177.226-.488.629-.312.397-.513.397l-.348.225v.098q0 .128-.153.177-.097.128-.25.098-.073.152-.25.201-.073.025-.226.128-.049.074-.238.153-.183.073-.263.097-.122.098-.299.11-.17.012-.299.012zm16.623.275q-.373 0-.599-.226t-.427-.5l.037-.073.018-.025q0-.024-.055-.073-.195-.354-.25-.763-.049-.415-.073-.787l.048-.05q.055-.378.08-.75.024-.378.024-.775 0-.177.122-.354v-.024q-.024 0-.024-.025v-.024q0-.05.024-.05.025-.377.153-.725.201-.623.421-1.209.226-.592.5-1.288.08-.08.025-.152l-.049-.098q0-.275.214-.598l.36-.556q0-.122.122-.409.128-.293.262-.567.14-.275.196-.324-.202.05-.165-.036t.085-.086l.25-.378q.129-.147.153-.372.049-.202.122-.403.08-.202.33-.25.049-.05.146-.05.202 0 .562.117.366.11.665.287.3.17.3.372 0 .226-.19.592-.183.36-.409.757l-.476.75q-.25.348-.379.654h-.048v.073l-.226.226v.097l-.025.025q-.024.177-.073.366-.049.183-.177.36l-.146-.024q-.153.323-.165.152-.012-.177.19-.5l-.05-.08q-.103.202-.164.367-.061.158-.037.384v-.024l.024.024-.097.049-.08.25q-.024.08-.048.153-.025.073-.05.122-.097.305-.274.354l.024.146-.073.226q-.049.177-.024.226h-.104v.024l-.372.629q.024.024.024.073 0 .147-.128.452-.171.323-.195.5-.025.05-.043.098-.012.049.018.146l-.03-.024q0 .024.012.055l.018.024v.098q0 .324-.104.55-.097.274-.097.573 0 .153.049.354.024.098.036.19.012.085.012.183 0 .152-.024.225-.024.05-.024.129v.122q0 .201.25.415.25.207.451.207.3 0 .422-.098.049-.048.134-.11.092-.066.195-.115l.122-.25v.298l-.024.025q-.128.274-.531.5-.397.226-.671.226m-12.397-.201q-.049 0-.17-.061-.129-.061-.16-.159h.08q.049-.03.11-.055.06-.024.091-.049.05-.024.11-.048.061-.025.11-.05.177-.103.324-.402.152-.3.262-.635.116-.336.165-.488l.08-.324q0-.104.011-.177.013-.073.037-.152.073-.275.183-.525.116-.25.238-.495.025-.054.037-.225.018-.177.018-.25-.03 0-.08-.056-.024-.024-.024-.048 0-.05.025-.05.08-.176.189-.384.11-.213.311-.262.05-.128.122-.25.08-.129.128-.25.05-.129.123-.239.079-.116.128-.238l.226-.677q.048-.171.11-.336.067-.165.164-.311h-.073l-.049-.153.098-.146-.177-.055q.08-.025.128-.073v-.025q-.08-.073-.08-.152 0-.05.031-.05.049-.097.073-.182l.05-.19q.048-.201.176-.323h-.049q0 .024-.079.024-.049 0-.049-.08 0-.121.05-.28.048-.165.103-.293.049-.17.098-.348.048-.177.048-.348 0-.103-.024-.152-.049-.098-.049-.177 0-.098.098-.202.08-.048.152-.122-.152-.048-.201-.097-.049-.08-.177-.104h-.024l-.25-.049-.196-.073q-.128-.049-.128-.128 0-.074.128-.122.146-.05.17-.074.355.074.916.202.562.122 1.062.299.5.17.647.397.055.097.068.189.012.085.012.158 0 .178-.14.605-.135.42-.336.787-.202.36-.428.433l.025.025.103.177.05.152q0 .074-.037.165-.037.086-.14.11l-.025.025q0 .024-.024.048-.025.025-.025.074 0 .079-.024.103h.024v.098q0 .153-.153.226-.024.122-.164.44-.134.31-.208.384l-.103.152q.03.025.03.05 0 .072-.055.072l-.049.05q-.024.079-.122.176-.024.05-.067.086-.037.036-.061.091-.146.171-.098.373h-.024q0 .048-.049.103l-.128.226q-.073.122-.201.147-.025.097-.05.213-.024.11-.048.159-.025.055-.049.116t-.049.11l-.104.25q-.122.3-.225.617-.098.31-.196.659h.074q0 .024.024.024.122 0 .22-.159.103-.164.055-.317.122-.049.177-.122.122-.128.195-.128.128-.122.201-.171l.177-.177q.373-.348.647-.8.129-.201.287-.409.165-.213.342-.39.201-.25.409-.5.214-.251.39-.526.178-.274.36-.525.19-.25.391-.5l.348-.409q.177-.214.3-.464-.05-.049-.05-.104 0-.122.25-.36t.587-.488q.341-.25.653-.446.31-.2.433-.256.08 0 .33-.073.274-.073.323-.073h.073q0 .274-.012.524t-.085.452q-.074.22-.165.446-.086.226-.19.451-.17.477-.372.898l-.225.604q-.05.146-.129.299-.073.146-.122.275l-.097.25q-.025.122-.129.226 0 .024-.012.085t-.036.14q.073 0 .152-.024-.177.397-.256.66-.073.262-.098.689.305-.403.641-.836.336-.44.44-.543.274-.196.573-.47.3-.275.574-.55.147-.152.3-.299.152-.152.274-.305.128-.146.262-.28.14-.141.263-.27.103-.097.189-.195.085-.103.159-.201.128-.201.33-.403.146-.152.274-.403l.097-.195q.05-.104.153-.201l.17-.177q.105-.098.178-.098.098 0 .098.122 0 .33-.403.818-.397.482-.672.812-.097.097-.177.213-.073.11-.146.232-.177.25-.373.452l-.604.677q-.372.373-.598.696-.348.5-.714 1.013-.36.513-.812.94-.274.275-.44.653-.158.373-.31.72.024.202-.025.342-.049.135-.323.135-.25 0-.5-.037-.251-.037-.373-.336-.025-.055-.128-.152-.074-.05-.074-.153 0-.024.025-.049v-.049l.152-.073v-.024q-.03-.128-.042-.25-.013-.129-.013-.25 0-.25.025-.489.03-.238.08-.488l.097-.464q.049-.238.073-.488.055 0 0-.05.055-.5.25-1 .202-.5.391-.983.19-.488.19-.94v-.103q-.08.177-.202.305-.049.097-.104.177-.049.073-.122.146l-.073.049q-.128.098-.177.324-.025.103-.08.189-.048.085-.097.189-.025.049-.171.201l-.08.05q-.073.048-.122.121-.048.073-.103.128-.147.3-.373.525-.122.122-.238.263-.11.134-.238.262l-.097.147q-.104.103-.129.177l-.299.525q-.048.097-.128.177l-.122.122q-.17.128-.274.299-.348.476-.599.927-.152.25-.341.464-.184.208-.385.41-.098.103-.177.176-.073.074-.122.147-.049.08-.128.152l-.122.122-.476.477q-.397.33-.727.402-.323.025-.824.147zm3.076-4.895h.025q.073-.08.098-.128l.024-.025-.049-.097q-.024.073-.049.134-.024.06-.049.116m4.273 1.599q.049-.049.085-.11.037-.067.092-.14-.024 0-.128.048l-.05.104q-.023.05 0 .098m4.676 10.296q-.275 0-.44-.177-.165-.17-.213-.42.103-.202.103-.599v-.366q0-.159.025-.287 0-.348.049-.702.048-.348.225-.55.074-.072.123-.298l.024-.202q.03-.024.03-.073l.05-.146q0-.129.011-.257.013-.122.037-.22.073-.2.025-.475.024-.074.073-.275l.152-.427.05-.19q.024-.085.048-.183.08-.177.024-.226l.226-.225q0-.025-.024-.025v-.049l-.025-.048v-.08q.025 0 .05-.024.024-.025.103-.025h.073l.025-.073v-.049q-.153 0-.153-.226l.025-.024q.055-.08.103-.08.05-.072.098-.298.049-.196.226-.196v-.054q.049-.501.342-.995.286-.5.482-.904 0-.024.024-.024v-.073l.128-.275.147.024.128-.201-.073-.073q.17-.153.28-.348.117-.202.245-.452l.225-.58q.05-.122.098-.268l.098-.305q.201-.574.415-1.087t.513-.714q.122-.17.207-.36.092-.19.14-.366l.226-.745q.025-.055.05-.128l.048-.153.128-.323.025.024.048-.097.104-.074q.049-.152.147-.287.103-.14.201-.262l-.024-.055q.146-.146.146-.299 0-.024-.024-.024-.025.024-.05 0h-.048q-.153 0-.153-.098 0-.049.177-.3l.123-.213q.054-.091.079-.14 0-.147.201-.202.122-.22.281-.445.165-.226.342-.427.177-.25.311-.446.14-.201.19-.354h.097l-.024-.098q0-.079.073-.152h.262q.14 0 .263.024.128.025.238.025h.238q.299.104.714.39t.415.635q-.128.104-.232.232-.098.122-.17.244-.099.128-.202.25-.098.122-.226.25v.3h-.098q-.049.024-.122.024l-.08.037-.024.012v.012q0 .012.025.043l.024.049q0 .073.025.122h-.098q-.147.128-.263.293-.11.158-.238.36h.025l-.11.11q-.061.06-.037.164l-.524.623.024.128-.024.196q-.33.079-.525.525-.104.152-.177.451-.025.128-.092.28-.061.147-.11.324v-.079q-.024.025-.024.104-.025.024-.025.049 0 .024-.024.048-.025.05-.025.116 0 .062-.024.11-.049.122-.226.348v-.17l-.049-.031-.225.378-.25.372-.074.177q-.03.05-.055.104l-.049.098h-.049l.05.049q-.074.073-.123.348-.049.25-.226.274v.153l-.152.275.08.073-.404.201-.024-.049-.226.3q-.177.2-.177.347 0 .104-.122.153-.153.049-.098.177l-.103.073.073.25-.22.098q-.055.153-.055.226l.104-.073.049.201q0 .025.024.025v.073q0 .152-.097.274l-.055.05q-.05.103-.05.25l-.097-.05q0 .025-.049.074l-.024.024q.024.025.024.08v.049q-.024.024-.024.048l-.08.074h.055l-.427.653.05.146h-.074l-.049.128h.122l.098-.146q.055-.08.103-.128v-.104l.05-.049.225-.397h.049l.598-1.074-.024-.055q.049-.049.17-.195l.257-.305q.049-.074.11-.147l.116-.128q.073-.122.073-.17l.873-1.276v-.104l-.049-.073.049.048v-.048l.08.103.25-.451h.024v-.025q0-.08.122-.177.128-.097.226-.152 0-.05-.073-.074l.347-.451.074-.025q.055 0 .262-.299.214-.299.318-.397l-.055-.103q.128-.122.238-.244.115-.129.213-.232.128-.122.214-.245.085-.128.189-.25v-.103l.098.048q.128-.299.378-.47l.049.025v-.025l.073-.128q.049-.177.177-.177h.049l.177-.146v-.05q0-.103.146-.103h.025q.049 0 .177-.122l.049-.08q.049-.073.11-.146.067-.073.164-.073.074-.104.171-.202.104-.103.232-.152l.324.104q-.275.195-.5.384-.227.19-.428.415-.025.025-.122.073-.098.025-.153.074l-.049.049q-.024.079-.097.152l.024.098h-.152l-.196.25h-.03q-.25.33-.574.653-.323.3-.55.702h-.073q-.176.25-.366.513-.183.262-.384.506-.403.476-.75 1.056v.025l-1.698 2.447q-.055.098-.103.202-.05.097-.098.225l-.104.025.025.024q0 .147-.05.238-.048.086-.146.214l-.152.146q-.122.074-.147.177h-.03l-.477.898q-.323.628-.695 1.336-.373.714-.678 1.313-.274.555-.598 1.239-.323.69-.561 1.275-.238.586-.238.86 0 .129.122.33l.152.147.153.104q0 .073-.08.073-.225.097-.396.097m6.897-8.172q-.226 0-.452-.372-.22-.379-.22-.556 0-.098.05-.299.048-.201.097-.275v.025q.049-.049.08-.122.024-.08.072-.025l.05-.103h.024q.048 0 .085-.037.043-.037.067-.061h.025q.049-.049.049-.098-.025-.03.048-.079h.025l.25-.226-.024-.024h.073v-.025l.055-.073.049.024v-.024l.2-.201v.024l.025-.024h.05v-.05l.024.025.024-.097h.024q.074-.104.147-.19l.177-.189.33-.323.048.122h.025l.049-.05q0-.023-.05-.072.074-.074.074-.128l.08-.074.195-.073v.024l.024.025q0-.049.037-.147.042-.103.091-.103.05 0 .05.048l.072-.097q.055-.05.025-.073.03 0 .067-.025.037-.03.012-.055l.098.104q.049-.049.073-.086.03-.042.055-.067l.024.129.025.024v-.153l.073-.049-.049-.152q.049 0 .049-.049 0-.024.049-.024t.104.048l.073.08v.049h.049q-.147.097-.177.201-.025.098-.171.195h-.104l-.275.226h-.024v.05l-.3.378q-.146.2-.396.2l.025.025v.025q-.025.024-.025.049v.048q-.03 0-.08-.048v.024l-.475.5-.05-.024-.17.122.024.024-.225.226.048.08-.177.097v.098q-.024.024-.024.08-.122.097-.214.225-.085.122-.134.244l.098.055q.024.025.104.025.024 0 .024-.05.024-.03.073-.054.049-.025.128-.073.122-.074.147-.074v.098l.177-.073-.05-.073h.123q.049.024.128.024.049 0 .098-.049 0-.055.024-.08v-.048l.25-.098v-.024l.275-.305h.025l-.025-.049h.128l.122-.147v-.024l.05.024v-.054q.127-.05.127-.147 0-.049-.024-.073.049-.055.146-.153.104-.097.202-.226.201-.225.397-.225 0-.098.079-.122v-.025q0-.08.159-.342.165-.262.348-.512.189-.25.268-.324v.024l.049-.122.024.025.177-.202-.024-.146.024-.055q0-.049.122-.061.129-.012.177-.012l-.024-.074q-.128 0-.226-.103.025-.025.147-.025.128-.146.152-.323h.025q.128-.202.201-.476.049-.275.226-.446l-.049-.08q.049-.121.122-.25.025 0 .025-.024 0-.049.024-.049v-.048q0-.129-.024-.177-.025-.05-.025-.147 0-.5-.06-.848-.062-.354-.617-.354h-.147q-.073 0-.152.024l-.324.073h-.024q-.073 0-.098-.024v-.098q0-.073.122-.073h.177v-.08l.025.025.177-.122h.122q.024 0 .048-.024l.153-.074.147.025.079-.025v.025q0-.025.097-.025.098 0 .05-.054.127.024.225.054.098.025.153.05l.024-.05.196.171q.03.025.03-.024v-.049h.024q.226.3.55.476.323.171.372.623.024.128.024.256v.744q0 .825-.201 1.35-.195.524-.696 1.178-.049.073-.323.439-.275.36-.58.696-.3.336-.421.336l.049.079q-.122.073-.3.323-.176.226-.298.275v.122l-.477.354-.048-.049-.275.195v.025q.024.024.073.024.025 0 .025.055v.025l-.25.073v.024l-.153.153.03.073-.28-.097.03.25-.305.097v.05q-.3.127-.397.225-.152 0-.201.025l-.202.073-.024-.025v.025h-.25l-.05.104h-.347q-.049.024-.128.024m-5 2.3q.227-.353.477-.774.122-.25.275-.476l-.226.122q-.025.08-.073.201-.05.128-.104.177-.122 0-.171-.152l-.024.25.073.08q0 .194-.073.323-.129.122-.153.25m12.351-4.998q-.201.098-.317-.024-.11-.128-.006-.257.122-.122.146-.22.025-.103.025-.225v-.202q0-.177.03-.201l.147-.146q.024-.055.153-.104l.121-.348q-.177-.202.05-.427l.024-.025v-.024l.055-.074.146-.25.025-.049h.055q-.055-.128.073-.274.049-.128.146-.25.104-.129.202-.275.25-.275.274-.5.05-.202.226-.355-.024 0-.024-.048 0-.025-.025-.025 0-.024.025-.049v-.024q.049-.049.17-.263.129-.213.257-.439l.098-.146q.049-.08.097-.178l.129-.225-.678-.226q-.5-.177-.879-.488-.372-.312-.372-.91 0-.274.165-.476.164-.201.335-.348.104-.104.104-.128.201-.25.397-.134.201.11 0 .311l-.147.195q-.103.153-.201.293-.098.135-.098.336 0 .25.36.44.36.183.8.286.44.098.61.098 1.026-1.349 2.027-2.673 1-1.325 2.001-2.674.098-.104.098-.354l.928-.976q.098.055.183.08l.19.048q.103.024.188.049.086.024.19.049.195.048.372.128.177.073.323.25.275.275.275.671 0 .428-.348.727-.372.299-.647.573l-.195.153q-.085.073-.183.177-.202.195-.452.195v-.17h.08l.207-.275q.116-.153.214-.275.25-.274.378-.555-.104.104-.19.177-.085.073-.188.152-.098.073-.19.165l-.183.183q-.128.177-.403.488-.274.312-.598.66-.274.354-.561.628l-.415.397-.025.024.104.104-.33.122.025.025q0 .201-.128.28-.122.074-.244.074-.05.146-.14.262-.086.11-.288.19.025.024.025.073 0 .024.03.048 0 .025.025.05h-.055v.048h-.122q-.025 0-.05.104l.074.122q.025.024.025.104.347-.379.671-.751l.677-.775 1.355-1.502h.05q0 .025.024.025 0 .024.024.024 0 .177-.275.556-.274.372-.677.811-.397.434-.763.837-.36.396-.561.622-.074.073-.177.226-.074.073-.171.226h.225q.324 0 .586-.037.263-.043.537-.091.123-.025.245-.061.128-.037.256-.061l.244-.05q.128-.024.256-.054.3-.05.8-.159.5-.116.726-.287.647-.201 1.276-.299l.024-.012q.025-.018.074-.043.048 0 .073-.024.049-.073.128-.073l.201-.074.196-.055v-.024q.354-.073.677-.208.324-.14.672-.293.33-.122.64-.232.312-.116.635-.116l.08-.146q.299-.305.671-.305v.08q.104.097.104.225 0 .073-.055.073-.22.226-.495.25l.037.074q.012.024.012.049 0 .079-.08.079-.097.073-.25.073-.121 0-.121-.152l.073-.05q-.147 0-.202-.048-.17.452-.573.452l-.05.195-.274-.073q-.122.128-.25.128l-.085.213q-.037.086-.19.086.025-.024.025-.08-.025-.024-.025-.048-.177.201-.415.354-.232.146-.561.146l-.025-.17h-.024q.024.024.024.121 0 .098-.085.153-.086.049-.14.049-.025 0-.025-.025h-.049q-.122.098-.226.098-.048 0-.073-.024h-.073q-.128.097-.232.11-.098.012-.293.042-.33.05-.69.177-.36.122-.69.244-.024.025-.121.025-.05 0-.05.024-.774.403-1.574.428-.855.073-1.654.225-.073.025-.153.037-.073.012-.17.012t-.177.012q-.074.012-.147.037-.153.024-.378.238-.226.214-.428.464-.195.25-.293.397-.103.103-.232.22-.122.11-.244.207-.25.177-.451.452-.05.048-.129.128-.073.073-.122.17-.122.226-.299.25.05.123-.049.178l-.054.049q-.22.225-.22.524-.08.074-.128.202l-.025.098-.073.097q-.128.177-.244.415-.11.238-.232.513-.128.275-.256.513-.123.238-.245.44m-.775 6.745q-.177 0-.39-.074-.208-.073-.336-.201-.122-.147-.36-.537-.238-.385-.238-.586 0-.476.049-.928.049-.446.152-.922.147-.122.171-.299t.055-.354q.195-.195.22-.494.03-.305.305-.305l.049-.049q.024-.024-.025-.122-.055-.128-.079-.214t.055-.213q.024-.05.049-.11.024-.067.049-.092.024-.024.073-.17.08-.275.14-.489t.263-.44q.122-.097.22-.012.103.086.079.214 0 .146-.073.3h.195q-.098.475-.226.951l-.244.946q-.305.928-.305 1.905 0 .872.354 1.623l.348-.201.128-.226v.275l.049.128q.048-.128.146-.226.104-.098.305-.098l.025.171q0 .073-.025.104-.152.323-.482.53-.323.215-.696.215m4.828 5.474q-.177 0-.378-.22-.147-.225-.3-.427-.176-.25-.176-.525 1.428-2.1 3.137-3.973 1.715-1.874 3.589-3.528l1.287-2.612 1.288-2.588-.598.702q-.299.372-.629.702-.097.073-.225.19-.122.109-.25.231l-.397.452q-.098.097-.177.225l-.147.25q-.08.123-.274.275-.104.074-.202.153l-.226.17q-.097.099-.213.178-.11.073-.214.146-.098.104-.201.165-.098.061-.147.11-.097.104-.213.19-.11.085-.239.213-.25.25-.549.25-.451 0-.665-.488-.208-.488-.208-.885 0-.58.226-1.13l.196-.549q.103-.274.201-.549l1.05-2.801q.128-.275.262-.574.14-.3.287-.598.305-.574.305-1.227 0-.073.025-.122 0-.025-.055-.08-.122.129-.287.245-.159.11-.336.207-.323.177-.598.5-.653.776-1.178 1.612t-1.025 1.69q-.05.098-.165.226-.11.122-.232.122-.153 0-.153-.177 0-.274.3-.708.299-.439.402-.762.122-.275.275-.403.073-.05.134-.134.067-.092.116-.19.25-.525.75-1.184.501-.665 1.136-1.153.641-.489 1.215-.489t.848.403q.275.397.275.897t-.128 1.014q-.122.512-.269.964.049.049.049.195 0 .25-.153.452-.17.201-.201.427-.098.525-.25.787-.147.263-.397.684.049.128-.153.556-.195.42-.274.598-.074.17-.122.323l-.104.324v.128q-.025.049-.025.122.08-.049.14-.098.062-.049.086-.073.074-.08.159-.128.091-.049.195-.098.025-.024.05-.024.023 0 .048-.025.024-.25.275-.25.048-.03.097-.067.055-.037.104-.061.098-.098.147-.122.103-.25.274-.354.08-.049.165-.11t.19-.116l.823-.848q.098-.122.159-.232.067-.116.091-.196.05-.122.422-.323l.128-.171v-.177q0-.128.024-.226.025-.098.153-.153.146-.073.195-.274.055-.22.128-.3l.452-.597q.049-.128.073-.153l.147-.146v-.025q0-.049-.025-.08-.049-.048-.049-.097 0-.073.074-.073l.103-.08q.275.031.635.117.366.085.366.463 0 .05-.012.153-.012.098-.037.22-.03.824-.354 1.648-.177.402-.329.805-.147.397-.293.824l-.256.751q-.123.372-.245.775.55-.476 1.148-.848.604-.379 1.251-.702.202-.153.403-.153.098 0 .098.098 0 .08-.202.201l-.274.202q-.574.323-1.087.702-.513.372-1.013.8-.177.121-.354.274-.171.146-.318.299-.128.122-.225.324-.104.225-.226.402-.049.074-.104.153-.049.073-.073.17-.025.178-.147.373-.103.177-.195.33-.085.146-.159.323-.097.147-.177.3-.073.152-.17.323-.05.049-.129.146-.073.104-.146.257-.104.122-.153.232-.049.116-.097.164-.153.275-.318.476-.159.202-.256.202h-.08q0-.073.055-.177.025-.049.05-.11.024-.061.048-.116.201-.323.488-.8.287-.476.287-.671 0-.049-.049-.049l-.201.3q-.201.121-.275.323l-.225.372-.898 1.428q.025.025.025.073 0 .074-.025.104-.03.025-.03.05 0 .023-.025.048l-.049.049q-.097.097-.097.274v.025q.024.024.024.049 0 .103-.103.128l-.147.049-.049.024q-.049.153-.177.275-.049.128-.189.348-.134.226-.287.201-.25.305-.476.653-.22.348-.372.727 0 .024.024.048v.05q0 .097-.122.097h-.08l-.072-.025-.025-.024q-.024 0-.049-.025-.049.275-.274.379-.08.146-.202.195-.097.025-.25.177h-.024q-.05.098-.177.196-.123.103-.226.128l-.025.024h-.049l-.048.025q-.074.128-.238.225-.165.104-.287.153-.073.122-.287.336-.214.213-.342.213h-.098q-.201.122-.372.122m.275-1.172q.146-.048.293-.103.152-.05.28-.171.226-.202.672-.69.451-.488.952-1.086t.903-1.075l.757-1.037q.415-.562.739-1.074.33-.513.378-.788-.378.373-.726.733-.348.366-.727.714-.775.75-1.501 1.575-.421.5-.8 1.025-.372.525-.72 1.05-.152.226-.305.427-.195.226-.22.476.025 0 .025.024M33.763 78.628q-.348 0-.598-.336-.25-.335-.25-.665 0-.098.012-.183.012-.092.037-.19.049-.097.073-.182l.049-.19.08-.451.097-.403q.073-.25.226-.708.146-.464.311-.891t.214-.55q.25-.622.646-1.25.178-.3.336-.611.165-.311.318-.641.048-.122.134-.256.091-.14.19-.269.097-.122.17-.244.08-.128.177-.256l.043-.074q.012-.024.012-.049v-.024q0 .025.024.025.05-.324.184-.574.14-.25.317-.476.195-.3.409-.562l.336-.415q.2-.275.237-.8.043-.524.19-.726l.378-.372.348-.379q.098-.097.17-.207.08-.116.153-.214.104-.225.275-.427.177-.201.348-.384.177-.19.354-.367.098-.122.183-.231.092-.117.165-.239.08-.128.165-.238.085-.116.189-.213.348-.428.745-.788.402-.366.83-.738l.409-.372q.213-.202.44-.403.45-.452.92-.623l.58-.226q.123-.055.257-.103.14-.05.268-.147.171.073.507.238.342.159.617.372.274.214.274.44 0 .098-.073.226-.104.17-.568.36-.457.19-.659.311-.299.177-.525.452-.122.122-.274.226-.153.097-.324.201h-.049q-.152.146-.451.323l-.5.275q-.099.049-.141.086l-.061.06q-.025.031-.05.092-.024.061-.072.159 0 .03-.025.03-.03 0-.03.025l-.074.049-.024.024.153-.024.024.122q0 .08-.08.08-.17.17-.335.31-.159.135-.336.312l-.677.677q-.171.171-.275.397-.146.25-.372.299v.024q0 .25-.379.592-.372.336-.647.61-.152.098-.201.227h-.024v.024q0 .201-.226.488t-.5.287v-.378l.072-.05q.104-.023.129-.097h.152l.025-.024h-.025q.3-.5.232-.55-.06-.054-.323.208-.263.263-.598.714-.336.452-.586.952-.025.3-.33.598-.25.3-.445.599v.03q-.178.324-.355.61-.17.287-.347.562t-.33.537q-.147.263-.269.537-.274.525-.512 1.117-.238.586-.489 1.337l-.451 1.422q-.098.348-.19.739-.085.384-.11.787.025-.049.062-.086.036-.042.06-.091l.153-.226q.123-.195.245-.409.128-.214.256-.44.122-.2.275-.396.152-.201.274-.379.275-.347.372-.347.08 0 .08.073 0 .097-.238.55-.238.45-.568 1-.323.55-.61.952-.287.397-.385.397M41.54 64.68q.098-.055.183-.128.092-.073.165-.122.153-.128.153-.177l-.08-.122q-.122.098-.262.25-.134.147-.159.3m-.476.275.22-.11q.128-.067.256-.14l-.201-.049zm.177 15.924q-.5 0-.854-.299-.348-.299-.647-.653-.153-.147-.226-.201-.128-.074-.128-.275l.128-.049v-.024q-.452-.599-.55-1.325-.073-.372-.164-.732-.086-.366-.19-.69h.055l-.024-.03q-.055-.147-.055-.275v-.25q0-.3.024-.373-.024.025-.097.025h-.025v-.049h-.048q.024-.073.024-.226v-.177q0-.073-.012-.409-.012-.342-.049-.763-.037-.427-.116-.726-.073-.3-.201-.3-.05 0-.275.227l-.5.512q-.275.287-.489.525-.207.238-.232.287-.152.147-.28.263-.123.11-.27.213v-.226q.074-.128.147-.238.074-.116.129-.238.048-.122.122-.244.073-.128.152-.232.074-.097.147-.183.08-.091.177-.19.073-.078.146-.152.08-.073.128-.177.177-.17.3-.42.128-.251.298-.428.202-.275.61-.72.416-.452.69-.531l.605-.147h.122q.024.098.073.226.055.122.104.3.098.298.098.524 0 .427.012.842.012.41.012.83v1.93q0 .097-.049.25.025.073.037.134.012.06.012.14h.024v.025l.153-.05q0 .446.012.8.012.348.214.775.073.074.073.147 0 .049-.049.049v.055h-.152q-.025 0-.074.048h-.024q0 .122.024.147v.153l.202-.123q.073.672.433 1.221.366.55 1.013.55h.104q.025-.025.073-.025l.25-.147q.074-.054.147-.115.08-.062.177-.11.153-.129.275-.281.128-.147.128-.519.049.147.073.232.025.092.049.14v.074q0 .177-.104.311-.097.14-.195.269-.3.42-.726.756-.422.342-.97.342m-5.627-5.377q-.098 0-.098-.098 0-.048.085-.195.086-.153.214-.153.098 0 .098.171 0 .275-.3.275m8.5 3.1q-.275 0-.55-.073-.402-.152-.799-.824l.195-.055-.17-.122-.202-.622h-.024q-.025-.08-.025-.226v-.177q0-.098.122-.348.129-.25.226-.476l-.25.049v-.122q.024-.025.08-.128.024-.074.121-.098.025.024.025.073l.049-.049v-.128q0-.097.012-.207.012-.116.091-.19 0-.152.025-.177l.024-.097h.05V74.5l.152-.195q.122-.129.146-.129v-.024q-.024.024-.073.024-.098 0-.098-.097 0-.025.025-.049v-.128q.024-.025.024-.122 0-.104-.049-.153l.171-.201.104.024-.025-.024h.05l.024-.025.073-.274.128.201.073-.427.05-.244.048-.257.275-.024v-.201h-.073v-.123l.122-.122v.025l.03-.025v-.128l.22-.152v-.098q.177-.098.305-.348.073-.177.348-.226h-.153l.025-.024-.098.073v-.201h.049l.024-.05h.025l.055-.097v-.128q.146-.098.305-.244.165-.153.165-.33l.103-.073v-.104l.098.055.323-.305v-.098l.202-.122.104-.152q0-.073.073-.073.024 0 .11.036.091.037.14.061h.147q.403 0 .8.287.402.287.677.69.274.396.274.8 0 .121.074.25.03.073.042.152.013.073.013.171v.098q0 .103-.025.128-.427 1-1.318 1.928-.885.922-1.837 1.447-.196.098-.446.202-.25.097-.5.097-.074 0-.104-.024l-.171-.05q.073-.023.226-.127l.097-.05q.05-.023.098-.048l.153-.073q.048 0 .073-.025l-.025-.03q0-.098.129-.098.146-.097.25-.122l.25-.08.256-.085q.116-.036.116-.14.098-.073.25-.324.178-.299.25-.372l.227-.049.25-.378-.049-.098.196-.103v-.098h.054q.275-.3.434-.537.165-.238.287-.641 0-.049.079-.049v-.024q.146-.3.146-.574 0-.598-.573-.598-.05 0-.128-.025-.098 0-.098.05h.128l-.128.097q-.122.049-.238.152-.11.098-.11.275h-.104q.055 0 .08.098-.177 0-.25.097l.121.08q-.048.049-.128.085-.073.037-.146.086-.074.03-.153.067-.073.036-.122.085-.275.202-.275.373 0 .03.025.055.024.024.06.048.038.025.092.074l-.201-.025.024-.012q.025-.012.05-.012-.098 0-.147.024-.055 0 0 .049l.024.024h-.012q-.012 0-.012.025-.025.03-.025.055h-.055q-.097.122-.189.25-.085.122-.134.25-.098.22-.275.446l.177.128h-.177l-.097.098v.128l-.153.122.049.024-.25.427-.074.025v.201l-.274.3.024.097h-.049v.177q-.177.177-.225.452-.025.25-.202.5h.153l-.202.122v.074q-.024.024-.024.079 0 .097.012.177.012.073.037.146.024.074.036.153.013.073.013.17 0 .202.164.513.165.312.336.312.476 0 .952-.25.452-.275.922-.3l.525-.42q.403-.33.702-.776.323-.451.726-.775h.024l-.049-.055q.074-.097.22-.299.153-.201.177-.323.025-.025.025-.098 0-.055.03-.08.049-.121.147-.121.103 0 .103.122 0 .079-.03.103 0 .25-.214.714-.207.458-.482.562v.073q-.128.122-.25.348-.177.226-.488.629-.312.396-.513.396l-.348.226v.098q0 .128-.153.177-.097.128-.25.098-.073.152-.25.201-.073.024-.226.128-.049.073-.238.153-.183.073-.263.098-.122.097-.299.11-.17.012-.299.012zm8.474-1.599q-.073 0-.122-.048-.03.024-.152.024-.324 0-.653-.452-.324-.451-.324-.775 0-.573.3-1.196l.548-1.154q.153-.299.153-.396l-.122-.202-.128-.128-.086-.085q-.036-.037-.091-.086-.147-.177-.3-.403-.146-.226-.195-.525-.054.05-.231.379-.171.323-.348.622-.171.3-.275.3-.049 0-.073-.025-.025-.024-.074-.024-.055 0-.128.201-.097.147-.274.44-.177.286-.354.537-.171.244-.318.244-.104 0-.104-.098 0-.073.098-.287.104-.213.238-.427.14-.214.19-.262.298-.422.5-.745.201-.33.378-.678.147-.323.306-.659.164-.342.39-.769.049-.348.153-.72.372-1.13.885-1.965.512-.837 1.287-1.716.178-.17.416-.433.238-.262.488-.488t.421-.226q.153 0 .354.128.098.05.17.098.08.049.154.098l.5.274q.275.153.275.476 0 .129-.025.153-.08.275-.494.586-.41.311-.897.64-.483.324-.788.623-.445.397-.775.897-.323.501-.598 1.075-.024.104-.061.177t-.061.177q-.025.17-.128.396-.025.055-.05.116-.023.061-.023.135 0 .128.024.177.024.073.024.201 0 .147-.024.195-.025.08-.025.226 0 .275.275.513t.537.513.263.628q0 .3-.202.727-.201.42-.451.848-.245.421-.397.775l-.128.3-.05.176q0 .049.025.049l.055.073q.22 0 .617-.323.402-.324.805-.708.403-.39.55-.543.299-.324.549-.684.25-.366.476-.745.049-.122.159-.28.116-.165.244-.165.146 0 .146.17 0 .153-.262.593-.263.433-.562.86-.299.428-.427.55l-.024.048v.025q-.073.177-.226.226-.024.024-.073.128-.05.098-.074.122 0 .049-.073.104l-.104.024q-.024.098-.146.171l-.153.153q-.024 0-.024.024t-.024.024q-.025.153-.202.153-.049.098-.14.25-.086.147-.208.147-.128.177-.33.177-.024.024-.024.073 0 .024-.024.049-.049.128-.226.128-.025.024-.098.024m3.351 1.6q-.275 0-.55-.074-.402-.152-.799-.824l.196-.055-.171-.122-.202-.622h-.024q-.025-.08-.025-.226v-.177q0-.098.122-.348.129-.25.226-.476l-.25.049v-.122q.024-.025.08-.128.024-.074.121-.098.025.024.025.073l.049-.049v-.128q0-.097.012-.207.012-.116.091-.19 0-.152.025-.177l.024-.097h.05V74.5l.152-.195q.122-.129.146-.129v-.024q-.024.024-.073.024-.098 0-.098-.097 0-.025.025-.049v-.128q.024-.025.024-.122 0-.104-.049-.153l.171-.201.104.024-.025-.024h.05l.024-.025.073-.274.128.201.073-.427.05-.244.048-.257.275-.024v-.201h-.074v-.123l.122-.122v.025l.031-.025v-.128l.22-.152v-.098q.177-.098.305-.348.073-.177.348-.226h-.153l.025-.024-.098.073v-.201h.049l.024-.05h.025l.055-.097v-.128q.146-.098.305-.244.165-.153.165-.33l.103-.073v-.104l.098.055.324-.305v-.098l.2-.122.105-.152q0-.073.073-.073.024 0 .11.036.091.037.14.061h.147q.402 0 .8.287.402.287.677.69.274.396.274.8 0 .121.074.25.03.073.042.152.013.073.013.171v.098q0 .103-.025.128-.427 1-1.318 1.928-.885.922-1.837 1.447-.196.098-.446.202-.25.097-.5.097-.074 0-.104-.024l-.171-.05q.073-.023.226-.127l.097-.05q.05-.023.098-.048l.153-.073q.048 0 .073-.025l-.025-.03q0-.098.129-.098.146-.097.25-.122l.25-.08.256-.085q.116-.036.116-.14.098-.073.25-.324.178-.299.25-.372l.227-.049.25-.378-.049-.098.195-.103v-.098h.055q.275-.3.434-.537.164-.238.287-.641 0-.049.079-.049v-.024q.146-.3.146-.574 0-.598-.573-.598-.05 0-.129-.025-.097 0-.097.05h.128l-.128.097q-.122.049-.238.152-.11.098-.11.275h-.104q.055 0 .08.098-.177 0-.25.097l.121.08q-.048.049-.128.085-.073.037-.146.086-.074.03-.153.067-.073.036-.122.085-.275.202-.275.373 0 .03.025.055.024.024.06.048.038.025.092.074l-.201-.025.024-.012q.025-.012.05-.012-.098 0-.147.024-.055 0 0 .049l.024.024h-.012q-.012 0-.012.025-.025.03-.025.055h-.055q-.097.122-.189.25-.085.122-.134.25-.098.22-.275.446l.177.128h-.177l-.097.098v.128l-.153.122.049.024-.25.427-.074.025v.201l-.274.3.024.097h-.049v.177q-.177.177-.226.452-.024.25-.201.5h.153l-.202.122v.074q-.024.024-.024.079 0 .097.012.177.012.073.037.146.024.074.036.153.012.073.012.17 0 .202.165.513.165.312.336.312.476 0 .952-.25.452-.275.922-.3l.525-.42q.402-.33.701-.776.324-.451.727-.775h.024l-.049-.055q.074-.097.22-.299.153-.201.177-.323.025-.025.025-.098 0-.055.03-.08.049-.121.147-.121.103 0 .103.122 0 .079-.03.103 0 .25-.214.714-.207.458-.482.562v.073q-.128.122-.25.348-.177.226-.489.629-.31.396-.512.396l-.348.226v.098q0 .128-.153.177-.097.128-.25.098-.073.152-.25.201-.073.024-.226.128-.049.073-.238.153-.183.073-.262.098-.123.097-.3.11-.17.012-.299.012zm10.002 8.422q-.177 0-.378-.22-.147-.225-.3-.427-.176-.25-.176-.525 1.428-2.1 3.137-3.973 1.715-1.874 3.589-3.528L73.1 75.74l1.287-2.588-.598.702q-.299.372-.628.702-.098.073-.226.19-.122.109-.25.231l-.397.452q-.098.097-.177.225-.074.123-.147.25-.08.123-.274.276-.104.073-.202.152l-.226.17q-.097.099-.213.178-.11.073-.214.146-.097.104-.201.165-.098.061-.147.11-.097.104-.213.19-.11.085-.238.213-.25.25-.55.25-.451 0-.665-.488-.208-.488-.208-.885 0-.58.226-1.13l.196-.549q.103-.274.201-.549l1.05-2.801q.128-.275.262-.574.14-.3.287-.598.305-.574.305-1.227 0-.073.025-.122 0-.025-.055-.08-.122.129-.287.245-.159.11-.336.207-.323.177-.598.5-.653.776-1.178 1.612t-1.025 1.69q-.05.098-.165.227-.11.121-.232.121-.153 0-.153-.176 0-.275.3-.709.298-.439.402-.762.122-.275.275-.403.073-.05.134-.135.067-.091.116-.189.25-.525.75-1.184.501-.665 1.136-1.153.641-.489 1.215-.489.573 0 .848.403.275.397.275.897t-.128 1.014q-.122.512-.269.964.049.049.049.195 0 .25-.153.452-.17.201-.201.427-.098.525-.25.788-.147.262-.397.683.049.128-.153.555-.195.422-.274.599-.074.17-.122.323l-.104.324v.128q-.024.049-.024.122.079-.049.14-.098.06-.049.085-.073.073-.08.159-.128.092-.049.195-.098.025-.024.05-.024.023 0 .048-.025.024-.25.275-.25.048-.03.097-.067.055-.037.104-.061.098-.098.147-.122.103-.25.274-.354.08-.049.165-.11t.19-.116l.823-.848q.098-.123.159-.232.067-.116.091-.196.05-.122.421-.323l.129-.171v-.177q0-.128.024-.226.025-.097.153-.153.146-.073.195-.274.055-.22.128-.3l.452-.597q.049-.129.073-.153l.147-.146v-.025q0-.049-.025-.08-.049-.048-.049-.097 0-.073.074-.073l.103-.08q.275.031.635.117.366.085.366.463 0 .05-.012.153-.012.098-.036.22-.031.824-.354 1.648-.177.403-.33.805-.147.397-.293.824l-.256.751q-.123.372-.245.775.55-.476 1.148-.848.604-.379 1.251-.702.201-.153.403-.153.098 0 .098.098 0 .08-.202.201l-.275.202q-.573.323-1.086.702-.513.372-1.013.8-.177.121-.354.274-.171.146-.317.299-.129.122-.226.323-.104.226-.226.403-.049.074-.104.153-.049.073-.073.17-.025.178-.147.373-.103.177-.195.33-.085.146-.159.323-.097.147-.177.3-.073.152-.17.323-.05.049-.129.146-.073.104-.146.257-.104.122-.153.231-.049.116-.097.165-.153.275-.318.476-.159.202-.256.202h-.08q0-.073.055-.177.025-.049.05-.11.024-.061.048-.116.201-.324.488-.8t.287-.671q0-.049-.049-.049l-.201.3q-.201.121-.275.323l-.226.372-.897 1.428q.025.025.025.074 0 .073-.025.103-.03.025-.03.05 0 .023-.025.048l-.048.049q-.098.097-.098.274v.025q.024.024.024.049 0 .104-.103.128l-.147.049-.049.024q-.049.153-.177.275-.049.128-.189.348-.134.225-.287.201-.25.305-.476.653-.22.348-.372.727 0 .024.024.048v.05q0 .097-.122.097h-.08l-.073-.025-.024-.024q-.024 0-.049-.024-.049.274-.274.378-.08.146-.202.195-.097.025-.25.177h-.025q-.048.098-.176.196-.123.103-.226.128l-.025.024h-.049l-.048.025q-.074.128-.238.225-.165.104-.287.153-.073.122-.287.336-.214.213-.342.213h-.098q-.201.122-.372.122m.275-1.172q.146-.048.293-.103.152-.05.28-.171.226-.202.672-.69.452-.488.952-1.086t.903-1.075l.757-1.037q.415-.562.739-1.074.33-.513.378-.788-.378.373-.726.733-.348.366-.726.714-.776.75-1.502 1.575-.421.5-.8 1.025-.372.525-.72 1.05-.152.226-.305.427-.195.226-.22.476.025 0 .025.025m12.223-7.25q-.275 0-.55-.074-.402-.152-.799-.824l.195-.055-.17-.122-.202-.622h-.024q-.025-.08-.025-.226v-.177q0-.098.122-.348.129-.25.226-.476l-.25.049v-.122q.024-.025.08-.128.024-.074.121-.098.025.024.025.073l.049-.049v-.128q0-.097.012-.207.012-.116.091-.19 0-.152.025-.177l.024-.097h.05V74.5l.152-.195q.122-.129.146-.129v-.024q-.024.024-.073.024-.098 0-.098-.097 0-.025.025-.049v-.128q.024-.025.024-.122 0-.104-.049-.153l.171-.201.104.024-.025-.024h.05l.024-.025.073-.274.128.201.073-.427.05-.244.048-.257.275-.024v-.201h-.074v-.123l.123-.122v.025l.03-.025v-.128l.22-.152v-.098q.177-.098.305-.348.073-.177.348-.226h-.153l.025-.024-.098.073v-.201h.049l.024-.05h.025l.055-.097v-.128q.146-.098.305-.244.165-.153.165-.33l.103-.073v-.104l.098.055.323-.305v-.098l.202-.122.104-.152q0-.073.073-.073.024 0 .11.036.091.037.14.061h.147q.402 0 .8.287.402.287.677.69.274.396.274.8 0 .121.074.25.03.073.042.152.012.073.012.171v.098q0 .103-.024.128-.427 1-1.318 1.928-.885.922-1.837 1.447-.196.098-.446.202-.25.097-.5.097-.074 0-.104-.024l-.171-.05q.073-.023.226-.127l.097-.05q.05-.023.098-.048l.153-.073q.048 0 .073-.025l-.025-.03q0-.098.129-.098.146-.097.25-.122l.25-.08.256-.085q.116-.036.116-.14.098-.073.25-.324.178-.299.25-.372l.227-.049.25-.378-.049-.098.195-.103v-.098h.055q.275-.3.434-.537.165-.238.287-.641 0-.049.079-.049v-.024q.146-.3.146-.574 0-.598-.573-.598-.05 0-.128-.025-.098 0-.098.05h.128l-.128.097q-.122.049-.238.152-.11.098-.11.275h-.104q.055 0 .08.098-.177 0-.25.097l.121.08q-.049.049-.128.085-.073.037-.146.086-.074.03-.153.067-.073.036-.122.085-.275.202-.275.373 0 .03.025.055.024.024.06.048.037.025.092.074l-.201-.025.024-.012q.025-.012.05-.012-.098 0-.147.024-.055 0 0 .049l.024.024h-.012q-.012 0-.012.025-.025.03-.025.055h-.055q-.097.122-.189.25-.085.122-.134.25-.098.22-.275.446l.177.128h-.177l-.097.098v.128l-.153.122.049.024-.25.427-.074.025v.201l-.274.3.024.097h-.049v.177q-.177.177-.226.452-.024.25-.201.5h.153l-.202.122v.074q-.024.024-.024.079 0 .097.012.177.012.073.037.146.024.074.036.153.012.073.012.17 0 .202.165.513.165.312.336.312.476 0 .952-.25.452-.275.922-.3l.525-.42q.402-.33.701-.776.324-.451.727-.775h.024l-.049-.055q.074-.097.22-.299.153-.201.177-.323.025-.025.025-.098 0-.055.03-.08.049-.121.147-.121.103 0 .103.122 0 .079-.03.103 0 .25-.214.714-.207.458-.482.562v.073q-.128.122-.25.348-.177.226-.488.629-.312.396-.513.396l-.348.226v.098q0 .128-.153.177-.097.128-.25.098-.073.152-.25.201-.073.024-.226.128-.049.073-.238.153-.183.073-.263.098-.122.097-.299.11-.17.012-.299.012zm6.124-3.797q-.201.098-.317-.024-.11-.128-.006-.257.122-.122.146-.22.025-.103.025-.225v-.202q0-.177.03-.201l.147-.147q.024-.054.153-.103l.122-.348q-.177-.202.048-.427l.025-.025v-.024l.055-.073.146-.25.025-.05h.055q-.055-.128.073-.274.049-.128.146-.25.104-.129.202-.275.25-.275.274-.5.05-.202.226-.355-.024 0-.024-.048 0-.025-.025-.025 0-.024.025-.049v-.024q.049-.049.17-.263.129-.213.257-.439l.098-.146q.048-.08.097-.177l.129-.226-.678-.226q-.5-.177-.879-.488-.372-.312-.372-.91 0-.275.165-.476.164-.201.335-.348.104-.104.104-.128.201-.25.397-.134.201.11 0 .311l-.147.195q-.103.153-.201.293-.098.135-.098.336 0 .25.36.44.36.183.8.286.44.098.61.098 1.026-1.349 2.027-2.673 1-1.325 2.001-2.674.098-.104.098-.354l.928-.976q.098.055.183.08l.19.048q.103.024.188.049.086.024.19.049.195.048.372.128.177.073.323.25.275.275.275.671 0 .428-.348.727-.372.299-.647.573-.104.08-.195.153-.085.073-.183.177-.202.195-.452.195v-.17h.08l.207-.275q.116-.153.214-.275.25-.275.378-.555-.104.103-.19.177-.085.073-.188.152-.098.073-.19.165l-.183.183q-.128.177-.402.489-.275.31-.599.659-.274.354-.561.628l-.415.397-.025.024.104.104-.33.122.025.025q0 .201-.128.28-.122.074-.244.074-.05.146-.14.262-.086.11-.288.19.025.024.025.073 0 .024.03.048 0 .025.025.05h-.055v.048h-.122q-.025 0-.05.104l.074.122q.025.024.025.104.347-.379.671-.751l.677-.775 1.355-1.502h.05q0 .025.024.025 0 .024.024.024 0 .177-.275.556-.274.372-.677.811-.397.434-.763.837-.36.396-.562.622-.073.073-.177.226-.073.073-.17.226h.225q.324 0 .586-.037.263-.043.537-.091.123-.025.245-.062.128-.036.256-.06l.244-.05q.128-.024.256-.054.3-.05.8-.159.5-.116.726-.287.647-.201 1.276-.299l.024-.012q.025-.018.074-.043.048 0 .073-.024.049-.074.128-.074l.201-.073.196-.055v-.024q.354-.073.677-.208.324-.14.672-.293.33-.122.64-.231.312-.116.635-.116l.08-.147q.299-.305.671-.305v.08q.104.097.104.225 0 .073-.055.073-.22.226-.495.25l.037.074q.012.024.012.049 0 .079-.08.079-.097.073-.25.073-.121 0-.121-.152l.073-.05q-.147 0-.202-.048-.17.452-.573.452l-.05.195-.274-.073q-.122.128-.25.128l-.085.213q-.037.086-.19.086.025-.025.025-.08-.025-.024-.025-.048-.177.201-.415.354-.232.146-.561.146l-.025-.17h-.024q.024.024.024.121 0 .098-.085.153-.086.049-.14.049-.025 0-.025-.025h-.049q-.122.098-.226.098-.048 0-.073-.024h-.073q-.128.097-.232.11-.098.012-.293.042-.33.05-.69.177-.36.122-.69.244-.024.025-.121.025-.05 0-.05.024-.774.403-1.574.427-.855.074-1.654.226-.073.025-.153.037-.073.012-.17.012t-.177.012q-.074.013-.147.037-.153.024-.378.238-.226.214-.428.464-.195.25-.293.397-.103.103-.231.22-.123.11-.245.207-.25.177-.451.451l-.129.129q-.073.073-.122.17-.122.226-.299.25.05.123-.048.178l-.055.049q-.22.226-.22.525-.08.073-.128.201l-.025.098-.073.097q-.128.177-.244.415-.11.238-.232.513-.128.275-.256.513-.123.238-.245.44m-.775 6.745q-.177 0-.39-.074-.208-.073-.336-.201-.122-.147-.36-.537-.238-.385-.238-.586 0-.476.049-.928.049-.445.152-.921.147-.123.171-.3t.055-.354q.195-.195.22-.494.03-.305.305-.305l.049-.049q.024-.024-.025-.122-.054-.128-.079-.214-.024-.085.055-.213.024-.05.049-.11.024-.067.049-.092.024-.024.073-.17.08-.275.14-.489t.263-.44q.122-.097.22-.012.103.086.079.214 0 .147-.073.3h.195q-.098.475-.226.951l-.244.946q-.305.928-.305 1.905 0 .872.354 1.623l.348-.201.128-.226v.275l.049.128q.049-.128.146-.226.104-.098.305-.098l.025.171q0 .073-.025.104-.152.323-.482.53-.323.215-.696.215"/></svg>