<?xml version="1.0" encoding="UTF-8" standalone="no"?>
<svg
   fill="none"
   viewBox="0 0 89.178001 63.149"
   version="1.1"
   id="svg3"
   sodipodi:docname="Empty.svg"
   inkscape:version="1.4.2 (f4327f4, 2025-05-13)"
   xmlns:inkscape="http://www.inkscape.org/namespaces/inkscape"
   xmlns:sodipodi="http://sodipodi.sourceforge.net/DTD/sodipodi-0.dtd"
   xmlns="http://www.w3.org/2000/svg"
   xmlns:svg="http://www.w3.org/2000/svg">
  <sodipodi:namedview
     id="namedview3"
     pagecolor="#ffffff"
     bordercolor="#000000"
     borderopacity="0.25"
     inkscape:showpageshadow="2"
     inkscape:pageopacity="0.0"
     inkscape:pagecheckerboard="0"
     inkscape:deskcolor="#d1d1d1"
     inkscape:zoom="5.8983625"
     inkscape:cx="48.064187"
     inkscape:cy="29.923559"
     inkscape:window-width="1600"
     inkscape:window-height="837"
     inkscape:window-x="-8"
     inkscape:window-y="-8"
     inkscape:window-maximized="1"
     inkscape:current-layer="svg3" />
  <defs
     id="defs3">
    <radialGradient
       id="a"
       cx="0"
       cy="0"
       r="1"
       gradientTransform="matrix(61,0,0,53.8284,48.064,29.951)"
       gradientUnits="userSpaceOnUse">
      <stop
         offset=".181"
         stop-color="#ff740b"
         id="stop1" />
      <stop
         offset=".561"
         stop-color="#ff3a05"
         id="stop2" />
      <stop
         offset="1"
         stop-color="red"
         id="stop3" />
    </radialGradient>
  </defs>
  <path
     fill="url(#a)"
     d="M 0.799,22.174 Q 0.702,22.174 0.5,21.899 0.299,21.625 0.152,21.313 0,21.003 0,20.898 0,20.801 0.012,20.697 0.024,20.599 0.049,20.502 0.103,20.404 0.128,20.312 0.152,20.227 0.177,20.129 v 0.098 q 0.177,-0.049 0.177,-0.201 v -0.05 l -0.153,0.098 q 0.098,-0.097 0.153,-0.17 0.073,-0.129 0.17,-0.153 0.08,0 0.178,-0.104 0.097,-0.098 0.152,-0.146 l -0.128,0.048 0.476,-0.347 0.024,0.024 q 0.3,-0.201 0.702,-0.299 0.397,-0.098 0.745,-0.25 0.354,-0.153 0.5,-0.428 v -0.073 l 0.104,0.05 q 0,-0.501 0.086,-1.038 0.091,-0.538 0.287,-0.959 0,-0.152 0.177,-0.152 0.073,0 0.097,0.164 0.025,0.16 0.025,0.208 0.03,0.403 -0.074,0.775 -0.048,0.202 -0.073,0.415 l -0.049,0.44 q 0.074,-0.025 0.135,-0.037 0.06,-0.018 0.14,-0.018 v 0.055 l 1.147,-0.354 v 0.048 q 0.05,0.03 0.074,0 h 0.079 l -0.049,0.03 q -0.03,0 -0.055,0.013 l -0.073,0.037 h 0.476 l -0.128,0.122 h 0.03 q 0.196,0 0.397,-0.122 L 5.877,17.803 6.054,17.749 5.7,17.7 5.774,17.651 h 0.354 q 0.097,0 0.183,-0.012 0.091,-0.012 0.189,-0.036 0.024,-0.025 0.152,-0.025 h 0.122 q 0.129,0 0.416,0.025 0.287,0.024 0.384,0.073 v -0.025 h 0.275 q 0.28,0 0.354,0.025 L 8.227,17.651 Q 8.178,17.603 8.014,17.578 7.849,17.554 7.904,17.554 h 0.549 v 0.024 l 1.3,-0.024 0.024,0.049 q 0.025,0.024 0.25,0.024 0.123,-0.201 0.27,-0.397 0.152,-0.201 0.28,-0.378 0.122,-0.202 0.244,-0.385 0.128,-0.189 0.256,-0.39 0.8,-1.276 1.484,-2.613 0.69,-1.336 1.367,-2.685 h -0.08 q -0.244,0 -0.244,-0.226 0,-0.049 0.013,-0.134 0.012,-0.092 0.036,-0.196 l -0.152,0.153 q 0,0.024 -0.153,0.287 -0.146,0.262 -0.348,0.616 -0.201,0.348 -0.366,0.61 -0.159,0.263 -0.183,0.263 v -0.049 q -0.025,0 -0.025,-0.049 0,-0.354 0.336,-0.903 0.342,-0.55 0.726,-1.147 0.391,-0.605 0.513,-1.05 l 0.153,-0.5 q 0.049,-0.129 0.085,-0.263 0.037,-0.14 0.086,-0.263 0.299,-0.775 0.714,-1.513 0.415,-0.739 0.836,-1.465 0.08,-0.25 0.354,-0.684 0.275,-0.44 0.275,-0.64 0,-0.05 -0.055,-0.05 -0.074,0.025 -0.074,-0.097 0,-0.177 0.153,-0.5 0.17,-0.379 0.201,-0.501 0.098,-0.177 0.196,-0.336 l 0.201,-0.317 0.403,-0.55 -0.201,-0.122 0.048,-0.054 -0.097,-0.05 -0.025,0.05 0.05,0.03 h -0.08 l -0.05,0.024 q 0,0.05 0.025,0.05 0.025,0 0.055,0.024 v 0.097 l -0.03,0.025 Q 17.151,1.276 17.059,1.227 16.974,1.177 16.876,1.129 q -0.098,0 -0.147,0.073 L 16.479,1.129 V 1.025 q -0.055,0.153 -0.177,0.153 -0.201,0 -0.427,-0.012 Q 15.649,1.154 15.454,1.129 15.228,1.099 15.002,1.086 14.776,1.073 14.575,1.074 h -0.171 q -0.055,0.025 -0.177,0.025 l -0.049,0.03 v 0.024 l 0.024,-0.024 h 0.25 q 0.123,0 0.172,0.024 L 14.3,1.276 14.38,1.3 q -0.678,0.049 -1.404,0.214 -0.727,0.164 -1.374,0.44 l 0.025,0.024 -0.3,0.17 0.05,-0.097 q -0.373,0.403 -0.61,0.567 -0.239,0.16 -0.38,0.287 -0.133,0.122 -0.188,0.372 -0.05,0.25 -0.05,0.825 v 0.097 q 0,0.104 -0.048,0.104 Q 10.003,4.303 9.9,4.016 9.802,3.729 9.735,3.406 9.674,3.076 9.674,3.003 9.649,2.777 9.754,2.527 9.802,2.429 9.826,2.356 9.851,2.276 9.876,2.203 9.924,2.179 9.997,2.118 10.077,2.051 10.077,2.002 L 10.052,1.978 9.954,2.051 10.101,1.904 q 0.073,-0.08 0.128,-0.177 h 0.049 q 0.049,0 0.134,-0.085 0.092,-0.092 0.116,-0.14 L 10.448,1.55 H 10.424 L 10.852,1.202 V 1.227 Q 11.151,1.025 11.523,0.952 11.901,0.879 12.201,0.769 12.5,0.653 12.579,0.354 l 0.073,0.049 q 0.202,0 0.3,-0.08 Q 13.079,0.25 13.25,0.25 h 0.05 l -0.025,0.049 0.976,-0.25 v 0.055 h 0.098 l -0.146,0.073 0.372,0.049 -0.098,0.073 0.049,0.024 q 0.049,0 0.146,-0.036 0.104,-0.037 0.153,-0.061 L 14.801,0.177 q 0.024,0 0.049,-0.012 0.024,-0.013 0.079,-0.037 l -0.25,-0.049 0.048,-0.055 h 0.672 q 0.128,0 0.39,0.043 0.263,0.037 0.36,0.134 V 0.177 q 0.33,0 0.525,0.098 l 0.025,-0.025 -0.25,-0.17 0.348,0.048 0.354,0.049 0.677,0.073 Q 17.852,0.104 17.974,0.055 18.103,0 18.224,0 q 0.526,0 1.1,0.177 0.58,0.177 0.604,0.75 0.372,0.074 0.598,0.202 0.226,0.122 0.525,0.348 0.274,0.226 0.598,0.372 0.354,0.177 0.604,0.379 0.171,0.122 0.293,0.287 0.128,0.164 0.128,0.36 0,0.104 -0.073,0.378 -0.073,0.275 -0.201,0.275 -0.05,0 -0.061,-0.287 -0.013,-0.287 -0.11,-0.342 L 22.174,2.923 Q 22.1,2.85 21.801,2.692 L 21.215,2.368 Q 20.929,2.203 20.825,2.124 20.477,1.929 20.275,1.929 20.178,1.953 20.025,1.941 19.879,1.929 19.702,1.904 q -0.775,1.972 -1.727,3.9 l -1.899,3.821 -1.123,2.301 q -0.274,0.574 -0.592,1.142 -0.311,0.561 -0.659,1.135 -0.452,0.726 -1.141,1.703 -0.684,0.97 -1.46,1.843 0.202,0.024 0.422,0.055 0.226,0.024 0.452,0.073 l 0.854,0.147 v 0.03 q 0.122,0.073 0.3,0.073 l 0.323,0.074 q 0.097,0.048 0.17,0.091 0.08,0.037 0.178,0.086 0.354,0.122 0.89,0.274 0.538,0.147 0.96,0.373 0.426,0.225 0.426,0.573 0.025,0.104 -0.049,0.342 -0.073,0.238 -0.177,0.238 -0.097,0 -0.164,-0.293 -0.061,-0.287 -0.159,-0.287 l -0.073,0.03 q -0.153,-0.127 -0.678,-0.292 -0.525,-0.159 -1.062,-0.3 -0.537,-0.133 -0.738,-0.133 h -0.153 q -0.073,0 -0.146,0.024 h -0.3 q -0.323,0 -0.573,-0.086 -0.25,-0.091 -0.525,-0.262 v 0.024 l 0.073,0.098 -0.098,0.073 -0.03,-0.024 0.03,-0.049 -0.054,-0.049 q -0.025,-0.024 -0.196,-0.024 -0.152,0 -0.226,0.024 h -0.25 l -0.08,0.073 h -0.024 l -0.146,-0.048 q -0.275,0.274 -0.568,0.512 -0.287,0.238 -0.561,0.44 -0.073,0.049 -0.3,0.256 -0.225,0.214 -0.274,0.269 -0.574,0.372 -1.19,0.659 -0.61,0.287 -1.361,0.287 -0.97,0 -1.66,-0.427 -0.69,-0.422 -0.965,-1.27 -0.299,0.098 -0.586,0.183 -0.287,0.092 -0.561,0.238 l -0.348,0.202 0.098,-0.098 q 0.097,-0.104 -0.098,0.073 -0.201,0.177 -0.33,0.226 -0.195,0.098 -0.396,0.3 L 1.379,20.373 Q 1.129,20.575 0.891,20.837 0.653,21.1 0.677,21.454 l 0.073,0.323 q 0.074,0.147 0.074,0.324 v 0.049 q -0.025,0 -0.025,0.024 M 9.875,2.204 Q 9.899,2.148 9.899,2.124 9.899,2.1 9.924,2.075 v 0.049 z m -3.9,18.5 q 0.903,0 1.678,-0.58 0.776,-0.575 1.35,-1.197 0.048,0 0.176,-0.128 0.05,-0.049 0.11,-0.122 0.061,-0.074 0.11,-0.153 l -0.22,-0.073 0.05,-0.049 -0.105,-0.024 -0.048,0.048 0.073,0.025 H 8.978 q 0,0.073 0.122,0.073 v 0.104 L 9.076,18.652 Q 9.051,18.603 8.85,18.579 8.703,18.549 8.624,18.475 8.502,18.5 8.429,18.579 l -0.3,-0.08 -0.03,-0.048 q -0.146,0.152 -0.25,0.152 H 7.373 q -0.373,0 -0.837,0.025 -0.457,0.024 -0.824,0.049 -0.36,0.024 -0.433,0.073 v 0.024 L 5.304,18.75 h 0.225 q 0.074,-0.025 0.22,-0.025 0.025,0 0.055,0.025 h 0.025 l -0.379,0.128 0.104,0.024 q -0.427,0.074 -0.867,0.16 -0.433,0.09 -0.885,0.213 0.177,0.75 0.8,1.086 0.622,0.342 1.373,0.342 m 14.801,-5.775 q -0.201,0.098 -0.317,-0.024 -0.11,-0.128 -0.006,-0.257 0.122,-0.122 0.146,-0.22 0.025,-0.103 0.025,-0.225 V 14 q 0,-0.177 0.03,-0.201 l 0.147,-0.146 q 0.024,-0.055 0.152,-0.104 l 0.122,-0.348 q -0.177,-0.202 0.05,-0.427 l 0.024,-0.025 v -0.024 l 0.055,-0.074 0.146,-0.25 0.025,-0.049 h 0.054 q -0.054,-0.128 0.074,-0.274 0.049,-0.128 0.146,-0.25 0.104,-0.129 0.202,-0.275 0.25,-0.275 0.274,-0.5 0.05,-0.202 0.226,-0.355 -0.024,0 -0.024,-0.048 0,-0.025 -0.025,-0.025 0,-0.024 0.025,-0.049 v -0.024 q 0.049,-0.049 0.17,-0.263 0.129,-0.213 0.257,-0.439 l 0.098,-0.146 q 0.049,-0.08 0.097,-0.178 L 23.078,9.301 22.4,9.075 Q 21.9,8.898 21.521,8.587 21.149,8.275 21.149,7.677 q 0,-0.274 0.165,-0.476 0.164,-0.201 0.335,-0.348 0.104,-0.104 0.104,-0.128 0.201,-0.25 0.397,-0.134 0.201,0.11 0,0.311 L 22.003,7.097 Q 21.9,7.25 21.802,7.39 q -0.098,0.135 -0.098,0.336 0,0.25 0.36,0.44 0.36,0.183 0.8,0.286 0.44,0.098 0.61,0.098 1.026,-1.349 2.027,-2.673 1,-1.325 2.002,-2.674 Q 27.6,3.099 27.6,2.849 l 0.928,-0.976 q 0.098,0.055 0.183,0.08 l 0.19,0.048 q 0.103,0.024 0.188,0.049 0.086,0.024 0.19,0.049 0.195,0.048 0.372,0.128 0.177,0.073 0.323,0.25 0.275,0.275 0.275,0.671 0,0.428 -0.348,0.727 -0.372,0.299 -0.647,0.573 l -0.195,0.153 q -0.085,0.073 -0.183,0.177 -0.202,0.195 -0.452,0.195 v -0.17 h 0.08 l 0.207,-0.275 q 0.116,-0.153 0.214,-0.275 0.25,-0.274 0.378,-0.555 -0.104,0.104 -0.19,0.177 -0.085,0.073 -0.188,0.152 -0.098,0.073 -0.19,0.165 L 28.552,4.375 Q 28.424,4.552 28.15,4.863 27.875,5.175 27.551,5.523 27.277,5.877 26.99,6.151 l -0.415,0.397 -0.025,0.024 0.104,0.104 -0.33,0.122 0.025,0.025 q 0,0.201 -0.128,0.28 -0.122,0.074 -0.244,0.074 -0.05,0.146 -0.14,0.262 -0.086,0.11 -0.288,0.19 0.025,0.024 0.025,0.073 0,0.024 0.03,0.048 0,0.025 0.025,0.05 h -0.055 v 0.048 h -0.122 q -0.025,0 -0.05,0.104 l 0.074,0.122 q 0.025,0.024 0.025,0.104 0.348,-0.379 0.671,-0.751 L 26.85,6.652 28.204,5.15 h 0.05 q 0,0.025 0.024,0.025 0,0.024 0.024,0.024 0,0.177 -0.275,0.556 Q 27.753,6.127 27.35,6.566 26.953,7 26.587,7.403 26.227,7.799 26.025,8.025 25.952,8.098 25.849,8.251 25.775,8.324 25.678,8.477 h 0.225 q 0.324,0 0.586,-0.037 0.263,-0.043 0.538,-0.091 0.121,-0.025 0.244,-0.061 0.128,-0.037 0.256,-0.061 l 0.244,-0.05 q 0.128,-0.024 0.256,-0.054 0.3,-0.05 0.8,-0.159 0.5,-0.116 0.726,-0.287 0.647,-0.201 1.276,-0.299 l 0.024,-0.012 q 0.025,-0.018 0.074,-0.043 0.048,0 0.073,-0.024 0.049,-0.073 0.128,-0.073 L 31.329,7.152 31.525,7.097 V 7.073 Q 31.879,7 32.202,6.865 32.526,6.725 32.874,6.572 33.204,6.45 33.514,6.34 33.826,6.224 34.149,6.224 l 0.08,-0.146 Q 34.528,5.773 34.9,5.773 v 0.08 q 0.104,0.097 0.104,0.225 0,0.073 -0.055,0.073 -0.22,0.226 -0.495,0.25 l 0.037,0.074 q 0.012,0.024 0.012,0.049 0,0.079 -0.08,0.079 -0.097,0.073 -0.25,0.073 -0.121,0 -0.121,-0.152 l 0.073,-0.05 q -0.147,0 -0.202,-0.048 -0.17,0.452 -0.573,0.452 L 33.3,7.073 33.026,7 q -0.122,0.128 -0.25,0.128 L 32.69,7.341 Q 32.654,7.427 32.501,7.427 32.526,7.403 32.526,7.347 32.501,7.323 32.501,7.299 32.324,7.5 32.086,7.653 31.854,7.799 31.525,7.799 L 31.5,7.629 H 31.476 Q 31.5,7.653 31.5,7.75 q 0,0.098 -0.085,0.153 -0.086,0.049 -0.14,0.049 -0.025,0 -0.025,-0.025 h -0.049 q -0.122,0.098 -0.226,0.098 -0.048,0 -0.073,-0.024 h -0.073 q -0.128,0.097 -0.232,0.11 -0.098,0.012 -0.293,0.042 -0.33,0.05 -0.69,0.177 -0.36,0.122 -0.69,0.244 -0.024,0.025 -0.121,0.025 -0.05,0 -0.05,0.024 -0.774,0.403 -1.574,0.428 -0.854,0.073 -1.654,0.225 -0.073,0.025 -0.153,0.037 -0.073,0.012 -0.17,0.012 -0.097,0 -0.177,0.012 -0.074,0.012 -0.147,0.037 -0.153,0.024 -0.378,0.238 -0.226,0.214 -0.428,0.464 -0.195,0.25 -0.293,0.397 -0.103,0.103 -0.232,0.22 -0.122,0.11 -0.244,0.207 -0.25,0.177 -0.451,0.452 -0.05,0.048 -0.128,0.128 -0.074,0.073 -0.123,0.17 -0.122,0.226 -0.299,0.25 0.05,0.123 -0.048,0.178 l -0.055,0.049 q -0.22,0.225 -0.22,0.524 -0.08,0.074 -0.128,0.202 l -0.025,0.098 -0.073,0.097 q -0.128,0.177 -0.244,0.415 -0.11,0.238 -0.232,0.513 -0.128,0.275 -0.256,0.513 -0.123,0.238 -0.245,0.44 m -0.775,6.745 q -0.177,0 -0.39,-0.074 -0.208,-0.073 -0.336,-0.201 -0.122,-0.147 -0.36,-0.537 -0.238,-0.385 -0.238,-0.586 0,-0.476 0.049,-0.928 0.049,-0.446 0.152,-0.922 0.147,-0.122 0.171,-0.299 0.024,-0.177 0.055,-0.354 0.195,-0.195 0.22,-0.494 0.03,-0.305 0.305,-0.305 l 0.049,-0.049 q 0.024,-0.024 -0.025,-0.122 -0.054,-0.128 -0.079,-0.214 -0.024,-0.085 0.055,-0.213 0.024,-0.05 0.049,-0.11 0.024,-0.067 0.049,-0.092 0.024,-0.024 0.073,-0.17 0.08,-0.275 0.14,-0.489 0.06,-0.214 0.263,-0.44 0.122,-0.097 0.22,-0.012 0.103,0.086 0.079,0.214 0,0.146 -0.073,0.3 h 0.195 q -0.098,0.475 -0.226,0.951 l -0.244,0.946 q -0.305,0.928 -0.305,1.905 0,0.872 0.354,1.623 l 0.348,-0.201 0.128,-0.226 v 0.275 l 0.049,0.128 q 0.048,-0.128 0.146,-0.226 0.104,-0.098 0.305,-0.098 l 0.025,0.171 q 0,0.073 -0.025,0.104 -0.152,0.323 -0.482,0.53 -0.323,0.215 -0.696,0.215 m 8.948,-14.6 Q 28.827,7.098 28.864,6.879 28.9,6.653 29.303,5.926 29.352,5.829 29.364,5.719 29.376,5.603 29.401,5.499 29.529,5.304 29.639,5.066 29.749,4.828 29.877,4.651 29.925,4.578 29.901,4.553 29.877,4.529 29.828,4.449 29.877,4.254 30.09,3.931 30.304,3.601 30.426,3.351 30.475,3.229 30.377,3.18 30.279,3.125 30.304,3.003 30.402,2.802 30.212,2.667 30.029,2.527 30.054,2.399 q 0.024,-0.074 0.274,-0.208 0.25,-0.14 0.3,-0.19 0.073,0 0.17,-0.048 0.104,-0.049 0.281,-0.049 0.324,0 0.531,-0.049 0.214,-0.055 0.415,-0.128 0.3,-0.104 0.403,-0.073 0.049,0.049 0,0.153 -0.049,0.097 -0.08,0.146 -0.024,0.073 -0.024,0.134 0,0.061 -0.073,0.165 -0.146,0.25 -0.214,0.275 -0.06,0.024 -0.183,0.299 -0.055,0.073 -0.08,0.213 -0.023,0.135 -0.121,0.238 l -0.3,0.348 q -0.024,0.025 -0.09,0.104 -0.062,0.073 -0.11,0.122 l -0.025,0.05 -0.049,0.103 q -0.128,0.22 -0.244,0.348 -0.11,0.122 -0.159,0.201 l -0.122,0.226 q -0.177,0.098 -0.226,0.19 -0.049,0.085 -0.177,0.158 -0.152,0.122 -0.201,0.275 -0.049,0.024 0.024,0.024 0.08,0 0.08,0.049 v 0.104 q 0,0.097 -0.055,0.146 -0.025,0.024 -0.074,-0.024 -0.048,-0.05 -0.097,-0.025 -0.025,0 -0.037,0.037 -0.012,0.037 -0.067,0.091 -0.122,0.171 -0.097,0.183 0.024,0.013 0.11,-0.036 0.09,-0.049 0.066,-0.024 0.05,0.097 -0.128,0.31 -0.17,0.214 -0.225,0.336 -0.098,0.153 -0.239,0.306 -0.134,0.146 -0.262,0.195 m 3.1,11.627 q -0.121,0 -0.237,-0.012 -0.11,-0.012 -0.238,-0.037 -0.122,-0.049 -0.25,-0.073 -0.123,-0.03 -0.245,-0.055 l 0.025,-0.122 q -0.775,0 -1.038,-0.287 -0.262,-0.287 -0.262,-1.086 0,-0.08 0.024,-0.104 v -0.073 q 0.122,0.024 0.195,0.036 0.08,0.013 0.129,0.013 0.25,0 0.347,-0.098 0.153,-0.024 0.3,-0.024 0.152,0 0.305,-0.025 0.122,0 0.268,-0.012 0.153,-0.018 0.281,-0.043 v -0.024 q -0.427,-0.849 -0.739,-1.544 -0.31,-0.702 -0.31,-1.557 0,-0.574 0.207,-1.044 0.213,-0.476 0.342,-1.007 0.048,-0.146 0.158,-0.158 0.116,-0.012 0.165,-0.037 0.098,-0.128 0.183,-0.226 0.092,-0.103 0.195,-0.201 0.074,-0.073 0.16,-0.134 0.085,-0.068 0.164,-0.14 l 0.17,-0.153 Q 33.026,9.9 33.875,9.491 34.729,9.076 35.505,8.752 l 0.646,0.422 q 0.128,0.25 0.3,0.524 0.176,0.25 0.176,0.58 v 0.098 q -0.024,0.049 -0.024,0.153 l -0.153,0.225 -0.39,0.25 q -0.385,0.245 -0.898,0.55 -0.512,0.299 -0.903,0.537 -0.384,0.238 -0.409,0.238 -0.097,0 -0.097,-0.08 0,-0.072 0.31,-0.335 0.312,-0.262 0.709,-0.574 0.403,-0.311 0.726,-0.537 0.33,-0.226 0.354,-0.25 -0.702,0.073 -1.38,0.287 -0.67,0.213 -1.195,0.586 -0.05,0.024 -0.153,0 -0.098,-0.025 -0.147,0.024 -0.073,0.049 -0.103,0.202 -0.025,0.152 -0.074,0.201 -0.323,0.324 -0.512,0.775 -0.19,0.446 -0.19,1.026 0,0.122 0.123,0.586 0.128,0.463 0.33,1.013 0.2,0.549 0.426,0.952 0.226,0.396 0.422,0.396 h 0.628 q 0.147,0 0.3,-0.012 0.152,-0.012 0.298,-0.036 0.275,-0.05 0.525,-0.153 0.525,-0.122 1.05,-0.146 0.177,-0.104 0.427,-0.153 0.122,-0.024 0.232,-0.024 0.116,0 0.22,-0.025 l 0.146,0.073 -0.024,0.226 q -0.177,0.05 -0.568,0.202 -0.384,0.146 -0.775,0.274 -0.384,0.122 -0.58,0.122 l -0.103,-0.024 q -0.025,0 -0.025,-0.024 h -0.024 q -0.201,0 -0.397,0.073 -0.104,0.055 -0.22,0.091 -0.11,0.037 -0.207,0.086 -0.202,0.073 -0.464,0.14 -0.262,0.061 -0.537,0.037 -0.049,0.5 -0.366,0.94 -0.312,0.433 -0.885,0.433 m -0.524,-0.976 q 0.08,0 0.08,-0.147 0,-0.049 -0.031,-0.134 -0.025,-0.092 -0.074,-0.092 -0.122,0 -0.274,-0.012 Q 31.08,17.328 30.952,17.303 30.799,17.279 30.647,17.267 30.5,17.249 30.378,17.249 h -0.024 q 0.049,0.079 0.323,0.195 0.275,0.11 0.55,0.195 0.274,0.086 0.299,0.086 m 11.277,1 q -0.275,0 -0.55,-0.073 -0.402,-0.152 -0.799,-0.824 l 0.195,-0.055 -0.17,-0.122 -0.202,-0.622 h -0.024 q -0.025,-0.08 -0.025,-0.226 v -0.177 q 0,-0.098 0.122,-0.348 0.129,-0.25 0.226,-0.476 l -0.25,0.049 v -0.122 q 0.024,-0.025 0.08,-0.129 0.024,-0.073 0.121,-0.097 0.025,0.024 0.025,0.073 l 0.049,-0.049 v -0.128 q 0,-0.098 0.012,-0.207 0.012,-0.116 0.091,-0.19 0,-0.152 0.025,-0.177 l 0.024,-0.097 h 0.05 v -0.105 l 0.152,-0.195 Q 42.077,14.3 42.101,14.3 v -0.025 q -0.024,0.025 -0.073,0.025 -0.098,0 -0.098,-0.098 0,-0.025 0.025,-0.049 v -0.128 q 0.024,-0.025 0.024,-0.122 0,-0.104 -0.049,-0.153 l 0.171,-0.201 0.104,0.024 -0.025,-0.024 h 0.05 l 0.024,-0.025 0.073,-0.274 0.128,0.201 0.073,-0.427 0.05,-0.244 0.048,-0.257 0.275,-0.024 v -0.202 h -0.073 v -0.121 l 0.122,-0.123 v 0.025 l 0.03,-0.025 v -0.128 l 0.22,-0.152 v -0.098 q 0.177,-0.098 0.305,-0.348 0.073,-0.177 0.348,-0.226 H 43.7 l 0.025,-0.024 -0.098,0.073 v -0.201 h 0.049 l 0.024,-0.05 h 0.025 l 0.055,-0.097 v -0.128 q 0.146,-0.098 0.305,-0.244 0.165,-0.153 0.165,-0.33 l 0.103,-0.073 V 9.923 l 0.098,0.055 0.323,-0.305 V 9.575 L 44.976,9.453 45.08,9.301 q 0,-0.074 0.073,-0.074 0.024,0 0.11,0.037 0.091,0.037 0.14,0.061 h 0.147 q 0.403,0 0.8,0.287 0.402,0.287 0.677,0.69 0.274,0.396 0.274,0.8 0,0.121 0.074,0.25 0.03,0.073 0.042,0.152 0.013,0.073 0.013,0.171 v 0.098 q 0,0.103 -0.025,0.128 -0.427,1 -1.318,1.928 -0.885,0.922 -1.837,1.447 -0.196,0.098 -0.446,0.201 -0.25,0.098 -0.5,0.098 -0.074,0 -0.104,-0.024 l -0.171,-0.05 q 0.073,-0.023 0.226,-0.127 l 0.097,-0.05 q 0.05,-0.023 0.098,-0.048 l 0.153,-0.073 q 0.048,0 0.073,-0.025 l -0.025,-0.03 q 0,-0.098 0.129,-0.098 0.146,-0.097 0.25,-0.122 l 0.25,-0.08 0.256,-0.085 q 0.116,-0.036 0.116,-0.14 0.098,-0.073 0.25,-0.323 0.178,-0.3 0.25,-0.373 l 0.227,-0.049 0.25,-0.378 -0.049,-0.098 0.195,-0.104 v -0.097 h 0.055 q 0.275,-0.3 0.434,-0.537 0.165,-0.238 0.287,-0.641 0,-0.049 0.079,-0.049 V 11.95 q 0.146,-0.3 0.146,-0.574 0,-0.598 -0.573,-0.598 -0.05,0 -0.128,-0.025 -0.098,0 -0.098,0.05 h 0.128 L 45.977,10.9 q -0.122,0.049 -0.238,0.152 -0.11,0.098 -0.11,0.275 h -0.104 q 0.055,0 0.08,0.098 -0.178,0 -0.25,0.097 l 0.121,0.08 q -0.049,0.049 -0.128,0.085 -0.073,0.037 -0.146,0.086 -0.074,0.03 -0.153,0.067 -0.073,0.036 -0.122,0.085 -0.275,0.202 -0.275,0.373 0,0.03 0.025,0.054 0.024,0.025 0.06,0.05 0.038,0.024 0.092,0.072 l -0.201,-0.024 0.024,-0.012 q 0.025,-0.012 0.05,-0.012 -0.098,0 -0.147,0.024 -0.055,0 0,0.049 l 0.024,0.024 h -0.012 q -0.012,0 -0.012,0.025 -0.025,0.03 -0.025,0.055 h -0.055 q -0.097,0.122 -0.189,0.25 -0.085,0.122 -0.134,0.25 -0.098,0.22 -0.275,0.446 l 0.177,0.128 h -0.177 l -0.097,0.098 v 0.128 l -0.153,0.122 0.049,0.024 -0.25,0.428 -0.074,0.024 v 0.201 l -0.274,0.3 0.024,0.097 h -0.049 v 0.177 q -0.177,0.177 -0.225,0.452 -0.025,0.25 -0.202,0.5 h 0.153 l -0.202,0.122 v 0.073 q -0.024,0.025 -0.024,0.08 0,0.097 0.012,0.177 0.012,0.073 0.037,0.146 0.024,0.074 0.036,0.153 0.012,0.073 0.012,0.17 0,0.202 0.165,0.514 0.165,0.31 0.336,0.31 0.476,0 0.952,-0.25 0.452,-0.274 0.922,-0.298 l 0.525,-0.422 q 0.403,-0.33 0.702,-0.775 0.323,-0.452 0.726,-0.775 h 0.024 l -0.049,-0.055 q 0.074,-0.098 0.22,-0.299 0.153,-0.201 0.177,-0.323 0.025,-0.025 0.025,-0.098 0,-0.055 0.03,-0.08 0.049,-0.121 0.147,-0.121 0.103,0 0.103,0.122 0,0.079 -0.03,0.103 0,0.25 -0.214,0.714 -0.207,0.458 -0.482,0.562 v 0.073 q -0.128,0.122 -0.25,0.348 -0.177,0.226 -0.488,0.629 -0.312,0.397 -0.513,0.397 L 45.33,17.65 v 0.098 q 0,0.128 -0.153,0.177 -0.097,0.128 -0.25,0.098 -0.073,0.152 -0.25,0.201 -0.073,0.025 -0.226,0.128 -0.049,0.074 -0.238,0.153 -0.183,0.073 -0.263,0.097 -0.122,0.098 -0.299,0.11 -0.17,0.012 -0.299,0.012 z M 59.426,19 q -0.373,0 -0.599,-0.226 -0.226,-0.226 -0.427,-0.5 l 0.037,-0.073 0.018,-0.025 q 0,-0.024 -0.055,-0.073 -0.195,-0.354 -0.25,-0.763 -0.049,-0.415 -0.073,-0.787 l 0.048,-0.05 q 0.055,-0.378 0.08,-0.75 0.024,-0.378 0.024,-0.775 0,-0.177 0.122,-0.354 V 14.6 q -0.024,0 -0.024,-0.025 v -0.024 q 0,-0.05 0.024,-0.05 0.025,-0.377 0.153,-0.725 0.201,-0.623 0.421,-1.209 0.226,-0.592 0.5,-1.288 0.08,-0.08 0.025,-0.152 l -0.049,-0.098 q 0,-0.275 0.214,-0.598 l 0.36,-0.556 q 0,-0.122 0.122,-0.409 0.128,-0.293 0.262,-0.567 0.14,-0.275 0.196,-0.324 -0.202,0.05 -0.165,-0.036 0.037,-0.086 0.085,-0.086 l 0.25,-0.378 Q 60.854,7.928 60.878,7.703 60.927,7.501 61,7.3 61.08,7.098 61.33,7.05 61.379,7 61.476,7 q 0.202,0 0.562,0.117 0.366,0.11 0.665,0.287 0.3,0.17 0.3,0.372 0,0.226 -0.19,0.592 -0.183,0.36 -0.409,0.757 l -0.476,0.75 q -0.25,0.348 -0.379,0.654 h -0.048 v 0.073 l -0.226,0.226 v 0.097 L 61.25,10.95 q -0.024,0.177 -0.073,0.366 -0.049,0.183 -0.177,0.36 l -0.146,-0.024 q -0.153,0.323 -0.165,0.152 -0.012,-0.177 0.19,-0.5 l -0.05,-0.08 q -0.103,0.202 -0.164,0.367 -0.061,0.158 -0.037,0.384 v -0.024 l 0.024,0.024 -0.097,0.049 -0.08,0.25 q -0.024,0.08 -0.048,0.153 -0.025,0.073 -0.05,0.122 -0.097,0.305 -0.274,0.354 l 0.024,0.146 -0.073,0.226 q -0.049,0.177 -0.024,0.226 h -0.104 v 0.024 l -0.372,0.629 q 0.024,0.024 0.024,0.073 0,0.147 -0.128,0.452 -0.171,0.323 -0.195,0.5 -0.025,0.05 -0.043,0.098 -0.012,0.049 0.018,0.146 L 59.2,15.399 q 0,0.024 0.012,0.055 l 0.018,0.024 v 0.098 q 0,0.324 -0.104,0.55 -0.097,0.274 -0.097,0.573 0,0.153 0.049,0.354 0.024,0.098 0.036,0.19 0.012,0.085 0.012,0.183 0,0.152 -0.024,0.225 -0.024,0.05 -0.024,0.129 v 0.122 q 0,0.201 0.25,0.415 0.25,0.207 0.451,0.207 0.3,0 0.422,-0.098 0.049,-0.048 0.134,-0.11 0.092,-0.066 0.195,-0.115 l 0.122,-0.25 v 0.298 l -0.024,0.025 Q 60.5,18.548 60.097,18.774 59.7,19 59.426,19 M 47.029,18.799 q -0.049,0 -0.17,-0.061 -0.129,-0.061 -0.16,-0.159 h 0.08 q 0.049,-0.03 0.11,-0.055 0.06,-0.024 0.091,-0.049 0.05,-0.024 0.11,-0.048 0.061,-0.025 0.11,-0.05 0.177,-0.103 0.324,-0.402 0.152,-0.3 0.262,-0.635 0.116,-0.336 0.165,-0.488 l 0.08,-0.324 q 0,-0.104 0.011,-0.177 0.013,-0.073 0.037,-0.152 0.073,-0.275 0.183,-0.525 0.116,-0.25 0.238,-0.495 0.025,-0.054 0.037,-0.225 0.018,-0.177 0.018,-0.25 -0.03,0 -0.08,-0.056 -0.024,-0.024 -0.024,-0.048 0,-0.05 0.025,-0.05 0.08,-0.176 0.189,-0.384 0.11,-0.213 0.311,-0.262 0.05,-0.128 0.122,-0.25 0.08,-0.129 0.128,-0.25 0.05,-0.129 0.123,-0.239 0.079,-0.116 0.128,-0.238 l 0.226,-0.677 q 0.048,-0.171 0.11,-0.336 0.067,-0.165 0.164,-0.311 h -0.073 l -0.049,-0.153 0.098,-0.146 -0.177,-0.055 q 0.08,-0.025 0.128,-0.073 v -0.025 q -0.08,-0.073 -0.08,-0.152 0,-0.05 0.031,-0.05 0.049,-0.097 0.073,-0.182 l 0.05,-0.19 q 0.048,-0.201 0.176,-0.323 h -0.049 q 0,0.024 -0.079,0.024 -0.049,0 -0.049,-0.08 0,-0.121 0.05,-0.28 0.048,-0.165 0.103,-0.293 0.049,-0.17 0.098,-0.348 0.048,-0.177 0.048,-0.348 0,-0.103 -0.024,-0.152 Q 50.203,8.679 50.203,8.6 50.203,8.502 50.301,8.398 50.381,8.35 50.453,8.276 50.301,8.228 50.252,8.179 50.203,8.099 50.075,8.075 H 50.051 L 49.801,8.026 49.605,7.953 q -0.128,-0.049 -0.128,-0.128 0,-0.074 0.128,-0.122 0.146,-0.05 0.17,-0.074 0.355,0.074 0.916,0.202 0.562,0.122 1.062,0.299 0.5,0.17 0.647,0.397 0.055,0.097 0.068,0.189 0.012,0.085 0.012,0.158 0,0.178 -0.14,0.605 -0.135,0.42 -0.336,0.787 -0.202,0.36 -0.428,0.433 l 0.025,0.025 0.103,0.177 0.05,0.152 q 0,0.074 -0.037,0.165 -0.037,0.086 -0.14,0.11 l -0.025,0.025 q 0,0.024 -0.024,0.048 -0.025,0.025 -0.025,0.074 0,0.079 -0.024,0.103 h 0.024 v 0.098 q 0,0.153 -0.153,0.226 -0.024,0.122 -0.164,0.44 -0.134,0.31 -0.208,0.384 l -0.103,0.152 q 0.03,0.025 0.03,0.05 0,0.072 -0.055,0.072 l -0.049,0.05 q -0.024,0.079 -0.122,0.176 -0.024,0.05 -0.067,0.086 -0.037,0.036 -0.061,0.091 -0.146,0.171 -0.098,0.373 h -0.024 q 0,0.048 -0.049,0.103 l -0.128,0.226 q -0.073,0.122 -0.201,0.147 -0.025,0.097 -0.05,0.213 -0.024,0.11 -0.048,0.159 -0.025,0.055 -0.049,0.116 -0.024,0.061 -0.049,0.11 l -0.104,0.25 q -0.122,0.3 -0.225,0.617 -0.098,0.31 -0.196,0.659 h 0.074 q 0,0.024 0.024,0.024 0.122,0 0.22,-0.159 0.103,-0.164 0.055,-0.317 0.122,-0.049 0.177,-0.122 0.122,-0.128 0.195,-0.128 0.128,-0.122 0.201,-0.171 l 0.177,-0.177 q 0.373,-0.348 0.647,-0.8 0.129,-0.201 0.287,-0.409 0.165,-0.213 0.342,-0.39 0.201,-0.25 0.409,-0.5 0.214,-0.251 0.39,-0.526 0.178,-0.274 0.36,-0.525 0.19,-0.25 0.391,-0.5 l 0.348,-0.409 q 0.177,-0.214 0.3,-0.464 -0.05,-0.049 -0.05,-0.104 0,-0.122 0.25,-0.36 0.25,-0.238 0.587,-0.488 0.341,-0.25 0.653,-0.446 0.31,-0.2 0.433,-0.256 0.08,0 0.33,-0.073 0.274,-0.073 0.323,-0.073 h 0.073 q 0,0.274 -0.012,0.524 -0.012,0.25 -0.085,0.452 -0.074,0.22 -0.165,0.446 -0.086,0.226 -0.19,0.451 -0.17,0.477 -0.372,0.898 l -0.225,0.604 q -0.05,0.146 -0.129,0.299 -0.073,0.146 -0.122,0.275 l -0.097,0.25 q -0.025,0.122 -0.129,0.226 0,0.024 -0.012,0.085 -0.012,0.061 -0.036,0.14 0.073,0 0.152,-0.024 -0.177,0.397 -0.256,0.66 -0.073,0.262 -0.098,0.689 0.305,-0.403 0.641,-0.836 0.336,-0.44 0.44,-0.543 0.274,-0.196 0.573,-0.47 0.3,-0.275 0.574,-0.55 0.147,-0.152 0.3,-0.299 0.152,-0.152 0.274,-0.305 0.128,-0.146 0.262,-0.28 0.14,-0.141 0.263,-0.27 0.103,-0.097 0.189,-0.195 0.085,-0.103 0.159,-0.201 0.128,-0.201 0.33,-0.403 0.146,-0.152 0.274,-0.403 l 0.097,-0.195 q 0.05,-0.104 0.153,-0.201 l 0.17,-0.177 q 0.105,-0.098 0.178,-0.098 0.098,0 0.098,0.122 0,0.33 -0.403,0.818 -0.397,0.482 -0.672,0.812 -0.097,0.097 -0.177,0.213 -0.073,0.11 -0.146,0.232 -0.177,0.25 -0.373,0.452 l -0.604,0.677 q -0.372,0.373 -0.598,0.696 -0.348,0.5 -0.714,1.013 -0.36,0.513 -0.812,0.94 -0.274,0.275 -0.44,0.653 -0.158,0.373 -0.31,0.72 0.024,0.202 -0.025,0.342 -0.049,0.135 -0.323,0.135 -0.25,0 -0.5,-0.037 -0.251,-0.037 -0.373,-0.336 -0.025,-0.055 -0.128,-0.152 -0.074,-0.05 -0.074,-0.153 0,-0.024 0.025,-0.049 v -0.049 l 0.152,-0.073 v -0.024 q -0.03,-0.128 -0.042,-0.25 -0.013,-0.129 -0.013,-0.25 0,-0.25 0.025,-0.489 0.03,-0.238 0.08,-0.488 l 0.097,-0.464 q 0.049,-0.238 0.073,-0.488 0.055,0 0,-0.05 0.055,-0.5 0.25,-1 0.202,-0.5 0.391,-0.983 0.19,-0.488 0.19,-0.94 v -0.103 q -0.08,0.177 -0.202,0.305 -0.049,0.097 -0.104,0.177 -0.049,0.073 -0.122,0.146 l -0.073,0.049 q -0.128,0.098 -0.177,0.324 -0.025,0.103 -0.08,0.189 -0.048,0.085 -0.097,0.189 -0.025,0.049 -0.171,0.201 l -0.08,0.05 q -0.073,0.048 -0.122,0.121 -0.048,0.073 -0.103,0.128 -0.147,0.3 -0.373,0.525 -0.122,0.122 -0.238,0.263 -0.11,0.134 -0.238,0.262 l -0.097,0.147 q -0.104,0.103 -0.129,0.177 l -0.299,0.525 q -0.048,0.097 -0.128,0.177 l -0.122,0.122 q -0.17,0.128 -0.274,0.299 -0.348,0.476 -0.599,0.927 -0.152,0.25 -0.341,0.464 -0.184,0.208 -0.385,0.41 -0.098,0.103 -0.177,0.176 -0.073,0.074 -0.122,0.147 -0.049,0.08 -0.128,0.152 l -0.122,0.122 -0.476,0.477 q -0.397,0.33 -0.727,0.402 -0.323,0.025 -0.824,0.147 z m 3.076,-4.895 h 0.025 q 0.073,-0.08 0.098,-0.128 l 0.024,-0.025 -0.049,-0.097 q -0.024,0.073 -0.049,0.134 -0.024,0.06 -0.049,0.116 m 4.273,1.599 q 0.049,-0.049 0.085,-0.11 0.037,-0.067 0.092,-0.14 -0.024,0 -0.128,0.048 l -0.05,0.104 q -0.023,0.05 0,0.098 m 4.676,10.296 q -0.275,0 -0.44,-0.177 -0.165,-0.17 -0.213,-0.42 0.103,-0.202 0.103,-0.599 v -0.366 q 0,-0.159 0.025,-0.287 0,-0.348 0.049,-0.702 0.048,-0.348 0.225,-0.55 0.074,-0.072 0.123,-0.298 l 0.024,-0.202 q 0.03,-0.024 0.03,-0.073 l 0.05,-0.146 q 0,-0.129 0.011,-0.257 0.013,-0.122 0.037,-0.22 0.073,-0.2 0.025,-0.475 0.024,-0.074 0.073,-0.275 l 0.152,-0.427 0.05,-0.19 q 0.024,-0.085 0.048,-0.183 0.08,-0.177 0.024,-0.226 l 0.226,-0.225 q 0,-0.025 -0.024,-0.025 v -0.049 l -0.025,-0.048 v -0.08 q 0.025,0 0.05,-0.024 0.024,-0.025 0.103,-0.025 h 0.073 l 0.025,-0.073 v -0.049 q -0.153,0 -0.153,-0.226 l 0.025,-0.024 q 0.055,-0.08 0.103,-0.08 0.05,-0.072 0.098,-0.298 0.049,-0.196 0.226,-0.196 V 18.25 q 0.049,-0.501 0.342,-0.995 0.286,-0.5 0.482,-0.904 0,-0.024 0.024,-0.024 v -0.073 l 0.128,-0.275 0.147,0.024 0.128,-0.201 -0.073,-0.073 q 0.17,-0.153 0.28,-0.348 0.117,-0.202 0.245,-0.452 l 0.225,-0.58 q 0.05,-0.122 0.098,-0.268 L 62.3,13.776 q 0.201,-0.574 0.415,-1.087 0.214,-0.513 0.513,-0.714 0.122,-0.17 0.207,-0.36 0.092,-0.19 0.14,-0.366 l 0.226,-0.745 q 0.025,-0.055 0.05,-0.128 L 63.899,10.223 64.027,9.9 64.052,9.924 64.1,9.827 64.204,9.753 q 0.049,-0.152 0.147,-0.287 0.103,-0.14 0.201,-0.262 L 64.528,9.149 q 0.146,-0.146 0.146,-0.299 0,-0.024 -0.024,-0.024 -0.025,0.024 -0.05,0 h -0.048 q -0.153,0 -0.153,-0.098 0,-0.049 0.177,-0.3 l 0.123,-0.213 q 0.054,-0.091 0.079,-0.14 0,-0.147 0.201,-0.202 0.122,-0.22 0.281,-0.445 0.165,-0.226 0.342,-0.427 0.177,-0.25 0.311,-0.446 0.14,-0.201 0.19,-0.354 H 66.2 L 66.176,6.103 q 0,-0.079 0.073,-0.152 h 0.262 q 0.14,0 0.263,0.024 Q 66.902,6 67.012,6 h 0.238 q 0.299,0.104 0.714,0.39 0.415,0.286 0.415,0.635 -0.128,0.104 -0.232,0.232 -0.098,0.122 -0.17,0.244 -0.099,0.128 -0.202,0.25 -0.098,0.122 -0.226,0.25 v 0.3 h -0.098 q -0.049,0.024 -0.122,0.024 l -0.08,0.037 -0.024,0.012 v 0.012 q 0,0.012 0.025,0.043 l 0.024,0.049 q 0,0.073 0.025,0.122 h -0.098 q -0.147,0.128 -0.263,0.293 -0.11,0.158 -0.238,0.36 h 0.025 l -0.11,0.11 q -0.061,0.06 -0.037,0.164 l -0.524,0.623 0.024,0.128 -0.024,0.196 q -0.33,0.079 -0.525,0.525 -0.104,0.152 -0.177,0.451 -0.025,0.128 -0.092,0.28 -0.061,0.147 -0.11,0.324 v -0.079 q -0.024,0.025 -0.024,0.104 -0.025,0.024 -0.025,0.049 0,0.024 -0.024,0.048 -0.025,0.05 -0.025,0.116 0,0.062 -0.024,0.11 -0.049,0.122 -0.226,0.348 v -0.17 l -0.049,-0.031 -0.225,0.378 -0.25,0.372 -0.074,0.177 q -0.03,0.05 -0.055,0.104 L 64.1,13.678 h -0.049 l 0.05,0.049 q -0.074,0.073 -0.123,0.348 -0.049,0.25 -0.226,0.274 v 0.153 l -0.152,0.275 0.08,0.073 -0.404,0.201 -0.024,-0.049 -0.226,0.3 q -0.177,0.2 -0.177,0.347 0,0.104 -0.122,0.153 -0.153,0.049 -0.098,0.177 l -0.103,0.073 0.073,0.25 -0.22,0.098 q -0.055,0.153 -0.055,0.226 l 0.104,-0.073 0.049,0.201 q 0,0.025 0.024,0.025 v 0.073 q 0,0.152 -0.097,0.274 l -0.055,0.05 q -0.05,0.103 -0.05,0.25 l -0.097,-0.05 q 0,0.025 -0.049,0.074 l -0.024,0.024 q 0.024,0.025 0.024,0.08 v 0.049 q -0.024,0.024 -0.024,0.048 l -0.08,0.074 h 0.055 l -0.427,0.653 0.05,0.146 h -0.074 l -0.049,0.128 h 0.122 l 0.098,-0.146 q 0.055,-0.08 0.103,-0.128 v -0.104 l 0.05,-0.049 0.225,-0.397 h 0.049 l 0.598,-1.074 -0.024,-0.055 q 0.049,-0.049 0.17,-0.195 l 0.257,-0.305 q 0.049,-0.074 0.11,-0.147 l 0.116,-0.128 q 0.073,-0.122 0.073,-0.17 l 0.873,-1.276 v -0.104 l -0.049,-0.073 0.049,0.048 v -0.048 l 0.08,0.103 0.25,-0.451 h 0.024 v -0.025 q 0,-0.08 0.122,-0.177 0.128,-0.097 0.226,-0.152 0,-0.05 -0.073,-0.074 l 0.347,-0.451 0.074,-0.025 q 0.055,0 0.262,-0.299 0.214,-0.299 0.318,-0.397 L 65.999,12.25 q 0.128,-0.122 0.238,-0.244 0.115,-0.129 0.213,-0.232 0.128,-0.122 0.214,-0.245 0.085,-0.128 0.189,-0.25 v -0.103 l 0.098,0.048 q 0.128,-0.299 0.378,-0.47 l 0.049,0.025 v -0.025 l 0.073,-0.128 q 0.049,-0.177 0.177,-0.177 h 0.049 l 0.177,-0.146 v -0.05 q 0,-0.103 0.146,-0.103 h 0.025 q 0.049,0 0.177,-0.122 l 0.049,-0.08 Q 68.3,9.875 68.361,9.802 68.428,9.729 68.525,9.729 68.599,9.625 68.696,9.527 68.8,9.424 68.928,9.375 l 0.324,0.104 q -0.275,0.195 -0.5,0.384 -0.227,0.19 -0.428,0.415 -0.025,0.025 -0.122,0.073 -0.098,0.025 -0.153,0.074 L 68,10.474 q -0.024,0.079 -0.097,0.152 l 0.024,0.098 h -0.152 l -0.196,0.25 h -0.03 q -0.25,0.33 -0.574,0.653 -0.323,0.3 -0.55,0.702 h -0.073 q -0.176,0.25 -0.366,0.513 -0.183,0.262 -0.384,0.506 -0.403,0.476 -0.75,1.056 v 0.025 l -1.698,2.447 q -0.055,0.098 -0.103,0.202 -0.05,0.097 -0.098,0.225 l -0.104,0.025 0.025,0.024 q 0,0.147 -0.05,0.238 -0.048,0.086 -0.146,0.214 l -0.152,0.146 q -0.122,0.074 -0.147,0.177 h -0.03 l -0.477,0.898 q -0.323,0.628 -0.695,1.336 -0.373,0.714 -0.678,1.313 -0.274,0.555 -0.598,1.239 -0.323,0.69 -0.561,1.275 -0.238,0.586 -0.238,0.86 0,0.129 0.122,0.33 l 0.152,0.147 0.153,0.104 q 0,0.073 -0.08,0.073 -0.225,0.097 -0.396,0.097 m 6.897,-8.172 q -0.226,0 -0.452,-0.372 -0.22,-0.379 -0.22,-0.556 0,-0.098 0.05,-0.299 0.048,-0.201 0.097,-0.275 v 0.025 q 0.049,-0.049 0.08,-0.122 0.024,-0.08 0.072,-0.025 l 0.05,-0.103 h 0.024 q 0.048,0 0.085,-0.037 0.043,-0.037 0.067,-0.061 h 0.025 q 0.049,-0.049 0.049,-0.098 -0.025,-0.03 0.048,-0.079 h 0.025 l 0.25,-0.226 -0.024,-0.024 h 0.073 V 15.35 l 0.055,-0.073 0.049,0.024 v -0.024 l 0.2,-0.201 V 15.1 l 0.025,-0.024 h 0.05 v -0.05 l 0.024,0.025 0.024,-0.097 H 66.7 q 0.074,-0.104 0.147,-0.19 l 0.177,-0.189 0.33,-0.323 0.048,0.122 h 0.025 l 0.049,-0.05 q 0,-0.023 -0.05,-0.072 0.074,-0.074 0.074,-0.128 l 0.08,-0.074 0.195,-0.073 v 0.024 l 0.024,0.025 q 0,-0.049 0.037,-0.147 0.042,-0.103 0.091,-0.103 0.05,0 0.05,0.048 l 0.072,-0.097 q 0.055,-0.05 0.025,-0.073 0.03,0 0.067,-0.025 0.037,-0.03 0.012,-0.055 l 0.098,0.104 q 0.049,-0.049 0.073,-0.086 0.03,-0.042 0.055,-0.067 l 0.024,0.129 0.025,0.024 v -0.153 l 0.073,-0.049 -0.049,-0.152 q 0.049,0 0.049,-0.049 0,-0.024 0.049,-0.024 0.049,0 0.104,0.048 l 0.073,0.08 v 0.049 h 0.049 q -0.147,0.097 -0.177,0.201 -0.025,0.098 -0.171,0.195 h -0.104 l -0.275,0.226 h -0.024 v 0.05 l -0.3,0.378 q -0.146,0.2 -0.396,0.2 l 0.025,0.025 v 0.025 q -0.025,0.024 -0.025,0.049 v 0.048 q -0.03,0 -0.08,-0.048 v 0.024 l -0.475,0.5 -0.05,-0.024 -0.17,0.122 0.024,0.024 -0.225,0.226 0.048,0.08 -0.177,0.097 v 0.098 q -0.024,0.024 -0.024,0.08 -0.122,0.097 -0.214,0.225 -0.085,0.122 -0.134,0.244 l 0.098,0.055 q 0.024,0.025 0.104,0.025 0.024,0 0.024,-0.05 0.024,-0.03 0.073,-0.054 0.049,-0.025 0.128,-0.073 0.122,-0.074 0.147,-0.074 V 16.4 l 0.177,-0.073 -0.05,-0.073 h 0.123 q 0.049,0.024 0.128,0.024 0.049,0 0.098,-0.049 0,-0.055 0.024,-0.08 v -0.048 l 0.25,-0.098 v -0.024 l 0.275,-0.305 h 0.025 l -0.025,-0.049 h 0.128 l 0.122,-0.147 v -0.024 l 0.05,0.024 v -0.054 q 0.127,-0.05 0.127,-0.147 0,-0.049 -0.024,-0.073 0.049,-0.055 0.146,-0.153 0.104,-0.097 0.202,-0.226 0.201,-0.225 0.397,-0.225 0,-0.098 0.079,-0.122 v -0.025 q 0,-0.08 0.159,-0.342 0.165,-0.262 0.348,-0.512 0.189,-0.25 0.268,-0.324 v 0.024 l 0.049,-0.122 0.024,0.025 0.177,-0.202 -0.024,-0.146 0.024,-0.055 q 0,-0.049 0.122,-0.061 0.129,-0.012 0.177,-0.012 l -0.024,-0.074 q -0.128,0 -0.226,-0.103 0.025,-0.025 0.147,-0.025 0.128,-0.146 0.152,-0.323 h 0.025 q 0.128,-0.202 0.201,-0.476 0.049,-0.275 0.226,-0.446 l -0.049,-0.08 q 0.049,-0.121 0.122,-0.25 0.025,0 0.025,-0.024 0,-0.049 0.024,-0.049 v -0.048 q 0,-0.129 -0.024,-0.177 -0.025,-0.05 -0.025,-0.147 0,-0.5 -0.06,-0.848 -0.062,-0.354 -0.617,-0.354 h -0.147 q -0.073,0 -0.152,0.024 l -0.324,0.073 h -0.024 q -0.073,0 -0.098,-0.024 V 9.277 q 0,-0.073 0.122,-0.073 h 0.177 v -0.08 l 0.025,0.025 0.177,-0.122 h 0.122 q 0.024,0 0.048,-0.024 l 0.153,-0.074 0.147,0.025 0.079,-0.025 v 0.025 q 0,-0.025 0.097,-0.025 0.098,0 0.05,-0.054 0.127,0.024 0.225,0.054 0.098,0.025 0.153,0.05 l 0.024,-0.05 0.196,0.171 q 0.03,0.025 0.03,-0.024 V 9.027 h 0.024 q 0.226,0.3 0.55,0.476 0.323,0.171 0.372,0.623 0.024,0.128 0.024,0.256 v 0.744 q 0,0.825 -0.201,1.35 -0.195,0.524 -0.696,1.178 -0.049,0.073 -0.323,0.439 -0.275,0.36 -0.58,0.696 -0.3,0.336 -0.421,0.336 l 0.049,0.079 q -0.122,0.073 -0.3,0.323 -0.176,0.226 -0.298,0.275 v 0.122 l -0.477,0.354 -0.048,-0.049 -0.275,0.195 v 0.025 q 0.024,0.024 0.073,0.024 0.025,0 0.025,0.055 v 0.025 l -0.25,0.073 v 0.024 l -0.153,0.153 0.03,0.073 -0.28,-0.097 0.03,0.25 -0.305,0.097 v 0.05 q -0.3,0.127 -0.397,0.225 -0.152,0 -0.201,0.025 l -0.202,0.073 -0.024,-0.025 v 0.025 h -0.25 l -0.05,0.104 h -0.347 q -0.049,0.024 -0.128,0.024 m -5,2.3 q 0.227,-0.353 0.477,-0.774 0.122,-0.25 0.275,-0.476 l -0.226,0.122 q -0.025,0.08 -0.073,0.201 -0.05,0.128 -0.104,0.177 -0.122,0 -0.171,-0.152 l -0.024,0.25 0.073,0.08 q 0,0.194 -0.073,0.323 -0.129,0.122 -0.153,0.25 M 73.302,14.93 q -0.201,0.098 -0.317,-0.024 -0.11,-0.128 -0.006,-0.257 0.122,-0.122 0.146,-0.22 0.025,-0.103 0.025,-0.225 v -0.202 q 0,-0.177 0.03,-0.201 l 0.147,-0.146 Q 73.351,13.6 73.48,13.551 l 0.121,-0.348 q -0.177,-0.202 0.05,-0.427 l 0.024,-0.025 v -0.024 l 0.055,-0.074 0.146,-0.25 0.025,-0.049 h 0.055 q -0.055,-0.128 0.073,-0.274 0.049,-0.128 0.146,-0.25 0.104,-0.129 0.202,-0.275 0.25,-0.275 0.274,-0.5 0.05,-0.202 0.226,-0.355 -0.024,0 -0.024,-0.048 0,-0.025 -0.025,-0.025 0,-0.024 0.025,-0.049 v -0.024 q 0.049,-0.049 0.17,-0.263 0.129,-0.213 0.257,-0.439 l 0.098,-0.146 q 0.049,-0.08 0.097,-0.178 L 75.604,9.303 74.926,9.077 Q 74.426,8.9 74.047,8.589 73.675,8.277 73.675,7.679 q 0,-0.274 0.165,-0.476 0.164,-0.201 0.335,-0.348 0.104,-0.104 0.104,-0.128 0.201,-0.25 0.397,-0.134 0.201,0.11 0,0.311 l -0.147,0.195 q -0.103,0.153 -0.201,0.293 -0.098,0.135 -0.098,0.336 0,0.25 0.36,0.44 0.36,0.183 0.8,0.286 0.44,0.098 0.61,0.098 1.026,-1.349 2.027,-2.673 1,-1.325 2.001,-2.674 0.098,-0.104 0.098,-0.354 l 0.928,-0.976 q 0.098,0.055 0.183,0.08 l 0.19,0.048 q 0.103,0.024 0.188,0.049 0.086,0.024 0.19,0.049 0.195,0.048 0.372,0.128 0.177,0.073 0.323,0.25 0.275,0.275 0.275,0.671 0,0.428 -0.348,0.727 Q 82.055,4.176 81.78,4.45 L 81.585,4.603 Q 81.5,4.676 81.402,4.78 81.2,4.975 80.95,4.975 v -0.17 h 0.08 L 81.237,4.53 Q 81.353,4.377 81.451,4.255 81.701,3.981 81.829,3.7 81.725,3.804 81.639,3.877 81.554,3.95 81.451,4.029 81.353,4.102 81.261,4.194 L 81.078,4.377 Q 80.95,4.554 80.675,4.865 80.401,5.177 80.077,5.525 79.803,5.879 79.516,6.153 L 79.101,6.55 79.076,6.574 79.18,6.678 78.85,6.8 78.875,6.825 q 0,0.201 -0.128,0.28 -0.122,0.074 -0.244,0.074 -0.05,0.146 -0.14,0.262 -0.086,0.11 -0.288,0.19 0.025,0.024 0.025,0.073 0,0.024 0.03,0.048 0,0.025 0.025,0.05 H 78.1 V 7.85 h -0.122 q -0.025,0 -0.05,0.104 l 0.074,0.122 Q 78.027,8.1 78.027,8.18 78.374,7.801 78.698,7.429 L 79.375,6.654 80.73,5.152 h 0.05 q 0,0.025 0.024,0.025 0,0.024 0.024,0.024 0,0.177 -0.275,0.556 -0.274,0.372 -0.677,0.811 -0.397,0.434 -0.763,0.837 -0.36,0.396 -0.561,0.622 -0.074,0.073 -0.177,0.226 -0.074,0.073 -0.171,0.226 h 0.225 q 0.324,0 0.586,-0.037 0.263,-0.043 0.537,-0.091 0.123,-0.025 0.245,-0.061 0.128,-0.037 0.256,-0.061 l 0.244,-0.05 q 0.128,-0.024 0.256,-0.054 0.3,-0.05 0.8,-0.159 0.5,-0.116 0.726,-0.287 0.647,-0.201 1.276,-0.299 l 0.024,-0.012 q 0.025,-0.018 0.074,-0.043 0.048,0 0.073,-0.024 0.049,-0.073 0.128,-0.073 L 83.855,7.154 84.051,7.099 V 7.075 Q 84.405,7.002 84.728,6.867 85.052,6.727 85.4,6.574 85.73,6.452 86.04,6.342 86.352,6.226 86.675,6.226 l 0.08,-0.146 q 0.299,-0.305 0.671,-0.305 v 0.08 q 0.104,0.097 0.104,0.225 0,0.073 -0.055,0.073 -0.22,0.226 -0.495,0.25 l 0.037,0.074 q 0.012,0.024 0.012,0.049 0,0.079 -0.08,0.079 -0.097,0.073 -0.25,0.073 -0.121,0 -0.121,-0.152 l 0.073,-0.05 q -0.147,0 -0.202,-0.048 -0.17,0.452 -0.573,0.452 L 85.826,7.075 85.552,7.002 Q 85.43,7.13 85.302,7.13 L 85.217,7.343 Q 85.18,7.429 85.027,7.429 85.052,7.405 85.052,7.349 85.027,7.325 85.027,7.301 84.85,7.502 84.612,7.655 84.38,7.801 84.051,7.801 l -0.025,-0.17 h -0.024 q 0.024,0.024 0.024,0.121 0,0.098 -0.085,0.153 -0.086,0.049 -0.14,0.049 -0.025,0 -0.025,-0.025 h -0.049 q -0.122,0.098 -0.226,0.098 -0.048,0 -0.073,-0.024 h -0.073 q -0.128,0.097 -0.232,0.11 -0.098,0.012 -0.293,0.042 -0.33,0.05 -0.69,0.177 -0.36,0.122 -0.69,0.244 -0.024,0.025 -0.121,0.025 -0.05,0 -0.05,0.024 -0.774,0.403 -1.574,0.428 -0.855,0.073 -1.654,0.225 -0.073,0.025 -0.153,0.037 -0.073,0.012 -0.17,0.012 -0.097,0 -0.177,0.012 -0.074,0.012 -0.147,0.037 -0.153,0.024 -0.378,0.238 -0.226,0.214 -0.428,0.464 -0.195,0.25 -0.293,0.397 -0.103,0.103 -0.232,0.22 -0.122,0.11 -0.244,0.207 -0.25,0.177 -0.451,0.452 -0.05,0.048 -0.129,0.128 -0.073,0.073 -0.122,0.17 -0.122,0.226 -0.299,0.25 0.05,0.123 -0.049,0.178 l -0.054,0.049 q -0.22,0.225 -0.22,0.524 -0.08,0.074 -0.128,0.202 l -0.025,0.098 -0.073,0.097 q -0.128,0.177 -0.244,0.415 -0.11,0.238 -0.232,0.513 -0.128,0.275 -0.256,0.513 -0.123,0.238 -0.245,0.44 m -0.775,6.745 q -0.177,0 -0.39,-0.074 -0.208,-0.073 -0.336,-0.201 -0.122,-0.147 -0.36,-0.537 -0.238,-0.385 -0.238,-0.586 0,-0.476 0.049,-0.928 0.049,-0.446 0.152,-0.922 0.147,-0.122 0.171,-0.299 0.024,-0.177 0.055,-0.354 0.195,-0.195 0.22,-0.494 0.03,-0.305 0.305,-0.305 l 0.049,-0.049 q 0.024,-0.024 -0.025,-0.122 -0.055,-0.128 -0.079,-0.214 -0.024,-0.086 0.055,-0.213 0.024,-0.05 0.049,-0.11 0.024,-0.067 0.049,-0.092 0.024,-0.024 0.073,-0.17 0.08,-0.275 0.14,-0.489 0.06,-0.214 0.263,-0.44 0.122,-0.097 0.22,-0.012 0.103,0.086 0.079,0.214 0,0.146 -0.073,0.3 h 0.195 q -0.098,0.475 -0.226,0.951 l -0.244,0.946 q -0.305,0.928 -0.305,1.905 0,0.872 0.354,1.623 l 0.348,-0.201 0.128,-0.226 v 0.275 l 0.049,0.128 q 0.048,-0.128 0.146,-0.226 0.104,-0.098 0.305,-0.098 l 0.025,0.171 q 0,0.073 -0.025,0.104 -0.152,0.323 -0.482,0.53 -0.323,0.215 -0.696,0.215 m 4.828,5.474 q -0.177,0 -0.378,-0.22 -0.147,-0.225 -0.3,-0.427 -0.176,-0.25 -0.176,-0.525 1.428,-2.1 3.137,-3.973 1.715,-1.874 3.589,-3.528 l 1.287,-2.612 1.288,-2.588 -0.598,0.702 q -0.299,0.372 -0.629,0.702 -0.097,0.073 -0.225,0.19 -0.122,0.109 -0.25,0.231 l -0.397,0.452 q -0.098,0.097 -0.177,0.225 l -0.147,0.25 q -0.08,0.123 -0.274,0.275 -0.104,0.074 -0.202,0.153 l -0.226,0.17 q -0.097,0.099 -0.213,0.178 -0.11,0.073 -0.214,0.146 -0.098,0.104 -0.201,0.165 -0.098,0.061 -0.147,0.11 -0.097,0.104 -0.213,0.19 -0.11,0.085 -0.239,0.213 -0.25,0.25 -0.549,0.25 -0.451,0 -0.665,-0.488 -0.208,-0.488 -0.208,-0.885 0,-0.58 0.226,-1.13 l 0.196,-0.549 q 0.103,-0.274 0.201,-0.549 l 1.05,-2.801 q 0.128,-0.275 0.262,-0.574 0.14,-0.3 0.287,-0.598 0.305,-0.574 0.305,-1.227 0,-0.073 0.025,-0.122 0,-0.025 -0.055,-0.08 -0.122,0.129 -0.287,0.245 -0.159,0.11 -0.336,0.207 -0.323,0.177 -0.598,0.5 -0.653,0.776 -1.178,1.612 -0.525,0.836 -1.025,1.69 -0.05,0.098 -0.165,0.226 -0.11,0.122 -0.232,0.122 -0.153,0 -0.153,-0.177 0,-0.274 0.3,-0.708 0.299,-0.439 0.402,-0.762 0.122,-0.275 0.275,-0.403 0.073,-0.05 0.134,-0.134 0.067,-0.092 0.116,-0.19 0.25,-0.525 0.75,-1.184 0.501,-0.665 1.136,-1.153 0.641,-0.489 1.215,-0.489 0.574,0 0.848,0.403 0.275,0.397 0.275,0.897 0,0.5 -0.128,1.014 -0.122,0.512 -0.269,0.964 0.049,0.049 0.049,0.195 0,0.25 -0.153,0.452 -0.17,0.201 -0.201,0.427 -0.098,0.525 -0.25,0.787 -0.147,0.263 -0.397,0.684 0.049,0.128 -0.153,0.556 -0.195,0.42 -0.274,0.598 -0.074,0.17 -0.122,0.323 L 82,15.902 v 0.128 q -0.025,0.049 -0.025,0.122 0.08,-0.049 0.14,-0.098 0.062,-0.049 0.086,-0.073 0.074,-0.08 0.159,-0.128 0.091,-0.049 0.195,-0.098 0.025,-0.024 0.05,-0.024 0.023,0 0.048,-0.025 0.024,-0.25 0.275,-0.25 0.048,-0.03 0.097,-0.067 0.055,-0.037 0.104,-0.061 0.098,-0.098 0.147,-0.122 0.103,-0.25 0.274,-0.354 0.08,-0.049 0.165,-0.11 0.085,-0.061 0.19,-0.116 l 0.823,-0.848 q 0.098,-0.122 0.159,-0.232 0.067,-0.116 0.091,-0.196 0.05,-0.122 0.422,-0.323 l 0.128,-0.171 v -0.177 q 0,-0.128 0.024,-0.226 0.025,-0.098 0.153,-0.153 0.146,-0.073 0.195,-0.274 0.055,-0.22 0.128,-0.3 l 0.452,-0.597 q 0.049,-0.128 0.073,-0.153 L 86.7,10.83 v -0.025 q 0,-0.049 -0.025,-0.08 -0.049,-0.048 -0.049,-0.097 0,-0.073 0.074,-0.073 l 0.103,-0.08 q 0.275,0.031 0.635,0.117 0.366,0.085 0.366,0.463 0,0.05 -0.012,0.153 -0.012,0.098 -0.037,0.22 -0.03,0.824 -0.354,1.648 -0.177,0.402 -0.329,0.805 -0.147,0.397 -0.293,0.824 l -0.256,0.751 q -0.123,0.372 -0.245,0.775 0.55,-0.476 1.148,-0.848 0.604,-0.379 1.251,-0.702 0.202,-0.153 0.403,-0.153 0.098,0 0.098,0.098 0,0.08 -0.202,0.201 l -0.274,0.202 q -0.574,0.323 -1.087,0.702 -0.513,0.372 -1.013,0.8 -0.177,0.121 -0.354,0.274 -0.171,0.146 -0.318,0.299 -0.128,0.122 -0.225,0.324 -0.104,0.225 -0.226,0.402 -0.049,0.074 -0.104,0.153 -0.049,0.073 -0.073,0.17 -0.025,0.178 -0.147,0.373 -0.103,0.177 -0.195,0.33 -0.085,0.146 -0.159,0.323 -0.097,0.147 -0.177,0.3 -0.073,0.152 -0.17,0.323 -0.05,0.049 -0.129,0.146 -0.073,0.104 -0.146,0.257 -0.104,0.122 -0.153,0.232 -0.049,0.116 -0.097,0.164 -0.153,0.275 -0.318,0.476 -0.159,0.202 -0.256,0.202 h -0.08 q 0,-0.073 0.055,-0.177 0.025,-0.049 0.05,-0.11 0.024,-0.061 0.048,-0.116 0.201,-0.323 0.488,-0.8 0.287,-0.476 0.287,-0.671 0,-0.049 -0.049,-0.049 l -0.201,0.3 q -0.201,0.121 -0.275,0.323 l -0.225,0.372 -0.898,1.428 q 0.025,0.025 0.025,0.073 0,0.074 -0.025,0.104 -0.03,0.025 -0.03,0.05 0,0.023 -0.025,0.048 l -0.049,0.049 q -0.097,0.097 -0.097,0.274 v 0.025 q 0.024,0.024 0.024,0.049 0,0.103 -0.103,0.128 l -0.147,0.049 -0.049,0.024 q -0.049,0.153 -0.177,0.275 -0.049,0.128 -0.189,0.348 -0.134,0.226 -0.287,0.201 -0.25,0.305 -0.476,0.653 -0.22,0.348 -0.372,0.727 0,0.024 0.024,0.048 v 0.05 q 0,0.097 -0.122,0.097 H 80.4 l -0.072,-0.025 -0.025,-0.024 q -0.024,0 -0.049,-0.025 -0.049,0.275 -0.274,0.379 -0.08,0.146 -0.202,0.195 -0.097,0.025 -0.25,0.177 h -0.024 q -0.05,0.098 -0.177,0.196 -0.123,0.103 -0.226,0.128 l -0.025,0.024 h -0.049 l -0.048,0.025 q -0.074,0.128 -0.238,0.225 -0.165,0.104 -0.287,0.153 -0.073,0.122 -0.287,0.336 -0.214,0.213 -0.342,0.213 h -0.098 q -0.201,0.122 -0.372,0.122 m 0.275,-1.172 q 0.146,-0.048 0.293,-0.103 0.152,-0.05 0.28,-0.171 0.226,-0.202 0.672,-0.69 0.451,-0.488 0.952,-1.086 0.501,-0.598 0.903,-1.075 l 0.757,-1.037 q 0.415,-0.562 0.739,-1.074 0.33,-0.513 0.378,-0.788 -0.378,0.373 -0.726,0.733 -0.348,0.366 -0.727,0.714 -0.775,0.75 -1.501,1.575 -0.421,0.5 -0.8,1.025 -0.372,0.525 -0.72,1.05 -0.152,0.226 -0.305,0.427 -0.195,0.226 -0.22,0.476 0.025,0 0.025,0.024 M 20.827,54.751 q -0.348,0 -0.598,-0.336 -0.25,-0.335 -0.25,-0.665 0,-0.098 0.012,-0.183 0.012,-0.092 0.037,-0.19 0.049,-0.097 0.073,-0.182 l 0.049,-0.19 0.08,-0.451 0.097,-0.403 q 0.073,-0.25 0.226,-0.708 0.146,-0.464 0.311,-0.891 0.165,-0.427 0.214,-0.55 0.25,-0.622 0.646,-1.25 0.178,-0.3 0.336,-0.611 0.165,-0.311 0.318,-0.641 0.048,-0.122 0.134,-0.256 0.091,-0.14 0.19,-0.269 0.097,-0.122 0.17,-0.244 0.08,-0.128 0.177,-0.256 l 0.043,-0.074 q 0.012,-0.024 0.012,-0.049 v -0.024 q 0,0.025 0.024,0.025 0.05,-0.324 0.184,-0.574 0.14,-0.25 0.317,-0.476 0.195,-0.3 0.409,-0.562 l 0.336,-0.415 q 0.2,-0.275 0.237,-0.8 0.043,-0.524 0.19,-0.726 l 0.378,-0.372 0.348,-0.379 q 0.098,-0.097 0.17,-0.207 0.08,-0.116 0.153,-0.214 0.104,-0.225 0.275,-0.427 0.177,-0.201 0.348,-0.384 0.177,-0.19 0.354,-0.367 0.098,-0.122 0.183,-0.231 0.092,-0.117 0.165,-0.239 0.08,-0.128 0.165,-0.238 0.085,-0.116 0.189,-0.213 0.348,-0.428 0.745,-0.788 0.402,-0.366 0.83,-0.738 l 0.409,-0.372 q 0.213,-0.202 0.44,-0.403 0.45,-0.452 0.92,-0.623 l 0.58,-0.226 q 0.123,-0.055 0.257,-0.103 0.14,-0.05 0.268,-0.147 0.171,0.073 0.507,0.238 0.342,0.159 0.617,0.372 0.274,0.214 0.274,0.44 0,0.098 -0.073,0.226 -0.104,0.17 -0.568,0.36 -0.457,0.19 -0.659,0.311 -0.299,0.177 -0.525,0.452 -0.122,0.122 -0.274,0.226 -0.153,0.097 -0.324,0.201 h -0.049 q -0.152,0.146 -0.451,0.323 l -0.5,0.275 q -0.099,0.049 -0.141,0.086 l -0.061,0.06 q -0.025,0.031 -0.05,0.092 -0.024,0.061 -0.072,0.159 0,0.03 -0.025,0.03 -0.03,0 -0.03,0.025 l -0.074,0.049 -0.024,0.024 0.153,-0.024 0.024,0.122 q 0,0.08 -0.08,0.08 -0.17,0.17 -0.335,0.31 -0.159,0.135 -0.336,0.312 l -0.677,0.677 q -0.171,0.171 -0.275,0.397 -0.146,0.25 -0.372,0.299 v 0.024 q 0,0.25 -0.379,0.592 -0.372,0.336 -0.647,0.61 -0.152,0.098 -0.201,0.227 h -0.024 v 0.024 q 0,0.201 -0.226,0.488 -0.226,0.287 -0.5,0.287 v -0.378 l 0.072,-0.05 q 0.104,-0.023 0.129,-0.097 h 0.152 l 0.025,-0.024 h -0.025 q 0.3,-0.5 0.232,-0.55 -0.06,-0.054 -0.323,0.208 -0.263,0.263 -0.598,0.714 -0.336,0.452 -0.586,0.952 -0.025,0.3 -0.33,0.598 -0.25,0.3 -0.445,0.599 v 0.03 q -0.178,0.324 -0.355,0.61 -0.17,0.287 -0.347,0.562 -0.177,0.275 -0.33,0.537 -0.147,0.263 -0.269,0.537 -0.274,0.525 -0.512,1.117 -0.238,0.586 -0.489,1.337 l -0.451,1.422 q -0.098,0.348 -0.19,0.739 -0.085,0.384 -0.11,0.787 0.025,-0.049 0.062,-0.086 0.036,-0.042 0.06,-0.091 l 0.153,-0.226 q 0.123,-0.195 0.245,-0.409 0.128,-0.214 0.256,-0.44 0.122,-0.2 0.275,-0.396 0.152,-0.201 0.274,-0.379 0.275,-0.347 0.372,-0.347 0.08,0 0.08,0.073 0,0.097 -0.238,0.55 -0.238,0.45 -0.568,1 -0.323,0.55 -0.61,0.952 -0.287,0.397 -0.385,0.397 m 7.777,-13.948 q 0.098,-0.055 0.183,-0.128 0.092,-0.073 0.165,-0.122 0.153,-0.128 0.153,-0.177 l -0.08,-0.122 q -0.122,0.098 -0.262,0.25 -0.134,0.147 -0.159,0.3 m -0.476,0.275 0.22,-0.11 q 0.128,-0.067 0.256,-0.14 L 28.403,40.78 Z m 0.177,15.924 q -0.5,0 -0.854,-0.299 Q 27.103,56.405 26.804,56.051 26.651,55.904 26.578,55.85 26.45,55.776 26.45,55.575 l 0.128,-0.049 v -0.024 q -0.452,-0.599 -0.55,-1.325 -0.073,-0.372 -0.164,-0.732 -0.086,-0.366 -0.19,-0.69 h 0.055 l -0.024,-0.03 Q 25.65,52.578 25.65,52.45 V 52.2 q 0,-0.3 0.024,-0.373 -0.024,0.025 -0.097,0.025 h -0.025 v -0.049 h -0.048 q 0.024,-0.073 0.024,-0.226 V 51.4 q 0,-0.073 -0.012,-0.409 -0.012,-0.342 -0.049,-0.763 -0.037,-0.427 -0.116,-0.726 -0.073,-0.3 -0.201,-0.3 -0.05,0 -0.275,0.227 l -0.5,0.512 q -0.275,0.287 -0.489,0.525 -0.207,0.238 -0.232,0.287 -0.152,0.147 -0.28,0.263 -0.123,0.11 -0.27,0.213 v -0.226 q 0.074,-0.128 0.147,-0.238 0.074,-0.116 0.129,-0.238 0.048,-0.122 0.122,-0.244 0.073,-0.128 0.152,-0.232 0.074,-0.097 0.147,-0.183 0.08,-0.091 0.177,-0.19 0.073,-0.078 0.146,-0.152 0.08,-0.073 0.128,-0.177 0.177,-0.17 0.3,-0.42 0.128,-0.251 0.298,-0.428 0.202,-0.275 0.61,-0.72 0.416,-0.452 0.69,-0.531 l 0.605,-0.147 h 0.122 q 0.024,0.098 0.073,0.226 0.055,0.122 0.104,0.3 0.098,0.298 0.098,0.524 0,0.427 0.012,0.842 0.012,0.41 0.012,0.83 v 1.93 q 0,0.097 -0.049,0.25 0.025,0.073 0.037,0.134 0.012,0.06 0.012,0.14 H 27.2 v 0.025 l 0.153,-0.05 q 0,0.446 0.012,0.8 0.012,0.348 0.214,0.775 0.073,0.074 0.073,0.147 0,0.049 -0.049,0.049 v 0.055 h -0.152 q -0.025,0 -0.074,0.048 h -0.024 q 0,0.122 0.024,0.147 v 0.153 l 0.202,-0.123 q 0.073,0.672 0.433,1.221 0.366,0.55 1.013,0.55 h 0.104 q 0.025,-0.025 0.073,-0.025 l 0.25,-0.147 q 0.074,-0.054 0.147,-0.115 0.08,-0.062 0.177,-0.11 0.153,-0.129 0.275,-0.281 0.128,-0.147 0.128,-0.519 0.049,0.147 0.073,0.232 0.025,0.092 0.049,0.14 v 0.074 q 0,0.177 -0.104,0.311 -0.097,0.14 -0.195,0.269 -0.3,0.42 -0.726,0.756 -0.422,0.342 -0.97,0.342 m -5.627,-5.377 q -0.098,0 -0.098,-0.098 0,-0.048 0.085,-0.195 0.086,-0.153 0.214,-0.153 0.098,0 0.098,0.171 0,0.275 -0.3,0.275 m 8.5,3.1 q -0.275,0 -0.55,-0.073 -0.402,-0.152 -0.799,-0.824 l 0.195,-0.055 -0.17,-0.122 -0.202,-0.622 h -0.024 q -0.025,-0.08 -0.025,-0.226 v -0.177 q 0,-0.098 0.122,-0.348 0.129,-0.25 0.226,-0.476 l -0.25,0.049 V 51.73 q 0.024,-0.025 0.08,-0.128 0.024,-0.074 0.121,-0.098 0.025,0.024 0.025,0.073 l 0.049,-0.049 V 51.4 q 0,-0.097 0.012,-0.207 0.012,-0.116 0.091,-0.19 0,-0.152 0.025,-0.177 l 0.024,-0.097 h 0.05 v -0.106 l 0.152,-0.195 q 0.122,-0.129 0.146,-0.129 v -0.024 q -0.024,0.024 -0.073,0.024 -0.098,0 -0.098,-0.097 0,-0.025 0.025,-0.049 v -0.128 q 0.024,-0.025 0.024,-0.122 0,-0.104 -0.049,-0.153 l 0.171,-0.201 0.104,0.024 -0.025,-0.024 h 0.05 l 0.024,-0.025 0.073,-0.274 0.128,0.201 0.073,-0.427 0.05,-0.244 0.048,-0.257 0.275,-0.024 v -0.201 h -0.073 v -0.123 l 0.122,-0.122 v 0.025 l 0.03,-0.025 v -0.128 l 0.22,-0.152 v -0.098 q 0.177,-0.098 0.305,-0.348 0.073,-0.177 0.348,-0.226 H 32.075 L 32.1,47.077 32.002,47.15 v -0.201 h 0.049 l 0.024,-0.05 H 32.1 l 0.055,-0.097 v -0.128 q 0.146,-0.098 0.305,-0.244 0.165,-0.153 0.165,-0.33 l 0.103,-0.073 v -0.104 l 0.098,0.055 0.323,-0.305 v -0.098 l 0.202,-0.122 0.104,-0.152 q 0,-0.073 0.073,-0.073 0.024,0 0.11,0.036 0.091,0.037 0.14,0.061 h 0.147 q 0.403,0 0.8,0.287 0.402,0.287 0.677,0.69 0.274,0.396 0.274,0.8 0,0.121 0.074,0.25 0.03,0.073 0.042,0.152 0.013,0.073 0.013,0.171 v 0.098 q 0,0.103 -0.025,0.128 -0.427,1 -1.318,1.928 -0.885,0.922 -1.837,1.447 -0.196,0.098 -0.446,0.202 -0.25,0.097 -0.5,0.097 -0.074,0 -0.104,-0.024 l -0.171,-0.05 q 0.073,-0.023 0.226,-0.127 l 0.097,-0.05 q 0.05,-0.023 0.098,-0.048 l 0.153,-0.073 q 0.048,0 0.073,-0.025 l -0.025,-0.03 q 0,-0.098 0.129,-0.098 0.146,-0.097 0.25,-0.122 l 0.25,-0.08 0.256,-0.085 q 0.116,-0.036 0.116,-0.14 0.098,-0.073 0.25,-0.324 0.178,-0.299 0.25,-0.372 l 0.227,-0.049 0.25,-0.378 -0.049,-0.098 0.196,-0.103 v -0.098 h 0.054 q 0.275,-0.3 0.434,-0.537 0.165,-0.238 0.287,-0.641 0,-0.049 0.079,-0.049 V 47.95 q 0.146,-0.3 0.146,-0.574 0,-0.598 -0.573,-0.598 -0.05,0 -0.128,-0.025 -0.098,0 -0.098,0.05 H 34.48 L 34.352,46.9 q -0.122,0.049 -0.238,0.152 -0.11,0.098 -0.11,0.275 H 33.9 q 0.055,0 0.08,0.098 -0.177,0 -0.25,0.097 l 0.121,0.08 q -0.048,0.049 -0.128,0.085 -0.073,0.037 -0.146,0.086 -0.074,0.03 -0.153,0.067 -0.073,0.036 -0.122,0.085 -0.275,0.202 -0.275,0.373 0,0.03 0.025,0.055 0.024,0.024 0.06,0.048 0.038,0.025 0.092,0.074 l -0.201,-0.025 0.024,-0.012 q 0.025,-0.012 0.05,-0.012 -0.098,0 -0.147,0.024 -0.055,0 0,0.049 l 0.024,0.024 h -0.012 q -0.012,0 -0.012,0.025 -0.025,0.03 -0.025,0.055 H 32.85 q -0.097,0.122 -0.189,0.25 -0.085,0.122 -0.134,0.25 -0.098,0.22 -0.275,0.446 l 0.177,0.128 h -0.177 l -0.097,0.098 v 0.128 l -0.153,0.122 0.049,0.024 -0.25,0.427 -0.074,0.025 v 0.201 l -0.274,0.3 0.024,0.097 h -0.049 v 0.177 q -0.177,0.177 -0.225,0.452 -0.025,0.25 -0.202,0.5 h 0.153 l -0.202,0.122 v 0.074 q -0.024,0.024 -0.024,0.079 0,0.097 0.012,0.177 0.012,0.073 0.037,0.146 0.024,0.074 0.036,0.153 0.013,0.073 0.013,0.17 0,0.202 0.164,0.513 0.165,0.312 0.336,0.312 0.476,0 0.952,-0.25 0.452,-0.275 0.922,-0.3 l 0.525,-0.42 q 0.403,-0.33 0.702,-0.776 0.323,-0.451 0.726,-0.775 h 0.024 l -0.049,-0.055 q 0.074,-0.097 0.22,-0.299 0.153,-0.201 0.177,-0.323 0.025,-0.025 0.025,-0.098 0,-0.055 0.03,-0.08 0.049,-0.121 0.147,-0.121 0.103,0 0.103,0.122 0,0.079 -0.03,0.103 0,0.25 -0.214,0.714 -0.207,0.458 -0.482,0.562 v 0.073 q -0.128,0.122 -0.25,0.348 -0.177,0.226 -0.488,0.629 -0.312,0.396 -0.513,0.396 l -0.348,0.226 v 0.098 q 0,0.128 -0.153,0.177 -0.097,0.128 -0.25,0.098 -0.073,0.152 -0.25,0.201 -0.073,0.024 -0.226,0.128 -0.049,0.073 -0.238,0.153 -0.183,0.073 -0.263,0.098 -0.122,0.097 -0.299,0.11 -0.17,0.012 -0.299,0.012 z m 8.474,-1.599 q -0.073,0 -0.122,-0.048 -0.03,0.024 -0.152,0.024 -0.324,0 -0.653,-0.452 -0.324,-0.451 -0.324,-0.775 0,-0.573 0.3,-1.196 l 0.548,-1.154 q 0.153,-0.299 0.153,-0.396 L 39.28,48.928 39.152,48.8 39.066,48.715 Q 39.03,48.678 38.975,48.629 38.828,48.452 38.675,48.226 38.529,48 38.48,47.701 q -0.054,0.05 -0.231,0.379 -0.171,0.323 -0.348,0.622 -0.171,0.3 -0.275,0.3 -0.049,0 -0.073,-0.025 -0.025,-0.024 -0.074,-0.024 -0.055,0 -0.128,0.201 -0.097,0.147 -0.274,0.44 -0.177,0.286 -0.354,0.537 -0.171,0.244 -0.318,0.244 -0.104,0 -0.104,-0.098 0,-0.073 0.098,-0.287 0.104,-0.213 0.238,-0.427 0.14,-0.214 0.19,-0.262 0.298,-0.422 0.5,-0.745 0.201,-0.33 0.378,-0.678 0.147,-0.323 0.306,-0.659 0.164,-0.342 0.39,-0.769 0.049,-0.348 0.153,-0.72 0.372,-1.13 0.885,-1.965 0.512,-0.837 1.287,-1.716 0.178,-0.17 0.416,-0.433 0.238,-0.262 0.488,-0.488 0.25,-0.226 0.421,-0.226 0.153,0 0.354,0.128 0.098,0.05 0.17,0.098 0.08,0.049 0.154,0.098 l 0.5,0.274 q 0.275,0.153 0.275,0.476 0,0.129 -0.025,0.153 -0.08,0.275 -0.494,0.586 -0.41,0.311 -0.897,0.64 -0.483,0.324 -0.788,0.623 -0.445,0.397 -0.775,0.897 -0.323,0.501 -0.598,1.075 -0.024,0.104 -0.061,0.177 -0.037,0.073 -0.061,0.177 -0.025,0.17 -0.128,0.396 -0.025,0.055 -0.05,0.116 -0.023,0.061 -0.023,0.135 0,0.128 0.024,0.177 0.024,0.073 0.024,0.201 0,0.147 -0.024,0.195 -0.025,0.08 -0.025,0.226 0,0.275 0.275,0.513 0.275,0.238 0.537,0.513 0.262,0.275 0.263,0.628 0,0.3 -0.202,0.727 -0.201,0.42 -0.451,0.848 -0.245,0.421 -0.397,0.775 l -0.128,0.3 -0.05,0.176 q 0,0.049 0.025,0.049 l 0.055,0.073 q 0.22,0 0.617,-0.323 0.402,-0.324 0.805,-0.708 0.403,-0.39 0.55,-0.543 0.299,-0.324 0.549,-0.684 0.25,-0.366 0.476,-0.745 0.049,-0.122 0.159,-0.28 0.116,-0.165 0.244,-0.165 0.146,0 0.146,0.17 0,0.153 -0.262,0.593 -0.263,0.433 -0.562,0.86 -0.299,0.428 -0.427,0.55 l -0.024,0.048 v 0.025 q -0.073,0.177 -0.226,0.226 -0.024,0.024 -0.073,0.128 -0.05,0.098 -0.074,0.122 0,0.049 -0.073,0.104 l -0.104,0.024 q -0.024,0.098 -0.146,0.171 l -0.153,0.153 q -0.024,0 -0.024,0.024 0,0.024 -0.024,0.024 -0.025,0.153 -0.202,0.153 -0.049,0.098 -0.14,0.25 -0.086,0.147 -0.208,0.147 -0.128,0.177 -0.33,0.177 Q 40,52.877 40,52.926 q 0,0.024 -0.024,0.049 -0.049,0.128 -0.226,0.128 -0.025,0.024 -0.098,0.024 m 3.351,1.6 q -0.275,0 -0.55,-0.074 -0.402,-0.152 -0.799,-0.824 L 41.85,53.774 41.679,53.652 41.477,53.03 h -0.024 q -0.025,-0.08 -0.025,-0.226 v -0.177 q 0,-0.098 0.122,-0.348 0.129,-0.25 0.226,-0.476 l -0.25,0.049 V 51.73 q 0.024,-0.025 0.08,-0.128 0.024,-0.074 0.121,-0.098 0.025,0.024 0.025,0.073 l 0.049,-0.049 V 51.4 q 0,-0.097 0.012,-0.207 0.012,-0.116 0.091,-0.19 0,-0.152 0.025,-0.177 l 0.024,-0.097 h 0.05 v -0.106 l 0.152,-0.195 q 0.122,-0.129 0.146,-0.129 v -0.024 q -0.024,0.024 -0.073,0.024 -0.098,0 -0.098,-0.097 0,-0.025 0.025,-0.049 v -0.128 q 0.024,-0.025 0.024,-0.122 0,-0.104 -0.049,-0.153 l 0.171,-0.201 0.104,0.024 -0.025,-0.024 h 0.05 l 0.024,-0.025 0.073,-0.274 0.128,0.201 0.073,-0.427 0.05,-0.244 0.048,-0.257 0.275,-0.024 v -0.201 h -0.074 v -0.123 l 0.122,-0.122 v 0.025 l 0.031,-0.025 v -0.128 l 0.22,-0.152 v -0.098 q 0.177,-0.098 0.305,-0.348 0.073,-0.177 0.348,-0.226 H 43.9 l 0.025,-0.024 -0.098,0.073 v -0.201 h 0.049 l 0.024,-0.05 h 0.025 l 0.055,-0.097 v -0.128 q 0.146,-0.098 0.305,-0.244 0.165,-0.153 0.165,-0.33 l 0.103,-0.073 v -0.104 l 0.098,0.055 0.324,-0.305 v -0.098 l 0.2,-0.122 0.105,-0.152 q 0,-0.073 0.073,-0.073 0.024,0 0.11,0.036 0.091,0.037 0.14,0.061 h 0.147 q 0.402,0 0.8,0.287 0.402,0.287 0.677,0.69 0.274,0.396 0.274,0.8 0,0.121 0.074,0.25 0.03,0.073 0.042,0.152 0.013,0.073 0.013,0.171 v 0.098 q 0,0.103 -0.025,0.128 -0.427,1 -1.318,1.928 -0.885,0.922 -1.837,1.447 -0.196,0.098 -0.446,0.202 -0.25,0.097 -0.5,0.097 -0.074,0 -0.104,-0.024 l -0.171,-0.05 q 0.073,-0.023 0.226,-0.127 l 0.097,-0.05 q 0.05,-0.023 0.098,-0.048 l 0.153,-0.073 q 0.048,0 0.073,-0.025 l -0.025,-0.03 q 0,-0.098 0.129,-0.098 0.146,-0.097 0.25,-0.122 l 0.25,-0.08 0.256,-0.085 q 0.116,-0.036 0.116,-0.14 0.098,-0.073 0.25,-0.324 0.178,-0.299 0.25,-0.372 l 0.227,-0.049 0.25,-0.378 -0.049,-0.098 0.195,-0.103 v -0.098 h 0.055 q 0.275,-0.3 0.434,-0.537 0.164,-0.238 0.287,-0.641 0,-0.049 0.079,-0.049 V 47.95 q 0.146,-0.3 0.146,-0.574 0,-0.598 -0.573,-0.598 -0.05,0 -0.129,-0.025 -0.097,0 -0.097,0.05 h 0.128 L 46.177,46.9 q -0.122,0.049 -0.238,0.152 -0.11,0.098 -0.11,0.275 h -0.104 q 0.055,0 0.08,0.098 -0.177,0 -0.25,0.097 l 0.121,0.08 q -0.048,0.049 -0.128,0.085 -0.073,0.037 -0.146,0.086 -0.074,0.03 -0.153,0.067 -0.073,0.036 -0.122,0.085 -0.275,0.202 -0.275,0.373 0,0.03 0.025,0.055 0.024,0.024 0.06,0.048 0.038,0.025 0.092,0.074 l -0.201,-0.025 0.024,-0.012 q 0.025,-0.012 0.05,-0.012 -0.098,0 -0.147,0.024 -0.055,0 0,0.049 l 0.024,0.024 h -0.012 q -0.012,0 -0.012,0.025 -0.025,0.03 -0.025,0.055 h -0.055 q -0.097,0.122 -0.189,0.25 -0.085,0.122 -0.134,0.25 -0.098,0.22 -0.275,0.446 l 0.177,0.128 h -0.177 l -0.097,0.098 v 0.128 l -0.153,0.122 0.049,0.024 -0.25,0.427 -0.074,0.025 v 0.201 l -0.274,0.3 0.024,0.097 h -0.049 v 0.177 q -0.177,0.177 -0.226,0.452 -0.024,0.25 -0.201,0.5 h 0.153 l -0.202,0.122 v 0.074 q -0.024,0.024 -0.024,0.079 0,0.097 0.012,0.177 0.012,0.073 0.037,0.146 0.024,0.074 0.036,0.153 0.012,0.073 0.012,0.17 0,0.202 0.165,0.513 0.165,0.312 0.336,0.312 0.476,0 0.952,-0.25 0.452,-0.275 0.922,-0.3 l 0.525,-0.42 q 0.402,-0.33 0.701,-0.776 0.324,-0.451 0.727,-0.775 h 0.024 l -0.049,-0.055 q 0.074,-0.097 0.22,-0.299 0.153,-0.201 0.177,-0.323 0.025,-0.025 0.025,-0.098 0,-0.055 0.03,-0.08 0.049,-0.121 0.147,-0.121 0.103,0 0.103,0.122 0,0.079 -0.03,0.103 0,0.25 -0.214,0.714 -0.207,0.458 -0.482,0.562 v 0.073 q -0.128,0.122 -0.25,0.348 -0.177,0.226 -0.489,0.629 -0.31,0.396 -0.512,0.396 L 45.53,53.65 v 0.098 q 0,0.128 -0.153,0.177 -0.097,0.128 -0.25,0.098 -0.073,0.152 -0.25,0.201 -0.073,0.024 -0.226,0.128 -0.049,0.073 -0.238,0.153 -0.183,0.073 -0.262,0.098 -0.123,0.097 -0.3,0.11 -0.17,0.012 -0.299,0.012 z m 10.002,8.422 q -0.177,0 -0.378,-0.22 -0.147,-0.225 -0.3,-0.427 -0.176,-0.25 -0.176,-0.525 1.428,-2.1 3.137,-3.973 1.715,-1.874 3.589,-3.528 l 1.287,-2.613 1.287,-2.588 -0.598,0.702 q -0.299,0.372 -0.628,0.702 -0.098,0.073 -0.226,0.19 -0.122,0.109 -0.25,0.231 l -0.397,0.452 q -0.098,0.097 -0.177,0.225 -0.074,0.123 -0.147,0.25 -0.08,0.123 -0.274,0.276 -0.104,0.073 -0.202,0.152 l -0.226,0.17 q -0.097,0.099 -0.213,0.178 -0.11,0.073 -0.214,0.146 -0.097,0.104 -0.201,0.165 -0.098,0.061 -0.147,0.11 -0.097,0.104 -0.213,0.19 -0.11,0.085 -0.238,0.213 -0.25,0.25 -0.55,0.25 -0.451,0 -0.665,-0.488 -0.208,-0.488 -0.208,-0.885 0,-0.58 0.226,-1.13 l 0.196,-0.549 q 0.103,-0.274 0.201,-0.549 l 1.05,-2.801 q 0.128,-0.275 0.262,-0.574 0.14,-0.3 0.287,-0.598 0.305,-0.574 0.305,-1.227 0,-0.073 0.025,-0.122 0,-0.025 -0.055,-0.08 -0.122,0.129 -0.287,0.245 -0.159,0.11 -0.336,0.207 -0.323,0.177 -0.598,0.5 -0.653,0.776 -1.178,1.612 -0.525,0.836 -1.025,1.69 -0.05,0.098 -0.165,0.227 -0.11,0.121 -0.232,0.121 -0.153,0 -0.153,-0.176 0,-0.275 0.3,-0.709 0.298,-0.439 0.402,-0.762 0.122,-0.275 0.275,-0.403 0.073,-0.05 0.134,-0.135 0.067,-0.091 0.116,-0.189 0.25,-0.525 0.75,-1.184 0.501,-0.665 1.136,-1.153 0.641,-0.489 1.215,-0.489 0.573,0 0.848,0.403 0.275,0.397 0.275,0.897 0,0.5 -0.128,1.014 -0.122,0.512 -0.269,0.964 0.049,0.049 0.049,0.195 0,0.25 -0.153,0.452 -0.17,0.201 -0.201,0.427 -0.098,0.525 -0.25,0.788 -0.147,0.262 -0.397,0.683 0.049,0.128 -0.153,0.555 -0.195,0.422 -0.274,0.599 -0.074,0.17 -0.122,0.323 L 57.649,51.9 v 0.128 q -0.024,0.049 -0.024,0.122 0.079,-0.049 0.14,-0.098 0.06,-0.049 0.085,-0.073 0.073,-0.08 0.159,-0.128 0.092,-0.049 0.195,-0.098 0.025,-0.024 0.05,-0.024 0.023,0 0.048,-0.025 0.024,-0.25 0.275,-0.25 0.048,-0.03 0.097,-0.067 0.055,-0.037 0.104,-0.061 0.098,-0.098 0.147,-0.122 0.103,-0.25 0.274,-0.354 0.08,-0.049 0.165,-0.11 0.085,-0.061 0.19,-0.116 l 0.823,-0.848 q 0.098,-0.123 0.159,-0.232 0.067,-0.116 0.091,-0.196 0.05,-0.122 0.421,-0.323 l 0.129,-0.171 v -0.177 q 0,-0.128 0.024,-0.226 0.025,-0.097 0.153,-0.153 0.146,-0.073 0.195,-0.274 0.055,-0.22 0.128,-0.3 l 0.452,-0.597 q 0.049,-0.129 0.073,-0.153 l 0.147,-0.146 v -0.025 q 0,-0.049 -0.025,-0.08 -0.049,-0.048 -0.049,-0.097 0,-0.073 0.074,-0.073 l 0.103,-0.08 q 0.275,0.031 0.635,0.117 0.366,0.085 0.366,0.463 0,0.05 -0.012,0.153 -0.012,0.098 -0.036,0.22 -0.031,0.824 -0.354,1.648 -0.177,0.403 -0.33,0.805 -0.147,0.397 -0.293,0.824 l -0.256,0.751 q -0.123,0.372 -0.245,0.775 0.55,-0.476 1.148,-0.848 0.604,-0.379 1.251,-0.702 0.201,-0.153 0.403,-0.153 0.098,0 0.098,0.098 0,0.08 -0.202,0.201 l -0.275,0.202 q -0.573,0.323 -1.086,0.702 -0.513,0.372 -1.013,0.8 -0.177,0.121 -0.354,0.274 -0.171,0.146 -0.317,0.299 -0.129,0.122 -0.226,0.323 -0.104,0.226 -0.226,0.403 -0.049,0.074 -0.104,0.153 -0.049,0.073 -0.073,0.17 -0.025,0.178 -0.147,0.373 -0.103,0.177 -0.195,0.33 -0.085,0.146 -0.159,0.323 -0.097,0.147 -0.177,0.3 -0.073,0.152 -0.17,0.323 -0.05,0.049 -0.129,0.146 -0.073,0.104 -0.146,0.257 -0.104,0.122 -0.153,0.231 -0.049,0.116 -0.097,0.165 -0.153,0.275 -0.318,0.476 -0.159,0.202 -0.256,0.202 h -0.08 q 0,-0.073 0.055,-0.177 0.025,-0.049 0.05,-0.11 0.024,-0.061 0.048,-0.116 0.201,-0.324 0.488,-0.8 0.287,-0.476 0.287,-0.671 0,-0.049 -0.049,-0.049 l -0.201,0.3 q -0.201,0.121 -0.275,0.323 l -0.226,0.372 -0.897,1.428 q 0.025,0.025 0.025,0.074 0,0.073 -0.025,0.103 -0.03,0.025 -0.03,0.05 0,0.023 -0.025,0.048 l -0.048,0.049 q -0.098,0.097 -0.098,0.274 V 58.4 q 0.024,0.024 0.024,0.049 0,0.104 -0.103,0.128 l -0.147,0.049 -0.049,0.024 q -0.049,0.153 -0.177,0.275 -0.049,0.128 -0.189,0.348 -0.134,0.225 -0.287,0.201 -0.25,0.305 -0.476,0.653 -0.22,0.348 -0.372,0.727 0,0.024 0.024,0.048 v 0.05 q 0,0.097 -0.122,0.097 h -0.08 L 55.976,61.024 55.952,61 q -0.024,0 -0.049,-0.024 -0.049,0.274 -0.274,0.378 -0.08,0.146 -0.202,0.195 -0.097,0.025 -0.25,0.177 h -0.025 q -0.048,0.098 -0.176,0.196 -0.123,0.103 -0.226,0.128 l -0.025,0.024 h -0.049 l -0.048,0.025 q -0.074,0.128 -0.238,0.225 -0.165,0.104 -0.287,0.153 -0.073,0.122 -0.287,0.336 -0.214,0.213 -0.342,0.213 h -0.098 q -0.201,0.122 -0.372,0.122 m 0.275,-1.172 q 0.146,-0.048 0.293,-0.103 0.152,-0.05 0.28,-0.171 0.226,-0.202 0.672,-0.69 0.452,-0.488 0.952,-1.086 0.5,-0.598 0.903,-1.075 l 0.757,-1.037 q 0.415,-0.562 0.739,-1.074 0.33,-0.513 0.378,-0.788 -0.378,0.373 -0.726,0.733 -0.348,0.366 -0.726,0.714 -0.776,0.75 -1.502,1.575 -0.421,0.5 -0.8,1.025 -0.372,0.525 -0.72,1.05 -0.152,0.226 -0.305,0.427 -0.195,0.226 -0.22,0.476 0.025,0 0.025,0.025 m 12.223,-7.25 q -0.275,0 -0.55,-0.074 -0.402,-0.152 -0.799,-0.824 l 0.195,-0.055 -0.17,-0.122 -0.202,-0.622 h -0.024 q -0.025,-0.08 -0.025,-0.226 v -0.177 q 0,-0.098 0.122,-0.348 0.129,-0.25 0.226,-0.476 l -0.25,0.049 V 51.73 q 0.024,-0.025 0.08,-0.128 0.024,-0.074 0.121,-0.098 0.025,0.024 0.025,0.073 L 64.3,51.528 V 51.4 q 0,-0.097 0.012,-0.207 0.012,-0.116 0.091,-0.19 0,-0.152 0.025,-0.177 l 0.024,-0.097 h 0.05 v -0.106 l 0.152,-0.195 q 0.122,-0.129 0.146,-0.129 v -0.024 q -0.024,0.024 -0.073,0.024 -0.098,0 -0.098,-0.097 0,-0.025 0.025,-0.049 v -0.128 q 0.024,-0.025 0.024,-0.122 0,-0.104 -0.049,-0.153 l 0.171,-0.201 0.104,0.024 -0.025,-0.024 h 0.05 l 0.024,-0.025 0.073,-0.274 0.128,0.201 0.073,-0.427 0.05,-0.244 0.048,-0.257 0.275,-0.024 v -0.201 h -0.074 v -0.123 l 0.123,-0.122 v 0.025 l 0.03,-0.025 v -0.128 l 0.22,-0.152 v -0.098 q 0.177,-0.098 0.305,-0.348 0.073,-0.177 0.348,-0.226 h -0.153 l 0.025,-0.024 -0.098,0.073 v -0.201 h 0.049 l 0.024,-0.05 h 0.025 l 0.055,-0.097 v -0.128 q 0.146,-0.098 0.305,-0.244 0.165,-0.153 0.165,-0.33 l 0.103,-0.073 v -0.104 l 0.098,0.055 0.323,-0.305 v -0.098 l 0.202,-0.122 0.104,-0.152 q 0,-0.073 0.073,-0.073 0.024,0 0.11,0.036 0.091,0.037 0.14,0.061 h 0.147 q 0.402,0 0.8,0.287 0.402,0.287 0.677,0.69 0.274,0.396 0.274,0.8 0,0.121 0.074,0.25 0.03,0.073 0.042,0.152 0.012,0.073 0.012,0.171 v 0.098 q 0,0.103 -0.024,0.128 -0.427,1 -1.318,1.928 -0.885,0.922 -1.837,1.447 -0.196,0.098 -0.446,0.202 -0.25,0.097 -0.5,0.097 -0.074,0 -0.104,-0.024 l -0.171,-0.05 q 0.073,-0.023 0.226,-0.127 l 0.097,-0.05 q 0.05,-0.023 0.098,-0.048 l 0.153,-0.073 q 0.048,0 0.073,-0.025 l -0.025,-0.03 q 0,-0.098 0.129,-0.098 0.146,-0.097 0.25,-0.122 l 0.25,-0.08 0.256,-0.085 q 0.116,-0.036 0.116,-0.14 0.098,-0.073 0.25,-0.324 0.178,-0.299 0.25,-0.372 l 0.227,-0.049 0.25,-0.378 -0.049,-0.098 0.195,-0.103 v -0.098 h 0.055 q 0.275,-0.3 0.434,-0.537 0.165,-0.238 0.287,-0.641 0,-0.049 0.079,-0.049 V 47.95 q 0.146,-0.3 0.146,-0.574 0,-0.598 -0.573,-0.598 -0.05,0 -0.128,-0.025 -0.098,0 -0.098,0.05 h 0.128 L 68.676,46.9 q -0.122,0.049 -0.238,0.152 -0.11,0.098 -0.11,0.275 h -0.104 q 0.055,0 0.08,0.098 -0.177,0 -0.25,0.097 l 0.121,0.08 q -0.049,0.049 -0.128,0.085 -0.073,0.037 -0.146,0.086 -0.074,0.03 -0.153,0.067 -0.073,0.036 -0.122,0.085 -0.275,0.202 -0.275,0.373 0,0.03 0.025,0.055 0.024,0.024 0.06,0.048 0.037,0.025 0.092,0.074 l -0.201,-0.025 0.024,-0.012 q 0.025,-0.012 0.05,-0.012 -0.098,0 -0.147,0.024 -0.055,0 0,0.049 l 0.024,0.024 h -0.012 q -0.012,0 -0.012,0.025 -0.025,0.03 -0.025,0.055 h -0.055 q -0.097,0.122 -0.189,0.25 -0.085,0.122 -0.134,0.25 -0.098,0.22 -0.275,0.446 l 0.177,0.128 h -0.177 l -0.097,0.098 v 0.128 l -0.153,0.122 0.049,0.024 -0.25,0.427 -0.074,0.025 v 0.201 l -0.274,0.3 0.024,0.097 h -0.049 v 0.177 q -0.177,0.177 -0.226,0.452 -0.024,0.25 -0.201,0.5 h 0.153 l -0.202,0.122 v 0.074 q -0.024,0.024 -0.024,0.079 0,0.097 0.012,0.177 0.012,0.073 0.037,0.146 0.024,0.074 0.036,0.153 0.012,0.073 0.012,0.17 0,0.202 0.165,0.513 0.165,0.312 0.336,0.312 0.476,0 0.952,-0.25 0.452,-0.275 0.922,-0.3 l 0.525,-0.42 q 0.402,-0.33 0.701,-0.776 0.324,-0.451 0.727,-0.775 h 0.024 l -0.049,-0.055 q 0.074,-0.097 0.22,-0.299 0.153,-0.201 0.177,-0.323 0.025,-0.025 0.025,-0.098 0,-0.055 0.03,-0.08 0.049,-0.121 0.147,-0.121 0.103,0 0.103,0.122 0,0.079 -0.03,0.103 0,0.25 -0.214,0.714 -0.207,0.458 -0.482,0.562 v 0.073 q -0.128,0.122 -0.25,0.348 -0.177,0.226 -0.488,0.629 -0.312,0.396 -0.513,0.396 l -0.348,0.226 v 0.098 q 0,0.128 -0.153,0.177 -0.097,0.128 -0.25,0.098 -0.073,0.152 -0.25,0.201 -0.073,0.024 -0.226,0.128 -0.049,0.073 -0.238,0.153 -0.183,0.073 -0.263,0.098 -0.122,0.097 -0.299,0.11 -0.17,0.012 -0.299,0.012 z m 6.124,-3.797 q -0.201,0.098 -0.317,-0.024 -0.11,-0.128 -0.006,-0.257 0.122,-0.122 0.146,-0.22 0.025,-0.103 0.025,-0.225 v -0.202 q 0,-0.177 0.03,-0.201 l 0.147,-0.147 q 0.024,-0.054 0.153,-0.103 l 0.122,-0.348 q -0.177,-0.202 0.048,-0.427 l 0.025,-0.025 v -0.024 l 0.055,-0.073 0.146,-0.25 0.025,-0.05 h 0.055 q -0.055,-0.128 0.073,-0.274 0.049,-0.128 0.146,-0.25 0.104,-0.129 0.202,-0.275 0.25,-0.275 0.274,-0.5 0.05,-0.202 0.226,-0.355 -0.024,0 -0.024,-0.048 0,-0.025 -0.025,-0.025 0,-0.024 0.025,-0.049 v -0.024 q 0.049,-0.049 0.17,-0.263 0.129,-0.213 0.257,-0.439 l 0.098,-0.146 q 0.048,-0.08 0.097,-0.177 l 0.129,-0.226 -0.678,-0.226 q -0.5,-0.177 -0.879,-0.488 -0.372,-0.312 -0.372,-0.91 0,-0.275 0.165,-0.476 0.164,-0.201 0.335,-0.348 0.104,-0.104 0.104,-0.128 0.201,-0.25 0.397,-0.134 0.201,0.11 0,0.311 l -0.147,0.195 q -0.103,0.153 -0.201,0.293 -0.098,0.135 -0.098,0.336 0,0.25 0.36,0.44 0.36,0.183 0.8,0.286 0.44,0.098 0.61,0.098 1.026,-1.349 2.027,-2.673 1,-1.325 2.001,-2.674 0.098,-0.104 0.098,-0.354 l 0.928,-0.976 q 0.098,0.055 0.183,0.08 l 0.19,0.048 q 0.103,0.024 0.188,0.049 0.086,0.024 0.19,0.049 0.195,0.048 0.372,0.128 0.177,0.073 0.323,0.25 0.275,0.275 0.275,0.671 0,0.428 -0.348,0.727 -0.372,0.299 -0.647,0.573 -0.104,0.08 -0.195,0.153 -0.085,0.073 -0.183,0.177 -0.202,0.195 -0.452,0.195 v -0.17 h 0.08 l 0.207,-0.275 q 0.116,-0.153 0.214,-0.275 0.25,-0.275 0.378,-0.555 -0.104,0.103 -0.19,0.177 -0.085,0.073 -0.188,0.152 -0.098,0.073 -0.19,0.165 l -0.183,0.183 q -0.128,0.177 -0.402,0.489 -0.275,0.31 -0.599,0.659 -0.274,0.354 -0.561,0.628 l -0.415,0.397 -0.025,0.024 0.104,0.104 -0.33,0.122 0.025,0.025 q 0,0.201 -0.128,0.28 -0.122,0.074 -0.244,0.074 -0.05,0.146 -0.14,0.262 -0.086,0.11 -0.288,0.19 0.025,0.024 0.025,0.073 0,0.024 0.03,0.048 0,0.025 0.025,0.05 h -0.055 v 0.048 h -0.122 q -0.025,0 -0.05,0.104 l 0.074,0.122 q 0.025,0.024 0.025,0.104 0.347,-0.379 0.671,-0.751 l 0.677,-0.775 1.355,-1.502 h 0.05 q 0,0.025 0.024,0.025 0,0.024 0.024,0.024 0,0.177 -0.275,0.556 -0.274,0.372 -0.677,0.811 -0.397,0.434 -0.763,0.837 -0.36,0.396 -0.562,0.622 -0.073,0.073 -0.177,0.226 -0.073,0.073 -0.17,0.226 h 0.225 q 0.324,0 0.586,-0.037 0.263,-0.043 0.537,-0.091 0.123,-0.025 0.245,-0.062 0.128,-0.036 0.256,-0.06 l 0.244,-0.05 q 0.128,-0.024 0.256,-0.054 0.3,-0.05 0.8,-0.159 0.5,-0.116 0.726,-0.287 0.647,-0.201 1.276,-0.299 l 0.024,-0.012 q 0.025,-0.018 0.074,-0.043 0.048,0 0.073,-0.024 0.049,-0.074 0.128,-0.074 l 0.201,-0.073 0.196,-0.055 v -0.024 q 0.354,-0.073 0.677,-0.208 0.324,-0.14 0.672,-0.293 0.33,-0.122 0.64,-0.231 0.312,-0.116 0.635,-0.116 l 0.08,-0.147 q 0.299,-0.305 0.671,-0.305 v 0.08 q 0.104,0.097 0.104,0.225 0,0.073 -0.055,0.073 -0.22,0.226 -0.495,0.25 l 0.037,0.074 q 0.012,0.024 0.012,0.049 0,0.079 -0.08,0.079 -0.097,0.073 -0.25,0.073 -0.121,0 -0.121,-0.152 l 0.073,-0.05 q -0.147,0 -0.202,-0.048 -0.17,0.452 -0.573,0.452 l -0.05,0.195 -0.274,-0.073 q -0.122,0.128 -0.25,0.128 l -0.085,0.213 q -0.037,0.086 -0.19,0.086 0.025,-0.025 0.025,-0.08 -0.025,-0.024 -0.025,-0.048 -0.177,0.201 -0.415,0.354 -0.232,0.146 -0.561,0.146 l -0.025,-0.17 h -0.024 q 0.024,0.024 0.024,0.121 0,0.098 -0.085,0.153 -0.086,0.049 -0.14,0.049 -0.025,0 -0.025,-0.025 h -0.049 q -0.122,0.098 -0.226,0.098 -0.048,0 -0.073,-0.024 h -0.073 q -0.128,0.097 -0.232,0.11 -0.098,0.012 -0.293,0.042 -0.33,0.05 -0.69,0.177 -0.36,0.122 -0.69,0.244 -0.024,0.025 -0.121,0.025 -0.05,0 -0.05,0.024 -0.774,0.403 -1.574,0.427 -0.855,0.074 -1.654,0.226 -0.073,0.025 -0.153,0.037 -0.073,0.012 -0.17,0.012 -0.097,0 -0.177,0.012 -0.074,0.013 -0.147,0.037 -0.153,0.024 -0.378,0.238 -0.226,0.214 -0.428,0.464 -0.195,0.25 -0.293,0.397 -0.103,0.103 -0.231,0.22 -0.123,0.11 -0.245,0.207 -0.25,0.177 -0.451,0.451 l -0.129,0.129 q -0.073,0.073 -0.122,0.17 -0.122,0.226 -0.299,0.25 0.05,0.123 -0.048,0.178 l -0.055,0.049 q -0.22,0.226 -0.22,0.525 -0.08,0.073 -0.128,0.201 l -0.025,0.098 -0.073,0.097 q -0.128,0.177 -0.244,0.415 -0.11,0.238 -0.232,0.513 -0.128,0.275 -0.256,0.513 -0.123,0.238 -0.245,0.44 m -0.775,6.745 q -0.177,0 -0.39,-0.074 -0.208,-0.073 -0.336,-0.201 -0.122,-0.147 -0.36,-0.537 -0.238,-0.385 -0.238,-0.586 0,-0.476 0.049,-0.928 0.049,-0.445 0.152,-0.921 0.147,-0.123 0.171,-0.3 0.024,-0.177 0.055,-0.354 0.195,-0.195 0.22,-0.494 0.03,-0.305 0.305,-0.305 l 0.049,-0.049 q 0.024,-0.024 -0.025,-0.122 -0.054,-0.128 -0.079,-0.214 -0.024,-0.085 0.055,-0.213 0.024,-0.05 0.049,-0.11 0.024,-0.067 0.049,-0.092 0.024,-0.024 0.073,-0.17 0.08,-0.275 0.14,-0.489 0.06,-0.214 0.263,-0.44 0.122,-0.097 0.22,-0.012 0.103,0.086 0.079,0.214 0,0.147 -0.073,0.3 h 0.195 q -0.098,0.475 -0.226,0.951 l -0.244,0.946 q -0.305,0.928 -0.305,1.905 0,0.872 0.354,1.623 l 0.348,-0.201 0.128,-0.226 v 0.275 l 0.049,0.128 q 0.049,-0.128 0.146,-0.226 0.104,-0.098 0.305,-0.098 l 0.025,0.171 q 0,0.073 -0.025,0.104 -0.152,0.323 -0.482,0.53 -0.323,0.215 -0.696,0.215"
     id="path3"
     style="fill:url(#a)" />
</svg>
