<svg xmlns="http://www.w3.org/2000/svg" fill="none" viewBox="0 0 97.807 93.922"><defs><filter id="a" color-interpolation-filters="sRGB" filterUnits="userSpaceOnUse"><feFlood flood-opacity="0" result="BackgroundImageFix"/><feOffset in="SourceAlpha"/><feMorphology operator="dilate" radius=".1"/><feOffset/><feGaussianBlur stdDeviation=".333"/><feColorMatrix values="0 0 0 0 1 0 0 0 0 1 0 0 0 0 1 0 0 0 1 0"/><feBlend in2="BackgroundImageFix" result="effect_dropShadow_1"/><feBlend in="SourceGraphic" in2="effect_dropShadow_1" result="shape"/></filter><filter id="b" color-interpolation-filters="sRGB" filterUnits="userSpaceOnUse"><feFlood flood-opacity="0" result="BackgroundImageFix"/><feOffset in="SourceAlpha"/><feMorphology operator="dilate" radius=".1"/><feOffset/><feGaussianBlur stdDeviation=".333"/><feColorMatrix values="0 0 0 0 1 0 0 0 0 1 0 0 0 0 1 0 0 0 1 0"/><feBlend in2="BackgroundImageFix" result="effect_dropShadow_1"/><feBlend in="SourceGraphic" in2="effect_dropShadow_1" result="shape"/></filter></defs><path d="M1.1 1.1h95.607v91.722H1.1z"/><g stroke="#fff" stroke-opacity=".5" stroke-width=".1"><circle cx="48.829" cy="46.547" r="42.45"/><circle cx="48.829" cy="46.547" r="37.45"/><circle cx="48.829" cy="46.547" r="29.95"/></g><g fill="#fff" filter="url(#a)"><circle cx="82.098" cy="50.603" r=".25"/><circle cx="61.344" cy="58.896" r=".25"/><circle cx="53.551" cy="31.544" r=".25"/><circle cx="13.896" cy="11.739" r=".25"/><circle cx="58.095" cy="5.031" r=".25"/><circle cx="9.208" cy="32.58" r=".25"/><circle cx="83.833" cy="37.493" r=".25"/><circle cx="26.262" cy="69.956" r=".25"/><circle cx="40.377" cy="79.397" r=".25"/><circle cx="21.494" cy="58.896" r=".25"/><circle cx="26.012" cy="40.116" r=".25"/><circle cx="58.095" cy="25.08" r=".25"/><circle cx="56.305" cy="12.239" r=".25"/><circle cx="31.964" cy="61.703" r=".25"/><circle cx="18.344" cy="73.215" r=".25"/><circle cx="91.951" cy="51.103" r=".25"/><circle cx="75.934" cy="75.874" r=".25"/><circle cx="51.424" cy="87.707" r=".25"/><circle cx="37.671" cy="69.956" r=".25"/><circle cx="34.833" cy="43.414" r=".25"/><circle cx="28.647" cy="16.345" r=".25"/><circle cx="72.166" cy="40.366" r=".25"/><circle cx="79.843" cy="21.171" r=".25"/><circle cx="48.579" cy="1.35" r=".25"/><circle cx="6.368" cy="50.353" r=".25"/><circle cx="53.551" cy="73.215" r=".25"/><circle cx="66.045" cy="67.121" r=".25"/><circle cx="42.277" cy="50.603" r=".25"/><circle cx="72.166" cy="52.71" r=".25"/><circle cx="60.344" cy="47.992" r=".25"/><circle cx="70.776" cy="34.35" r=".25"/><circle cx="88.154" cy="31.544" r=".25"/><circle cx="37.671" cy="27.486" r=".25"/><circle cx="35.333" cy="16.345" r=".25"/><circle cx="64.255" cy="77.841" r=".25"/><circle cx="75.184" cy="14.124" r=".25"/><circle cx="75.434" cy="28.972" r=".25"/><circle cx="31.964" cy="92.572" r=".25"/><circle cx="16.627" cy="35.753" r=".25"/><circle cx="37.671" cy="8.797" r=".25"/><circle cx="44.101" cy="20.671" r=".25"/><circle cx="44.351" cy="43.914" r=".25"/><circle cx="25.512" cy="83.102" r=".25"/><circle cx="13.396" cy="59.396" r=".25"/><circle cx="45.767" cy="61.203" r=".25"/><circle cx="77.398" cy="65.147" r=".25"/></g><g filter="url(#b)"><circle cx="22.978" cy="22.977" r=".15" fill="#fff"/></g><g fill="#fff" filter="url(#b)"><circle cx="63.655" cy="39.516" r=".35"/><circle cx="1.45" cy="59.996" r=".35"/><circle cx="53.801" cy="51.353" r=".35"/><circle cx="96.357" cy="25.68" r=".35"/><circle cx="46.717" cy="61.98" r=".35"/><circle cx="13.996" cy="49.753" r=".35"/><circle cx="46.017" cy="85.048" r=".35"/><circle cx="85.837" cy="62.303" r=".35"/><circle cx="26.862" cy="27.386" r=".35"/></g><path stroke="#fff" stroke-opacity=".5" stroke-width=".1" d="m60.352 47.989 11.81 4.735L61.35 58.93l-7.498-7.54-.335-19.851 10.166 8.015 8.477.843 11.646-2.864 4.374-5.994 8.174-5.843-20.962 3.311-4.645 5.372 1.413 6.018m-1.413-6.018 13.059 3.154m-20.123 2.021-3.332 8.436m0 0-6.5 3.4m7.499 7.54-1-10.94-6.833-16.451m.334 19.852 18.31 1.334m19.812-1.668-9.865-.364-4.732 14.45-1.424 10.784m1.424-10.783 8.482-2.803-3.75-11.648M66.054 67.14l-1.782 10.692 13.105-12.69M31.914 61.69l13.843-.478.988.733 6.773 11.292-15.8-3.286 8.039-8.74m.988.734-9.026 8.006m-21.072-34.21-7.448-3.206 4.76 17.292m12.104-9.706 8.814 3.333 9.47.456m-9.47-.456 7.417 7.238m-7.416-7.238-2.7 9.27m19.28 34.984-5.313-2.606-5.747-5.714-8.484 13.199 14.231-7.485M25.523 83.14l-7.225-9.903L1.46 60.084m16.837 13.153 8.03-3.286L13.413 59.42l8.222-.49m5.214-31.492 8.55-11.072 8.667 4.319-6.348 6.753H26.85l-3.913-4.464 5.71-6.608M26.85 27.437l1.797-11.072-14.688-4.609m23.76 15.681L35.4 16.365m2.318-7.53L48.534 1.38l7.764 10.9 1.8-7.146m0 19.899 2.674-5.913 14.62-4.988 4.456 7.096-19.076-2.108"/></svg>