<svg xmlns="http://www.w3.org/2000/svg" fill="none" viewBox="0 0 190.971 160"><defs><radialGradient id="b" cx="0" cy="0" r="1" gradientTransform="rotate(-92.806 93.198 51.963)scale(33.40565 104.03474)" gradientUnits="userSpaceOnUse"><stop offset="0" stop-color="#ff740b"/><stop offset="1" stop-color="red"/></radialGradient><linearGradient id="a" x1="35.949" x2="120.48" y1="86.372" y2="121.868" gradientUnits="userSpaceOnUse"><stop offset=".013" stop-color="#ff740b"/><stop offset=".511" stop-color="red"/><stop offset="1" stop-color="#ff740b"/></linearGradient></defs><path d="M2.27 0h186v160h-186z"/><path fill="url(#a)" d="M33.374 109.692q-1.1-.097-2.1-1.001-1.001-.781-2.197-.781-.318 0-.708.049-.391.049-.904.146-.903-1.098-2.148-1.464-1.245-.342-2.051-.855-.806-.488-.39-2.197.903-4.2 3.1-8.447 2.197-4.248 4.395-7.74-3.199-.61-6.397-1.806-3.296-1.099-6.714-1.099-2.1 0-4.101 2.295v.098q-1.978 2.002-4.2 3.955-2.197 1.953-4.296 1.953-1.587 0-3.272-1.782-1.709-1.807-1.318-3.907.293-1.416 2.1-3.198 1.806-1.806 3.954-3.247 2.149-1.465 3.15-1.562l.39.805q1.71-1.416 3.394-2.856 1.709-1.44 3.418-2.954 1.685-1.49 3.442-2.735 1.758-1.27 3.54-2.27l.415-.586q6.69-4.614 12.696-10.864t11.596-13.33l-.39.586 6.592-9.01.39-.097.318.415q-.22 1.196-1.368 3.003-1.147 1.782-2.49 3.393-1.343 1.588-2.246 2.49l.586 1.002 1.318-.39L36.06 63.207q-3.686 4.395-7.495 8.545-3.784 4.15-7.886 7.959 2.881 1.391 6.03 2.002 3.15.586 6.568.683 1.49-2.392 3.442-5.932 1.953-3.565 4.053-7.47 2.1-3.907 4.15-7.252t3.76-5.249v-2.832q0-.464-.122-.952l3.906-5.518.806-.586q.806-1.513 1.855-2.392 1.05-.904 2.247-.904h1.098q.293.098.586.098h.513q.488.489.537 1.294.073.806-.147 1.587-1.391 1.123-2.343 2.734-.953 1.587-1.758 3.272-.781.903-1.734 2.661-.952 1.733-1.855 3.394-.903 1.66-1.392 2.148-.903 1.807-1.855 3.516-.952 1.684-2.149 3.296l.098.879-.708.122.098 1.391-1.001 1.001q-.586 1.587-1.343 3.198-.757 1.587-1.538 3.101-.806 1.49-1.563 3.052-.756 1.538-1.245 3.247 1.49.293 3.003.293 1.392 0 3.003-.586.781-.22 1.538-.513t1.465-.488l.488.097q1.099-.195 2.149-.439 1.05-.269 2.05-1.172l.513.098q1.49-1.001 2.881-1.685.708-.415 1.392-.805.708-.391 1.416-.904l.61-1.196.39.098q.806-1.001 1.441-2.784.66-1.806 1.66-1.806l-.39.683.097 1.197-.512-.293-.708 1.416v.879q-.196-.196-.196-.782-.097.098-.097.245 0 .146-.098.341t-.098.367q0 .146-.097.341-.098.489-.147 1.001-.049.489-.049 1.001l-.805-.317-.806.806-.098.903-.488 1.294-.806-.88-.708.49-.805 2.099q-.586.708-1.392 1.27-.806.536-1.587.536L52.563 85.4l.195.904-.976.903-.415-.317-.904.22-1.489 1q-.708.586-1.611 1.099l-.098.293-.806.39q-.78 0-1.196-.39-1.099.195-2.148.39-1.05.196-2.149.61l-2.392-.707-.806.415-1.001-.122-.488.415v1.391l-1.221 2.515.122.586q-.22.903-.317 1.807l-.196 1.806q-.708 1.099-1.27 2.198-.536 1.098-.732 2.295-.488 2.002 0 3.588.513 1.612 1.514 2.71zm7.202-36.596 1.098-1.197-.513-.097-.488.39v.22zm-2.002 3.906 1.196-1.904-.195-.489q-.415.391-.708 1.001-.098.293-.244.586-.147.293-.342.513zm-1.392 2.71.684-1.904-.098-.318-.586.318zM57.861 82.3l.097-.903.708-.587.293.098zm-4.102.293.904-.489.097-.293-.195-.61-1.49.904zm-22.192 6.299.708-.904-.415-.195-.293.317zm5.102 3.71v-.61l.391-.39.415.097zm40.993 15.503q-1 0-3.003-.463-1.977-.44-4.15-1.197-2.149-.757-3.809-1.757-1.636-.977-2.026-1.978-1.807-1.514-3.32-4.346-1.49-2.856-.782-6.372.196-.586.196-.903l.293-.781-.196-2.1q.415-1.001.757-1.953t.66-1.953q.78-2.002 2.099-3.296.879-3.296 3.735-6.934 2.857-3.662 6.397-7.202 3.564-3.564 6.445-6.47-.488-.39-.806-1.147-.293-.757-.073-1.66.879-4.2 4.42-7.349 3.564-3.15 8.251-5.249 4.712-2.1 9.351-3.15 4.663-1.05 7.763-1.05 5.713 0 10.645 2.003 4.956 2.002 7.763 6.347 2.808 4.346 2.002 11.548l-1.196 3.296-.61-3.589h-.488l-1.099 2.002q2.295 2.295 2.295 6.104l-1.514 2.392.513.293q-.513 1.514-1.123 3.028-.586 1.489-1.392 2.88l-.781.391q-.513 2.1-1.904 3.809l-1.612.903q-.097.195-.097.586 0 .415-.098.61-.098.904-1.465 1.563-1.343.635-1.929 1.245l-1.904.586-.708.61q-.293 1.71-1.587 2.1-1.513.586-2.856 2.05-1.343 1.441-2.613 2.906-1.245 1.44-2.392 2.393-1.148.952-2.246.659-2.393 2.588-5.445 3.882-3.051 1.318-6.347 2.368t-6.714 2.832l-3.784.22q-.806.878-1.758 1.074-.952.219-1.758.219m-3.198-7.91q.317 0 2.148-.488 1.856-.513 4.395-1.196 2.563-.708 5.102-1.343 2.564-.66 4.395-1.099 1.855-.463 2.173-.268 1.904-2.295 4.394-4.15t4.81-3.345q4.98-3.394 8.935-6.836 3.955-3.467 6.69-8.008 2.759-4.565 4.175-11.255 1.684-8.3-1.978-12.549-3.638-4.248-10.327-4.248-2.295 0-6.25.757-3.955.732-8.057 2.295-4.101 1.538-7.202 3.833t-3.686 5.395q-.122.098-.122.416v.39q6.616-4.394 13.354-7.25 6.763-2.857 13.355-2.857 2.49 0 4.492.561 2.002.562 2.954 2.173.952 1.587.146 4.785l-1.587 2.881-.415-.293q.611-4.59-1.049-6.348-1.636-1.757-4.834-1.757-6.812 0-13.013 3.418-6.201 3.393-12.598 8.593l1.416 1.587-.122.318q-.39.586-.879.586-.61 0-1.098-.293-.318-.196-1.099-.391l-2.124 1.587-.39.903q-2.296 1.392-4.102 3.711-1.807 2.295-3.491 4.59l-.806.903q-.195.196-.342.513-.146.293-.366.488-.195.489-.488 1.001-.293.489-.513 1.001-.293.488-.586 1.05-.293.537-.513 1.05l-1 .39q-.294 1.294-.758 2.466-.439 1.148-.927 2.246-.513 1.099-.977 2.295-.44 1.197-.635 2.49-.805 3.907.342 5.909 1.172 2.002 3.613 2.71 2.442.683 5.445.683m86.209 9.497q-1.098-.097-2.099-1.001-1.001-.781-2.197-.781-.318 0-.708.049-.391.049-.904.146-.903-1.098-2.148-1.464-1.245-.342-2.051-.855-.806-.488-.391-2.197.904-4.2 3.101-8.447 2.197-4.248 4.395-7.74-3.199-.61-6.397-1.806-3.296-1.099-6.714-1.099-2.099 0-4.101 2.295v.098q-1.978 2.002-4.2 3.955-2.197 1.953-4.296 1.953-1.587 0-3.272-1.782-1.709-1.807-1.318-3.907.293-1.416 2.099-3.198 1.807-1.806 3.955-3.247 2.149-1.465 3.15-1.562l.39.805q1.709-1.416 3.394-2.856 1.709-1.44 3.418-2.954 1.685-1.49 3.442-2.735 1.758-1.27 3.54-2.27l.415-.586q6.69-4.614 12.696-10.864t11.596-13.33l-.39.586 6.592-9.01.39-.097.318.415q-.22 1.196-1.368 3.003-1.147 1.782-2.49 3.393-1.343 1.588-2.246 2.49l.586 1.002 1.318-.39-14.819 17.504q-3.687 4.395-7.495 8.545-3.784 4.15-7.886 7.959 2.881 1.391 6.03 2.002 3.15.586 6.568.683 1.489-2.392 3.442-5.932 1.953-3.565 4.053-7.47 2.1-3.907 4.15-7.252t3.76-5.249v-2.832q0-.464-.122-.952l3.906-5.518.806-.586q.806-1.513 1.855-2.392 1.05-.904 2.246-.904h1.099q.293.098.586.098h.513q.488.489.537 1.294.073.806-.147 1.587-1.391 1.123-2.343 2.734-.953 1.587-1.758 3.272-.781.903-1.734 2.661-.952 1.733-1.855 3.394-.903 1.66-1.392 2.148-.903 1.807-1.855 3.516-.952 1.684-2.149 3.296l.098.879-.708.122.098 1.391-1.001 1.001q-.586 1.587-1.343 3.198-.757 1.587-1.538 3.101-.806 1.49-1.563 3.052-.756 1.538-1.245 3.247 1.49.293 3.003.293 1.392 0 3.003-.586.781-.22 1.538-.513t1.465-.488l.488.097q1.099-.195 2.149-.439 1.05-.269 2.051-1.172l.512.098q1.49-1.001 2.881-1.685.708-.415 1.392-.805.708-.391 1.416-.904l.61-1.196.391.098q.805-1.001 1.44-2.784.659-1.806 1.66-1.806l-.39.683.097 1.197-.512-.293-.708 1.416v.879q-.196-.196-.196-.782-.097.098-.097.245 0 .146-.098.341t-.098.367q0 .146-.097.341-.098.489-.147 1.001-.049.489-.049 1.001l-.805-.317-.806.806-.098.903-.488 1.294-.806-.88-.708.49-.805 2.099q-.586.708-1.392 1.27-.805.536-1.587.536l-1.318 1.294.195.904-.976.903-.415-.317-.904.22-1.489 1q-.708.586-1.611 1.099l-.098.293-.806.39q-.781 0-1.196-.39-1.099.195-2.148.39-1.05.196-2.149.61l-2.392-.707-.806.415-1.001-.122-.488.415v1.391l-1.221 2.515.122.586q-.22.903-.317 1.807l-.196 1.806q-.708 1.099-1.269 2.198-.537 1.098-.733 2.295-.488 2.002 0 3.588.513 1.612 1.514 2.71zm7.203-36.596 1.098-1.197-.512-.097-.489.39v.22zm-2.002 3.906 1.196-1.904-.195-.489q-.415.391-.708 1.001-.098.293-.245.586-.146.293-.341.513zm-1.392 2.71.684-1.904-.098-.318-.586.318zm20.679 2.588.097-.903.708-.587.293.098zm-4.102.293.904-.489.097-.293-.195-.61-1.489.904zm-22.192 6.299.708-.904-.415-.195-.293.317zm5.102 3.71v-.61l.391-.39.415.097z"/><path fill="url(#b)" d="M38.971 155.574q-.264 0-.422-.17-.158-.164-.205-.404.1-.193.1-.574v-.352q0-.152.023-.275 0-.334.047-.674.047-.334.217-.527.07-.071.117-.287l.023-.194q.03-.023.03-.07l.047-.141q0-.123.011-.246.012-.117.035-.211.07-.193.024-.457.023-.07.07-.263l.147-.411q.023-.093.047-.181.023-.082.047-.176.076-.17.023-.217l.217-.217q0-.023-.024-.023v-.047l-.023-.047v-.076q.023 0 .047-.023.023-.024.1-.024h.07l.023-.07v-.047q-.146 0-.146-.217l.023-.023q.053-.076.1-.076.047-.071.093-.288.047-.187.217-.187v-.053q.047-.48.328-.955.276-.48.463-.867 0-.024.024-.024v-.07l.123-.264.14.024.123-.193-.07-.071q.164-.146.27-.334.111-.193.234-.433l.217-.557q.047-.117.093-.258l.094-.293q.194-.551.399-1.043t.492-.685q.117-.164.2-.346.087-.182.134-.352l.217-.714q.023-.053.047-.123l.047-.147.122-.31.024.023.047-.094.1-.07q.046-.147.14-.275.1-.135.193-.252l-.023-.053q.14-.141.14-.287 0-.024-.023-.024-.023.024-.047 0h-.047q-.146 0-.146-.093 0-.047.17-.288l.117-.205q.053-.088.076-.134 0-.141.194-.194.117-.211.27-.427.157-.217.327-.411.17-.24.299-.427.135-.194.182-.34h.093l-.023-.094q0-.076.07-.146h.252q.135 0 .252.023.123.023.229.023h.228q.287.1.686.375.398.276.398.61-.123.099-.222.222-.094.118-.164.235-.094.123-.194.24-.094.117-.217.24v.287h-.093q-.047.024-.118.024l-.076.035-.023.012v.011q0 .012.023.041l.024.047q0 .071.023.117h-.094q-.14.124-.252.282-.105.152-.228.345h.023l-.105.106q-.059.059-.035.158l-.504.598.023.123-.023.187q-.317.077-.504.504-.1.147-.17.434-.023.123-.088.269-.059.141-.105.311v-.076q-.024.023-.024.099-.023.024-.023.047 0 .024-.024.047-.023.047-.023.111 0 .059-.024.106-.046.117-.216.334v-.164l-.047-.029-.217.363-.24.357-.07.17q-.03.047-.053.1l-.047.094h-.047l.047.046q-.07.071-.117.334-.047.241-.217.264v.147l-.147.263.077.07-.387.194-.024-.047-.216.287q-.17.193-.17.334 0 .1-.117.147-.147.046-.094.169l-.1.071.07.24-.21.094q-.053.146-.053.217l.1-.071.046.194q0 .023.024.023v.07q0 .147-.094.264l-.053.047q-.047.1-.047.24l-.093-.047q0 .024-.047.071l-.024.023q.024.023.024.076v.047q-.024.024-.024.047l-.076.07h.053l-.41.627.047.141h-.07l-.048.123h.117l.094-.141q.053-.076.1-.123v-.099l.047-.047.217-.381h.046l.575-1.031-.024-.053q.047-.047.164-.188l.246-.293q.047-.07.106-.14l.111-.123q.07-.117.07-.164l.838-1.225v-.1l-.047-.07.047.047v-.047l.076.1.24-.434h.024v-.023q0-.076.117-.17.123-.094.217-.147 0-.047-.07-.07l.334-.434.07-.023q.053 0 .252-.287.205-.287.305-.381l-.053-.1q.123-.117.229-.234.11-.123.205-.223.123-.117.205-.234.082-.123.181-.24v-.1l.094.047q.123-.287.363-.451l.047.023v-.023l.07-.123q.047-.17.17-.17h.047l.17-.141v-.047q0-.099.141-.099h.023q.047 0 .17-.117l.047-.077q.047-.07.106-.14.064-.071.158-.071.07-.099.164-.193.1-.099.223-.146l.31.099q-.264.188-.48.369-.217.182-.41.399-.024.023-.118.07-.093.024-.146.07l-.047.047q-.023.077-.094.147l.024.094h-.147l-.187.24h-.03q-.24.316-.55.627-.311.287-.528.674h-.07q-.17.24-.352.492-.175.252-.369.486-.387.457-.72 1.014v.023l-1.63 2.35q-.052.094-.099.193-.047.094-.094.217l-.1.023.024.024q0 .14-.047.228-.047.082-.14.205l-.147.141q-.117.07-.14.17h-.03l-.457.861q-.31.604-.668 1.284-.357.685-.65 1.259-.264.533-.574 1.19-.311.662-.54 1.224-.228.563-.228.827 0 .123.117.316l.147.141.146.099q0 .07-.076.07-.217.094-.38.094m6.621-7.845q-.217 0-.433-.358-.211-.363-.211-.533 0-.094.047-.287.046-.194.093-.264v.024q.047-.047.076-.118.024-.076.07-.023l.048-.1h.023q.047 0 .082-.035.041-.035.065-.058h.023q.047-.047.047-.094-.023-.029.047-.076h.023l.24-.217-.023-.024h.07v-.023l.053-.07.047.023v-.023l.193-.194v.024l.024-.024h.047v-.047l.023.024.023-.094h.024q.07-.1.14-.182l.17-.181.317-.311.047.117h.023l.047-.046q0-.024-.047-.071.07-.07.07-.123l.077-.07.187-.07v.023l.024.023q0-.046.035-.14.04-.1.088-.1t.047.047l.07-.094q.053-.046.023-.07.03 0 .065-.023.035-.03.011-.053l.094.1q.047-.047.07-.083.03-.041.053-.064l.024.123.023.024v-.147l.07-.047-.046-.146q.046 0 .046-.047 0-.024.047-.024t.1.047l.07.076v.047h.047q-.14.094-.17.194-.023.093-.164.187h-.1l-.263.217h-.024v.047l-.287.363q-.14.193-.38.193l.023.024v.023q-.024.024-.024.047v.047q-.029 0-.076-.047v.024l-.457.48-.047-.023-.164.117.024.023-.217.217.047.076-.17.094v.094q-.024.023-.024.076-.117.094-.205.217-.082.117-.129.234l.094.053q.024.023.1.023.023 0 .023-.047.024-.029.07-.052.047-.024.124-.071.117-.07.14-.07v.094l.17-.071-.047-.07h.117q.047.024.123.024.047 0 .094-.047 0-.053.024-.076v-.047l.24-.094v-.024l.264-.292h.023l-.023-.047h.123l.117-.141v-.023l.047.023v-.053q.123-.047.123-.14 0-.047-.024-.071.047-.052.141-.146.1-.094.193-.217.194-.217.381-.217 0-.093.076-.117v-.023q0-.077.153-.328.158-.252.334-.493.181-.24.258-.31v.023l.046-.117.024.023.17-.193-.024-.141.024-.052q0-.047.117-.059.123-.012.17-.012l-.024-.07q-.123 0-.216-.099.023-.024.14-.024.123-.141.147-.31h.023q.123-.194.194-.458.046-.263.216-.427l-.047-.076q.047-.118.118-.241.023 0 .023-.023 0-.047.023-.047v-.047q0-.123-.023-.17t-.023-.14q0-.481-.059-.815-.059-.34-.592-.34h-.14q-.07 0-.147.024l-.31.07h-.024q-.07 0-.094-.023v-.094q0-.07.118-.07h.17v-.077l.023.024.17-.117h.117q.023 0 .047-.024l.146-.07.141.023.076-.023v.023q0-.023.094-.023t.047-.053q.123.024.217.053.093.023.146.047l.023-.047.188.164q.03.023.03-.023v-.047h.023q.217.287.527.457.31.164.358.597.023.123.023.246v.715q0 .791-.193 1.295-.188.504-.668 1.131-.047.07-.31.422-.265.346-.557.668-.288.322-.405.322l.047.076q-.117.071-.287.311-.17.217-.287.264v.117l-.457.34-.047-.047-.264.187v.024q.024.023.07.023.024 0 .024.053v.023l-.24.071v.023l-.147.147.03.07-.27-.094.03.24-.294.094v.047q-.287.123-.38.217-.147 0-.194.023l-.193.07-.024-.023v.023h-.24l-.047.1h-.334q-.047.024-.123.024m-4.799 2.209q.217-.34.457-.745.118-.24.264-.457l-.217.118q-.023.076-.07.193-.047.123-.1.17-.117 0-.164-.147l-.023.241.07.076q0 .187-.07.31-.123.117-.147.241m16.92-.458q-.24-.287-.493-.445-.252-.152-.433-.357-.176-.205-.176-.569h.047l-.07-.357-.077.07-.047.076q.024-.099.047-.181.03-.082.053-.158.023-.118.035-.223.012-.111.012-.234 0-.311.047-.61t.123-.586q.07-.293.129-.592.058-.298.105-.632h.053l.264-.627-.024-.117q-.053.093-.076.117-.023.047-.07.099-.264.381-.65.92-.382.539-.768 1.008-.381.469-.692.662-.193.117-.27.182-.07.058-.163.299-.24.046-.47.31-.228.264-.444.504-.217.24-.48.264l-.024.123q-.14.14-.381.205-.24.058-.434.082-.527-.193-1.031-.527-.504-.34-.504-.938 0-.24.07-.41h.024v-.117q-.047-.071-.024-.188.024-.123.07-.123l.024.024q.053-.077.065-.241.011-.17.011-.216l.047-.047q0-.17.164-.358.17-.193.328-.363.159-.17.159-.24.023-.024.023-.071 0-.123-.023-.193-.053-.1-.03-.17v-.094h.1l.07-.123v-.047q-.07-.046-.07-.07v-.047q0-.076.047-.123l.07-.07v-.023q0-.024.023-.047v-.053l.124-.117q.093-.1.14-.123.194-.264.317-.481h.093l.024.029-.035-.076q-.012-.023-.012-.047 0-.193.322-.55.328-.364.78-.78.456-.422.89-.791.434-.375.674-.591v-.118h.047q.093-.047.199-.14.111-.1.234-.199.24-.241.405-.264l.047-.117.146-.024.047-.047q.023-.023.047-.052.053-.024.076-.024t.047-.023l.023-.024.047-.023v-.035q0-.012.024-.035l.433-.17.047.023.334-.141.076-.076h.024l.31-.023.17-.094.047-.047v.024l.023-.024.047.047q.217-.1.434-.1t.574.077q.363.07.674.228.31.152.357.416v.053l-.504.287q.053-.123.077-.146v-.024q0-.047-.1-.047h-.14q-.505 0-.926.287t-.803.575q-.217.046-.457.287-.24.24-.434.363-.931.721-1.693 1.43-.756.703-1.424 1.687l-.316.492q-.188.299-.334.422-.117.217-.24.434-.118.217-.217.457-.094.234-.217.451-.117.217-.235.41 0 .287-.076.551-.047.146-.047.24-.023.07-.023.147 0 .07-.023.117l.093.217q.287-.118.698-.311.41-.193.41-.434l.14-.046h.047v-.047q.053-.047.076-.047h.07l.071-.1v-.117l.1.094.31-.311q0-.123.17-.146.404-.334.72-.791.165-.24.335-.457t.357-.405h.047l.316-.386-.023-.094.334-.434h.047q.047-.146.146-.287l.07.047.194-.264-.023-.023q.117-.193.257-.381.147-.193.293-.363l.276-.381q.135-.193.252-.387 0-.17.117-.31.123-.147.316-.147l.164.047q.1-.17.1-.527.117.023.193-.047l.141-.047v.047l.193.07q.094-.047.147-.047.187 0 .38.112.194.105.335.222 0 .047.023.024 0-.024.03-.024h.117q.31 0 .31.264v.076q-.117.164-.228.334-.106.17-.2.334-.193.34-.533.604v.047l-.38.55.046.094-.814 1.014-.07.023q-.053.164-.112.322-.058.159-.129.323l-.217.076q.047.047.047.117 0 .094.024.117-.194.364-.328.727-.13.357-.082.762-.07.052-.082.134t-.012.159q0 .117.012.228.011.106.035.223l.047.246q.023.117.052.234l.264-.14h.07l.024-.024.047-.076q0-.07.076-.164l.047.187.216-.093v.093h.024q.094 0 .14-.14.047-.047.118-.106.076-.064.17-.064l.023-.047v-.07q0-.123.17-.194.1-.023.158-.058.059-.035.106-.035h.023l.627-.627h.023q.047-.071.2-.2.158-.134.281-.181v-.17l.164-.047h.03l.55-.768q0 .024.047.024t.07.023q.024 0 .082-.082.065-.088.065-.135l.058-.058q.035-.035.135-.065.07-.047.117-.058t.07-.035q-.263.504-.468.914-.2.404-.393.814t-.433.785q-.24.369-.598.727l-.1-.094.17-.217-.023-.146-.047.023v.1l-.17.164q-.023.316-.217.457h-.093l-.047-.023v.123l-.147.164-.07-.024-.287.41v-.076l-.053.029-.094.047-.093.047q-.147.047-.17.147zm2.402-1.898q0-.07.023-.094l.047-.07-.094.023h.024l-.07.118.023-.024zm-1.222 11.379q-.053 0-.123-.07-.551-.194-1.008-.534-.457-.334-.457-.978 0-.34.123-.697.07-.17.105-.34.036-.164.059-.334l.1-.07.07-.387.217-.405q.093-.193.24-.509.14-.311.299-.598t.275-.381v-.123l.123.1q.264-.434.627-.739.358-.298.762-.585 0-.165.146-.194l-.076-.094.17-.046 1.535-1.295.024-.077q0-.093-.024-.164.1.024.147.164.047.147.047.053v-.053l.07-.046.053-.047q-.03 0-.053-.012l-.07-.035.07-.1.023-.047q.077-.07.123-.07.047 0 .036.047t.011.023l.217-.31.07.094.1-.118v-.046q.14-.024.416-.241t.305-.34h.047l.767-.38.404-.334h.1v.023q.264-.217.586-.445.322-.229.686-.229v-.047l.117.024q.023-.047.047-.141.029-.099.052-.193l.07-.457q0-.047.071-.369.076-.329.1-.352l.117-.123q.07 0 .07-.047 0-.023-.047-.07h-.023q-.047-.047-.047-.123 0-.141.07-.287.047-.071.059-.141.017-.076.04-.146h-.023q-.076 0-.076-.094 0-.194.147-.41.117-.194.117-.358 0-.34.076-.65.023-.17.035-.322.012-.159.012-.329 0-.187-.023-.263 0 .052-.077.099h.03q-.24.428-.592 1.032-.346.597-.697 1.189-.346.586-.657 1.02-.55.767-1.224 1.429-.674.657-1.535 1.09l-.077-.023q-.117.093-.252.117-.129.023-.252.023-.55 0-.779-.463-.228-.468-.228-.972 0-.41.058-.844.065-.434.235-.838l.07-.193q.023-.024.023-.17.118-.07.2-.276.087-.205.087-.345.124-.071.147-.24l.094-.147q.047-.07.17-.07 0-.194.058-.358.059-.17.252-.17v-.123l.117-.164-.093-.48.21-.299q.147-.205.2-.328-.076-.07-.076-.164 0-.217.293-.504l.117-.123q.17-.164.17-.358l.187-.023q.03-.147.194-.147h.046q.1-.24.182-.357.082-.123.182-.193.07-.071.117-.1l.1-.07q.164-.117.234-.211.076-.1.193-.293.053-.094.1-.164.047-.076.094-.147.363-.334.96-.48.598-.147 1.079-.147.457 0 1.043.17.591.17.855.627.264.481.492.938.229.451.229 1.025v.123q0 .07-.024.117-.023.077-.023.147v.24q0 .07.023.147.024.07.024.14v.123q0 .094-.123.369-.117.276-.264.528-.14.252-.264.252-.07 0-.093-.071-.024-.07-.024-.093 0-.123.012-.241.012-.123.035-.24l.047-.24q.023-.123.047-.24.076-.264.123-.539.047-.282.047-.545 0-.164-.024-.381-.023-.217-.093-.334-.053-.1-.1-.17t-.094-.147q-.047-.07-.123-.14-.07-.076-.117-.17-.24-.311-.574-.311-.17 0-.317.071l-.07.047q-.123 0-.205.011-.082.012-.205.088l-.14.07-.147.094q-1.535 1.008-2.69 2.549-1.148 1.535-1.892 3.211-.17.387-.352.832-.176.439-.176.85 0 .193.07.386l.024.024q.024.023.1.023.164 0 .404-.193.24-.194.48-.434t.41-.357q.165-.17.311-.194.194-.333.457-.597.118-.123.235-.252.123-.135.222-.252.575-.744 1.207-1.629.639-.891.95-1.588.046-.123.093-.264.053-.146.076-.263.024-.217.311-.457l.363-.071q.211.071.405.071.123 0 .193-.024h.193q.264 0 .323.264t.082.457q0 .07.023.094l.03.07q.023.1 0 .17.023.117.034.205.012.082.012.129 0 .41-.1.697-.117.364-.117.698 0 .263-.146.527-.14.24-.14.551 0 .24-.17.24h-.024q-.047 0-.07.023 0 .047.047.1.023.047.023.141 0 .023-.035.134-.035.106-.059.153-.023.099-.193.099-.1.024-.17.035t-.117.012h-.024q0 .047.07.024.024-.024.118-.024.053 0 .17.012.123.012.123.105 0 .077-.1.305-.094.229-.205.469-.105.234-.152.357l.093.117-.046.053q0 .024-.024.047l-.1.094q.58.123.868.375.287.252.287.92 0 .263-.094.34-.076.046-.123.164-.023.052-.082.123-.059.07-.111.07-.094 0-.094-.07v-.024h-.07l.14-.387q.024-.07.047-.146.03-.07.03-.141 0-.263-.41-.398-.41-.129-.674-.176-.381.908-.874 1.799-.492.891-.972 1.752-.17.31-.352.621-.176.316-.369.65-.387.651-.79 1.225-.312.457-.722.938-.386.457-.72.931-.31.481-.686.721-.369.24-.78.445-.404.205-.884.586-.24 0-.48.17-.217.17-.48.123-.048.047-.071.047m3.117-14.039.047-.024-.07-.076-.047.1zm-3.65 13.148q.1-.023.181-.035.082-.012.135-.012.07-.046.146-.111.07-.058.164-.105l.358-.217q.193-.117.363-.24.164-.118.287-.241.047-.047.1-.093l.094-.094q.047-.076.105-.147.059-.07.111-.117.047-.076.106-.146.059-.071.105-.117.053-.077.112-.147.058-.07.105-.117l.147-.076v.023q.117-.14.258-.287.146-.141.292-.24l-.023-.024.434-.41v.147l.07-.071.047-.047.146-.339-.023-.024-.076.071h-.094v-.094q.287-.381.668-.826.387-.446.697-.903.317-.457.34-.861l.38-.387h.024l.48-.814-.07-.17.768-.961q.023-.164.194-.358.14-.193.14-.386 0-.071-.047-.071-.24 0-.838.434-.093.047-.216.117-.118.076-.24.17-.241.17-.458.217l-1.078.838h-.023l-1.922 1.588q-.164.164-.428.545-.27.386-.387.703l-.093-.1q.023.024-.123.264-.047.123-.094.205-.053.082-.076.135v.047q0 .023-.024.07-.023.047-.094.023l-.023-.023-.603.937h-.07l-.024-.023q-.024.047-.024.117t-.023.123q0 .117-.1.188l-.45 1.131q0 .093-.013.175-.011.088-.04.182-.047.193-.047.34 0 .428.287.644m12.459-9.287q-.264 0-.528-.07-.387-.147-.767-.791l.187-.053-.164-.117-.193-.598h-.024q-.023-.076-.023-.216v-.17q0-.094.117-.334.123-.241.217-.457l-.24.046v-.117q.023-.023.076-.123.023-.07.117-.094.023.024.023.071l.047-.047v-.123q0-.094.012-.199.012-.112.088-.182 0-.147.023-.17l.024-.094h.046v-.099l.147-.188q.117-.123.14-.123v-.023q-.023.023-.07.023-.093 0-.093-.094 0-.023.023-.046v-.124q.023-.023.023-.117 0-.099-.046-.146l.164-.194.1.024-.024-.024h.047l.023-.023.07-.264.123.194.07-.41.048-.235.046-.246.264-.023v-.194h-.07v-.117l.117-.117v.023l.03-.023v-.123l.21-.147v-.093q.17-.094.293-.334.07-.17.334-.217h-.146l.023-.024-.094.071v-.194h.047l.024-.047h.023l.053-.093v-.123q.14-.094.293-.235.158-.146.158-.316l.1-.07v-.1l.093.053.311-.293V140l.193-.117.1-.147q0-.07.07-.07.024 0 .106.035.088.035.134.059h.141q.387 0 .768.275.386.276.65.662.264.381.264.768 0 .117.07.24.03.07.041.147.012.07.012.164v.093q0 .1-.024.123-.41.961-1.265 1.852-.85.885-1.764 1.389-.187.093-.428.193-.24.094-.48.094-.07 0-.1-.024l-.164-.047q.07-.023.217-.123l.094-.046.093-.047.147-.071q.047 0 .07-.023l-.023-.029q0-.094.123-.094.14-.094.24-.117l.24-.077.246-.082q.112-.035.112-.134.094-.071.24-.311.17-.287.24-.357l.217-.047.24-.363-.047-.094.188-.1v-.094h.053q.263-.287.416-.515.158-.229.275-.615 0-.047.076-.047v-.024q.14-.287.14-.55 0-.575-.55-.575-.047 0-.123-.023-.094 0-.094.047h.123l-.123.093q-.117.047-.228.147-.106.094-.106.264h-.1q.053 0 .077.093-.17 0-.24.094l.117.076q-.047.047-.123.082-.07.035-.14.082-.071.03-.147.065-.07.035-.117.082-.264.193-.264.357 0 .03.023.053.024.023.059.047.035.023.088.07l-.194-.023.024-.012q.023-.012.047-.012-.094 0-.14.024-.054 0 0 .047l.022.023h-.011q-.012 0-.012.024-.023.029-.023.052h-.053q-.094.117-.182.24-.082.118-.129.241-.093.211-.263.427l.17.124h-.17l-.094.093v.123l-.147.117.047.024-.24.41-.07.024v.193l-.264.287.024.094h-.047v.17q-.17.17-.217.433-.023.24-.194.481h.147l-.193.117v.07q-.024.024-.024.076 0 .094.012.17.012.071.035.141t.035.146q.012.071.012.164 0 .194.158.493.158.298.322.298.457 0 .915-.24.433-.263.884-.287l.504-.404q.387-.317.674-.744.31-.434.697-.744h.024l-.047-.053.21-.287q.147-.194.17-.311.024-.023.024-.094 0-.052.03-.076.046-.117.14-.117.1 0 .1.117 0 .076-.03.1 0 .24-.205.685-.199.44-.463.539v.071q-.123.117-.24.334l-.469.603q-.298.381-.492.381l-.334.217v.094q0 .123-.146.17-.094.123-.24.093-.07.147-.24.194-.071.023-.218.123-.046.07-.228.146-.176.071-.252.094-.117.094-.287.105-.164.012-.287.012zm8.974.363q-.023-.029-.07-.029-.023-.023-.1-.023-.023-.024-.07-.047-.047-.024-.093-.07h.164q.052-.024.11-.047.06-.024.083-.047.146-.1.217-.123.123-.071.252-.346.134-.275.263-.598l.205-.498.07-.287q0-.117.048-.263.052-.264.158-.504.105-.241.228-.504l.047-.217q0-.193.024-.24-.024 0-.024-.024h-.047q-.023 0-.047-.023 0-.024.024-.047v-.023l.193-.364q.094-.187.287-.24.07-.187.276-.545.205-.363.205-.51 0-.193-.076-.357-.094-.123-.094-.34 0-.047.012-.094.011-.047.035-.093.023-.053.023-.112 0-.058.024-.105.023-.047.07-.264.053-.217.1-.445.046-.229.07-.299.076-.557.264-.768l-.047-.052q.123-.141.228-.334.111-.194.111-.381 0-.1-.029-.147-.047-.047-.047-.123 0-.117.094-.187.1-.076.17-.123v-.024q-.14-.047-.187-.093-.077-.077-.17-.077v-.093q0-.024-.012.011t-.035.035q.023 0 0 .024l-.076-.024q-.047-.023-.082-.023t-.082-.023q-.047 0-.1-.012-.047-.012-.094-.035-.094-.024-.094-.123 0-.047.118-.106.123-.058.17-.058.357.07.873.193.515.117.984.287.469.164.615.381.047.07.059.158.011.082.011.153 0 .216-.123.503l-.21.504q-.077.1-.077.194 0 .099-.158.281-.152.176-.27.223.024.023.024.035v.011q0 .053.023.077.094 0 .047.07.047.047.047.146 0 .071-.035.159-.035.082-.135.105-.023.024-.023.047-.047.094-.047.17v.023h.023q0 .264-.164.287-.052.194-.17.457-.17.311-.24.475v.029q0 .071-.047.071l-.047.047q-.029.07-.123.17-.023.046-.058.082-.035.035-.059.082l-.1.146q-.046.07 0 .193h-.023v.024q0 .07-.023.07-.047.1-.135.194-.082.093-.223.14l-.767 1.875q-.03.094-.147.147l.147.14h-.194l.094.1h-.117l-.023.023h-.053q-.024.024-.117.024v.14l.046.024-.093.17-.024.023h-.076l-.094.047q-.047.053-.047.1 0 .14.024.164.094-.094.322-.358.229-.263.469-.586.24-.328.404-.603.17-.276.147-.346.123 0 .216-.24.07-.07.123-.147.024-.046.094-.117.48-.387.862-.849.386-.469.767-.95.364-.48.768-.961.41-.48.96-.937l.926-.756q.516-.422 1.043-.732.528-.311.938-.311.287 0 .287.311 0 .123-.023.281-.024.152-.07.269-.147.411-.34.844-.188.428-.381.838-.17.358-.264.674-.123.381-.287.691-.053.077-.088.112l-.059.058q0 .024-.011.088-.012.059-.035.129l.17-.023q-.17.38-.282.709-.105.322-.105.679 0 .076-.047.123v.024q-.123 0-.147-.024-.047 0-.093.047-.024.024-.024.1-.023.023-.023.058t-.024.059l.164-.07q-.023.216-.07.381-.023.099-.035.169t-.012.17q0 .334.153.551.158.217.515.217.076 0 .1-.023h.07q.1-.053.264-.135.17-.082.34-.205.187-.117.357-.235.17-.123.31-.463-.093.434-.158.545-.058.106-.392.393-.334.264-.827.592-.492.322-.972.322-.41 0-.686-.252-.275-.252-.445-.562l-.094-.1q-.094-.094-.094-.193 0-.047.024-.071v-.047l.14-.046.024-.024q-.023-.053-.035-.1-.012-.046-.012-.093v-.17q0-.481.082-.961.088-.481.205-.955h.024q.052-.41.217-.674l.046-.07h-.117l.07-.1-.07-.217q.047-.094.176-.439.135-.352.252-.686.123-.34.146-.387-.093 0-.164.077-.65.474-1.13 1.125-.24.334-.493.65-.252.311-.515.621-.528.604-1.125 1.201-.317.287-.58.586-.264.299-.528.639l-.72.961q-.358.457-.768.908-.287.287-.574.287-.147-.023-.3 0-.157.029-.327.029zm3-4.587q.047-.118.147-.118l-.076-.099q-.024.053-.047.111t-.047.106zm9.026 5.519q-.264 0-.445-.135-.182-.129-.346-.322-.316-.404-.533-.691-.211-.287-.211-.868v-.744q0-.216.117-.656.123-.445.299-.879.182-.433.328-.574.211-.697.498-1.365.293-.674.75-1.231-.24-.574-.316-1.183-.07-.616-.07-1.237 0-.193.011-.345.012-.159.035-.352l.076-.094.024-.023v-.1q-.023-.023-.023-.07 0-.1.07-.311.07-.216.129-.433.064-.217.064-.24 0-.047.094-.071l.117-.052q.03-.024.123-.071l.07-.047q.217-.287.633-.404.422-.123.762-.123.72 0 1.066.492t.54 1.113q.17-.117.34-.117.07 0 .117.047.386.094.878.41.493.311.493.668v.047q0 .123-.24.34t-.569.445q-.322.229-.621.422-.299.188-.422.258-.17.1-.334.17-.1.023-.17.088-.07.058-.17.105-.117.094-.228.194-.106.093-.223.211l-.217.216q-.076.077-.123.135t-.117.106q-.047.047-.158.123-.106.07-.229.164-.287.193-.31.363-.024.023-.088.205-.059.176-.059.252 0 .264.07.639.077.369.223.703.07.193-.006.422-.07.228-.257.082-.194-.194-.34-.504-.14-.311-.164-.457-.03-.047.017-.07.053-.024.006-.071l-.053-.053q-.023-.023-.023-.07l-.047-.047q-.193.194-.41.639-.211.439-.31.68l-.141.339q-.123.264-.17.264-.094 0-.094-.123v-.023q0-.147.07-.311l.147-.387q-.123.194-.211.422-.082.229-.082.299v.024l.023.046q0 .03.03.053v.094q-.03 0-.03.047-.047.24-.117.48t-.146.481q-.164.433-.164 1.008 0 .386.14.673.147.287.557.287.21 0 .38-.07.194-.076.563-.351.375-.276.756-.645.387-.375.662-.709.276-.34.276-.504.07-.123.187-.252.123-.135.076-.252.31-.48.54-1.166.228-.685.38-1.4.158-.721.211-1.277.047-.188.07-.264.047-.094.07-.117l.024-.024q.047-.047.047-.146v-.117q0-.077-.023-.147-.047-.141-.047-.264 0-.093.07-.263.076-.17.217-.17.17 0 .264.263.1.264.158.569.058.299.058.469 0 .55-.123 1.236-.117.68-.304 1.23-.17.457-.375.797-.206.334-.47.744l-.24.381-.093.17q-.024-.023-.035.088-.012.106-.065.106-.023 0-.035.035t-.035.058q-.117.194-.287.334-.094.1-.182.182-.082.082-.129.182-.263.38-.662.826-.392.445-.861.756-.469.31-.973.31m1.055-8.086.023-.047.047-.193q.076-.311.528-.744.457-.434.744-.721.216-.193.433-.433.217-.241.434-.405-.047-.193-.205-.504-.159-.31-.34-.562-.176-.252-.346-.252-.263 0-.48.211l-.047.053q-.024.07-.094.07l-.123.07q0 .024-.023.024v.046q-.094.217-.217.457-.07.1-.106.182l-.058.135q-.123.404-.205.838t-.082.861q0 .24.023.469t.094.445m5.688 3.147q-.194.093-.305-.024-.105-.123-.006-.246.117-.117.141-.211.023-.099.023-.217v-.193q0-.17.03-.193l.14-.141q.024-.053.147-.1l.117-.334q-.17-.193.047-.41l.023-.023v-.024l.053-.07.14-.24.024-.047h.053q-.053-.123.07-.264.047-.123.14-.24.1-.123.194-.264.24-.263.264-.48.047-.193.217-.34-.024 0-.024-.047 0-.023-.023-.023 0-.024.023-.047v-.023q.047-.047.164-.252.123-.206.246-.422l.094-.141q.047-.076.094-.17l.123-.217-.651-.216q-.48-.17-.843-.469-.358-.299-.358-.873 0-.264.159-.457.158-.194.322-.334.1-.1.1-.123.193-.241.38-.129.194.105 0 .299l-.14.187q-.1.147-.194.281-.094.129-.094.323 0 .24.346.421.346.176.768.276.422.094.586.094.984-1.295 1.945-2.567.961-1.271 1.922-2.566.094-.1.094-.34l.89-.938q.094.053.176.077l.182.047q.099.023.181.046.082.024.182.047.187.047.357.123.17.071.311.241.264.263.264.644 0 .41-.334.697-.358.287-.621.551-.1.076-.188.147-.082.07-.176.17-.193.187-.433.187v-.164h.076q.094-.123.199-.264.111-.146.205-.263.24-.264.363-.534-.099.1-.181.17t-.182.147q-.094.07-.181.158l-.176.176q-.123.17-.387.469t-.574.632q-.264.34-.539.604l-.399.381-.023.023.099.1-.316.117.023.023q0 .194-.123.27-.117.07-.234.07-.047.141-.135.252-.082.106-.275.182.023.023.023.07 0 .024.03.047 0 .023.023.047h-.053v.047h-.117q-.023 0-.047.099l.071.118q.023.023.023.099.334-.363.645-.72.316-.364.65-.745l1.301-1.441h.047q0 .023.023.023 0 .024.023.024 0 .17-.263.533-.264.357-.651.779l-.732.803q-.346.381-.539.598-.07.07-.17.217-.07.07-.164.216h.217q.31 0 .562-.035.252-.041.516-.088.117-.023.234-.058.123-.035.246-.059l.235-.047q.123-.023.246-.053.287-.046.767-.152.481-.111.698-.275.621-.194 1.224-.287l.024-.012q.023-.018.07-.041.047 0 .07-.024.047-.07.123-.07l.194-.07.187-.053v-.023q.34-.071.651-.2.31-.134.644-.281.317-.117.615-.222.299-.112.61-.112l.076-.14q.287-.293.644-.293v.076q.1.094.1.217 0 .07-.053.07-.211.217-.474.24l.035.07q.012.024.012.047 0 .076-.077.076-.093.071-.24.071-.117 0-.117-.147l.07-.047q-.14 0-.193-.046-.164.433-.551.433l-.047.188-.263-.071q-.118.123-.241.123-.046.118-.082.205-.035.083-.181.083.023-.024.023-.077-.023-.023-.023-.047-.17.194-.399.34-.222.141-.539.141l-.023-.164h-.024q.024.023.024.117t-.082.147q-.082.046-.135.046-.023 0-.023-.023h-.047q-.117.094-.217.094-.047 0-.07-.024h-.071q-.123.094-.222.106-.094.011-.282.041-.316.047-.662.17-.345.117-.662.234-.023.023-.117.023-.047 0-.047.024-.744.387-1.512.41-.82.07-1.588.217-.07.023-.146.035-.07.012-.164.012t-.17.011q-.07.012-.141.036-.146.023-.363.228t-.41.445q-.188.241-.281.381-.1.1-.223.211-.117.106-.234.199-.241.17-.434.434l-.123.123q-.07.07-.117.164-.117.217-.287.24.047.118-.047.17l-.053.047q-.21.217-.21.504-.077.07-.124.193l-.023.094-.07.094q-.124.17-.235.398-.106.229-.223.493-.123.263-.246.492-.117.228-.234.422m-.744 6.474q-.17 0-.375-.07-.2-.07-.322-.193-.118-.141-.346-.516-.229-.369-.229-.563 0-.457.047-.89.047-.428.147-.885.14-.117.164-.287t.052-.34q.188-.187.211-.474.03-.293.293-.293l.047-.047q.024-.024-.023-.117-.053-.124-.076-.206-.024-.082.052-.205.024-.047.047-.105.024-.065.047-.088t.07-.164l.135-.469q.059-.205.252-.422.117-.093.211-.011.1.082.076.205 0 .14-.07.287h.187q-.093.457-.216.914l-.235.908q-.293.891-.293 1.828 0 .838.34 1.559l.334-.194.123-.216v.263l.047.123q.047-.123.14-.216.1-.094.294-.094l.023.164q0 .07-.023.099-.147.311-.463.51-.31.205-.668.205m11.158-5.326q-.094.1-.252-.07-.153-.17-.059-.17.047-.193.205-.504t.299-.551q.434-.674.627-1.248.047-.123.164-.299.123-.181.217-.228l.193-.24q-.123-.094-.17-.094h-.07q.193-.34.346-.592.158-.252.422-.516-.551-.093-1.043-.38-.493-.293-.493-.938 0-.311.141-.41.147-.117.147-.217.023-.047.093-.129.076-.088.123-.088t.047.076q0 .071.047.071-.023.146-.164.386-.123.188-.123.381 0 .241.264.422.263.182.609.276.352.093.545.14.527-1.125 1.184-2.179.662-1.055 1.336-2.116.48-.767.984-1.535t1.055-1.465q.48-.574.961-1.101.24-.264.468-.539.229-.276.469-.569.621-.814 1.354-1.23.732-.422 1.623-1.026.31.1.738.329.433.228.433.562 0 .024-.011.088-.012.059-.035.129-.17.094-.34.205l-.358.228q-.164.094-.334.229-.17.129-.31.252-.147.094-.387.369t-.469.527q-.228.252-.369.323l-.047-.071q-.123.194-.363.411t-.457.287l.053.07-.41.311v-.047h.023l.094-.118v-.046h-.024v.023q-.047.047-.193.158-.141.106-.188.129l-.216.457q.457-.023.193.334 0 .094-.328.457l-.744.826q-.416.469-.756.879-.334.405-.358.598-.31.24-.492.422-.181.176-.328.404-.14.229-.404.639l.07.217-.961 1.101q-.023.1-.094.217-.07.117-.169.24-.211.24-.211.481 0 .14.093.14.241 0 .657-.322.421-.322.867-.68.445-.363.732-.41v-.023q.574-.457 1.114-.862.544-.41 1.119-.82l.093.023q.1-.093.147-.24l.264.024v.023h.023v.123q0 .164-.07.24-.147 0-.147.071.071.07.071.093 0 .03-.071.041t-.094.012v.024l-.363.24q0 .07-.023.117-.024.07-.024.123-.093-.023-.093-.17 0-.047.011-.117.012-.076.035-.17h-.046q-.024.024-.077.111-.047.082-.047.106l.024.047v.047q-.047.046-.117.093-.1.077-.1.123h.076q.024.024.071.024l-.071.07-.076.1h-.023q0-.047-.024-.047-.047 0-.07-.029l-.24.339-.071-.123-.193.241v.023q-.07 0-.287.158t-.41.328q-.194.164-.194.258h-.023l-1.078.557h.023l-.433.357h-.024v-.047q-.023-.023-.023-.046h-.024v.023q-.046.023-.117.094l-.146.093h.146q.024.03.117.03.287 0 .457-.1h.528q.094 0 .193-.023.094-.024.188-.024h.375q.082 0 .181.024.094.023.164.023h.17q.17 0 .551-.058.387-.059.791-.106.41-.053.697 0 .287.047.287.264 0 .094-.093.07l-.147-.047q-.187 0-.164-.076.047 0 .024-.012-.024-.011-.094-.035l-.147-.047q-.146.241-.386.241-.071 0-.17-.012-.094-.012-.211-.035l-.071.164-.293-.117q-.187.117-.334.093-.023.024-.07.147-.047.117-.146.117v-.094q-.024-.023-.024-.094l-.047-.029q-.334.193-.65.193-.217 0-.311-.023h-.287q-.674 0-1.371.147l-.047-.024q-.093.024-.17.024h-.451q-.31.164-.603.164v.029l-.24.31q-.047-.023-.118-.023-.093 0-.146-.023l-.815.884-.216.287q-.141.194-.264.194v.094l-.024.052q-.24.211-.287.334l-.17.41q-.14.164-.369.657-.228.492-.351.732m9.17-8.232q-.024 0-.024-.047t.059-.24.111-.241q.188-.263.645-.72t.937-.92q.481-.469.768-.709l.094.093.076-.07v-.023q.047-.194.129-.358.087-.17.205-.34h.023v-.093q0-.1.047-.1.053 0 .1.047l.457-1.148h.023q.047 0 .094.046l.047.047.047.047q-.024-.07-.012-.14.012-.077.035-.17.053-.147 0-.287l.1-.124q.046-.263.14-.644.076-.41.076-.604v-.304q0-.147-.023-.317t-.023-.31v-.317q0-.093.046-.093.047 0 .118.07.339.24.421.603.082.358.082.745 0 .193-.011.386-.012.188-.035.381l-.118.047q-.052.147-.052.264l-.071.263q-.023.071-.099.205-.071.129-.117.206-.024.046-.17.345l-.323.686q-.175.381-.345.662-.17.275-.241.275l-.023.024-.047-.047h-.076q-.357.621-.744.937-.381.311-.803.575t-.949.791q-.164.14-.287.287-.117.14-.24.31h-.012q-.012 0-.035.024m-.815 3.48.024-.07-.1-.024v.047l-.047.024zm-9.047 10.682q-.316 0-.58-.217-.07-.193-.287-.434-.193-.263-.193-.427 0-.194.012-.399.011-.205.041-.398l.046-.393.047-.398q.117-.094.158-.24.036-.141.036-.288.187-.117.199-.392.017-.281.228-.281 0-.118.03-.141 0-.07.023-.1l-.023-.117.023-.023q.047-.17.106-.598.058-.433.158-.65.094-.123.07-.071-.023.047-.012.147.012.094.159.094.046 0 .105-.241.059-.24.135-.24h.094q.046 0 .046.047 0 .164-.093.357-.123.264-.147.481-.047.387-.123.773-.07.381-.187.739-.241.697-.241 1.511 0 .411.059.756.059.352.252.686.047-.024.205-.112.158-.082.182-.105v.023l.07.17h.047q.047-.093.105-.193.065-.094.182-.094l.053.117-.053.024q-.117.264-.369.445-.252.182-.563.182m9.791-2.139q-.264 0-.445-.135-.182-.129-.346-.322-.316-.404-.533-.691-.211-.287-.211-.868v-.744q0-.216.117-.656.123-.445.299-.879.182-.433.328-.574.211-.697.498-1.365.293-.674.75-1.231-.24-.574-.316-1.183-.071-.616-.071-1.237 0-.193.012-.345.012-.159.035-.352l.077-.094.023-.023v-.1q-.023-.023-.023-.07 0-.1.07-.311.07-.216.129-.433.064-.217.064-.24 0-.047.094-.071l.117-.052q.029-.024.123-.071l.07-.047q.217-.287.633-.404.422-.123.762-.123.721 0 1.066.492t.539 1.113q.17-.117.34-.117.071 0 .118.047.386.094.878.41.493.311.493.668v.047q0 .123-.241.34-.24.217-.568.445-.322.229-.621.422-.299.188-.422.258-.17.1-.334.17-.1.023-.17.088-.07.058-.17.105-.117.094-.228.194-.106.093-.223.211l-.217.216q-.076.077-.123.135t-.117.106q-.047.047-.158.123-.106.07-.229.164-.287.193-.31.363-.024.023-.088.205-.059.176-.059.252 0 .264.071.639.076.369.222.703.071.193-.006.422-.07.228-.257.082-.194-.194-.34-.504-.141-.311-.164-.457-.03-.047.017-.07.053-.024.006-.071l-.053-.053q-.023-.023-.023-.07l-.047-.047q-.193.194-.41.639-.211.439-.311.68l-.14.339q-.123.264-.17.264-.094 0-.094-.123v-.023q0-.147.07-.311l.147-.387q-.123.194-.211.422-.082.229-.082.299v.024l.023.046q0 .03.03.053v.094q-.03 0-.03.047-.047.24-.117.48t-.146.481q-.164.433-.164 1.008 0 .386.14.673.147.287.557.287.211 0 .381-.07.193-.076.562-.351.375-.276.756-.645.387-.375.662-.709.276-.34.276-.504.07-.123.187-.252.123-.135.076-.252.311-.48.539-1.166t.381-1.4q.158-.721.211-1.277.047-.188.07-.264.047-.094.071-.117l.023-.024q.047-.047.047-.146v-.117q0-.077-.023-.147-.047-.141-.047-.264 0-.093.07-.263.076-.17.217-.17.17 0 .263.263.1.264.159.569.058.299.058.469 0 .55-.123 1.236-.117.68-.304 1.23-.17.457-.375.797-.206.334-.469.744l-.24.381-.094.17q-.024-.023-.035.088-.012.106-.065.106-.023 0-.035.035t-.035.058q-.117.194-.287.334-.094.1-.182.182-.082.082-.129.182-.263.38-.662.826-.392.445-.861.756-.469.31-.973.31m1.055-8.086.023-.047.047-.193q.076-.311.527-.744.458-.434.745-.721.216-.193.433-.433.217-.241.434-.405-.047-.193-.205-.504-.158-.31-.34-.562-.176-.252-.346-.252-.263 0-.48.211l-.047.053q-.024.07-.094.07l-.123.07q0 .024-.023.024v.046q-.094.217-.217.457-.07.1-.106.182l-.058.135q-.123.404-.205.838t-.082.861q0 .24.023.469.024.228.094.445m11.805 7.559q-.357 0-.609-.17-.252-.164-.516-.428l.047-.047q0-.023-.047-.076-.17-.217-.228-.334-.059-.117-.106-.24-.023-.117-.053-.235-.023-.123-.093-.339-.024-.1 0-.123v-.704q0-.111-.024-.234-.023-.094-.035-.176-.012-.088-.012-.134 0-.024.047-.165 0-.076.024-.099-.047-.047-.047-.07v-.012q0-.012.023-.035l.024-.024.023-.023q0-.029.023-.053-.023 0-.023-.023 0-.047.023-.047-.046-.24.024-.358.076-.146 0-.41h.123v-.17l.023-.023-.123-.164.17-.03v-.023q0-.023.024-.047.263-.621.433-1.224l-.146.023v-.164h.053q.117-.193.21-.434.053-.123.1-.193t.07-.164l-.023.023q-.17.164-.193.358-.024.123-.082.217-.059.093-.159.193-.093.094-.164.117-.099.07-.146.193-.217.481-.516.915l-.586.837q-.052.071-.146.17-.094.094-.147.211-.07.123-.117.241l-.146.24q-.047.099-.118.17l-.169.17-.334.31q-.604.697-1.243 1.383-.632.68-1.47 1.09-.071.023-.123.035-.047.012-.094.012-.287 0-.469-.264-.176-.264-.176-.527 0-.123.047-.264l.094-.24q.047-.147.047-.264 0-.123.053-.264.07-.263.164-.492.099-.228.216-.492l.047-.217q0-.17.024-.217-.117-.046-.117-.07 0-.023.023-.023v-.024q.07-.146.176-.351.111-.205.304-.229.118-.264.223-.504.111-.24.234-.48.241-.451.358-1.031l.07-.094h-.047l-.07-.1.094-.14-.141-.071.141-.076h-.094v-.047q-.023-.023-.023-.07t.023-.07q.094-.17.117-.34.053-.194.147-.287h-.024l-.023.023h-.047q-.076 0-.076-.047v-.023q0-.264.146-.504.024-.1.047-.17.024-.07.047-.164.023-.076.035-.147.018-.07.018-.146 0-.094-.03-.141-.046-.099-.046-.17 0-.093.082-.164.087-.076.158-.123v-.023q-.047-.024-.182-.082-.129-.065-.152-.065l.023-.093q-.047.046-.07.046.023 0 0 .024h-.053q-.07-.024-.263-.07-.211-.047-.211-.147 0-.047.117-.105.123-.059.17-.059.334.07.826.182.492.105.937.252.446.14.61.38.047.071.058.159.012.082.012.152 0 .217-.105.48-.106.264-.205.481-.071.146-.071.193l-.047.141q-.123.123-.17.193-.093.1-.216.147l.023.07.023.024q.053.046.053.07.047.099.047.193 0 .047-.023.123-.024.071-.123.094l-.047.047h.023q-.047.099-.047.17v.07q0 .047-.023.123-.024.07-.1.094l-.158.387q-.105.263-.199.357l-.07.147.023.07-.1.07q-.023.17-.187.334-.17.123-.123.34h-.047q.023.023.023.047 0 .047-.047.047-.023.076-.099.158-.07.082-.211.129-.076.264-.223.709-.14.445-.263.808l-.141.428q.023.024.1.024.093 0 .281-.106.193-.111.146-.275.1 0 .17-.123.094-.094.17-.117.287-.241.551-.493t.504-.539q.24-.293.48-.58.241-.287.481-.551.023-.023.299-.357.275-.34.656-.82.387-.481.767-.985.387-.504.627-.861.241-.357.217-.457h.194l.023.023.047-.047-.117.024v-.141h.047q.046-.076.093-.146t.094-.117q.076-.077.123-.293.024-.094.047-.176l.047-.182q.053-.17.264-.193l.029-.024q.211 0 .644.077.434.07.78.216.351.141.351.381 0 .194-.158.481t-.346.551q-.099.117-.17.263-.07.147-.17.264-.164.264-.287.551h-.07v.047q-.047.029-.135.111l-.129.129h.071q0 .123-.024.193l-.023.193-.147.241h-.117q0 .093-.123.093-.07 0-.07-.046-.024 0-.024-.071 0-.047.047-.047l.123-.24-.052-.053q-.071.17-.106.293-.035.118.012.311h-.024l.024.023-.117.047-.03.17-.07.217q-.07.24-.217.287l.047.094-.07.287-.071.1h.024l-.311.48q.024.023.024.117 0 .194-.1.363-.094.165-.14.381l.023.071-.047.052q.024 0 .024.047l.216.071q-.123 0-.17-.024v.352q0 .082-.023.175-.023.094-.035.17-.012.071-.012.164 0 .194.07.34.047.071.059.159.012.082.035.175.029.047.029.159v.228q.024.188.323.334t.492.146q.24 0 .381-.076.146-.07.34-.187l-.024.023h.094v.024q-.117.263-.504.439-.387.182-.627.182m-5.133-4.248h.024q.047-.094.093-.117l-.023-.1q-.047.076-.094.217m5.735 3.843q-.023-.029-.07-.029-.023-.023-.099-.023-.024-.024-.071-.047-.047-.024-.094-.07h.165q.052-.024.111-.047.058-.024.082-.047.146-.1.217-.123.123-.071.252-.346.134-.275.263-.598l.205-.498.071-.287q0-.117.047-.263.052-.264.158-.504.105-.241.228-.504l.047-.217q0-.193.024-.24-.024 0-.024-.024h-.047q-.023 0-.047-.023 0-.024.024-.047v-.023l.193-.364q.094-.187.287-.24.071-.187.276-.545.205-.363.205-.51 0-.193-.076-.357-.094-.123-.094-.34 0-.047.012-.094.011-.047.035-.093.023-.053.023-.112 0-.058.024-.105.023-.047.07-.264.053-.217.1-.445.046-.229.07-.299.076-.557.264-.768l-.047-.052q.123-.141.228-.334.112-.194.112-.381 0-.1-.03-.147-.047-.047-.047-.123 0-.117.094-.187.1-.076.17-.123v-.024q-.141-.047-.187-.093-.077-.077-.17-.077v-.093q0-.024-.012.011t-.035.035q.023 0 0 .024l-.076-.024q-.047-.023-.082-.023t-.083-.023q-.046 0-.099-.012-.047-.012-.094-.035-.094-.024-.094-.123 0-.047.118-.106.123-.058.169-.058.358.07.874.193.515.117.984.287.469.164.615.381.047.07.059.158.011.082.011.153 0 .216-.123.503l-.211.504q-.076.1-.076.194 0 .099-.158.281-.152.176-.269.223.023.023.023.035v.011q0 .053.023.077.094 0 .047.07.047.047.047.146 0 .071-.035.159-.035.082-.135.105-.023.024-.023.047-.047.094-.047.17v.023h.023q0 .264-.164.287-.052.194-.17.457-.17.311-.24.475v.029q0 .071-.047.071l-.047.047q-.029.07-.123.17-.023.046-.058.082-.035.035-.059.082-.053.076-.099.146t0 .193h-.024v.024q0 .07-.023.07-.047.1-.135.194-.082.093-.223.14l-.767 1.875q-.03.094-.147.147l.147.14h-.194l.094.1h-.117l-.024.023h-.052q-.024.024-.117.024v.14l.046.024-.093.17-.024.023h-.076l-.094.047q-.047.053-.047.1 0 .14.024.164.094-.094.322-.358.229-.263.469-.586.24-.328.404-.603.17-.276.147-.346.123 0 .216-.24.071-.07.124-.147.023-.046.093-.117.481-.387.862-.849.386-.469.767-.95.363-.48.768-.961.41-.48.961-.937l.925-.756q.516-.422 1.043-.732.528-.311.938-.311.287 0 .287.311 0 .123-.023.281-.024.152-.071.269-.146.411-.34.844-.187.428-.38.838-.17.358-.264.674-.123.381-.287.691-.053.077-.088.112l-.059.058q0 .024-.011.088-.012.059-.036.129l.17-.023q-.17.38-.281.709-.105.322-.105.679 0 .076-.047.123v.024q-.123 0-.147-.024-.047 0-.093.047-.024.024-.024.1-.023.023-.023.058t-.024.059l.164-.07q-.023.216-.07.381-.023.099-.035.169t-.012.17q0 .334.152.551.159.217.516.217.076 0 .1-.023h.07q.1-.053.264-.135.17-.082.34-.205.187-.117.357-.235.17-.123.31-.463-.093.434-.158.545-.058.106-.392.393-.334.264-.826.592-.493.322-.973.322-.41 0-.686-.252-.275-.252-.445-.562l-.094-.1q-.093-.094-.093-.193 0-.047.023-.071v-.047l.141-.046.023-.024q-.023-.053-.035-.1-.012-.046-.012-.093v-.17q0-.481.082-.961.088-.481.205-.955h.024q.052-.41.216-.674l.047-.07h-.117l.07-.1-.07-.217q.047-.094.176-.439.135-.352.252-.686.123-.34.146-.387-.093 0-.164.077-.65.474-1.131 1.125-.24.334-.492.65-.252.311-.515.621-.528.604-1.125 1.201-.317.287-.58.586-.264.299-.528.639l-.72.961q-.358.457-.768.908-.287.287-.574.287-.147-.023-.299 0-.158.029-.328.029zm3-4.587q.047-.118.147-.118l-.076-.099q-.024.053-.047.111-.024.059-.047.106zm7.251 3.843q-.1 0-.1-.052-.094-.047-.117-.047l-.07-.047-.03-.047h-.023l-.264-.217.047-.094q-.287-.216-.346-.574-.058-.363-.058-.674 0-.24.047-.445t.17-.398l-.047-.071.117-.07v-.053q0-.334.299-.873t.679-1.066q.387-.528.657-.791l-.03-.029q.1-.118.288-.393.193-.275.398-.504t.322-.228l.34-.387v-.117l.07-.047.217-.076-.023-.047q.217-.264.539-.493t.609-.392l.41-.217.147-.047.07-.076q.07-.07.287-.07.334 0 .85.205.521.205.615.515.17.118.217.241.07-.147.105-.311l.065-.316q0-.264.14-.551l.071-.07q.146-.387.48-.721.17-.147.299-.334.135-.193.229-.363 0-.071.123-.381.14-.264.093-.317.434-.621.803-1.289.375-.673.686-1.394.31-.721.644-1.43.34-.709.651-1.383.052-.023.052-.117 0-.07-.029-.117-.023-.053-.047-.1l.387-.504q.117-.117.211-.234.099-.123.193-.223.27.024.533.053.264.024.504-.006.528 0 1.008.241.211.099.498.281.293.176.293.492 0 .311-.31.598-.17.117-.305.24-.129.117-.229.24-.164.193-.334.375-.17.176-.433.223l-.071-.071h.071q.123-.263.386-.65.241-.334.241-.621 0-.123-.024-.147l-.047.024.024.023q-.1.147-.223.246-.117.094-.234.211-.1.1-.194.223-.093.117-.193.234-.141.194-.492.686-.346.492-.697.961-.346.469-.539.609l-.024.071h-.047q.047.076.17.076-.123.093-.34.093.1.094.1.17 0 .141-.147.194-.14.047-.263.047 0 .38-.287.457-.024.023-.047.023-.024 0-.024-.023h-.076q.076.047.135.105l.082.082-.047.024.024.029h-.094q-.147 0-.1.047l.029.14h.141q.123 0 .17.047h-.07l-.076.194q.046-.024.216-.024.334-.404.61-.814.281-.41.591-.791.288-.41.575-.815.287-.41.603-.797l-.023-.046q.047.046.047.169 0 .194-.217.569-.217.369-.533.791l-.61.814q-.299.393-.492.61l-.117.228q-.07.129-.17.229-.094.093-.193.216-.094.118-.141.241-.146.023-.146.117v.193q0 .117-.118.164-.263.1-.375.328-.105.229-.17.481-.058.252-.246.439-.076.1-.269.422-.188.323-.381.627-.193.299-.311.299l.094.164q-.24.17-.217.24.024.03.024.317 0 .047-.188.164-.193.146-.193.24l-.287.24q-.1.217-.194.387-.093.17-.169.264-.194.216 0 .673-.141.165-.071.241.047.093-.094.263l-.263.481v.023l.094.164-.124.024.03.263q-.03-.023-.03 0 0 .124.077.124l-.123.14.046.1-.093.48q-.047.194 0 .481-.117.047-.117.263 0 .071.07.071l-.024.287q.071 0 .071.07l-.047.053.047.047q.07-.047.093-.117.03-.077.124-.03l.884-.621.17-.023q.194-.194.369-.516.182-.328.352-.228.047.263-.316.662-.358.392-.768.744-.404.346-.551.463v.193q0 .023-.058.035t-.082.035q-.047-.047-.112-.023-.058.023-.105.023l-.147.317-.023-.053q-.07.023-.129.053-.059.023-.111.047-.141.07-.288.07-.14 0-.287-.381-.14-.387-.252-.82-.105-.434-.105-.528l.047-.046q-.047-.094 0-.17.047-.071-.047-.118l.117-.123h.024v-.216q0-.118-.118-.071l-.023-.07.047-.123v-.024l.07-.117-.023-.047q0-.052.023-.052.024 0 .047-.024h-.023l-.118-.093q-.023-.071-.023-.241 0-.217.117-.217 0-.263.07-.48.077-.217-.14-.117l-.147.094q-.023.07-.093.07-.047.1-.182.293-.129.187-.275.164v.023q0 .024.023.047 0 .147-.287.375-.287.229-.24.492l-.434.334.053.047h-.053l.023.076q-.263.334-.691.334-.17 0-.24.217-.076.217-.217.217l.07.023q-.17.17-.422.411-.251.24-.298.474l-.024-.023.047.076-.141.094q0 .17-.169.217-.17.046-.334.046-.147.241-.446.434t-.562.193m8.256-10.06q.24 0 .24-.071 0-.117.07-.216h.147q.14 0 .14-.047-.023-.024-.023-.094-.094.024-.194.047-.093.023-.193.023-.234.047-.234.311v.023zm-8.496 9.504h.263q.047 0 .141-.024.099-.023.17-.07.146-.07.287-.07 0-.024-.047-.047 0-.053.047-.053.023.023.023 0h.024q.099-.117.217-.187.123-.077.24-.17.217-.123.386-.334l.071.047.023-.124q.147 0 .147-.14 0-.147.24-.147l.322-.322q.182-.182.346-.422l.357-.404q.17-.193.317-.363l.023.046v-.023q.147-.141.194-.217.023-.047.058-.093.035-.047.082-.124l.076.053q.141 0 .141-.146l-.023-.047.169-.147v-.07q.024 0 .047.023 0 .024.047.071-.023-.094.035-.164.065-.076.159-.047l-.024-.076.217-.311q.047-.047.129-.117.088-.076.158-.24.047-.17.105-.264.065-.1.088-.146.194 0 .241-.334.046-.34.31-.534.17 0 .24-.093.071-.094.141-.241.1-.14.123-.31-.047-.147-.047-.194 0-.093.071-.117.07-.076.07-.099 0-.047-.182-.141-.176-.1-.222-.123 0 .023-.012.035t-.035-.012q-.03-.023-.123-.023-.481 0-.856.328-.369.322-.732.656-.358.334-.762.334-.053.17-.188.282-.128.105-.246.175v.1l-.216.117v.047q.046.147-.047.1h-.194v.117q-.023.047-.023.123-.17.117-.434.31-.263.194-.357.411l-.047-.03-.076.077.053.046-.1.147-.094-.053.024.147q-.123.117-.387.38-.264.264-.24.457h-.094l-.07.288h-.077l-.093.123h-.071l.024.023v.193q-.047 0-.047.071l.047.047-.24.339.117.024v.047q0 .047-.141.047l.024.047q-.024.076-.077.134-.046.059-.07.082-.023.047-.07.311t-.1.533q-.047.264-.07.287z"/></svg>