 <svg
        viewBox="0 0 190.971 160"
        xmlns="http://www.w3.org/2000/svg"
        xmlns-xlink="http://www.w3.org/1999/xlink"
        fill="none"
      >
        <defs>
          <linearGradient
            id="paint_linear_0"
            x1="35.9488602"
            x2="120.480499"
            y1="86.3716431"
            y2="121.867645"
            gradientUnits="userSpaceOnUse"
          >
            <stop
              stop-color="rgb(255,116,11)"
              offset="0.0126582282"
              stop-opacity="1"
            />
            <stop
              stop-color="rgb(255,0,0)"
              offset="0.511174381"
              stop-opacity="1"
            />
            <stop stop-color="rgb(255,116,11)" offset="1" stop-opacity="1" />
          </linearGradient>
          <radialGradient
            id="paint_radial_0"
            cx="0"
            cy="0"
            r="1"
            gradientUnits="userSpaceOnUse"
            gradientTransform="matrix(-1.63536,-33.3656,103.91,-5.09296,45.86,147.593)"
          >
            <stop stop-color="rgb(255,116,11)" offset="0" stop-opacity="1" />
            <stop stop-color="rgb(255,0,0)" offset="1" stop-opacity="1" />
          </radialGradient>
        </defs>
        <rect
          id="Размер1"
          width="186.000000"
          height="160.000000"
          x="2.269939"
          y="0.000000"
        />
        <path
          id=""
          d="M33.3735 109.692Q32.2748 109.595 31.2738 108.691Q30.2729 107.91 29.0766 107.91Q28.7592 107.91 28.3686 107.959Q27.9779 108.008 27.4653 108.105Q26.5619 107.007 25.3168 106.641Q24.0717 106.299 23.266 105.786Q22.4604 105.298 22.8754 103.589Q23.7787 99.3896 25.976 95.1416Q28.1733 90.8936 30.3705 87.4023Q27.1723 86.792 23.974 85.5957Q20.6781 84.4971 17.2602 84.4971Q15.1606 84.4971 13.1586 86.792L13.1586 86.8896Q11.1811 88.8916 8.95939 90.8447Q6.76213 92.7979 4.66252 92.7979Q3.0756 92.7979 1.39103 91.0156Q-0.317951 89.209 0.0726738 87.1094Q0.365643 85.6934 2.17228 83.9111Q3.97892 82.1045 6.12736 80.6641Q8.2758 79.1992 9.27678 79.1016L9.6674 79.9072Q11.3764 78.4912 13.061 77.0508Q14.7699 75.6104 16.4789 74.0967Q18.1635 72.6074 19.9213 71.3623Q21.6791 70.0928 23.4613 69.0918L23.8764 68.5059Q30.5658 63.8916 36.5717 57.6416Q42.5776 51.3916 48.1684 44.3115L47.7778 44.8975L54.3695 35.8887L54.7602 35.791L55.0776 36.2061Q54.8578 37.4023 53.7104 39.209Q52.5629 40.9912 51.2201 42.6025Q49.8774 44.1895 48.974 45.0928L49.56 46.0938L50.8783 45.7031L36.059 63.208Q32.3725 67.6025 28.5639 71.7529Q24.7797 75.9033 20.6781 79.7119Q23.559 81.1035 26.7084 81.7139Q29.8578 82.2998 33.2758 82.3975Q34.7651 80.0049 36.7182 76.4648Q38.6713 72.9004 40.7709 68.9941Q42.8705 65.0879 44.9213 61.7432Q46.9721 58.3984 48.6811 56.4941L48.6811 54.5898Q48.6811 54.1016 48.6811 53.6621Q48.6811 53.1982 48.559 52.71L52.4653 47.1924L53.2709 46.6064Q54.0766 45.0928 55.1264 44.2139Q56.1762 43.3105 57.3725 43.3105L58.4711 43.3105Q58.7641 43.4082 59.057 43.4082Q59.3744 43.4082 59.5697 43.4082Q60.058 43.8965 60.1069 44.7021Q60.1801 45.5078 59.9604 46.2891Q58.5688 47.4121 57.6166 49.0234Q56.6645 50.6104 55.8588 52.2949Q55.0776 53.1982 54.1254 54.9561Q53.1733 56.6895 52.2699 58.3496Q51.3666 60.0098 50.8783 60.498Q49.975 62.3047 49.0229 64.0137Q48.0707 65.6982 46.8744 67.3096L46.9721 68.1885L46.2641 68.3105L46.3617 69.7021L45.3608 70.7031Q44.7748 72.29 44.018 73.9014Q43.2612 75.4883 42.4799 77.002Q41.6742 78.4912 40.9174 80.0537Q40.1606 81.5918 39.6723 83.3008Q41.1615 83.5938 42.6752 83.5938Q44.0668 83.5938 45.6781 83.0078Q46.4594 82.7881 47.2162 82.4951Q47.9731 82.2021 48.6811 82.0068L49.1694 82.1045Q50.268 81.9092 51.3178 81.665Q52.3676 81.3965 53.3686 80.4932L53.8813 80.5908Q55.3705 79.5898 56.7621 78.9062Q57.4701 78.4912 58.1537 78.1006Q58.8617 77.71 59.5697 77.1973L60.1801 76.001L60.5707 76.0986Q61.3764 75.0977 62.0112 73.3154Q62.6703 71.5088 63.6713 71.5088L63.2807 72.1924L63.3783 73.3887L62.8656 73.0957L62.1576 74.5117L62.1576 75.3906Q61.9623 75.1953 61.9623 74.6094Q61.8647 74.707 61.8647 74.8535Q61.8647 75 61.767 75.1953Q61.6694 75.3906 61.6694 75.5615Q61.6694 75.708 61.5717 75.9033Q61.474 76.3916 61.4252 76.9043Q61.3764 77.3926 61.3764 77.9053L60.5707 77.5879L59.7651 78.3936L59.6674 79.2969L59.1791 80.5908L58.3735 79.7119L57.6654 80.2002L56.8598 82.2998Q56.2738 83.0078 55.4682 83.5693Q54.6625 84.1064 53.8813 84.1064L52.5629 85.4004L52.7582 86.3037L51.7817 87.207L51.3666 86.8896L50.4633 87.1094L48.974 88.1104Q48.266 88.6963 47.3627 89.209L47.2651 89.502L46.4594 89.8926Q45.6781 89.8926 45.2631 89.502Q44.1645 89.6973 43.1147 89.8926Q42.0649 90.0879 40.9662 90.5029L38.5737 89.7949L37.768 90.21L36.767 90.0879L36.2787 90.5029L36.2787 91.8945L35.058 94.4092L35.1801 94.9951Q34.9604 95.8984 34.8627 96.8018Q34.7651 97.7051 34.6674 98.6084Q33.9594 99.707 33.3979 100.806Q32.8608 101.904 32.6654 103.101Q32.1772 105.103 32.6654 106.689Q33.1781 108.301 34.1791 109.399L33.3735 109.692ZM40.5756 73.0957L41.6742 71.8994L41.1615 71.8018L40.6733 72.1924L40.6733 72.4121L40.5756 73.0957ZM38.5737 77.002L39.7699 75.0977L39.5746 74.6094Q39.1596 75 38.8666 75.6104Q38.769 75.9033 38.6225 76.1963Q38.476 76.4893 38.2807 76.709L38.5737 77.002ZM37.182 79.7119L37.8656 77.8076L37.768 77.4902L37.182 77.8076L37.182 79.7119ZM57.8608 82.2998L57.9584 81.3965L58.6664 80.8105L58.9594 80.9082L57.8608 82.2998ZM53.7592 82.5928L54.6625 82.1045L54.7602 81.8115L54.5649 81.2012L53.0756 82.1045L53.7592 82.5928ZM31.5668 88.8916L32.2748 87.9883L31.8598 87.793L31.5668 88.1104L31.5668 88.8916ZM36.6694 92.6025L36.6694 91.9922L37.06 91.6016L37.475 91.6992L36.6694 92.6025ZM77.6621 108.105Q76.6611 108.105 74.6592 107.642Q72.6817 107.202 70.5088 106.445Q68.3604 105.688 66.7002 104.688Q65.0645 103.711 64.6738 102.71Q62.8672 101.196 61.3535 98.3643Q59.8643 95.5078 60.5723 91.9922Q60.7676 91.4062 60.7676 91.0889L61.0606 90.3076L60.8653 88.208Q61.2803 87.207 61.6221 86.2549Q61.9639 85.3027 62.2813 84.3018Q63.0625 82.2998 64.3809 81.0059Q65.2598 77.71 68.1162 74.0723Q70.9727 70.4102 74.5127 66.8701Q78.0772 63.3057 80.958 60.4004Q80.4697 60.0098 80.1524 59.2529Q79.8594 58.4961 80.0791 57.5928Q80.958 53.3936 84.4981 50.2441Q88.0625 47.0947 92.75 44.9951Q97.4619 42.8955 102.101 41.8457Q106.764 40.7959 109.864 40.7959Q115.577 40.7959 120.509 42.7979Q125.465 44.7998 128.272 49.1455Q131.08 53.4912 130.274 60.6934L129.078 63.9893L128.468 60.4004L127.98 60.4004L126.881 62.4023Q129.176 64.6973 129.176 68.5059L127.662 70.8984L128.175 71.1914Q127.662 72.7051 127.052 74.2188Q126.466 75.708 125.66 77.0996L124.879 77.4902Q124.366 79.5898 122.975 81.2988L121.363 82.2021Q121.266 82.3975 121.266 82.7881Q121.266 83.2031 121.168 83.3984Q121.07 84.3018 119.703 84.9609Q118.36 85.5957 117.774 86.2061L115.87 86.792L115.162 87.4023Q114.869 89.1113 113.575 89.502Q112.062 90.0879 110.719 91.5527Q109.376 92.9932 108.106 94.458Q106.861 95.8984 105.714 96.8506Q104.566 97.8027 103.468 97.5098Q101.075 100.098 98.0235 101.392Q94.9717 102.71 91.6758 103.76Q88.3799 104.81 84.9619 106.592L81.1777 106.812Q80.3721 107.69 79.4199 107.886Q78.4678 108.105 77.6621 108.105ZM74.4639 100.195Q74.7813 100.195 76.6123 99.707Q78.4678 99.1943 81.0069 98.5107Q83.5703 97.8027 86.1094 97.168Q88.6729 96.5088 90.5039 96.0693Q92.3594 95.6055 92.6768 95.8008Q94.5811 93.5059 97.0713 91.6504Q99.5615 89.7949 101.881 88.3057Q106.861 84.9121 110.816 81.4697Q114.771 78.0029 117.506 73.4619Q120.265 68.8965 121.681 62.207Q123.365 53.9062 119.703 49.6582Q116.065 45.4102 109.376 45.4102Q107.081 45.4102 103.126 46.167Q99.1709 46.8994 95.0694 48.4619Q90.9678 50 87.8672 52.2949Q84.7666 54.5898 84.1807 57.6904Q84.0586 57.7881 84.0586 58.1055L84.0586 58.4961Q90.6748 54.1016 97.4131 51.2451Q104.176 48.3887 110.768 48.3887Q113.258 48.3887 115.26 48.9502Q117.262 49.5117 118.214 51.123Q119.166 52.71 118.36 55.9082L116.773 58.7891L116.358 58.4961Q116.969 53.9062 115.309 52.1484Q113.673 50.3906 110.475 50.3906Q103.663 50.3906 97.4619 53.8086Q91.2608 57.2021 84.8643 62.4023L86.2803 63.9893L86.1582 64.3066Q85.7676 64.8926 85.2793 64.8926Q84.669 64.8926 84.1807 64.5996Q83.8633 64.4043 83.082 64.209L80.958 65.7959L80.5674 66.6992Q78.2725 68.0908 76.4658 70.4102Q74.6592 72.7051 72.9746 75L72.169 75.9033Q71.9736 76.0986 71.8272 76.416Q71.6807 76.709 71.461 76.9043Q71.2656 77.3926 70.9727 77.9053Q70.6797 78.3936 70.46 78.9062Q70.167 79.3945 69.874 79.9561Q69.5811 80.4932 69.3613 81.0059L68.3604 81.3965Q68.0674 82.6904 67.6035 83.8623Q67.1641 85.0098 66.6758 86.1084Q66.1631 87.207 65.6992 88.4033Q65.2598 89.5996 65.0645 90.8936Q64.2588 94.7998 65.4063 96.8018Q66.5781 98.8037 69.0195 99.5117Q71.461 100.195 74.4639 100.195ZM160.673 109.692Q159.575 109.595 158.574 108.691Q157.573 107.91 156.377 107.91Q156.059 107.91 155.669 107.959Q155.278 108.008 154.765 108.105Q153.862 107.007 152.617 106.641Q151.372 106.299 150.566 105.786Q149.76 105.298 150.175 103.589Q151.079 99.3896 153.276 95.1416Q155.473 90.8936 157.671 87.4023Q154.472 86.792 151.274 85.5957Q147.978 84.4971 144.56 84.4971Q142.461 84.4971 140.459 86.792L140.459 86.8896Q138.481 88.8916 136.259 90.8447Q134.062 92.7979 131.963 92.7979Q130.376 92.7979 128.691 91.0156Q126.982 89.209 127.373 87.1094Q127.666 85.6934 129.472 83.9111Q131.279 82.1045 133.427 80.6641Q135.576 79.1992 136.577 79.1016L136.967 79.9072Q138.676 78.4912 140.361 77.0508Q142.07 75.6104 143.779 74.0967Q145.464 72.6074 147.221 71.3623Q148.979 70.0928 150.761 69.0918L151.176 68.5059Q157.866 63.8916 163.872 57.6416Q169.878 51.3916 175.468 44.3115L175.078 44.8975L181.67 35.8887L182.06 35.791L182.378 36.2061Q182.158 37.4023 181.01 39.209Q179.863 40.9912 178.52 42.6025Q177.177 44.1895 176.274 45.0928L176.86 46.0938L178.178 45.7031L163.359 63.208Q159.672 67.6025 155.864 71.7529Q152.08 75.9033 147.978 79.7119Q150.859 81.1035 154.008 81.7139Q157.158 82.2998 160.576 82.3975Q162.065 80.0049 164.018 76.4648Q165.971 72.9004 168.071 68.9941Q170.171 65.0879 172.221 61.7432Q174.272 58.3984 175.981 56.4941L175.981 54.5898Q175.981 54.1016 175.981 53.6621Q175.981 53.1982 175.859 52.71L179.765 47.1924L180.571 46.6064Q181.377 45.0928 182.426 44.2139Q183.476 43.3105 184.672 43.3105L185.771 43.3105Q186.064 43.4082 186.357 43.4082Q186.674 43.4082 186.87 43.4082Q187.358 43.8965 187.407 44.7021Q187.48 45.5078 187.26 46.2891Q185.869 47.4121 184.917 49.0234Q183.964 50.6104 183.159 52.2949Q182.378 53.1982 181.425 54.9561Q180.473 56.6895 179.57 58.3496Q178.667 60.0098 178.178 60.498Q177.275 62.3047 176.323 64.0137Q175.371 65.6982 174.174 67.3096L174.272 68.1885L173.564 68.3105L173.662 69.7021L172.661 70.7031Q172.075 72.29 171.318 73.9014Q170.561 75.4883 169.78 77.002Q168.974 78.4912 168.217 80.0537Q167.461 81.5918 166.972 83.3008Q168.462 83.5938 169.975 83.5938Q171.367 83.5938 172.978 83.0078Q173.759 82.7881 174.516 82.4951Q175.273 82.2021 175.981 82.0068L176.469 82.1045Q177.568 81.9092 178.618 81.665Q179.668 81.3965 180.669 80.4932L181.181 80.5908Q182.671 79.5898 184.062 78.9062Q184.77 78.4912 185.454 78.1006Q186.162 77.71 186.87 77.1973L187.48 76.001L187.871 76.0986Q188.676 75.0977 189.311 73.3154Q189.97 71.5088 190.971 71.5088L190.581 72.1924L190.678 73.3887L190.166 73.0957L189.458 74.5117L189.458 75.3906Q189.262 75.1953 189.262 74.6094Q189.165 74.707 189.165 74.8535Q189.165 75 189.067 75.1953Q188.969 75.3906 188.969 75.5615Q188.969 75.708 188.872 75.9033Q188.774 76.3916 188.725 76.9043Q188.676 77.3926 188.676 77.9053L187.871 77.5879L187.065 78.3936L186.967 79.2969L186.479 80.5908L185.673 79.7119L184.965 80.2002L184.16 82.2998Q183.574 83.0078 182.768 83.5693Q181.963 84.1064 181.181 84.1064L179.863 85.4004L180.058 86.3037L179.082 87.207L178.667 86.8896L177.763 87.1094L176.274 88.1104Q175.566 88.6963 174.663 89.209L174.565 89.502L173.759 89.8926Q172.978 89.8926 172.563 89.502Q171.464 89.6973 170.415 89.8926Q169.365 90.0879 168.266 90.5029L165.874 89.7949L165.068 90.21L164.067 90.0879L163.579 90.5029L163.579 91.8945L162.358 94.4092L162.48 94.9951Q162.26 95.8984 162.163 96.8018Q162.065 97.7051 161.967 98.6084Q161.259 99.707 160.698 100.806Q160.161 101.904 159.965 103.101Q159.477 105.103 159.965 106.689Q160.478 108.301 161.479 109.399L160.673 109.692ZM167.876 73.0957L168.974 71.8994L168.462 71.8018L167.973 72.1924L167.973 72.4121L167.876 73.0957ZM165.874 77.002L167.07 75.0977L166.875 74.6094Q166.46 75 166.167 75.6104Q166.069 75.9033 165.922 76.1963Q165.776 76.4893 165.581 76.709L165.874 77.002ZM164.482 79.7119L165.166 77.8076L165.068 77.4902L164.482 77.8076L164.482 79.7119ZM185.161 82.2998L185.258 81.3965L185.966 80.8105L186.259 80.9082L185.161 82.2998ZM181.059 82.5928L181.963 82.1045L182.06 81.8115L181.865 81.2012L180.376 82.1045L181.059 82.5928ZM158.867 88.8916L159.575 87.9883L159.16 87.793L158.867 88.1104L158.867 88.8916ZM163.969 92.6025L163.969 91.9922L164.36 91.6016L164.775 91.6992L163.969 92.6025Z"
          fill="url(#paint_linear_0)"
          fill-rule="nonzero"
        />
        <path
          id=""
          d="M38.9711 155.574Q38.7074 155.574 38.5492 155.404Q38.391 155.24 38.3442 155Q38.4438 154.807 38.4438 154.426Q38.4438 154.232 38.4438 154.074Q38.4438 153.922 38.4672 153.799Q38.4672 153.465 38.5141 153.125Q38.561 152.791 38.7309 152.598Q38.8012 152.527 38.8481 152.311L38.8715 152.117Q38.9008 152.094 38.9008 152.047Q38.9008 152.047 38.9477 151.906Q38.9477 151.783 38.9594 151.66Q38.9711 151.543 38.9945 151.449Q39.0649 151.256 39.018 150.992Q39.0414 150.922 39.0883 150.729L39.2348 150.318Q39.2582 150.225 39.2817 150.137Q39.3051 150.055 39.3285 149.961Q39.4047 149.791 39.352 149.744L39.5688 149.527Q39.5688 149.504 39.5453 149.504L39.5453 149.457L39.5219 149.41L39.5219 149.334Q39.5453 149.334 39.5688 149.311Q39.5922 149.287 39.6684 149.287L39.7387 149.287L39.7621 149.217L39.7621 149.17Q39.6156 149.17 39.6156 148.953L39.6391 148.93Q39.6918 148.854 39.7387 148.854Q39.7856 148.783 39.8324 148.566Q39.8793 148.379 40.0492 148.379L40.0492 148.326Q40.0961 147.846 40.3774 147.371Q40.6528 146.891 40.8403 146.504Q40.8403 146.48 40.8637 146.48L40.8637 146.41L40.9867 146.146L41.1274 146.17L41.2504 145.977L41.1801 145.906Q41.3442 145.76 41.4496 145.572Q41.561 145.379 41.684 145.139L41.9008 144.582Q41.9477 144.465 41.9945 144.324Q42.0414 144.178 42.0883 144.031Q42.2817 143.48 42.4867 142.988Q42.6918 142.496 42.9789 142.303Q43.0961 142.139 43.1781 141.957Q43.266 141.775 43.3129 141.605L43.5297 140.891Q43.5531 140.838 43.5766 140.768Q43.6 140.697 43.6235 140.621L43.7465 140.311L43.7699 140.334L43.8168 140.24L43.9164 140.17Q43.9633 140.023 44.057 139.895Q44.1567 139.76 44.2504 139.643L44.227 139.59Q44.3676 139.449 44.3676 139.303Q44.3676 139.279 44.3442 139.279Q44.3207 139.303 44.2973 139.279L44.2504 139.279Q44.1039 139.279 44.1039 139.186Q44.1039 139.139 44.2738 138.898Q44.3442 138.775 44.391 138.693Q44.4438 138.605 44.4672 138.559Q44.4672 138.418 44.6606 138.365Q44.7778 138.154 44.9301 137.938Q45.0883 137.721 45.2582 137.527Q45.4281 137.287 45.557 137.1Q45.6918 136.906 45.7387 136.76L45.8324 136.76L45.809 136.666Q45.809 136.59 45.8793 136.52Q46.0024 136.52 46.1313 136.52Q46.266 136.52 46.3832 136.543Q46.5063 136.566 46.6117 136.566Q46.7231 136.566 46.8403 136.566Q47.1274 136.666 47.5258 136.941Q47.9242 137.217 47.9242 137.551Q47.8012 137.65 47.7016 137.773Q47.6078 137.891 47.5375 138.008Q47.4438 138.131 47.3442 138.248Q47.2504 138.365 47.1274 138.488L47.1274 138.775L47.0336 138.775Q46.9867 138.799 46.9164 138.799Q46.8637 138.822 46.8403 138.834Q46.8168 138.846 46.8168 138.846Q46.8168 138.846 46.8168 138.857Q46.8168 138.869 46.8403 138.898L46.8637 138.945Q46.8637 139.016 46.8871 139.062L46.7934 139.062Q46.6528 139.186 46.5414 139.344Q46.436 139.496 46.3129 139.689L46.3363 139.689Q46.2895 139.736 46.2309 139.795Q46.1723 139.854 46.1957 139.953L45.6918 140.551L45.7153 140.674L45.6918 140.861Q45.3754 140.938 45.1879 141.365Q45.0883 141.512 45.018 141.799Q44.9945 141.922 44.9301 142.068Q44.8715 142.209 44.8246 142.379L44.8246 142.303Q44.8012 142.326 44.8012 142.402Q44.7778 142.426 44.7778 142.449Q44.7778 142.473 44.7543 142.496Q44.7309 142.543 44.7309 142.607Q44.7309 142.666 44.7074 142.713Q44.6606 142.83 44.4906 143.047L44.4906 142.883L44.4438 142.854L44.227 143.217L43.9867 143.574L43.9164 143.744Q43.8871 143.791 43.8637 143.844Q43.8403 143.891 43.8168 143.938L43.7699 143.938L43.8168 143.984Q43.7465 144.055 43.6996 144.318Q43.6528 144.559 43.4828 144.582L43.4828 144.729L43.3363 144.992L43.4125 145.062L43.0258 145.256L43.0024 145.209L42.7856 145.496Q42.6156 145.689 42.6156 145.83Q42.6156 145.93 42.4985 145.977Q42.352 146.023 42.4047 146.146L42.3051 146.217L42.3754 146.457L42.1645 146.551Q42.1117 146.697 42.1117 146.768L42.2113 146.697L42.2582 146.891Q42.2582 146.914 42.2817 146.914L42.2817 146.984Q42.2817 147.131 42.1879 147.248L42.1352 147.295Q42.0883 147.395 42.0883 147.535L41.9945 147.488Q41.9945 147.512 41.9477 147.559L41.9242 147.582Q41.9477 147.605 41.9477 147.658L41.9477 147.705Q41.9242 147.729 41.9242 147.752L41.8481 147.822L41.9008 147.822L41.4906 148.449L41.5375 148.59L41.4672 148.59L41.4203 148.713L41.5375 148.713Q41.5844 148.643 41.6313 148.572Q41.684 148.496 41.7309 148.449L41.7309 148.35L41.7778 148.303L41.9945 147.922L42.0414 147.922L42.6156 146.891L42.5922 146.838Q42.6391 146.791 42.7563 146.65Q42.8793 146.504 43.0024 146.357Q43.0492 146.287 43.1078 146.217Q43.1723 146.146 43.2192 146.094Q43.2895 145.977 43.2895 145.93L44.1274 144.705L44.1274 144.605L44.0805 144.535L44.1274 144.582L44.1274 144.535L44.2035 144.635L44.4438 144.201L44.4672 144.201L44.4672 144.178Q44.4672 144.102 44.5844 144.008Q44.7074 143.914 44.8012 143.861Q44.8012 143.814 44.7309 143.791L45.0649 143.357L45.1352 143.334Q45.1879 143.334 45.3871 143.047Q45.5922 142.76 45.6918 142.666L45.6391 142.566Q45.7621 142.449 45.8676 142.332Q45.9789 142.209 46.0727 142.109Q46.1957 141.992 46.2778 141.875Q46.3598 141.752 46.4594 141.635L46.4594 141.535L46.5531 141.582Q46.6762 141.295 46.9164 141.131L46.9633 141.154L46.9633 141.131L47.0336 141.008Q47.0805 140.838 47.2035 140.838L47.2504 140.838L47.4203 140.697L47.4203 140.65Q47.4203 140.551 47.561 140.551L47.5844 140.551Q47.6313 140.551 47.7543 140.434L47.8012 140.357Q47.8481 140.287 47.9067 140.217Q47.9711 140.146 48.0649 140.146Q48.1352 140.047 48.2289 139.953Q48.3285 139.854 48.4516 139.807L48.7621 139.906Q48.4985 140.094 48.2817 140.275Q48.0649 140.457 47.8715 140.674Q47.8481 140.697 47.7543 140.744Q47.6606 140.768 47.6078 140.814L47.561 140.861Q47.5375 140.938 47.4672 141.008L47.4906 141.102L47.3442 141.102L47.1567 141.342L47.1274 141.342Q46.8871 141.658 46.5766 141.969Q46.266 142.256 46.0492 142.643L45.9789 142.643Q45.809 142.883 45.6274 143.135Q45.4516 143.387 45.2582 143.621Q44.8715 144.078 44.5375 144.635L44.5375 144.658L42.9086 147.008Q42.8559 147.102 42.809 147.201Q42.7621 147.295 42.7153 147.418L42.6156 147.441L42.6391 147.465Q42.6391 147.605 42.5922 147.693Q42.5453 147.775 42.4516 147.898L42.3051 148.039Q42.1879 148.109 42.1645 148.209L42.1352 148.209Q41.9945 148.473 41.6781 149.07Q41.3676 149.674 41.0102 150.354Q40.6528 151.039 40.3598 151.613Q40.0961 152.146 39.7856 152.803Q39.475 153.465 39.2465 154.027Q39.018 154.59 39.018 154.854Q39.018 154.977 39.1352 155.17L39.2817 155.311L39.4281 155.41Q39.4281 155.48 39.352 155.48Q39.1352 155.574 38.9711 155.574ZM45.5922 147.729Q45.3754 147.729 45.1586 147.371Q44.9477 147.008 44.9477 146.838Q44.9477 146.744 44.9945 146.551Q45.0414 146.357 45.0883 146.287L45.0883 146.311Q45.1352 146.264 45.1645 146.193Q45.1879 146.117 45.2348 146.17L45.2817 146.07L45.3051 146.07Q45.352 146.07 45.3871 146.035Q45.4281 146 45.4516 145.977L45.475 145.977Q45.5219 145.93 45.5219 145.883Q45.4985 145.854 45.5688 145.807L45.5922 145.807L45.8324 145.59L45.809 145.566L45.8793 145.566L45.8793 145.543L45.932 145.473L45.9789 145.496L45.9789 145.473L46.1723 145.279L46.1723 145.303L46.1957 145.279L46.2426 145.279L46.2426 145.232L46.266 145.256L46.2895 145.162L46.3129 145.162Q46.3832 145.062 46.4535 144.98Q46.5297 144.898 46.6235 144.799L46.9399 144.488L46.9867 144.605L47.0102 144.605L47.057 144.559Q47.057 144.535 47.0102 144.488Q47.0805 144.418 47.0805 144.365L47.1567 144.295L47.3442 144.225L47.3442 144.248L47.3676 144.271Q47.3676 144.225 47.4028 144.131Q47.4438 144.031 47.4906 144.031Q47.5375 144.031 47.5375 144.078L47.6078 143.984Q47.6606 143.938 47.6313 143.914Q47.6606 143.914 47.6957 143.891Q47.7309 143.861 47.7074 143.838L47.8012 143.938Q47.8481 143.891 47.8715 143.855Q47.9008 143.814 47.9242 143.791L47.9477 143.914L47.9711 143.938L47.9711 143.791L48.0414 143.744L47.9945 143.598Q48.0414 143.598 48.0414 143.551Q48.0414 143.527 48.0883 143.527Q48.1352 143.527 48.1879 143.574L48.2582 143.65L48.2582 143.697L48.3051 143.697Q48.1645 143.791 48.1352 143.891Q48.1117 143.984 47.9711 144.078L47.8715 144.078L47.6078 144.295L47.5844 144.295L47.5844 144.342L47.2973 144.705Q47.1567 144.898 46.9164 144.898L46.9399 144.922L46.9399 144.945Q46.9164 144.969 46.9164 144.992L46.9164 145.039Q46.8871 145.039 46.8403 144.992L46.8403 145.016L46.3832 145.496L46.3363 145.473L46.1723 145.59L46.1957 145.613L45.9789 145.83L46.0258 145.906L45.8559 146L45.8559 146.094Q45.8324 146.117 45.8324 146.17Q45.7153 146.264 45.6274 146.387Q45.5453 146.504 45.4985 146.621L45.5922 146.674Q45.6156 146.697 45.6918 146.697Q45.7153 146.697 45.7153 146.65Q45.7387 146.621 45.7856 146.598Q45.8324 146.574 45.9086 146.527Q46.0258 146.457 46.0492 146.457L46.0492 146.551L46.2192 146.48L46.1723 146.41L46.2895 146.41Q46.3363 146.434 46.4125 146.434Q46.4594 146.434 46.5063 146.387Q46.5063 146.334 46.5297 146.311L46.5297 146.264L46.7699 146.17L46.7699 146.146L47.0336 145.854L47.057 145.854L47.0336 145.807L47.1567 145.807L47.2738 145.666L47.2738 145.643L47.3207 145.666L47.3207 145.613Q47.4438 145.566 47.4438 145.473Q47.4438 145.426 47.4203 145.402Q47.4672 145.35 47.561 145.256Q47.6606 145.162 47.7543 145.039Q47.9477 144.822 48.1352 144.822Q48.1352 144.729 48.2113 144.705L48.2113 144.682Q48.2113 144.605 48.3637 144.354Q48.5219 144.102 48.6977 143.861Q48.8793 143.621 48.9555 143.551L48.9555 143.574L49.0024 143.457L49.0258 143.48L49.1957 143.287L49.1723 143.146L49.1957 143.094Q49.1957 143.047 49.3129 143.035Q49.436 143.023 49.4828 143.023L49.4594 142.953Q49.3363 142.953 49.2426 142.854Q49.266 142.83 49.3832 142.83Q49.5063 142.689 49.5297 142.52L49.5531 142.52Q49.6762 142.326 49.7465 142.062Q49.7934 141.799 49.9633 141.635L49.9164 141.559Q49.9633 141.441 50.0336 141.318Q50.057 141.318 50.057 141.295Q50.057 141.248 50.0805 141.248L50.0805 141.201Q50.0805 141.078 50.057 141.031Q50.0336 140.984 50.0336 140.891Q50.0336 140.41 49.975 140.076Q49.9164 139.736 49.3832 139.736Q49.3129 139.736 49.2426 139.736Q49.1723 139.736 49.0961 139.76L48.7856 139.83L48.7621 139.83Q48.6918 139.83 48.6684 139.807L48.6684 139.713Q48.6684 139.643 48.7856 139.643L48.9555 139.643L48.9555 139.566L48.9789 139.59L49.1488 139.473L49.266 139.473Q49.2895 139.473 49.3129 139.449L49.4594 139.379L49.6 139.402L49.6762 139.379L49.6762 139.402Q49.6762 139.379 49.7699 139.379Q49.8637 139.379 49.8168 139.326Q49.9399 139.35 50.0336 139.379Q50.1274 139.402 50.1801 139.426L50.2035 139.379L50.391 139.543Q50.4203 139.566 50.4203 139.52L50.4203 139.473L50.4438 139.473Q50.6606 139.76 50.9711 139.93Q51.2817 140.094 51.3285 140.527Q51.352 140.65 51.352 140.773Q51.352 140.891 51.352 141.008L51.352 141.488Q51.352 142.279 51.1586 142.783Q50.9711 143.287 50.4906 143.914Q50.4438 143.984 50.1801 144.336Q49.9164 144.682 49.6235 145.004Q49.3363 145.326 49.2192 145.326L49.266 145.402Q49.1488 145.473 48.9789 145.713Q48.809 145.93 48.6918 145.977L48.6918 146.094L48.2348 146.434L48.1879 146.387L47.9242 146.574L47.9242 146.598Q47.9477 146.621 47.9945 146.621Q48.018 146.621 48.018 146.674L48.018 146.697L47.7778 146.768L47.7778 146.791L47.6313 146.938L47.6606 147.008L47.391 146.914L47.4203 147.154L47.1274 147.248L47.1274 147.295Q46.8403 147.418 46.7465 147.512Q46.6 147.512 46.5531 147.535L46.3598 147.605L46.3363 147.582L46.3363 147.605L46.0961 147.605L46.0492 147.705L45.7153 147.705Q45.6684 147.729 45.5922 147.729ZM40.7934 149.938Q41.0102 149.598 41.2504 149.193Q41.3676 148.953 41.5141 148.736L41.2973 148.854Q41.2738 148.93 41.227 149.047Q41.1801 149.17 41.1274 149.217Q41.0102 149.217 40.9633 149.07L40.9399 149.311L41.0102 149.387Q41.0102 149.574 40.9399 149.697Q40.8168 149.814 40.7934 149.938ZM57.7124 149.48Q57.4722 149.193 57.2202 149.035Q56.9683 148.883 56.7866 148.678Q56.6108 148.473 56.6108 148.109L56.6577 148.109L56.5874 147.752L56.5112 147.822L56.4643 147.898Q56.4878 147.799 56.5112 147.717Q56.5405 147.635 56.564 147.559Q56.5874 147.441 56.5991 147.336Q56.6108 147.225 56.6108 147.102Q56.6108 146.791 56.6577 146.492Q56.7046 146.193 56.7808 145.906Q56.8511 145.613 56.9097 145.314Q56.9683 145.016 57.0151 144.682L57.0679 144.682L57.3315 144.055L57.3081 143.938Q57.2554 144.031 57.2319 144.055Q57.2085 144.102 57.1616 144.154Q56.8979 144.535 56.5112 145.074Q56.1304 145.613 55.7436 146.082Q55.3628 146.551 55.0522 146.744Q54.8589 146.861 54.7827 146.926Q54.7124 146.984 54.6186 147.225Q54.3784 147.271 54.1499 147.535Q53.9214 147.799 53.7046 148.039Q53.4878 148.279 53.2241 148.303L53.2007 148.426Q53.0601 148.566 52.8198 148.631Q52.5796 148.689 52.3862 148.713Q51.8589 148.52 51.355 148.186Q50.8511 147.846 50.8511 147.248Q50.8511 147.008 50.9214 146.838L50.9448 146.838L50.9448 146.721Q50.8979 146.65 50.9214 146.533Q50.9448 146.41 50.9917 146.41L51.0151 146.434Q51.0679 146.357 51.0796 146.193Q51.0913 146.023 51.0913 145.977L51.1382 145.93Q51.1382 145.76 51.3022 145.572Q51.4722 145.379 51.6304 145.209Q51.7886 145.039 51.7886 144.969Q51.812 144.945 51.812 144.898Q51.812 144.775 51.7886 144.705Q51.7358 144.605 51.7593 144.535L51.7593 144.441L51.8589 144.441L51.9292 144.318L51.9292 144.271Q51.8589 144.225 51.8589 144.201L51.8589 144.154Q51.8589 144.078 51.9058 144.031L51.9761 143.961L51.9761 143.938Q51.9761 143.914 51.9995 143.891L51.9995 143.838L52.1226 143.721Q52.2163 143.621 52.2632 143.598Q52.4565 143.334 52.5796 143.117L52.6733 143.117L52.6968 143.146Q52.6733 143.094 52.6616 143.07Q52.6499 143.047 52.6499 143.023Q52.6499 142.83 52.9722 142.473Q53.3003 142.109 53.7515 141.693Q54.2085 141.271 54.6421 140.902Q55.0757 140.527 55.3159 140.311L55.3159 140.193L55.3628 140.193Q55.4565 140.146 55.562 140.053Q55.6733 139.953 55.7964 139.854Q56.0366 139.613 56.2007 139.59L56.2476 139.473L56.394 139.449Q56.4175 139.426 56.4409 139.402Q56.4643 139.379 56.4878 139.35Q56.5405 139.326 56.564 139.326Q56.5874 139.326 56.6108 139.303L56.6343 139.279L56.6811 139.256L56.6811 139.232Q56.6811 139.232 56.6811 139.221Q56.6811 139.209 56.7046 139.186L57.1382 139.016L57.1851 139.039L57.519 138.898L57.5952 138.822L57.6186 138.822L57.9292 138.799L58.0991 138.705L58.146 138.658L58.146 138.682L58.1694 138.658L58.2163 138.705Q58.4331 138.605 58.6499 138.605Q58.8667 138.605 59.2241 138.682Q59.5874 138.752 59.8979 138.91Q60.2085 139.062 60.2554 139.326L60.2554 139.379L59.7515 139.666Q59.8042 139.543 59.8276 139.52L59.8276 139.496Q59.8276 139.449 59.728 139.449L59.5874 139.449Q59.0835 139.449 58.6616 139.736Q58.2397 140.023 57.8589 140.311Q57.6421 140.357 57.4018 140.598Q57.1616 140.838 56.9683 140.961Q56.0366 141.682 55.2749 142.391Q54.519 143.094 53.8511 144.078Q53.728 144.271 53.5347 144.57Q53.3472 144.869 53.2007 144.992Q53.0835 145.209 52.9604 145.426Q52.8433 145.643 52.7436 145.883Q52.6499 146.117 52.5268 146.334Q52.4097 146.551 52.2925 146.744Q52.2925 147.031 52.2163 147.295Q52.1694 147.441 52.1694 147.535Q52.146 147.605 52.146 147.682Q52.146 147.752 52.1226 147.799L52.2163 148.016Q52.5034 147.898 52.9136 147.705Q53.3237 147.512 53.3237 147.271Q53.4643 147.225 53.4643 147.225L53.5112 147.225L53.5112 147.178Q53.564 147.131 53.5874 147.131L53.6577 147.131L53.728 147.031L53.728 146.914L53.8276 147.008L54.1382 146.697Q54.1382 146.574 54.3081 146.551Q54.7124 146.217 55.0288 145.76Q55.1929 145.52 55.3628 145.303Q55.5327 145.086 55.7202 144.898L55.7671 144.898L56.0835 144.512L56.0601 144.418L56.394 143.984L56.4409 143.984Q56.4878 143.838 56.5874 143.697L56.6577 143.744L56.8511 143.48L56.8276 143.457Q56.9448 143.264 57.0854 143.076Q57.2319 142.883 57.3784 142.713Q57.519 142.52 57.6538 142.332Q57.7886 142.139 57.9058 141.945Q57.9058 141.775 58.0229 141.635Q58.146 141.488 58.3393 141.488L58.5034 141.535Q58.603 141.365 58.603 141.008Q58.7202 141.031 58.7964 140.961Q58.7964 140.961 58.937 140.914L58.937 140.961L59.1304 141.031Q59.2241 140.984 59.2768 140.984Q59.4643 140.984 59.6577 141.096Q59.8511 141.201 59.9917 141.318Q59.9917 141.365 60.0151 141.342Q60.0151 141.318 60.0444 141.318L60.1616 141.318Q60.4722 141.318 60.4722 141.582L60.4722 141.658Q60.355 141.822 60.2436 141.992Q60.1382 142.162 60.0444 142.326Q59.8511 142.666 59.5112 142.93L59.5112 142.977L59.1304 143.527L59.1772 143.621L58.3628 144.635L58.2925 144.658Q58.2397 144.822 58.1811 144.98Q58.1226 145.139 58.0522 145.303L57.8354 145.379Q57.8823 145.426 57.8823 145.496Q57.8823 145.59 57.9058 145.613Q57.7124 145.977 57.5776 146.34Q57.4487 146.697 57.4956 147.102Q57.4253 147.154 57.4136 147.236Q57.4018 147.318 57.4018 147.395Q57.4018 147.512 57.4136 147.623Q57.4253 147.729 57.4487 147.846Q57.4722 147.969 57.4956 148.092Q57.519 148.209 57.5483 148.326L57.812 148.186L57.8823 148.186L57.9058 148.162L57.9526 148.086Q57.9526 148.016 58.0288 147.922L58.0757 148.109L58.2925 148.016L58.2925 148.109L58.3159 148.109Q58.4097 148.109 58.4565 147.969Q58.5034 147.922 58.5737 147.863Q58.6499 147.799 58.7436 147.799L58.7671 147.752L58.7671 147.682Q58.7671 147.559 58.937 147.488Q59.0366 147.465 59.0952 147.43Q59.1538 147.395 59.2007 147.395L59.2241 147.395L59.8511 146.768L59.8745 146.768Q59.9214 146.697 60.0737 146.568Q60.2319 146.434 60.355 146.387L60.355 146.217L60.519 146.17L60.5483 146.17L61.0991 145.402Q61.0991 145.426 61.146 145.426Q61.1929 145.426 61.2163 145.449Q61.2397 145.449 61.2983 145.367Q61.3628 145.279 61.3628 145.232Q61.3862 145.209 61.4214 145.174Q61.4565 145.139 61.5561 145.109Q61.6265 145.062 61.6733 145.051Q61.7202 145.039 61.7436 145.016Q61.48 145.52 61.2749 145.93Q61.0757 146.334 60.8823 146.744Q60.689 147.154 60.4487 147.529Q60.2085 147.898 59.8511 148.256L59.7515 148.162L59.9214 147.945L59.8979 147.799L59.8511 147.822L59.8511 147.922L59.6811 148.086Q59.6577 148.402 59.4643 148.543L59.3706 148.543L59.3237 148.52L59.3237 148.643L59.1772 148.807L59.1069 148.783L58.8198 149.193L58.8198 149.117L58.7671 149.146Q58.7202 149.17 58.6733 149.193Q58.6265 149.217 58.5796 149.24Q58.4331 149.287 58.4097 149.387L57.7124 149.48ZM60.1147 147.582Q60.1147 147.512 60.1382 147.488L60.1851 147.418L60.0913 147.441L60.1147 147.441L60.0444 147.559L60.0679 147.535L60.1147 147.582ZM58.8928 158.961Q58.8401 158.961 58.7698 158.891Q58.219 158.697 57.7619 158.357Q57.3049 158.023 57.3049 157.379Q57.3049 157.039 57.428 156.682Q57.4983 156.512 57.5334 156.342Q57.5686 156.178 57.592 156.008L57.6916 155.938L57.7619 155.551L57.9787 155.146Q58.0725 154.953 58.219 154.637Q58.3596 154.326 58.5178 154.039Q58.676 153.752 58.7932 153.658L58.7932 153.535L58.9162 153.635Q59.1799 153.201 59.5432 152.896Q59.9006 152.598 60.3049 152.311Q60.3049 152.146 60.4514 152.117L60.3752 152.023L60.5451 151.977L62.0803 150.682L62.1037 150.605Q62.1037 150.512 62.0803 150.441Q62.1799 150.465 62.2268 150.605Q62.2737 150.752 62.2737 150.658L62.2737 150.605L62.344 150.559L62.3967 150.512Q62.3674 150.512 62.344 150.5Q62.3205 150.488 62.2737 150.465L62.344 150.365L62.3674 150.318Q62.4436 150.248 62.4905 150.248Q62.5373 150.248 62.5256 150.295Q62.5139 150.342 62.5373 150.318L62.7541 150.008L62.8244 150.102L62.924 149.984L62.924 149.938Q63.0647 149.914 63.3401 149.697Q63.6155 149.48 63.6448 149.357L63.6916 149.357L64.4592 148.977L64.8635 148.643L64.9631 148.643L64.9631 148.666Q65.2268 148.449 65.549 148.221Q65.8713 147.992 66.2346 147.992L66.2346 147.945L66.3518 147.969Q66.3752 147.922 66.3987 147.828Q66.428 147.729 66.4514 147.635L66.5217 147.178Q66.5217 147.131 66.592 146.809Q66.6682 146.48 66.6916 146.457L66.8088 146.334Q66.8791 146.334 66.8791 146.287Q66.8791 146.264 66.8323 146.217L66.8088 146.217Q66.7619 146.17 66.7619 146.094Q66.7619 145.953 66.8323 145.807Q66.8791 145.736 66.8908 145.666Q66.9084 145.59 66.9319 145.52L66.9084 145.52Q66.8323 145.52 66.8323 145.426Q66.8323 145.232 66.9787 145.016Q67.0959 144.822 67.0959 144.658Q67.0959 144.318 67.1721 144.008Q67.1955 143.838 67.2073 143.686Q67.219 143.527 67.219 143.357Q67.219 143.17 67.1955 143.094Q67.1955 143.146 67.1194 143.193L67.1487 143.193Q66.9084 143.621 66.5569 144.225Q66.2112 144.822 65.8596 145.414Q65.5139 146 65.2033 146.434Q64.6526 147.201 63.9787 147.863Q63.3049 148.52 62.4436 148.953L62.3674 148.93Q62.2502 149.023 62.1155 149.047Q61.9865 149.07 61.8635 149.07Q61.3127 149.07 61.0842 148.607Q60.8557 148.139 60.8557 147.635Q60.8557 147.225 60.9143 146.791Q60.9787 146.357 61.1487 145.953L61.219 145.76Q61.2424 145.736 61.2424 145.59Q61.3596 145.52 61.4416 145.314Q61.5295 145.109 61.5295 144.969Q61.6526 144.898 61.676 144.729L61.7698 144.582Q61.8166 144.512 61.9397 144.512Q61.9397 144.318 61.9983 144.154Q62.0569 143.984 62.2502 143.984L62.2502 143.861L62.3674 143.697L62.2737 143.217Q62.344 143.117 62.4846 142.918Q62.6311 142.713 62.6838 142.59Q62.6076 142.52 62.6076 142.426Q62.6076 142.209 62.9006 141.922L63.0178 141.799Q63.1877 141.635 63.1877 141.441L63.3752 141.418Q63.4045 141.271 63.5686 141.271L63.6155 141.271Q63.7151 141.031 63.7971 140.914Q63.8791 140.791 63.9787 140.721Q64.049 140.65 64.0959 140.621L64.1955 140.551Q64.3596 140.434 64.4299 140.34Q64.5061 140.24 64.6233 140.047Q64.676 139.953 64.7229 139.883Q64.7698 139.807 64.8166 139.736Q65.1799 139.402 65.7776 139.256Q66.3752 139.109 66.8557 139.109Q67.3127 139.109 67.8987 139.279Q68.4905 139.449 68.7541 139.906Q69.0178 140.387 69.2463 140.844Q69.4748 141.295 69.4748 141.869Q69.4748 141.922 69.4748 141.992Q69.4748 142.062 69.4514 142.109Q69.428 142.186 69.428 142.256Q69.428 142.326 69.428 142.379Q69.428 142.426 69.428 142.496Q69.428 142.566 69.4514 142.643Q69.4748 142.713 69.4748 142.783Q69.4748 142.854 69.4748 142.906Q69.4748 143 69.3518 143.275Q69.2346 143.551 69.0881 143.803Q68.9475 144.055 68.8244 144.055Q68.7541 144.055 68.7307 143.984Q68.7073 143.914 68.7073 143.891Q68.7073 143.768 68.719 143.65Q68.7307 143.527 68.7541 143.41Q68.7776 143.287 68.801 143.17Q68.8244 143.047 68.8479 142.93Q68.924 142.666 68.9709 142.391Q69.0178 142.109 69.0178 141.846Q69.0178 141.682 68.9944 141.465Q68.9709 141.248 68.9006 141.131Q68.8479 141.031 68.801 140.961Q68.7541 140.891 68.7073 140.814Q68.6604 140.744 68.5842 140.674Q68.5139 140.598 68.467 140.504Q68.2268 140.193 67.8928 140.193Q67.7229 140.193 67.5764 140.264L67.5061 140.311Q67.383 140.311 67.301 140.322Q67.219 140.334 67.0959 140.41L66.9553 140.48L66.8088 140.574Q65.2737 141.582 64.1194 143.123Q62.9709 144.658 62.2268 146.334Q62.0569 146.721 61.8752 147.166Q61.6994 147.605 61.6994 148.016Q61.6994 148.209 61.7698 148.402L61.7932 148.426Q61.8166 148.449 61.8928 148.449Q62.0569 148.449 62.2971 148.256Q62.5373 148.062 62.7776 147.822Q63.0178 147.582 63.1877 147.465Q63.3518 147.295 63.4983 147.271Q63.6916 146.938 63.9553 146.674Q64.0725 146.551 64.1897 146.422Q64.3127 146.287 64.4123 146.17Q64.9865 145.426 65.6194 144.541Q66.258 143.65 66.5686 142.953Q66.6155 142.83 66.6623 142.689Q66.7151 142.543 66.7385 142.426Q66.7619 142.209 67.049 141.969L67.4123 141.898Q67.6233 141.969 67.8166 141.969Q67.9397 141.969 68.01 141.945L68.2033 141.945Q68.467 141.945 68.5256 142.209Q68.5842 142.473 68.6076 142.666Q68.6076 142.736 68.6311 142.76L68.6604 142.83Q68.6838 142.93 68.6604 143Q68.6838 143.117 68.6955 143.205Q68.7073 143.287 68.7073 143.334Q68.7073 143.744 68.6076 144.031Q68.4905 144.395 68.4905 144.729Q68.4905 144.992 68.344 145.256Q68.2033 145.496 68.2033 145.807Q68.2033 146.047 68.0334 146.047L68.01 146.047Q67.9631 146.047 67.9397 146.07Q67.9397 146.117 67.9865 146.17Q68.01 146.217 68.01 146.311Q68.01 146.334 67.9748 146.445Q67.9397 146.551 67.9162 146.598Q67.8928 146.697 67.7229 146.697Q67.6233 146.721 67.553 146.732Q67.4826 146.744 67.4358 146.744L67.4123 146.744Q67.4123 146.791 67.4826 146.768Q67.5061 146.744 67.5998 146.744Q67.6526 146.744 67.7698 146.756Q67.8928 146.768 67.8928 146.861Q67.8928 146.938 67.7932 147.166Q67.6994 147.395 67.5881 147.635Q67.4826 147.869 67.4358 147.992L67.5295 148.109L67.4826 148.162Q67.4826 148.186 67.4592 148.209L67.3596 148.303Q67.9397 148.426 68.2268 148.678Q68.5139 148.93 68.5139 149.598Q68.5139 149.861 68.4201 149.938Q68.344 149.984 68.2971 150.102Q68.2737 150.154 68.2151 150.225Q68.1565 150.295 68.1037 150.295Q68.01 150.295 68.01 150.225L68.01 150.201L67.9397 150.201L68.0803 149.814Q68.1037 149.744 68.1272 149.668Q68.1565 149.598 68.1565 149.527Q68.1565 149.264 67.7463 149.129Q67.3362 149 67.0725 148.953Q66.6916 149.861 66.1994 150.752Q65.7073 151.643 65.2268 152.504Q65.0569 152.814 64.8752 153.125Q64.6994 153.441 64.5061 153.775Q64.1194 154.426 63.7151 155Q63.4045 155.457 62.9944 155.938Q62.6076 156.395 62.2737 156.869Q61.9631 157.35 61.5881 157.59Q61.219 157.83 60.8088 158.035Q60.4045 158.24 59.924 158.621Q59.6838 158.621 59.4436 158.791Q59.2268 158.961 58.9631 158.914Q58.9162 158.961 58.8928 158.961ZM62.01 144.922L62.0569 144.898L61.9865 144.822L61.9397 144.922L62.01 144.922ZM58.3596 158.07Q58.4592 158.047 58.5412 158.035Q58.6233 158.023 58.676 158.023Q58.7463 157.977 58.8225 157.912Q58.8928 157.854 58.9865 157.807L59.344 157.59Q59.5373 157.473 59.7073 157.35Q59.8713 157.232 59.9944 157.109Q60.0412 157.062 60.094 157.016Q60.1408 156.969 60.1877 156.922Q60.2346 156.846 60.2932 156.775Q60.3518 156.705 60.4045 156.658Q60.4514 156.582 60.51 156.512Q60.5686 156.441 60.6155 156.395Q60.6682 156.318 60.7268 156.248Q60.7854 156.178 60.8323 156.131L60.9787 156.055L60.9787 156.078Q61.0959 155.938 61.2365 155.791Q61.383 155.65 61.5295 155.551L61.5061 155.527L61.9397 155.117L61.9397 155.264Q61.9865 155.217 62.01 155.193Q62.0334 155.17 62.0569 155.146L62.2033 154.807L62.1799 154.783L62.1037 154.854L62.01 154.854L62.01 154.76Q62.2971 154.379 62.678 153.934Q63.0647 153.488 63.3752 153.031Q63.6916 152.574 63.7151 152.17L64.0959 151.783L64.1194 151.783L64.5998 150.969L64.5295 150.799L65.2971 149.838Q65.3205 149.674 65.4905 149.48Q65.6311 149.287 65.6311 149.094Q65.6311 149.023 65.5842 149.023Q65.344 149.023 64.7463 149.457Q64.6526 149.504 64.5295 149.574Q64.4123 149.65 64.2893 149.744Q64.049 149.914 63.8323 149.961L62.7541 150.799L62.7307 150.799L60.8088 152.387Q60.6448 152.551 60.3811 152.932Q60.1115 153.318 59.9944 153.635L59.9006 153.535Q59.924 153.559 59.7776 153.799Q59.7307 153.922 59.6838 154.004Q59.6311 154.086 59.6076 154.139L59.6076 154.186Q59.6076 154.209 59.5842 154.256Q59.5608 154.303 59.4905 154.279L59.467 154.256L58.8635 155.193L58.7932 155.193L58.7698 155.17Q58.7463 155.217 58.7463 155.287Q58.7463 155.357 58.7229 155.41Q58.7229 155.527 58.6233 155.598L58.1721 156.729Q58.1721 156.822 58.1604 156.904Q58.1487 156.992 58.1194 157.086Q58.0725 157.279 58.0725 157.426Q58.0725 157.854 58.3596 158.07ZM70.8185 148.783Q70.5548 148.783 70.2911 148.713Q69.9044 148.566 69.5235 147.922L69.711 147.869L69.547 147.752L69.3536 147.154L69.3302 147.154Q69.3067 147.078 69.3067 146.938L69.3067 146.768Q69.3067 146.674 69.4239 146.434Q69.547 146.193 69.6407 145.977L69.4005 146.023L69.4005 145.906Q69.4239 145.883 69.4767 145.783Q69.5001 145.713 69.5938 145.689Q69.6173 145.713 69.6173 145.76L69.6642 145.713L69.6642 145.59Q69.6642 145.496 69.6759 145.391Q69.6876 145.279 69.7638 145.209Q69.7638 145.062 69.7872 145.039L69.8106 144.945L69.8575 144.945L69.8575 144.846L70.004 144.658Q70.1212 144.535 70.1446 144.535L70.1446 144.512Q70.1212 144.535 70.0743 144.535Q69.9806 144.535 69.9806 144.441Q69.9806 144.418 70.004 144.395L70.004 144.271Q70.0274 144.248 70.0274 144.154Q70.0274 144.055 69.9806 144.008L70.1446 143.814L70.2442 143.838L70.2208 143.814L70.2677 143.814L70.2911 143.791L70.3614 143.527L70.4845 143.721L70.5548 143.311Q70.5782 143.193 70.6017 143.076Q70.6251 142.953 70.6485 142.83L70.9122 142.807L70.9122 142.613L70.8419 142.613L70.8419 142.496L70.9591 142.379L70.9591 142.402L70.9884 142.379L70.9884 142.256L71.1993 142.109L71.1993 142.016Q71.3692 141.922 71.4923 141.682Q71.5626 141.512 71.8263 141.465L71.6798 141.465L71.7032 141.441L71.6095 141.512L71.6095 141.318L71.6563 141.318L71.6798 141.271L71.7032 141.271L71.756 141.178L71.756 141.055Q71.8966 140.961 72.0489 140.82Q72.2071 140.674 72.2071 140.504L72.3067 140.434L72.3067 140.334L72.4005 140.387L72.711 140.094L72.711 140L72.9044 139.883L73.004 139.736Q73.004 139.666 73.0743 139.666Q73.0977 139.666 73.1798 139.701Q73.2677 139.736 73.3145 139.76L73.4552 139.76Q73.8419 139.76 74.2227 140.035Q74.6095 140.311 74.8731 140.697Q75.1368 141.078 75.1368 141.465Q75.1368 141.582 75.2071 141.705Q75.2364 141.775 75.2481 141.852Q75.2599 141.922 75.2599 142.016L75.2599 142.109Q75.2599 142.209 75.2364 142.232Q74.8263 143.193 73.9708 144.084Q73.1212 144.969 72.2071 145.473Q72.0196 145.566 71.7794 145.666Q71.5392 145.76 71.2989 145.76Q71.2286 145.76 71.1993 145.736L71.0352 145.689Q71.1056 145.666 71.252 145.566Q71.2989 145.543 71.3458 145.52Q71.3927 145.496 71.4395 145.473L71.586 145.402Q71.6329 145.402 71.6563 145.379L71.6329 145.35Q71.6329 145.256 71.756 145.256Q71.8966 145.162 71.9962 145.139L72.2364 145.062Q72.377 145.016 72.4825 144.98Q72.5938 144.945 72.5938 144.846Q72.6876 144.775 72.8341 144.535Q73.004 144.248 73.0743 144.178L73.2911 144.131L73.5313 143.768L73.4845 143.674L73.672 143.574L73.672 143.48L73.7247 143.48Q73.9884 143.193 74.1407 142.965Q74.2989 142.736 74.4161 142.35Q74.4161 142.303 74.4923 142.303L74.4923 142.279Q74.6329 141.992 74.6329 141.729Q74.6329 141.154 74.0821 141.154Q74.0352 141.154 73.9591 141.131Q73.8653 141.131 73.8653 141.178L73.9884 141.178L73.8653 141.271Q73.7481 141.318 73.6368 141.418Q73.5313 141.512 73.5313 141.682L73.4317 141.682Q73.4845 141.682 73.5079 141.775Q73.338 141.775 73.2677 141.869L73.3849 141.945Q73.338 141.992 73.2618 142.027Q73.1915 142.062 73.1212 142.109Q73.0509 142.139 72.9747 142.174Q72.9044 142.209 72.8575 142.256Q72.5938 142.449 72.5938 142.613Q72.5938 142.643 72.6173 142.666Q72.6407 142.689 72.6759 142.713Q72.711 142.736 72.7638 142.783L72.5704 142.76Q72.5704 142.76 72.5938 142.748Q72.6173 142.736 72.6407 142.736Q72.547 142.736 72.5001 142.76Q72.4474 142.76 72.5001 142.807L72.5235 142.83Q72.5235 142.83 72.5118 142.83Q72.5001 142.83 72.5001 142.854Q72.4767 142.883 72.4767 142.906L72.4239 142.906Q72.3302 143.023 72.2423 143.146Q72.1602 143.264 72.1134 143.387Q72.0196 143.598 71.8497 143.814L72.0196 143.938L71.8497 143.938L71.756 144.031L71.756 144.154L71.6095 144.271L71.6563 144.295L71.4161 144.705L71.3458 144.729L71.3458 144.922L71.0821 145.209L71.1056 145.303L71.0587 145.303L71.0587 145.473Q70.8888 145.643 70.8419 145.906Q70.8185 146.146 70.6485 146.387L70.795 146.387L70.6017 146.504L70.6017 146.574Q70.5782 146.598 70.5782 146.65Q70.5782 146.744 70.5899 146.82Q70.6017 146.891 70.6251 146.961Q70.6485 147.031 70.6602 147.107Q70.672 147.178 70.672 147.271Q70.672 147.465 70.8302 147.764Q70.9884 148.062 71.1524 148.062Q71.6095 148.062 72.0665 147.822Q72.5001 147.559 72.9513 147.535L73.4552 147.131Q73.8419 146.814 74.129 146.387Q74.4395 145.953 74.8263 145.643L74.8497 145.643L74.8028 145.59Q74.8731 145.496 75.0138 145.303Q75.1602 145.109 75.1837 144.992Q75.2071 144.969 75.2071 144.898Q75.2071 144.846 75.2364 144.822Q75.2833 144.705 75.377 144.705Q75.4767 144.705 75.4767 144.822Q75.4767 144.898 75.4474 144.922Q75.4474 145.162 75.2423 145.607Q75.0431 146.047 74.7794 146.146L74.7794 146.217Q74.6563 146.334 74.5392 146.551Q74.3692 146.768 74.0704 147.154Q73.7716 147.535 73.5782 147.535L73.2442 147.752L73.2442 147.846Q73.2442 147.969 73.0977 148.016Q73.004 148.139 72.8575 148.109Q72.7872 148.256 72.6173 148.303Q72.547 148.326 72.4005 148.426Q72.3536 148.496 72.172 148.572Q71.9962 148.643 71.92 148.666Q71.8028 148.76 71.6329 148.771Q71.4688 148.783 71.3458 148.783L70.8185 148.783ZM79.7935 149.146Q79.77 149.117 79.7232 149.117Q79.6997 149.094 79.6236 149.094Q79.6001 149.07 79.5532 149.047Q79.5064 149.023 79.4595 148.977L79.6236 148.977Q79.6763 148.953 79.7349 148.93Q79.7935 148.906 79.8169 148.883Q79.9634 148.783 80.0337 148.76Q80.1568 148.689 80.2857 148.414Q80.4204 148.139 80.5493 147.816Q80.6841 147.488 80.7544 147.318L80.8247 147.031Q80.8247 146.914 80.8716 146.768Q80.9243 146.504 81.0298 146.264Q81.1353 146.023 81.2583 145.76Q81.2583 145.76 81.3052 145.543Q81.3052 145.35 81.3286 145.303Q81.3052 145.303 81.3052 145.279L81.2583 145.279Q81.2349 145.279 81.2114 145.256Q81.2114 145.232 81.2349 145.209L81.2349 145.186L81.4282 144.822Q81.522 144.635 81.7153 144.582Q81.7857 144.395 81.9907 144.037Q82.1958 143.674 82.1958 143.527Q82.1958 143.334 82.1196 143.17Q82.0259 143.047 82.0259 142.83Q82.0259 142.783 82.0376 142.736Q82.0493 142.689 82.0728 142.643Q82.0962 142.59 82.0962 142.531Q82.0962 142.473 82.1196 142.426Q82.1431 142.379 82.19 142.162Q82.2427 141.945 82.2896 141.717Q82.3364 141.488 82.3599 141.418Q82.4361 140.861 82.6236 140.65L82.5767 140.598Q82.6997 140.457 82.8052 140.264Q82.9165 140.07 82.9165 139.883Q82.9165 139.783 82.8872 139.736Q82.8403 139.689 82.8403 139.613Q82.8403 139.496 82.9341 139.426Q83.0337 139.35 83.104 139.303L83.104 139.279Q82.9634 139.232 82.9165 139.186Q82.8403 139.109 82.7466 139.109L82.7466 139.016Q82.7466 138.992 82.7349 139.027Q82.7232 139.062 82.6997 139.062Q82.7232 139.062 82.6997 139.086L82.6236 139.062Q82.5767 139.039 82.5415 139.039Q82.5064 139.039 82.4595 139.016Q82.4126 139.016 82.3599 139.004Q82.313 138.992 82.2661 138.969Q82.1724 138.945 82.1724 138.846Q82.1724 138.799 82.2896 138.74Q82.4126 138.682 82.4595 138.682Q82.8169 138.752 83.3325 138.875Q83.8482 138.992 84.3169 139.162Q84.7857 139.326 84.9321 139.543Q84.979 139.613 84.9907 139.701Q85.0025 139.783 85.0025 139.854Q85.0025 140.07 84.8794 140.357L84.6685 140.861Q84.5923 140.961 84.5923 141.055Q84.5923 141.154 84.4341 141.336Q84.2818 141.512 84.1646 141.559Q84.188 141.582 84.188 141.594Q84.188 141.605 84.188 141.605Q84.188 141.658 84.2114 141.682Q84.3052 141.682 84.2583 141.752Q84.3052 141.799 84.3052 141.898Q84.3052 141.969 84.27 142.057Q84.2349 142.139 84.1353 142.162Q84.1118 142.186 84.1118 142.209Q84.065 142.303 84.065 142.379L84.065 142.402L84.0884 142.402Q84.0884 142.666 83.9243 142.689Q83.8716 142.883 83.7544 143.146Q83.5845 143.457 83.5142 143.621L83.5142 143.65Q83.5142 143.721 83.4673 143.721L83.4204 143.768Q83.3911 143.838 83.2974 143.938Q83.2739 143.984 83.2388 144.02Q83.2036 144.055 83.1802 144.102Q83.1275 144.178 83.0806 144.248Q83.0337 144.318 83.0806 144.441L83.0571 144.441L83.0571 144.465Q83.0571 144.535 83.0337 144.535Q82.9868 144.635 82.8989 144.729Q82.8169 144.822 82.6763 144.869L81.9087 146.744Q81.8794 146.838 81.7622 146.891L81.9087 147.031L81.7153 147.031L81.8091 147.131L81.6919 147.131L81.6685 147.154L81.6157 147.154Q81.5923 147.178 81.4986 147.178L81.4986 147.318L81.5454 147.342L81.4517 147.512L81.4282 147.535L81.3521 147.535Q81.2583 147.582 81.2583 147.582Q81.2114 147.635 81.2114 147.682Q81.2114 147.822 81.2349 147.846Q81.3286 147.752 81.5571 147.488Q81.7857 147.225 82.0259 146.902Q82.2661 146.574 82.4302 146.299Q82.6001 146.023 82.5767 145.953Q82.6997 145.953 82.7935 145.713Q82.8638 145.643 82.9165 145.566Q82.94 145.52 83.0103 145.449Q83.4907 145.062 83.8716 144.6Q84.2583 144.131 84.6392 143.65Q85.0025 143.17 85.4068 142.689Q85.8169 142.209 86.3677 141.752Q86.7778 141.418 87.2935 140.996Q87.8091 140.574 88.3364 140.264Q88.8638 139.953 89.2739 139.953Q89.5611 139.953 89.5611 140.264Q89.5611 140.387 89.5376 140.545Q89.5142 140.697 89.4673 140.814Q89.3208 141.225 89.1275 141.658Q88.94 142.086 88.7466 142.496Q88.5767 142.854 88.4829 143.17Q88.3599 143.551 88.1958 143.861Q88.1431 143.938 88.1079 143.973Q88.0728 144.008 88.0493 144.031Q88.0493 144.055 88.0376 144.119Q88.0259 144.178 88.0025 144.248L88.1724 144.225Q88.0025 144.605 87.8911 144.934Q87.7857 145.256 87.7857 145.613Q87.7857 145.689 87.7388 145.736L87.7388 145.76Q87.6157 145.76 87.5923 145.736Q87.5454 145.736 87.4986 145.783Q87.4751 145.807 87.4751 145.883Q87.4517 145.906 87.4517 145.941Q87.4517 145.977 87.4282 146L87.5923 145.93Q87.5689 146.146 87.522 146.311Q87.4986 146.41 87.4868 146.48Q87.4751 146.551 87.4751 146.65Q87.4751 146.984 87.6275 147.201Q87.7857 147.418 88.1431 147.418Q88.2193 147.418 88.2427 147.395L88.313 147.395Q88.4126 147.342 88.5767 147.26Q88.7466 147.178 88.9165 147.055Q89.104 146.938 89.2739 146.82Q89.4439 146.697 89.5845 146.357Q89.4907 146.791 89.4263 146.902Q89.3677 147.008 89.0337 147.295Q88.6997 147.559 88.2075 147.887Q87.7153 148.209 87.2349 148.209Q86.8247 148.209 86.5493 147.957Q86.2739 147.705 86.104 147.395L86.0103 147.295Q85.9165 147.201 85.9165 147.102Q85.9165 147.055 85.94 147.031L85.94 146.984L86.0806 146.938L86.104 146.914Q86.0806 146.861 86.0689 146.814Q86.0571 146.768 86.0571 146.721L86.0571 146.551Q86.0571 146.07 86.1392 145.59Q86.2271 145.109 86.3443 144.635L86.3677 144.635Q86.4204 144.225 86.5845 143.961L86.6314 143.891L86.5142 143.891L86.5845 143.791L86.5142 143.574Q86.5611 143.48 86.69 143.135Q86.8247 142.783 86.9419 142.449Q87.065 142.109 87.0884 142.062Q86.9946 142.062 86.9243 142.139Q86.2739 142.613 85.7935 143.264Q85.5532 143.598 85.3013 143.914Q85.0493 144.225 84.7857 144.535Q84.2583 145.139 83.6607 145.736Q83.3443 146.023 83.0806 146.322Q82.8169 146.621 82.5532 146.961L81.8325 147.922Q81.4751 148.379 81.065 148.83Q80.7778 149.117 80.4907 149.117Q80.3443 149.094 80.1919 149.117Q80.0337 149.146 79.8638 149.146L79.7935 149.146ZM82.7935 144.559Q82.8403 144.441 82.94 144.441L82.8638 144.342Q82.8403 144.395 82.8169 144.453Q82.7935 144.512 82.77 144.559L82.7935 144.559ZM91.8192 150.078Q91.5555 150.078 91.3738 149.943Q91.1922 149.814 91.0281 149.621Q90.7117 149.217 90.4949 148.93Q90.284 148.643 90.284 148.062L90.284 147.318Q90.284 147.102 90.4012 146.662Q90.5242 146.217 90.7 145.783Q90.8817 145.35 91.0281 145.209Q91.2391 144.512 91.5262 143.844Q91.8192 143.17 92.2762 142.613Q92.0359 142.039 91.9598 141.43Q91.8895 140.814 91.8895 140.193Q91.8895 140 91.9012 139.848Q91.9129 139.689 91.9363 139.496L92.0125 139.402L92.0359 139.379L92.0359 139.279Q92.0125 139.256 92.0125 139.209Q92.0125 139.109 92.0828 138.898Q92.1531 138.682 92.2117 138.465Q92.2762 138.248 92.2762 138.225Q92.2762 138.178 92.3699 138.154L92.4871 138.102Q92.5164 138.078 92.6102 138.031L92.6805 137.984Q92.8973 137.697 93.3133 137.58Q93.7352 137.457 94.075 137.457Q94.7957 137.457 95.1414 137.949Q95.4871 138.441 95.6805 139.062Q95.8504 138.945 96.0203 138.945Q96.0906 138.945 96.1375 138.992Q96.5242 139.086 97.0164 139.402Q97.5086 139.713 97.5086 140.07L97.5086 140.117Q97.5086 140.24 97.2684 140.457Q97.0281 140.674 96.7 140.902Q96.3777 141.131 96.0789 141.324Q95.7801 141.512 95.657 141.582Q95.4871 141.682 95.3231 141.752Q95.2234 141.775 95.1531 141.84Q95.0828 141.898 94.9832 141.945Q94.866 142.039 94.7547 142.139Q94.6492 142.232 94.532 142.35L94.3152 142.566Q94.2391 142.643 94.1922 142.701Q94.1453 142.76 94.075 142.807Q94.0281 142.854 93.9168 142.93Q93.8113 143 93.6883 143.094Q93.4012 143.287 93.3777 143.457Q93.3543 143.48 93.2899 143.662Q93.2313 143.838 93.2313 143.914Q93.2313 144.178 93.3016 144.553Q93.3777 144.922 93.5242 145.256Q93.5945 145.449 93.5184 145.678Q93.4481 145.906 93.2606 145.76Q93.0672 145.566 92.9207 145.256Q92.7801 144.945 92.7567 144.799Q92.7274 144.752 92.7742 144.729Q92.827 144.705 92.7801 144.658L92.7274 144.605Q92.7039 144.582 92.7039 144.535Q92.7039 144.535 92.657 144.488Q92.4637 144.682 92.2469 145.127Q92.0359 145.566 91.9363 145.807L91.7957 146.146Q91.6727 146.41 91.6258 146.41Q91.532 146.41 91.532 146.287L91.532 146.264Q91.532 146.117 91.6024 145.953L91.7488 145.566Q91.6258 145.76 91.5379 145.988Q91.4559 146.217 91.4559 146.287L91.4559 146.311L91.4793 146.357Q91.4793 146.387 91.5086 146.41L91.5086 146.504Q91.4793 146.504 91.4793 146.551Q91.4324 146.791 91.3621 147.031Q91.2918 147.271 91.2156 147.512Q91.0516 147.945 91.0516 148.52Q91.0516 148.906 91.1922 149.193Q91.3387 149.48 91.7488 149.48Q91.9598 149.48 92.1297 149.41Q92.3231 149.334 92.6922 149.059Q93.0672 148.783 93.4481 148.414Q93.8348 148.039 94.1102 147.705Q94.3856 147.365 94.3856 147.201Q94.4559 147.078 94.5731 146.949Q94.6961 146.814 94.6492 146.697Q94.9598 146.217 95.1883 145.531Q95.4168 144.846 95.5692 144.131Q95.7274 143.41 95.7801 142.854Q95.827 142.666 95.8504 142.59Q95.8973 142.496 95.9207 142.473L95.9442 142.449Q95.991 142.402 95.991 142.303Q95.991 142.256 95.991 142.186Q95.991 142.109 95.9676 142.039Q95.9207 141.898 95.9207 141.775Q95.9207 141.682 95.991 141.512Q96.0672 141.342 96.2078 141.342Q96.3777 141.342 96.4715 141.605Q96.5711 141.869 96.6297 142.174Q96.6883 142.473 96.6883 142.643Q96.6883 143.193 96.5652 143.879Q96.4481 144.559 96.2606 145.109Q96.0906 145.566 95.8856 145.906Q95.6805 146.24 95.4168 146.65L95.1766 147.031L95.0828 147.201Q95.0594 147.178 95.0477 147.289Q95.0359 147.395 94.9832 147.395Q94.9598 147.395 94.9481 147.43Q94.9363 147.465 94.9129 147.488Q94.7957 147.682 94.6258 147.822Q94.532 147.922 94.4442 148.004Q94.3621 148.086 94.3152 148.186Q94.0516 148.566 93.6531 149.012Q93.2606 149.457 92.7918 149.768Q92.3231 150.078 91.8192 150.078ZM92.8738 141.992L92.8973 141.945L92.9442 141.752Q93.0203 141.441 93.4715 141.008Q93.9285 140.574 94.2156 140.287Q94.4324 140.094 94.6492 139.854Q94.866 139.613 95.0828 139.449Q95.0359 139.256 94.8777 138.945Q94.7195 138.635 94.5379 138.383Q94.3621 138.131 94.1922 138.131Q93.9285 138.131 93.7117 138.342L93.6649 138.395Q93.6414 138.465 93.5711 138.465L93.4481 138.535Q93.4481 138.559 93.4246 138.559L93.4246 138.605Q93.3309 138.822 93.2078 139.062Q93.1375 139.162 93.1024 139.244Q93.0672 139.326 93.0438 139.379Q92.9207 139.783 92.8387 140.217Q92.7567 140.65 92.7567 141.078Q92.7567 141.318 92.7801 141.547Q92.8035 141.775 92.8738 141.992ZM98.5619 145.139Q98.3685 145.232 98.2572 145.115Q98.1517 144.992 98.2513 144.869Q98.3685 144.752 98.392 144.658Q98.4154 144.559 98.4154 144.441L98.4154 144.248Q98.4154 144.078 98.4447 144.055L98.5853 143.914Q98.6088 143.861 98.7318 143.814L98.849 143.48Q98.6791 143.287 98.8959 143.07L98.9193 143.047L98.9193 143.023L98.972 142.953L99.1127 142.713L99.1361 142.666L99.1888 142.666Q99.1361 142.543 99.2592 142.402Q99.306 142.279 99.3998 142.162Q99.4994 142.039 99.5931 141.898Q99.8334 141.635 99.8568 141.418Q99.9037 141.225 100.074 141.078Q100.05 141.078 100.05 141.031Q100.05 141.008 100.027 141.008Q100.027 140.984 100.05 140.961L100.05 140.938Q100.097 140.891 100.214 140.686Q100.337 140.48 100.46 140.264Q100.507 140.193 100.554 140.123Q100.601 140.047 100.648 139.953L100.771 139.736L100.12 139.52Q99.64 139.35 99.2767 139.051Q98.9193 138.752 98.9193 138.178Q98.9193 137.914 99.0775 137.721Q99.2357 137.527 99.3998 137.387Q99.4994 137.287 99.4994 137.264Q99.6927 137.023 99.8802 137.135Q100.074 137.24 99.8802 137.434L99.7396 137.621Q99.64 137.768 99.5463 137.902Q99.4525 138.031 99.4525 138.225Q99.4525 138.465 99.7982 138.646Q100.144 138.822 100.566 138.922Q100.988 139.016 101.152 139.016Q102.136 137.721 103.097 136.449Q104.058 135.178 105.019 133.883Q105.113 133.783 105.113 133.543L106.003 132.605Q106.097 132.658 106.179 132.682Q106.267 132.705 106.361 132.729Q106.46 132.752 106.542 132.775Q106.624 132.799 106.724 132.822Q106.911 132.869 107.081 132.945Q107.251 133.016 107.392 133.186Q107.656 133.449 107.656 133.83Q107.656 134.24 107.322 134.527Q106.964 134.814 106.701 135.078Q106.601 135.154 106.513 135.225Q106.431 135.295 106.337 135.395Q106.144 135.582 105.904 135.582L105.904 135.418L105.98 135.418Q106.074 135.295 106.179 135.154Q106.29 135.008 106.384 134.891Q106.624 134.627 106.747 134.357Q106.648 134.457 106.566 134.527Q106.484 134.598 106.384 134.674Q106.29 134.744 106.203 134.832Q106.12 134.914 106.027 135.008Q105.904 135.178 105.64 135.477Q105.376 135.775 105.066 136.109Q104.802 136.449 104.527 136.713Q104.251 136.977 104.128 137.094L104.105 137.117L104.204 137.217L103.888 137.334L103.911 137.357Q103.911 137.551 103.788 137.627Q103.671 137.697 103.554 137.697Q103.507 137.838 103.419 137.949Q103.337 138.055 103.144 138.131Q103.167 138.154 103.167 138.201Q103.167 138.225 103.197 138.248Q103.197 138.271 103.22 138.295L103.167 138.295L103.167 138.342L103.05 138.342Q103.027 138.342 103.003 138.441L103.074 138.559Q103.097 138.582 103.097 138.658Q103.431 138.295 103.742 137.938Q104.058 137.574 104.392 137.193L105.693 135.752L105.74 135.752Q105.74 135.775 105.763 135.775Q105.763 135.799 105.786 135.799Q105.786 135.969 105.523 136.332Q105.259 136.689 104.872 137.111Q104.492 137.527 104.14 137.914Q103.794 138.295 103.601 138.512Q103.531 138.582 103.431 138.729Q103.361 138.799 103.267 138.945L103.484 138.945Q103.794 138.945 104.046 138.91Q104.298 138.869 104.562 138.822Q104.679 138.799 104.796 138.764Q104.919 138.729 105.042 138.705Q105.16 138.682 105.277 138.658Q105.4 138.635 105.523 138.605Q105.81 138.559 106.29 138.453Q106.771 138.342 106.988 138.178Q107.609 137.984 108.212 137.891Q108.212 137.891 108.236 137.879Q108.259 137.861 108.306 137.838Q108.353 137.838 108.376 137.814Q108.423 137.744 108.499 137.744L108.693 137.674L108.88 137.621L108.88 137.598Q109.22 137.527 109.531 137.398Q109.841 137.264 110.175 137.117Q110.492 137 110.79 136.895Q111.089 136.783 111.4 136.783L111.476 136.643Q111.763 136.35 112.12 136.35L112.12 136.426Q112.22 136.52 112.22 136.643Q112.22 136.713 112.167 136.713Q111.956 136.93 111.693 136.953Q111.716 137 111.728 137.023Q111.74 137.047 111.74 137.07Q111.74 137.146 111.663 137.146Q111.57 137.217 111.423 137.217Q111.306 137.217 111.306 137.07L111.376 137.023Q111.236 137.023 111.183 136.977Q111.019 137.41 110.632 137.41L110.585 137.598L110.322 137.527Q110.204 137.65 110.081 137.65Q110.035 137.768 109.999 137.855Q109.964 137.938 109.818 137.938Q109.841 137.914 109.841 137.861Q109.818 137.838 109.818 137.814Q109.648 138.008 109.419 138.154Q109.197 138.295 108.88 138.295L108.857 138.131L108.833 138.131Q108.857 138.154 108.857 138.248Q108.857 138.342 108.775 138.395Q108.693 138.441 108.64 138.441Q108.617 138.441 108.617 138.418L108.57 138.418Q108.453 138.512 108.353 138.512Q108.306 138.512 108.283 138.488L108.212 138.488Q108.089 138.582 107.99 138.594Q107.896 138.605 107.708 138.635Q107.392 138.682 107.046 138.805Q106.701 138.922 106.384 139.039Q106.361 139.062 106.267 139.062Q106.22 139.062 106.22 139.086Q105.476 139.473 104.708 139.496Q103.888 139.566 103.12 139.713Q103.05 139.736 102.974 139.748Q102.904 139.76 102.81 139.76Q102.716 139.76 102.64 139.771Q102.57 139.783 102.499 139.807Q102.353 139.83 102.136 140.035Q101.919 140.24 101.726 140.48Q101.538 140.721 101.445 140.861Q101.345 140.961 101.222 141.072Q101.105 141.178 100.988 141.271Q100.747 141.441 100.554 141.705Q100.507 141.752 100.431 141.828Q100.361 141.898 100.314 141.992Q100.197 142.209 100.027 142.232Q100.074 142.35 99.9799 142.402L99.9271 142.449Q99.7162 142.666 99.7162 142.953Q99.64 143.023 99.5931 143.146L99.5697 143.24L99.4994 143.334Q99.3763 143.504 99.265 143.732Q99.1595 143.961 99.0424 144.225Q98.9193 144.488 98.7963 144.717Q98.6791 144.945 98.5619 145.139ZM97.8177 151.613Q97.6478 151.613 97.4427 151.543Q97.2435 151.473 97.1205 151.35Q97.0033 151.209 96.7748 150.834Q96.5463 150.465 96.5463 150.271Q96.5463 149.814 96.5931 149.381Q96.64 148.953 96.7396 148.496Q96.8802 148.379 96.9037 148.209Q96.9271 148.039 96.9564 147.869Q97.1439 147.682 97.1674 147.395Q97.1967 147.102 97.4603 147.102L97.5072 147.055Q97.5306 147.031 97.4838 146.938Q97.431 146.814 97.4076 146.732Q97.3842 146.65 97.4603 146.527Q97.4838 146.48 97.5072 146.422Q97.5306 146.357 97.5541 146.334Q97.5775 146.311 97.6244 146.17Q97.7006 145.906 97.7592 145.701Q97.8177 145.496 98.0111 145.279Q98.1283 145.186 98.222 145.268Q98.3217 145.35 98.2982 145.473Q98.2982 145.613 98.2279 145.76L98.4154 145.76Q98.3217 146.217 98.1986 146.674Q98.0814 147.131 97.9642 147.582Q97.6713 148.473 97.6713 149.41Q97.6713 150.248 98.0111 150.969L98.3451 150.775L98.4681 150.559L98.4681 150.822L98.515 150.945Q98.5619 150.822 98.6556 150.729Q98.7552 150.635 98.9486 150.635L98.972 150.799Q98.972 150.869 98.9486 150.898Q98.8021 151.209 98.4857 151.408Q98.1752 151.613 97.8177 151.613ZM108.976 146.287Q108.882 146.387 108.724 146.217Q108.571 146.047 108.665 146.047Q108.712 145.854 108.87 145.543Q109.028 145.232 109.169 144.992Q109.603 144.318 109.796 143.744Q109.843 143.621 109.96 143.445Q110.083 143.264 110.177 143.217L110.37 142.977Q110.247 142.883 110.2 142.883L110.13 142.883Q110.323 142.543 110.476 142.291Q110.634 142.039 110.898 141.775Q110.347 141.682 109.855 141.395Q109.362 141.102 109.362 140.457Q109.362 140.146 109.503 140.047Q109.65 139.93 109.65 139.83Q109.673 139.783 109.743 139.701Q109.819 139.613 109.866 139.613Q109.913 139.613 109.913 139.689Q109.913 139.76 109.96 139.76Q109.937 139.906 109.796 140.146Q109.673 140.334 109.673 140.527Q109.673 140.768 109.937 140.949Q110.2 141.131 110.546 141.225Q110.898 141.318 111.091 141.365Q111.618 140.24 112.275 139.186Q112.937 138.131 113.611 137.07Q114.091 136.303 114.595 135.535Q115.099 134.768 115.65 134.07Q116.13 133.496 116.611 132.969Q116.851 132.705 117.079 132.43Q117.308 132.154 117.548 131.861Q118.169 131.047 118.902 130.631Q119.634 130.209 120.525 129.605Q120.835 129.705 121.263 129.934Q121.696 130.162 121.696 130.496Q121.696 130.52 121.685 130.584Q121.673 130.643 121.65 130.713Q121.48 130.807 121.31 130.918Q121.146 131.023 120.952 131.146Q120.788 131.24 120.618 131.375Q120.448 131.504 120.308 131.627Q120.161 131.721 119.921 131.996Q119.681 132.271 119.452 132.523Q119.224 132.775 119.083 132.846L119.036 132.775Q118.913 132.969 118.673 133.186Q118.433 133.402 118.216 133.473L118.269 133.543L117.859 133.854L117.859 133.807L117.882 133.807L117.976 133.689L117.976 133.643L117.952 133.643L117.952 133.666Q117.905 133.713 117.759 133.824Q117.618 133.93 117.571 133.953L117.355 134.41Q117.812 134.387 117.548 134.744Q117.548 134.838 117.22 135.201Q116.898 135.559 116.476 136.027Q116.06 136.496 115.72 136.906Q115.386 137.311 115.362 137.504Q115.052 137.744 114.87 137.926Q114.689 138.102 114.542 138.33Q114.402 138.559 114.138 138.969L114.208 139.186L113.247 140.287Q113.224 140.387 113.153 140.504Q113.083 140.621 112.984 140.744Q112.773 140.984 112.773 141.225Q112.773 141.365 112.866 141.365Q113.107 141.365 113.523 141.043Q113.944 140.721 114.39 140.363Q114.835 140 115.122 139.953L115.122 139.93Q115.696 139.473 116.236 139.068Q116.78 138.658 117.355 138.248L117.448 138.271Q117.548 138.178 117.595 138.031L117.859 138.055L117.859 138.078L117.882 138.078L117.882 138.201Q117.882 138.365 117.812 138.441Q117.665 138.441 117.665 138.512Q117.736 138.582 117.736 138.605Q117.736 138.635 117.665 138.646Q117.595 138.658 117.571 138.658L117.571 138.682L117.208 138.922Q117.208 138.992 117.185 139.039Q117.161 139.109 117.161 139.162Q117.068 139.139 117.068 138.992Q117.068 138.945 117.079 138.875Q117.091 138.799 117.114 138.705L117.068 138.705Q117.044 138.729 116.991 138.816Q116.944 138.898 116.944 138.922L116.968 138.969L116.968 139.016Q116.921 139.062 116.851 139.109Q116.751 139.186 116.751 139.232L116.827 139.232Q116.851 139.256 116.898 139.256L116.827 139.326L116.751 139.426L116.728 139.426Q116.728 139.379 116.704 139.379Q116.657 139.379 116.634 139.35L116.394 139.689L116.323 139.566L116.13 139.807L116.13 139.83Q116.06 139.83 115.843 139.988Q115.626 140.146 115.433 140.316Q115.239 140.48 115.239 140.574L115.216 140.574L114.138 141.131L114.161 141.131L113.728 141.488L113.704 141.488L113.704 141.441Q113.681 141.418 113.681 141.395L113.657 141.395L113.657 141.418Q113.611 141.441 113.54 141.512L113.394 141.605L113.54 141.605Q113.564 141.635 113.657 141.635Q113.944 141.635 114.114 141.535L114.448 141.535Q114.548 141.535 114.642 141.535Q114.736 141.535 114.835 141.512Q114.929 141.488 115.023 141.488Q115.122 141.488 115.216 141.488Q115.316 141.488 115.398 141.488Q115.48 141.488 115.579 141.512Q115.673 141.535 115.743 141.535Q115.819 141.535 115.913 141.535Q116.083 141.535 116.464 141.477Q116.851 141.418 117.255 141.371Q117.665 141.318 117.952 141.371Q118.239 141.418 118.239 141.635Q118.239 141.729 118.146 141.705Q117.999 141.658 117.999 141.658Q117.812 141.658 117.835 141.582Q117.882 141.582 117.859 141.57Q117.835 141.559 117.765 141.535L117.618 141.488Q117.472 141.729 117.232 141.729Q117.161 141.729 117.062 141.717Q116.968 141.705 116.851 141.682L116.78 141.846L116.487 141.729Q116.3 141.846 116.153 141.822Q116.13 141.846 116.083 141.969Q116.036 142.086 115.937 142.086L115.937 141.992Q115.913 141.969 115.913 141.898L115.866 141.869Q115.532 142.062 115.216 142.062Q114.999 142.062 114.905 142.039L114.618 142.039Q113.944 142.039 113.247 142.186L113.2 142.162Q113.107 142.186 113.03 142.186Q112.96 142.186 112.89 142.186L112.579 142.186Q112.269 142.35 111.976 142.35L111.976 142.379L111.736 142.689Q111.689 142.666 111.618 142.666Q111.525 142.666 111.472 142.643L110.657 143.527L110.441 143.814Q110.3 144.008 110.177 144.008L110.177 144.102L110.153 144.154Q109.913 144.365 109.866 144.488L109.696 144.898Q109.556 145.062 109.327 145.555Q109.099 146.047 108.976 146.287ZM118.146 138.055Q118.122 138.055 118.122 138.008Q118.122 137.961 118.181 137.768Q118.239 137.574 118.292 137.527Q118.48 137.264 118.937 136.807Q119.394 136.35 119.874 135.887Q120.355 135.418 120.642 135.178L120.736 135.271L120.812 135.201L120.812 135.178Q120.859 134.984 120.941 134.82Q121.028 134.65 121.146 134.48L121.169 134.48L121.169 134.387Q121.169 134.287 121.216 134.287Q121.269 134.287 121.316 134.334L121.773 133.186L121.796 133.186Q121.843 133.186 121.89 133.232Q121.913 133.256 121.937 133.279Q121.96 133.303 121.984 133.326Q121.96 133.256 121.972 133.186Q121.984 133.109 122.007 133.016Q122.06 132.869 122.007 132.729L122.107 132.605Q122.153 132.342 122.247 131.961Q122.323 131.551 122.323 131.357Q122.323 131.193 122.323 131.053Q122.323 130.906 122.3 130.736Q122.277 130.566 122.277 130.426Q122.277 130.279 122.277 130.109Q122.277 130.016 122.323 130.016Q122.37 130.016 122.441 130.086Q122.78 130.326 122.862 130.689Q122.944 131.047 122.944 131.434Q122.944 131.627 122.933 131.82Q122.921 132.008 122.898 132.201L122.78 132.248Q122.728 132.395 122.728 132.512L122.657 132.775Q122.634 132.846 122.558 132.98Q122.487 133.109 122.441 133.186Q122.417 133.232 122.271 133.531Q122.13 133.83 121.948 134.217Q121.773 134.598 121.603 134.879Q121.433 135.154 121.362 135.154L121.339 135.178L121.292 135.131L121.216 135.131Q120.859 135.752 120.472 136.068Q120.091 136.379 119.669 136.643Q119.247 136.906 118.72 137.434Q118.556 137.574 118.433 137.721Q118.316 137.861 118.193 138.031Q118.193 138.031 118.181 138.031Q118.169 138.031 118.146 138.055ZM117.331 141.535L117.355 141.465L117.255 141.441L117.255 141.488L117.208 141.512L117.331 141.535ZM108.284 152.217Q107.968 152.217 107.704 152Q107.634 151.807 107.417 151.566Q107.224 151.303 107.224 151.139Q107.224 150.945 107.236 150.74Q107.247 150.535 107.277 150.342Q107.3 150.154 107.323 149.949Q107.347 149.744 107.37 149.551Q107.487 149.457 107.528 149.311Q107.564 149.17 107.564 149.023Q107.751 148.906 107.763 148.631Q107.78 148.35 107.991 148.35Q107.991 148.232 108.021 148.209Q108.021 148.139 108.044 148.109L108.021 147.992L108.044 147.969Q108.091 147.799 108.15 147.371Q108.208 146.938 108.308 146.721Q108.402 146.598 108.378 146.65Q108.355 146.697 108.366 146.797Q108.378 146.891 108.525 146.891Q108.571 146.891 108.63 146.65Q108.689 146.41 108.765 146.41L108.859 146.41Q108.905 146.41 108.905 146.457Q108.905 146.621 108.812 146.814Q108.689 147.078 108.665 147.295Q108.618 147.682 108.542 148.068Q108.472 148.449 108.355 148.807Q108.114 149.504 108.114 150.318Q108.114 150.729 108.173 151.074Q108.232 151.426 108.425 151.76Q108.472 151.736 108.63 151.648Q108.788 151.566 108.812 151.543L108.812 151.566L108.882 151.736L108.929 151.736Q108.976 151.643 109.034 151.543Q109.099 151.449 109.216 151.449L109.269 151.566L109.216 151.59Q109.099 151.854 108.847 152.035Q108.595 152.217 108.284 152.217ZM118.075 150.078Q117.811 150.078 117.63 149.943Q117.448 149.814 117.284 149.621Q116.968 149.217 116.751 148.93Q116.54 148.643 116.54 148.062L116.54 147.318Q116.54 147.102 116.657 146.662Q116.78 146.217 116.956 145.783Q117.138 145.35 117.284 145.209Q117.495 144.512 117.782 143.844Q118.075 143.17 118.532 142.613Q118.292 142.039 118.216 141.43Q118.145 140.814 118.145 140.193Q118.145 140 118.157 139.848Q118.169 139.689 118.192 139.496L118.269 139.402L118.292 139.379L118.292 139.279Q118.269 139.256 118.269 139.209Q118.269 139.109 118.339 138.898Q118.409 138.682 118.468 138.465Q118.532 138.248 118.532 138.225Q118.532 138.178 118.626 138.154L118.743 138.102Q118.772 138.078 118.866 138.031L118.936 137.984Q119.153 137.697 119.569 137.58Q119.991 137.457 120.331 137.457Q121.052 137.457 121.397 137.949Q121.743 138.441 121.936 139.062Q122.106 138.945 122.276 138.945Q122.347 138.945 122.394 138.992Q122.78 139.086 123.272 139.402Q123.765 139.713 123.765 140.07L123.765 140.117Q123.765 140.24 123.524 140.457Q123.284 140.674 122.956 140.902Q122.634 141.131 122.335 141.324Q122.036 141.512 121.913 141.582Q121.743 141.682 121.579 141.752Q121.479 141.775 121.409 141.84Q121.339 141.898 121.239 141.945Q121.122 142.039 121.011 142.139Q120.905 142.232 120.788 142.35L120.571 142.566Q120.495 142.643 120.448 142.701Q120.401 142.76 120.331 142.807Q120.284 142.854 120.173 142.93Q120.067 143 119.944 143.094Q119.657 143.287 119.634 143.457Q119.61 143.48 119.546 143.662Q119.487 143.838 119.487 143.914Q119.487 144.178 119.558 144.553Q119.634 144.922 119.78 145.256Q119.851 145.449 119.774 145.678Q119.704 145.906 119.517 145.76Q119.323 145.566 119.177 145.256Q119.036 144.945 119.013 144.799Q118.983 144.752 119.03 144.729Q119.083 144.705 119.036 144.658L118.983 144.605Q118.96 144.582 118.96 144.535Q118.96 144.535 118.913 144.488Q118.72 144.682 118.503 145.127Q118.292 145.566 118.192 145.807L118.052 146.146Q117.929 146.41 117.882 146.41Q117.788 146.41 117.788 146.287L117.788 146.264Q117.788 146.117 117.858 145.953L118.005 145.566Q117.882 145.76 117.794 145.988Q117.712 146.217 117.712 146.287L117.712 146.311L117.735 146.357Q117.735 146.387 117.765 146.41L117.765 146.504Q117.735 146.504 117.735 146.551Q117.688 146.791 117.618 147.031Q117.548 147.271 117.472 147.512Q117.308 147.945 117.308 148.52Q117.308 148.906 117.448 149.193Q117.595 149.48 118.005 149.48Q118.216 149.48 118.386 149.41Q118.579 149.334 118.948 149.059Q119.323 148.783 119.704 148.414Q120.091 148.039 120.366 147.705Q120.642 147.365 120.642 147.201Q120.712 147.078 120.829 146.949Q120.952 146.814 120.905 146.697Q121.216 146.217 121.444 145.531Q121.673 144.846 121.825 144.131Q121.983 143.41 122.036 142.854Q122.083 142.666 122.106 142.59Q122.153 142.496 122.177 142.473L122.2 142.449Q122.247 142.402 122.247 142.303Q122.247 142.256 122.247 142.186Q122.247 142.109 122.224 142.039Q122.177 141.898 122.177 141.775Q122.177 141.682 122.247 141.512Q122.323 141.342 122.464 141.342Q122.634 141.342 122.727 141.605Q122.827 141.869 122.886 142.174Q122.944 142.473 122.944 142.643Q122.944 143.193 122.821 143.879Q122.704 144.559 122.517 145.109Q122.347 145.566 122.142 145.906Q121.936 146.24 121.673 146.65L121.433 147.031L121.339 147.201Q121.315 147.178 121.304 147.289Q121.292 147.395 121.239 147.395Q121.216 147.395 121.204 147.43Q121.192 147.465 121.169 147.488Q121.052 147.682 120.882 147.822Q120.788 147.922 120.7 148.004Q120.618 148.086 120.571 148.186Q120.308 148.566 119.909 149.012Q119.517 149.457 119.048 149.768Q118.579 150.078 118.075 150.078ZM119.13 141.992L119.153 141.945L119.2 141.752Q119.276 141.441 119.727 141.008Q120.185 140.574 120.472 140.287Q120.688 140.094 120.905 139.854Q121.122 139.613 121.339 139.449Q121.292 139.256 121.134 138.945Q120.976 138.635 120.794 138.383Q120.618 138.131 120.448 138.131Q120.185 138.131 119.968 138.342L119.921 138.395Q119.897 138.465 119.827 138.465L119.704 138.535Q119.704 138.559 119.681 138.559L119.681 138.605Q119.587 138.822 119.464 139.062Q119.394 139.162 119.358 139.244Q119.323 139.326 119.3 139.379Q119.177 139.783 119.095 140.217Q119.013 140.65 119.013 141.078Q119.013 141.318 119.036 141.547Q119.06 141.775 119.13 141.992ZM130.935 149.551Q130.578 149.551 130.326 149.381Q130.074 149.217 129.81 148.953L129.857 148.906Q129.857 148.883 129.81 148.83Q129.64 148.613 129.582 148.496Q129.523 148.379 129.476 148.256Q129.453 148.139 129.423 148.021Q129.4 147.898 129.33 147.682Q129.306 147.582 129.33 147.559L129.33 147.078Q129.33 146.961 129.33 146.855Q129.33 146.744 129.306 146.621Q129.283 146.527 129.271 146.445Q129.259 146.357 129.259 146.311Q129.259 146.287 129.306 146.146Q129.306 146.07 129.33 146.047Q129.283 146 129.283 145.977Q129.283 145.977 129.283 145.965Q129.283 145.953 129.306 145.93L129.33 145.906Q129.33 145.906 129.353 145.883Q129.353 145.854 129.376 145.83Q129.353 145.83 129.353 145.807Q129.353 145.76 129.376 145.76Q129.33 145.52 129.4 145.402Q129.476 145.256 129.4 144.992L129.523 144.992L129.523 144.822L129.546 144.799L129.423 144.635L129.593 144.605L129.593 144.582Q129.593 144.559 129.617 144.535Q129.88 143.914 130.05 143.311L129.904 143.334L129.904 143.17L129.957 143.17Q130.074 142.977 130.167 142.736Q130.22 142.613 130.267 142.543Q130.314 142.473 130.337 142.379L130.314 142.402Q130.144 142.566 130.121 142.76Q130.097 142.883 130.039 142.977Q129.98 143.07 129.88 143.17Q129.787 143.264 129.716 143.287Q129.617 143.357 129.57 143.48Q129.353 143.961 129.054 144.395Q128.755 144.822 128.468 145.232Q128.416 145.303 128.322 145.402Q128.228 145.496 128.175 145.613Q128.105 145.736 128.058 145.854L127.912 146.094Q127.865 146.193 127.794 146.264Q127.724 146.334 127.625 146.434L127.291 146.744Q126.687 147.441 126.048 148.127Q125.416 148.807 124.578 149.217Q124.507 149.24 124.455 149.252Q124.408 149.264 124.361 149.264Q124.074 149.264 123.892 149Q123.716 148.736 123.716 148.473Q123.716 148.35 123.763 148.209L123.857 147.969Q123.904 147.822 123.904 147.705Q123.904 147.582 123.957 147.441Q124.027 147.178 124.121 146.949Q124.22 146.721 124.337 146.457Q124.337 146.457 124.384 146.24Q124.384 146.07 124.408 146.023Q124.291 145.977 124.291 145.953Q124.291 145.93 124.314 145.93L124.314 145.906Q124.384 145.76 124.49 145.555Q124.601 145.35 124.794 145.326Q124.912 145.062 125.017 144.822Q125.128 144.582 125.251 144.342Q125.492 143.891 125.609 143.311L125.679 143.217L125.632 143.217L125.562 143.117L125.656 142.977L125.515 142.906L125.656 142.83L125.562 142.83L125.562 142.783Q125.539 142.76 125.539 142.713Q125.539 142.666 125.562 142.643Q125.656 142.473 125.679 142.303Q125.732 142.109 125.826 142.016L125.802 142.016L125.779 142.039L125.732 142.039Q125.656 142.039 125.656 141.992L125.656 141.969Q125.656 141.705 125.802 141.465Q125.826 141.365 125.849 141.295Q125.873 141.225 125.896 141.131Q125.919 141.055 125.931 140.984Q125.949 140.914 125.949 140.838Q125.949 140.744 125.919 140.697Q125.873 140.598 125.873 140.527Q125.873 140.434 125.955 140.363Q126.042 140.287 126.113 140.24L126.113 140.217Q126.066 140.193 125.931 140.135Q125.802 140.07 125.779 140.07L125.802 139.977Q125.755 140.023 125.732 140.023Q125.755 140.023 125.732 140.047L125.679 140.047Q125.609 140.023 125.416 139.977Q125.205 139.93 125.205 139.83Q125.205 139.783 125.322 139.725Q125.445 139.666 125.492 139.666Q125.826 139.736 126.318 139.848Q126.81 139.953 127.255 140.1Q127.701 140.24 127.865 140.48Q127.912 140.551 127.923 140.639Q127.935 140.721 127.935 140.791Q127.935 141.008 127.83 141.271Q127.724 141.535 127.625 141.752Q127.554 141.898 127.554 141.945Q127.554 141.945 127.507 142.086Q127.384 142.209 127.337 142.279Q127.244 142.379 127.121 142.426L127.144 142.496L127.167 142.52Q127.22 142.566 127.22 142.59Q127.267 142.689 127.267 142.783Q127.267 142.83 127.244 142.906Q127.22 142.977 127.121 143L127.074 143.047L127.097 143.047Q127.05 143.146 127.05 143.217L127.05 143.287Q127.05 143.334 127.027 143.41Q127.003 143.48 126.927 143.504Q126.88 143.621 126.769 143.891Q126.664 144.154 126.57 144.248L126.5 144.395L126.523 144.465L126.423 144.535Q126.4 144.705 126.236 144.869Q126.066 144.992 126.113 145.209L126.066 145.209Q126.089 145.232 126.089 145.256Q126.089 145.303 126.042 145.303Q126.019 145.379 125.943 145.461Q125.873 145.543 125.732 145.59Q125.656 145.854 125.509 146.299Q125.369 146.744 125.246 147.107Q125.128 147.465 125.105 147.535Q125.128 147.559 125.205 147.559Q125.298 147.559 125.486 147.453Q125.679 147.342 125.632 147.178Q125.732 147.178 125.802 147.055Q125.896 146.961 125.972 146.938Q126.259 146.697 126.523 146.445Q126.787 146.193 127.027 145.906Q127.267 145.613 127.507 145.326Q127.748 145.039 127.988 144.775Q128.011 144.752 128.287 144.418Q128.562 144.078 128.943 143.598Q129.33 143.117 129.71 142.613Q130.097 142.109 130.337 141.752Q130.578 141.395 130.554 141.295L130.748 141.295L130.771 141.318L130.818 141.271L130.701 141.295L130.701 141.154L130.748 141.154Q130.794 141.078 130.841 141.008Q130.888 140.938 130.935 140.891Q131.011 140.814 131.058 140.598Q131.082 140.504 131.105 140.422Q131.128 140.334 131.152 140.24Q131.205 140.07 131.416 140.047L131.445 140.023Q131.656 140.023 132.089 140.1Q132.523 140.17 132.869 140.316Q133.22 140.457 133.22 140.697Q133.22 140.891 133.062 141.178Q132.904 141.465 132.716 141.729Q132.617 141.846 132.546 141.992Q132.476 142.139 132.376 142.256Q132.212 142.52 132.089 142.807L132.019 142.807L132.019 142.854Q131.972 142.883 131.884 142.965Q131.802 143.047 131.755 143.094L131.826 143.094Q131.826 143.217 131.802 143.287L131.779 143.48L131.632 143.721L131.515 143.721Q131.515 143.814 131.392 143.814Q131.322 143.814 131.322 143.768Q131.298 143.768 131.298 143.697Q131.298 143.65 131.345 143.65L131.468 143.41L131.416 143.357Q131.345 143.527 131.31 143.65Q131.275 143.768 131.322 143.961L131.298 143.961L131.322 143.984L131.205 144.031L131.175 144.201L131.105 144.418Q131.035 144.658 130.888 144.705L130.935 144.799L130.865 145.086L130.794 145.186L130.818 145.186L130.507 145.666Q130.531 145.689 130.531 145.783Q130.531 145.977 130.431 146.146Q130.337 146.311 130.291 146.527L130.314 146.598L130.267 146.65Q130.291 146.65 130.291 146.697L130.507 146.768Q130.384 146.768 130.337 146.744L130.337 146.914Q130.337 147.008 130.337 147.096Q130.337 147.178 130.314 147.271Q130.291 147.365 130.279 147.441Q130.267 147.512 130.267 147.605Q130.267 147.799 130.337 147.945Q130.384 148.016 130.396 148.104Q130.408 148.186 130.431 148.279Q130.46 148.326 130.46 148.438Q130.46 148.543 130.46 148.666Q130.484 148.854 130.783 149Q131.082 149.146 131.275 149.146Q131.515 149.146 131.656 149.07Q131.802 149 131.996 148.883L131.972 148.906L132.066 148.906L132.066 148.93Q131.949 149.193 131.562 149.369Q131.175 149.551 130.935 149.551ZM125.802 145.303L125.826 145.303Q125.873 145.209 125.919 145.186L125.896 145.086Q125.849 145.162 125.802 145.303ZM131.537 149.146Q131.514 149.117 131.467 149.117Q131.444 149.094 131.368 149.094Q131.344 149.07 131.297 149.047Q131.25 149.023 131.203 148.977L131.368 148.977Q131.42 148.953 131.479 148.93Q131.537 148.906 131.561 148.883Q131.707 148.783 131.778 148.76Q131.901 148.689 132.03 148.414Q132.164 148.139 132.293 147.816Q132.428 147.488 132.498 147.318L132.569 147.031Q132.569 146.914 132.616 146.768Q132.668 146.504 132.774 146.264Q132.879 146.023 133.002 145.76Q133.002 145.76 133.049 145.543Q133.049 145.35 133.073 145.303Q133.049 145.303 133.049 145.279L133.002 145.279Q132.979 145.279 132.955 145.256Q132.955 145.232 132.979 145.209L132.979 145.186L133.172 144.822Q133.266 144.635 133.459 144.582Q133.53 144.395 133.735 144.037Q133.94 143.674 133.94 143.527Q133.94 143.334 133.864 143.17Q133.77 143.047 133.77 142.83Q133.77 142.783 133.782 142.736Q133.793 142.689 133.817 142.643Q133.84 142.59 133.84 142.531Q133.84 142.473 133.864 142.426Q133.887 142.379 133.934 142.162Q133.987 141.945 134.034 141.717Q134.08 141.488 134.104 141.418Q134.18 140.861 134.368 140.65L134.321 140.598Q134.444 140.457 134.549 140.264Q134.661 140.07 134.661 139.883Q134.661 139.783 134.631 139.736Q134.584 139.689 134.584 139.613Q134.584 139.496 134.678 139.426Q134.778 139.35 134.848 139.303L134.848 139.279Q134.707 139.232 134.661 139.186Q134.584 139.109 134.491 139.109L134.491 139.016Q134.491 138.992 134.479 139.027Q134.467 139.062 134.444 139.062Q134.467 139.062 134.444 139.086L134.368 139.062Q134.321 139.039 134.286 139.039Q134.25 139.039 134.203 139.016Q134.157 139.016 134.104 139.004Q134.057 138.992 134.01 138.969Q133.916 138.945 133.916 138.846Q133.916 138.799 134.034 138.74Q134.157 138.682 134.203 138.682Q134.561 138.752 135.077 138.875Q135.592 138.992 136.061 139.162Q136.53 139.326 136.676 139.543Q136.723 139.613 136.735 139.701Q136.746 139.783 136.746 139.854Q136.746 140.07 136.623 140.357L136.412 140.861Q136.336 140.961 136.336 141.055Q136.336 141.154 136.178 141.336Q136.026 141.512 135.909 141.559Q135.932 141.582 135.932 141.594Q135.932 141.605 135.932 141.605Q135.932 141.658 135.955 141.682Q136.049 141.682 136.002 141.752Q136.049 141.799 136.049 141.898Q136.049 141.969 136.014 142.057Q135.979 142.139 135.879 142.162Q135.856 142.186 135.856 142.209Q135.809 142.303 135.809 142.379L135.809 142.402L135.832 142.402Q135.832 142.666 135.668 142.689Q135.616 142.883 135.498 143.146Q135.328 143.457 135.258 143.621L135.258 143.65Q135.258 143.721 135.211 143.721L135.164 143.768Q135.135 143.838 135.041 143.938Q135.018 143.984 134.983 144.02Q134.948 144.055 134.924 144.102Q134.871 144.178 134.825 144.248Q134.778 144.318 134.825 144.441L134.801 144.441L134.801 144.465Q134.801 144.535 134.778 144.535Q134.731 144.635 134.643 144.729Q134.561 144.822 134.42 144.869L133.653 146.744Q133.623 146.838 133.506 146.891L133.653 147.031L133.459 147.031L133.553 147.131L133.436 147.131L133.412 147.154L133.36 147.154Q133.336 147.178 133.243 147.178L133.243 147.318L133.289 147.342L133.196 147.512L133.172 147.535L133.096 147.535Q133.002 147.582 133.002 147.582Q132.955 147.635 132.955 147.682Q132.955 147.822 132.979 147.846Q133.073 147.752 133.301 147.488Q133.53 147.225 133.77 146.902Q134.01 146.574 134.174 146.299Q134.344 146.023 134.321 145.953Q134.444 145.953 134.537 145.713Q134.608 145.643 134.661 145.566Q134.684 145.52 134.754 145.449Q135.235 145.062 135.616 144.6Q136.002 144.131 136.383 143.65Q136.746 143.17 137.151 142.689Q137.561 142.209 138.112 141.752Q138.522 141.418 139.037 140.996Q139.553 140.574 140.08 140.264Q140.608 139.953 141.018 139.953Q141.305 139.953 141.305 140.264Q141.305 140.387 141.282 140.545Q141.258 140.697 141.211 140.814Q141.065 141.225 140.871 141.658Q140.684 142.086 140.491 142.496Q140.321 142.854 140.227 143.17Q140.104 143.551 139.94 143.861Q139.887 143.938 139.852 143.973Q139.817 144.008 139.793 144.031Q139.793 144.055 139.782 144.119Q139.77 144.178 139.746 144.248L139.916 144.225Q139.746 144.605 139.635 144.934Q139.53 145.256 139.53 145.613Q139.53 145.689 139.483 145.736L139.483 145.76Q139.36 145.76 139.336 145.736Q139.289 145.736 139.243 145.783Q139.219 145.807 139.219 145.883Q139.196 145.906 139.196 145.941Q139.196 145.977 139.172 146L139.336 145.93Q139.313 146.146 139.266 146.311Q139.243 146.41 139.231 146.48Q139.219 146.551 139.219 146.65Q139.219 146.984 139.371 147.201Q139.53 147.418 139.887 147.418Q139.963 147.418 139.987 147.395L140.057 147.395Q140.157 147.342 140.321 147.26Q140.491 147.178 140.661 147.055Q140.848 146.938 141.018 146.82Q141.188 146.697 141.328 146.357Q141.235 146.791 141.17 146.902Q141.112 147.008 140.778 147.295Q140.444 147.559 139.952 147.887Q139.459 148.209 138.979 148.209Q138.569 148.209 138.293 147.957Q138.018 147.705 137.848 147.395L137.754 147.295Q137.661 147.201 137.661 147.102Q137.661 147.055 137.684 147.031L137.684 146.984L137.825 146.938L137.848 146.914Q137.825 146.861 137.813 146.814Q137.801 146.768 137.801 146.721L137.801 146.551Q137.801 146.07 137.883 145.59Q137.971 145.109 138.088 144.635L138.112 144.635Q138.164 144.225 138.328 143.961L138.375 143.891L138.258 143.891L138.328 143.791L138.258 143.574Q138.305 143.48 138.434 143.135Q138.569 142.783 138.686 142.449Q138.809 142.109 138.832 142.062Q138.739 142.062 138.668 142.139Q138.018 142.613 137.537 143.264Q137.297 143.598 137.045 143.914Q136.793 144.225 136.53 144.535Q136.002 145.139 135.405 145.736Q135.088 146.023 134.825 146.322Q134.561 146.621 134.297 146.961L133.577 147.922Q133.219 148.379 132.809 148.83Q132.522 149.117 132.235 149.117Q132.088 149.094 131.936 149.117Q131.778 149.146 131.608 149.146L131.537 149.146ZM134.537 144.559Q134.584 144.441 134.684 144.441L134.608 144.342Q134.584 144.395 134.561 144.453Q134.537 144.512 134.514 144.559L134.537 144.559ZM141.788 148.402Q141.688 148.402 141.688 148.35Q141.594 148.303 141.571 148.303L141.501 148.256L141.471 148.209L141.448 148.209L141.184 147.992L141.231 147.898Q140.944 147.682 140.885 147.324Q140.827 146.961 140.827 146.65Q140.827 146.41 140.874 146.205Q140.921 146 141.044 145.807L140.997 145.736L141.114 145.666L141.114 145.613Q141.114 145.279 141.413 144.74Q141.712 144.201 142.092 143.674Q142.479 143.146 142.749 142.883L142.719 142.854Q142.819 142.736 143.007 142.461Q143.2 142.186 143.405 141.957Q143.61 141.729 143.727 141.729L144.067 141.342L144.067 141.225L144.137 141.178L144.354 141.102L144.331 141.055Q144.548 140.791 144.87 140.562Q145.192 140.334 145.479 140.17L145.889 139.953L146.036 139.906L146.106 139.83Q146.176 139.76 146.393 139.76Q146.727 139.76 147.243 139.965Q147.764 140.17 147.858 140.48Q148.028 140.598 148.075 140.721Q148.145 140.574 148.18 140.41Q148.215 140.24 148.245 140.094Q148.245 139.83 148.385 139.543L148.456 139.473Q148.602 139.086 148.936 138.752Q149.106 138.605 149.235 138.418Q149.37 138.225 149.464 138.055Q149.464 137.984 149.587 137.674Q149.727 137.41 149.68 137.357Q150.114 136.736 150.483 136.068Q150.858 135.395 151.169 134.674Q151.479 133.953 151.813 133.244Q152.153 132.535 152.464 131.861Q152.516 131.838 152.516 131.744Q152.516 131.674 152.487 131.627Q152.464 131.574 152.44 131.527L152.827 131.023Q152.944 130.906 153.038 130.789Q153.137 130.666 153.231 130.566Q153.501 130.59 153.764 130.619Q154.028 130.643 154.268 130.613Q154.796 130.613 155.276 130.854Q155.487 130.953 155.774 131.135Q156.067 131.311 156.067 131.627Q156.067 131.938 155.757 132.225Q155.587 132.342 155.452 132.465Q155.323 132.582 155.223 132.705Q155.059 132.898 154.889 133.08Q154.719 133.256 154.456 133.303L154.385 133.232L154.456 133.232Q154.579 132.969 154.842 132.582Q155.083 132.248 155.083 131.961Q155.083 131.838 155.059 131.814L155.012 131.838L155.036 131.861Q154.936 132.008 154.813 132.107Q154.696 132.201 154.579 132.318Q154.479 132.418 154.385 132.541Q154.292 132.658 154.192 132.775Q154.051 132.969 153.7 133.461Q153.354 133.953 153.003 134.422Q152.657 134.891 152.464 135.031L152.44 135.102L152.393 135.102Q152.44 135.178 152.563 135.178Q152.44 135.271 152.223 135.271Q152.323 135.365 152.323 135.441Q152.323 135.582 152.176 135.635Q152.036 135.682 151.913 135.682Q151.913 136.062 151.626 136.139Q151.602 136.162 151.579 136.162Q151.555 136.162 151.555 136.139L151.479 136.139Q151.555 136.186 151.614 136.244Q151.673 136.303 151.696 136.326L151.649 136.35L151.673 136.379L151.579 136.379Q151.432 136.379 151.479 136.426L151.508 136.566L151.649 136.566Q151.772 136.566 151.819 136.613L151.749 136.613L151.673 136.807Q151.719 136.783 151.889 136.783Q152.223 136.379 152.499 135.969Q152.78 135.559 153.09 135.178Q153.378 134.768 153.665 134.363Q153.952 133.953 154.268 133.566L154.245 133.52Q154.292 133.566 154.292 133.689Q154.292 133.883 154.075 134.258Q153.858 134.627 153.542 135.049Q153.231 135.465 152.932 135.863Q152.633 136.256 152.44 136.473Q152.393 136.566 152.323 136.701Q152.253 136.83 152.153 136.93Q152.059 137.023 151.96 137.146Q151.866 137.264 151.819 137.387Q151.673 137.41 151.673 137.504L151.673 137.697Q151.673 137.814 151.555 137.861Q151.292 137.961 151.18 138.189Q151.075 138.418 151.01 138.67Q150.952 138.922 150.764 139.109Q150.688 139.209 150.495 139.531Q150.307 139.854 150.114 140.158Q149.921 140.457 149.803 140.457L149.897 140.621Q149.657 140.791 149.68 140.861Q149.704 140.891 149.704 141.178Q149.704 141.225 149.516 141.342Q149.323 141.488 149.323 141.582L149.036 141.822Q148.936 142.039 148.842 142.209Q148.749 142.379 148.673 142.473Q148.479 142.689 148.673 143.146Q148.532 143.311 148.602 143.387Q148.649 143.48 148.508 143.65L148.245 144.131L148.245 144.154L148.339 144.318L148.215 144.342L148.245 144.605Q148.215 144.582 148.215 144.605Q148.215 144.729 148.292 144.729L148.169 144.869L148.215 144.969L148.122 145.449Q148.075 145.643 148.122 145.93Q148.005 145.977 148.005 146.193Q148.005 146.264 148.075 146.264L148.051 146.551Q148.122 146.551 148.122 146.621L148.075 146.674L148.122 146.721Q148.192 146.674 148.215 146.604Q148.245 146.527 148.339 146.574L149.223 145.953L149.393 145.93Q149.587 145.736 149.762 145.414Q149.944 145.086 150.114 145.186Q150.161 145.449 149.798 145.848Q149.44 146.24 149.03 146.592Q148.626 146.938 148.479 147.055L148.479 147.248Q148.479 147.271 148.421 147.283Q148.362 147.295 148.339 147.318Q148.292 147.271 148.227 147.295Q148.169 147.318 148.122 147.318L147.975 147.635L147.952 147.582Q147.882 147.605 147.823 147.635Q147.764 147.658 147.712 147.682Q147.571 147.752 147.424 147.752Q147.284 147.752 147.137 147.371Q146.997 146.984 146.885 146.551Q146.78 146.117 146.78 146.023L146.827 145.977Q146.78 145.883 146.827 145.807Q146.874 145.736 146.78 145.689L146.897 145.566L146.921 145.566L146.921 145.35Q146.921 145.232 146.803 145.279L146.78 145.209L146.827 145.086L146.827 145.062L146.897 144.945L146.874 144.898Q146.874 144.846 146.897 144.846Q146.921 144.846 146.944 144.822L146.921 144.822L146.803 144.729Q146.78 144.658 146.78 144.488Q146.78 144.271 146.897 144.271Q146.897 144.008 146.967 143.791Q147.044 143.574 146.827 143.674L146.68 143.768Q146.657 143.838 146.587 143.838Q146.54 143.938 146.405 144.131Q146.276 144.318 146.13 144.295L146.13 144.318Q146.13 144.342 146.153 144.365Q146.153 144.512 145.866 144.74Q145.579 144.969 145.626 145.232L145.192 145.566L145.245 145.613L145.192 145.613L145.215 145.689Q144.952 146.023 144.524 146.023Q144.354 146.023 144.284 146.24Q144.208 146.457 144.067 146.457L144.137 146.48Q143.967 146.65 143.715 146.891Q143.464 147.131 143.417 147.365L143.393 147.342L143.44 147.418L143.299 147.512Q143.299 147.682 143.13 147.729Q142.96 147.775 142.796 147.775Q142.649 148.016 142.35 148.209Q142.051 148.402 141.788 148.402ZM150.044 138.342Q150.284 138.342 150.284 138.271Q150.284 138.154 150.354 138.055L150.501 138.055Q150.641 138.055 150.641 138.008Q150.618 137.984 150.618 137.914Q150.524 137.938 150.424 137.961Q150.331 137.984 150.231 137.984Q149.997 138.031 149.997 138.295L149.997 138.318L150.044 138.342ZM141.548 147.846L141.811 147.846Q141.858 147.846 141.952 147.822Q142.051 147.799 142.122 147.752Q142.268 147.682 142.409 147.682Q142.409 147.658 142.362 147.635Q142.362 147.582 142.409 147.582Q142.432 147.605 142.432 147.582L142.456 147.582Q142.555 147.465 142.673 147.395Q142.796 147.318 142.913 147.225Q143.13 147.102 143.299 146.891L143.37 146.938L143.393 146.814Q143.54 146.814 143.54 146.674Q143.54 146.527 143.78 146.527Q143.921 146.387 144.102 146.205Q144.284 146.023 144.448 145.783Q144.641 145.566 144.805 145.379Q144.975 145.186 145.122 145.016L145.145 145.062L145.145 145.039Q145.292 144.898 145.339 144.822Q145.362 144.775 145.397 144.729Q145.432 144.682 145.479 144.605L145.555 144.658Q145.696 144.658 145.696 144.512L145.673 144.465L145.842 144.318L145.842 144.248Q145.866 144.248 145.889 144.271Q145.889 144.295 145.936 144.342Q145.913 144.248 145.971 144.178Q146.036 144.102 146.13 144.131L146.106 144.055L146.323 143.744Q146.37 143.697 146.452 143.627Q146.54 143.551 146.61 143.387Q146.657 143.217 146.715 143.123Q146.78 143.023 146.803 142.977Q146.997 142.977 147.044 142.643Q147.09 142.303 147.354 142.109Q147.524 142.109 147.594 142.016Q147.665 141.922 147.735 141.775Q147.835 141.635 147.858 141.465Q147.811 141.318 147.811 141.271Q147.811 141.178 147.882 141.154Q147.952 141.078 147.952 141.055Q147.952 141.008 147.77 140.914Q147.594 140.814 147.548 140.791Q147.548 140.814 147.536 140.826Q147.524 140.838 147.501 140.814Q147.471 140.791 147.378 140.791Q146.897 140.791 146.522 141.119Q146.153 141.441 145.79 141.775Q145.432 142.109 145.028 142.109Q144.975 142.279 144.84 142.391Q144.712 142.496 144.594 142.566L144.594 142.666L144.378 142.783L144.378 142.83Q144.424 142.977 144.331 142.93L144.137 142.93L144.137 143.047Q144.114 143.094 144.114 143.17Q143.944 143.287 143.68 143.48Q143.417 143.674 143.323 143.891L143.276 143.861L143.2 143.938L143.253 143.984L143.153 144.131L143.059 144.078L143.083 144.225Q142.96 144.342 142.696 144.605Q142.432 144.869 142.456 145.062L142.362 145.062L142.292 145.35L142.215 145.35L142.122 145.473L142.051 145.473L142.075 145.496L142.075 145.689Q142.028 145.689 142.028 145.76L142.075 145.807L141.835 146.146L141.952 146.17L141.952 146.217Q141.952 146.264 141.811 146.264L141.835 146.311Q141.811 146.387 141.758 146.445Q141.712 146.504 141.688 146.527Q141.665 146.574 141.618 146.838Q141.571 147.102 141.518 147.371Q141.471 147.635 141.448 147.658L141.548 147.846Z"
          fill="url(#paint_radial_0)"
          fill-rule="nonzero"
        />
      </svg>