<svg width="512mm" height="512mm" viewBox="0 0 512 512" version="1.1" xmlns="http://www.w3.org/2000/svg" xmlns:xlink="http://www.w3.org/1999/xlink">
 <defs>
  <linearGradient id="grad" x1="116.89014" y1="33.342972" x2="86.272064" y2="251.20193" gradientUnits="userSpaceOnUse" gradientTransform="matrix(2.3272728,0,0,2.3272728,27.048962,70.93524)">
   <stop stop-color="#ff740b" offset="0"/>
   <stop stop-color="#ff0b0b" offset="1"/>
  </linearGradient>
 </defs>
 <g transform="translate(-7.4559631,-146.04205)">
  <circle cx="263.45596" cy="402.04205" r="256" fill="url(#grad)"/>
  <g fill="#fff" transform="matrix(0.76486,0,0,0.76486,70.23979,211.41153)">
   <path d="m461.8 53.6c-0.4-1.7-1.6-3-3.3-3.4-54.4-13.3-180.1 34.1-248.2 102.2-13.3 13.3-24.2 26.4-33.1 39.1-21-1.9-42-0.3-59.9 7.5-50.5 22.2-65.2 80.2-69.3 105.1-1 5.9 3.9 11 9.8 10.4l81.1-8.9c0.1 7.8 0.6 14 1.1 18.3 0.4 4.2 2.3 8.1 5.3 11.1l31.4 31.4c3 3 6.9 4.9 11.1 5.3 4.3 0.5 10.5 1 18.2 1.1l-8.9 81c-0.6 5.9 4.5 10.8 10.4 9.8 24.9-4 83-18.7 105.1-69.2 7.8-17.9 9.4-38.8 7.6-59.7 12.7-8.9 25.9-19.8 39.2-33.1 68.4-68 115.5-190.9 102.4-248m-163.2 159.9c-16.7-16.7-16.7-43.7 0-60.4s43.7-16.7 60.4 0 16.7 43.7 0 60.4-43.7 16.7-60.4 0"/>
   <path d="m174.5 380.5c-4.2 4.2-11.7 6.6-19.8 8-18.2 3.1-34.1-12.8-31-31 1.4-8.1 3.7-15.6 7.9-19.7l0.1-0.1c2.3-2.3 0.4-6.1-2.8-5.7-9.8 1.2-19.4 5.6-26.9 13.1-18 18-19.7 84.8-19.7 84.8s66.9-1.7 84.9-19.7c7.6-7.6 11.9-17.1 13.1-26.9 0.3-3.2-3.6-5.1-5.8-2.8"/>
  </g>
  <circle cx="181.07228" cy="205.36555" r="3.80976" fill="#fff"  />
  <circle cx="255.10567" cy="264.38263" r="3.80976" fill="#fff" data-star='true'/>
  <circle cx="87.619614" cy="306.25421" r="3.80976" fill="#fff" />
  <circle cx="273.5784" cy="604.89655" r="3.80976" fill="#fff" />
  <circle cx="410.89236" cy="512.53302" r="3.80976" fill="#fff" data-star='true'/>
  <circle cx="450.9166" cy="297.01788" r="3.80976" fill="#fff" data-star='true'/>
  <circle cx="53.752945" cy="464.50397" r="3.80976" fill="#fff" data-star='true'/>
  <circle cx="331.45966" cy="190.49178" r="3.80976" fill="#fff"/>
  <circle cx="411.50809" cy="402.92804" r="3.80976" fill="#fff"/>
 </g>
</svg>