<svg xmlns="http://www.w3.org/2000/svg" fill="none" viewBox="0 0 207.328 128.865"><defs><linearGradient id="b" x1="107.869" x2="107.869" y1="36.006" y2="104.787" gradientUnits="userSpaceOnUse"><stop offset="0" stop-color="red"/><stop offset=".5" stop-color="#ff740b"/><stop offset=".95" stop-color="red"/></linearGradient><filter id="a" width="207.328" height="128.865" x="0" y="0" color-interpolation-filters="sRGB" filterUnits="userSpaceOnUse"><feFlood flood-opacity="0" result="BackgroundImageFix"/><feOffset dx="2" dy="4" in="SourceAlpha"/><feGaussianBlur stdDeviation="2"/><feColorMatrix values="0 0 0 0 0 0 0 0 0 0 0 0 0 0 0 0 0 0 0.22 0"/><feBlend in2="BackgroundImageFix" result="effect_dropShadow_1"/><feBlend in="SourceGraphic" in2="effect_dropShadow_1" result="shape"/></filter></defs><g filter="url(#a)"><path fill="url(#b)" d="M7.838 118.865q-.469 0-1.436-1.318-.966-1.318-1.67-2.813Q4 113.24 4 112.742q0-.469.059-.967.058-.468.175-.937.264-.469.381-.908.117-.41.235-.879v.469q.85-.235.85-.967v-.235l-.733.469q.469-.469.732-.82.352-.615.82-.733.381 0 .85-.498.469-.468.733-.703l-.616.235 2.285-1.67.118.117q1.435-.967 3.369-1.436 1.904-.468 3.574-1.201 1.7-.732 2.402-2.051v-.351l.498.234q0-2.402.41-4.98.44-2.578 1.378-4.6 0-.732.85-.732.35 0 .468.79.117.762.117.997.147 1.933-.351 3.72-.235.967-.352 1.993-.117 1.025-.234 2.109.351-.117.644-.176.293-.088.674-.088v.264l5.508-1.7v.235q.234.147.351 0h.381l-.234.147q-.147 0-.264.058l-.351.176h2.285l-.616.586h.147q.938 0 1.904-.586l-.234-.234.85-.264-1.7-.234.352-.235h1.7q.468 0 .878-.058.44-.059.908-.176.117-.117.733-.117h.586q.615 0 1.992.117t1.845.351v-.117h1.319q1.347 0 1.699.117l.117-.117q-.234-.234-1.025-.351-.791-.118-.527-.118h2.636v.118l6.24-.118.118.235q.117.117 1.2.117.587-.967 1.29-1.904.732-.967 1.348-1.817.585-.966 1.171-1.845.616-.909 1.23-1.875 3.839-6.123 7.12-12.54 3.31-6.415 6.563-12.89h-.381q-1.172 0-1.172-1.084 0-.234.058-.645.059-.439.176-.937l-.732.732q0 .118-.733 1.377-.703 1.26-1.67 2.96-.966 1.67-1.758 2.929-.761 1.26-.878 1.26v-.235q-.118 0-.118-.234 0-1.7 1.612-4.336 1.64-2.637 3.486-5.508 1.875-2.9 2.461-5.039l.733-2.402q.234-.615.41-1.26.175-.674.41-1.26 1.435-3.72 3.427-7.265 1.993-3.545 4.014-7.031.381-1.202 1.7-3.282 1.318-2.11 1.318-3.076 0-.234-.264-.234-.352.117-.352-.47 0-.849.733-2.401.82-1.817.967-2.403.469-.85.937-1.611.498-.791.967-1.524l1.934-2.636-.967-.586.234-.264-.469-.234-.117.234.235.147h-.381l-.235.117q0 .234.118.234t.263.117v.47l-.146.116q-.352-.351-.791-.586-.41-.234-.88-.468-.468 0-.702.351l-1.201-.351v-.498q-.264.732-.85.732-.967 0-2.05-.059-1.085-.058-2.022-.175-1.084-.147-2.168-.206t-2.051-.058h-.82q-.264.117-.85.117l-.234.147v.117l.117-.117h1.201q.586 0 .82.117l-1.552.586.38.117q-3.251.234-6.738 1.025-3.486.791-6.592 2.11l.117.117-1.435.82.234-.469q-1.787 1.934-2.93 2.725-1.142.762-1.816 1.377-.644.586-.908 1.787-.234 1.201-.234 3.955v.469q0 .498-.235.498-.468 0-.966-1.377-.47-1.377-.792-2.93-.293-1.582-.293-1.933-.117-1.084.381-2.285.235-.47.352-.82.117-.382.234-.733.235-.117.586-.41.381-.323.381-.557l-.117-.117-.469.351.703-.703q.352-.38.616-.85h.234q.234 0 .645-.41.439-.439.556-.673l-.38.234h-.118l2.05-1.67v.117q1.436-.966 3.224-1.318 1.816-.352 3.252-.879Q64 15.565 64.38 14.13l.351.234q.967 0 1.436-.38.615-.352 1.435-.352h.235l-.117.234 4.687-1.2v.263h.469l-.703.351 1.787.235-.469.351.235.117q.234 0 .703-.175.498-.176.732-.293l-.117-.235q.117 0 .234-.058t.381-.176l-1.201-.235.234-.263h3.223q.615 0 1.875.205 1.26.176 1.728.644v-.117q1.583 0 2.52.469l.117-.117-1.2-.82q.849.117 1.669.234l1.7.234 3.251.352q.117-.703.703-.938.615-.263 1.202-.263 2.519 0 5.273.85 2.783.849 2.9 3.603 1.787.351 2.871.967 1.084.585 2.52 1.67 1.318 1.084 2.871 1.787 1.699.85 2.9 1.816.821.586 1.407 1.377.615.791.615 1.729 0 .498-.352 1.816-.351 1.318-.966 1.318-.235 0-.293-1.377-.059-1.377-.528-1.64l-.263.117q-.352-.352-1.788-1.113-1.435-.791-2.812-1.553-1.377-.791-1.875-1.172-1.67-.937-2.637-.937-.469.117-1.201.058-.703-.058-1.553-.176-3.72 9.463-8.29 18.721l-9.112 18.34-5.39 11.045q-1.319 2.754-2.843 5.478-1.494 2.696-3.163 5.45-2.169 3.486-5.479 8.173-3.281 4.659-7.002 8.848.967.117 2.022.264 1.084.117 2.167.351l4.102.703v.147q.586.351 1.436.351l1.552.352q.47.234.82.439.382.176.85.411 1.7.586 4.278 1.318 2.578.703 4.6 1.787 2.05 1.084 2.05 2.754.117.498-.234 1.641-.352 1.142-.85 1.142-.469 0-.791-1.406-.293-1.377-.762-1.377l-.351.146q-.733-.615-3.252-1.406-2.52-.762-5.098-1.435-2.578-.645-3.545-.645h-.732q-.352 0-.703.117h-1.436q-1.553 0-2.754-.41-1.201-.439-2.52-1.26v.118l.352.468-.469.352-.146-.117.146-.235-.263-.234q-.117-.117-.938-.117-.732 0-1.084.117h-1.2l-.382.351h-.117l-.703-.234q-1.318 1.318-2.725 2.461-1.377 1.143-2.695 2.109-.351.235-1.435 1.231-1.084 1.025-1.319 1.289-2.754 1.787-5.713 3.164-2.93 1.377-6.533 1.377-4.658 0-7.969-2.051-3.31-2.021-4.629-6.094-1.435.469-2.812.879-1.377.44-2.696 1.143l-1.67.967.47-.469q.468-.498-.47.352-.966.849-1.581 1.084-.938.468-1.905 1.435l.967-.732q-1.201.966-2.344 2.226t-1.025 2.959l.352 1.553q.351.703.351 1.553v.234q-.117 0-.117.117m43.564-95.86q.117-.263.117-.38t.118-.234v.234zm-18.72 88.8q4.336 0 8.056-2.784 3.721-2.753 6.475-5.742.234 0 .85-.615.234-.234.527-.586.293-.351.527-.732l-1.054-.352.234-.234-.498-.117-.234.234.351.117h-.82q0 .352.586.352v.498l-.117.117q-.118-.234-1.084-.352-.704-.146-1.084-.498-.587.118-.938.498l-1.436-.38-.146-.235q-.703.733-1.201.733H39.39q-1.788 0-4.014.117-2.197.117-3.955.234-1.729.117-2.08.352v.117l.117-.117h1.084q.352-.118 1.055-.118.117 0 .263.118h.117l-1.816.615.498.117q-2.05.352-4.16.762-2.08.439-4.248 1.025.85 3.604 3.838 5.215 2.988 1.641 6.592 1.641m105.236-9.141q-2.519.147-5.098-.088-2.578-.264-5.097-.029-.821-.235-1.67-.762-.85-.556-2.285.293-.967.117-1.992-.908-.997-1.025-1.963-.762-.967.235-2.051-.615t-2.022-1.318q-2.666-1.319-4.218-3.34-1.553-2.051-3.106-3.985-1.553-2.021-3.779-4.19-2.227-2.167-2.227-4.335-1.67-4.541-2.754-8.555-1.084-4.043-1.084-8.847 0-6.094 1.846-12.334 1.875-6.24 5.039-12.07 3.194-5.83 7.149-10.372-1.553-2.285-2.813-5.097-1.26-2.842-1.26-5.596 0-1.67.352-3.223.351-1.582 1.318-2.9 0-.469.117-.586 2.051-3.37 5.655-5.83t7.793-3.838T131.795 2q5.068 0 10.225 1.436 2.636.732 5.097 1.464 2.461.704 4.864 1.29 3.72-.82 7.441-1.348 3.721-.557 7.559-.557 9.228 0 15.234 4.072 6.006 4.073 11.748 10.811 2.051 2.139 1.934 4.248t.351 5.098q.235.966.41 1.406.176.41.176 1.23 0 1.817-.732 3.077-.703 1.26-1.641.175-.146-.234-.088-.175.088.058-.058-.44-.235-.937 0-1.201-.235 0-.586-.82-.352-.85-.352-1.084 0-.352.117-.616v-.468q0-.235-.439-.235-.41 0-.528-.234-.117-.264-.117-.967v-1.201q0-1.318-1.377-2.227t-1.377-2.695q0-.967.586-.967.381 0 .381-.117t-.322-.234q-.293-.117-1.963-.117l-.498-.733q-.234-.586-.586-.469-.615.235-.85-.351-.234-.264-.585-1.465-.499-1.055-.733-1.055-.586-.615-1.553-.38-1.084.234-1.699-.352-.469-.469-.937-1.436-.733-.966-1.319-.966-.263 0-.498.234-1.084-.967-1.787-1.787-.849-1.084-2.051-1.553-1.67-.967-4.013-1.26-2.344-.322-4.395-.322-1.318 0-2.812.117-1.495.117-2.813.615 2.051.85 4.072 1.7 2.051.82 3.955 1.67 3.721 1.552 7.706 4.423 3.457 2.52 6.21 5.948 2.784 3.427 5.186 6.884.234.498.586.997.352.468.615 1.054.235.469.528 1.026.293.527.673 1.025 0 .469-.117.703-.263.732-.263.85 0 .234.41.469.439.234.791.234 2.05 1.201 3.603 2.724 1.553 1.495 3.487 2.813.585 1.553.644 3.193.088 1.612-.059 3.633-.82.117-1.142.791-.293.645-.293 1.26 0 .85.117 1.7.117.82.381 1.669.117.117.117.293t.117.41l-5.039 9.492q-.234-.234-.498-.234-.703.82-1.054 2.139-.381 1.084-.967 2.168-3.018 5.039-5.42 8.29-2.373 3.223-5.391 5.948-2.988 2.695-8.144 6.152-3.604 2.403-7.647 4.278l-7.969 3.662q-4.687 2.138-7.382 3.164-2.696 1.025-4.395 1.465-1.67.41-3.105.586-1.436.175-3.604.644m-21.943-75.586q3.955-4.687 8.877-8.525.468-.235.703-.235.264.117.732.117.352 0 .469-.117.264-.234.674-.41.41-.205.908-.322.703-.117 1.201-.586.586-.85.821-1.553 0-.498 1.318-1.465 3.486-2.373 7.734-3.925 4.278-1.582 8.35-2.784-2.402-.85-5.098-1.084t-5.332-.234q-5.156 0-10.312 1.201-5.157 1.201-8.584 4.278-3.428 3.047-3.428 8.672v.908q0 .41-.117.79-.117.47-.176.909-.059.41-.059.879 0 1.816 1.319 3.486m17.754 71.045q6.972-.38 11.045-1.201 4.072-.85 6.884-2.05 2.842-1.202 5.948-2.403.234-.469 1.787-1.729 1.582-1.26 3.193-2.46 1.611-1.202 1.992-1.32.821-.497 1.465-1.083.674-.586 1.289-1.201.586-.586 1.113-1.26.557-.674 1.172-1.26.235-.234.469-.234.117 0 .234.059t.381.175q6.944-6.006 10.899-12.187 3.955-6.182 6.474-14.942.264-.937.909-2.783.673-1.875 1.757-1.875.704 0 1.319.586.468.733.937.85.147-.117.147-.615 0-.82-1.201-1.553-1.202-.469-1.202-1.787 0-.616.118-.967.117-.235.117-.85 0-3.105-2.403-7.119-2.402-4.043-4.453-7.266-.234-.498-.527-.85-.293-.35-.557-.732l-1.054-1.435q-.147-.117-.44-.586-.293-.498-.176-.615-.966-1.084-1.875-2.139-.879-1.084-1.728-2.285-.235-.264-.41-.615-.176-.352-.41-.703l-.967-1.084q-1.201-1.084-3.78-2.754-2.578-1.7-5.595-3.428-2.989-1.758-5.772-2.871-2.754-1.143-4.424-1.143-1.201 0-4.277.908-3.047.88-6.123 1.963-3.047 1.084-4.365 1.787 0 .85-.82.967-3.135.615-4.747 2.783-1.611 2.14-4.13 4.424-.967.85-2.051.967-1.084.352-1.934 1.318-1.318 1.67-2.637 2.52-.82.469-1.318 1.084-.469.586-.703 1.201-.264.586-.381.469t-.703-.117q-.615 0-.615.85v1.318q-.938.585-1.436 1.318.498.469.908 1.025.411.528.645 1.114.498 1.084 1.816 2.05.469.352.469.733 0 1.054-.967 1.054-.351 0-1.377-.644-.996-.674-1.963-1.494-.966-.85-1.435-1.084-.381.586-.674 1.318-.293.703-.527 1.436-.498 1.552-1.817 2.52-1.552 1.2-2.05 1.581-.469.352-.938 2.373-.234 1.319-.674 3.428-.41 2.11-1.728 2.93 0 2.783-.85 4.922-.82 2.168-.82 4.922 0 2.52.879 5.302.908 2.754 1.728 5.274.85 2.52.85 4.54 0 .968-.586 1.32-.615.614-.615 1.318 0 .117.117.263l1.084.234q1.318-.85 1.142-.234-.175.586-.175 1.553.234.469.117 1.787t.351 1.201q1.084 0 1.582.85 2.871 4.57 7.207 7.91 2.637 2.168 5.274 2.9 2.637.703 5.859 1.172.615.147.733.381"/></g></svg>